<?xml version="1.0" encoding="iso-8859-1"?>
<!-- Generator: Adobe Illustrator 19.0.0, SVG Export Plug-In . SVG Version: 6.00 Build 0)  -->
<svg version="1.1" id="Layer_1" xmlns="http://www.w3.org/2000/svg" xmlns:xlink="http://www.w3.org/1999/xlink" x="0px" y="0px"
	 viewBox="0 0 512 512" style="enable-background:new 0 0 512 512;" xml:space="preserve">
<g>
	<g>
		<g>
			<path d="M488.589,188.817L292.536,14.908c-20.531-19.789-52.727-19.78-73.114-0.171l-65.86,59.844V51.2h8.533
				c4.719,0,8.533-3.823,8.533-8.533V8.533c0-4.719-3.814-8.533-8.533-8.533h-102.4c-4.719,0-8.533,3.814-8.533,8.533v34.133
				c0,4.71,3.814,8.533,8.533,8.533h8.533v98.5l-44.774,38.895c-5.973,5.291-7.996,13.534-5.163,20.992s9.813,12.279,17.801,12.279
				h32.137V460.8h-8.533c-4.719,0-8.533,3.814-8.533,8.533v34.133c0,4.71,3.814,8.533,8.533,8.533h392.533
				c4.719,0,8.533-3.823,8.533-8.533v-34.133c0-4.719-3.814-8.533-8.533-8.533h-8.533V221.867h32.341
				c7.927,0,14.865-4.787,17.681-12.203C496.534,202.257,494.512,194.074,488.589,188.817z M356.664,339.567
				c-16.64,16.631-93.978,91.162-94.754,91.913l-5.939,5.717l-5.914-5.734c-0.776-0.751-77.713-75.273-94.344-91.895
				c-36.856-36.864-27.989-86.374-7.416-107.938c17.732-18.586,36.105-27.622,56.132-27.622c20.54,0,39.253,11.23,51.567,30.182
				c12.373-18.944,31.223-30.182,51.951-30.182c20.139,0,39.04,9.318,56.201,27.682C384.466,253.466,393.17,303.061,356.664,339.567
				z"/>
			<path d="M307.947,221.075c-22.357,0-37.402,18.005-44.015,34.859l-7.945,20.25l-7.945-20.25
				c-6.613-16.853-21.538-34.859-43.614-34.859c-15.121,0-29.44,7.305-43.785,22.332c-15.744,16.512-22.033,54.921,7.134,84.096
				c13.824,13.807,69.786,68.087,88.226,85.965c18.517-17.86,74.778-72.158,88.593-85.973c28.902-28.894,22.673-67.439,7.066-84.156
				C337.677,228.362,323.384,221.075,307.947,221.075z"/>
		</g>
	</g>
</g>
<g>
</g>
<g>
</g>
<g>
</g>
<g>
</g>
<g>
</g>
<g>
</g>
<g>
</g>
<g>
</g>
<g>
</g>
<g>
</g>
<g>
</g>
<g>
</g>
<g>
</g>
<g>
</g>
<g>
</g>
</svg>
