<svg height="512pt" viewBox="0 0 512.02191 512" width="512pt" xmlns="http://www.w3.org/2000/svg"><g fill="#14a085"><path d="m123.609375 512.011719c-2.78125 0-5.394531-1.308594-7.0625-3.53125-15.371094-20.507813-13.402344-44.898438 5.542969-68.707031 3.039062-3.8125 8.59375-4.445313 12.40625-1.40625 3.816406 3.035156 4.445312 8.59375 1.410156 12.40625-13.871094 17.410156-15.625 33.261718-5.234375 47.113281 2.003906 2.675781 2.328125 6.253906.832031 9.246093-1.496094 2.988282-4.550781 4.878907-7.894531 4.878907zm0 0"/><path d="m388.78125 512.011719c-3.34375 0-6.402344-1.890625-7.898438-4.878907-1.492187-2.992187-1.171874-6.570312.835938-9.246093 10.441406-13.894531 8.632812-29.792969-5.386719-47.253907-3.050781-3.804687-2.441406-9.359374 1.359375-12.410156 3.804688-3.054687 9.359375-2.445312 12.414063 1.359375 19.144531 23.832031 21.183593 48.339844 5.738281 68.914063-1.671875 2.21875-4.289062 3.519531-7.0625 3.515625zm0 0"/><path d="m100.65625 421.617188c-15.714844 7.589843-30.011719 23.304687-30.011719 55.082031 0 19.503906-15.8125 35.3125-35.3125 35.3125s-35.3085935-15.808594-35.3085935-35.3125c0-22.773438 0-84.65625 61.7031245-107.164063zm0 0"/><path d="m450.316406 369.535156c61.707032 22.507813 61.707032 84.390625 61.707032 107.164063 0 19.503906-15.808594 35.3125-35.3125 35.3125-19.5 0-35.308594-15.808594-35.308594-35.3125 0-31.777344-14.300782-47.492188-30.015625-55.082031zm0 0"/></g><path d="m476.710938 264.839844c0 58.527344-23.25 114.664062-64.636719 156.050781s-97.523438 64.636719-156.050781 64.636719c-2.921876 0-5.914063-.085938-8.828126-.175782-77.144531-3.070312-147.070312-46.238281-184.386718-113.824218-37.3125-67.585938-36.589844-149.761719 1.910156-216.679688l20.214844-29.398437c7.371094-9.078125 15.457031-17.550781 24.1875-25.332031l35.398437-25.777344c31.246094-18.277344 66.507813-28.585938 102.675781-30.015625 2.914063-.085938 5.90625-.175781 8.828126-.175781 39.1875-.03125 77.671874 10.390624 111.492187 30.191406l35.398437 25.777344c8.726563 7.78125 16.816407 16.253906 24.1875 25.332031l20.207032 29.398437c19.316406 33.433594 29.460937 71.378906 29.402344 109.992188zm0 0" fill="#24ae5f"/><path d="m459.054688 264.839844c.0625 118.472656-93.480469 215.832031-211.859376 220.511718-77.144531-3.070312-147.070312-46.238281-184.386718-113.824218-37.3125-67.585938-36.589844-149.761719 1.910156-216.679688l20.214844-29.398437c7.371094-9.078125 15.457031-17.550781 24.1875-25.332031l35.398437-25.777344c31.246094-18.277344 66.507813-28.585938 102.675781-30.015625 36.164063 1.433593 71.421876 11.738281 102.664063 30.015625l35.398437 25.777344c8.726563 7.78125 16.816407 16.253906 24.1875 25.332031l20.207032 29.398437c19.316406 33.433594 29.460937 71.378906 29.402344 109.992188zm0 0" fill="#4fba6f"/><path d="m145.15625 103.992188c3.621094-1.785157 6.304688-5.035157 7.375-8.925782 1.066406-3.894531.421875-8.054687-1.777344-11.441406-1.765625-2.796875-3.894531-5.921875-6.234375-9.285156-19.773437-28.691406-57.988281-74.3281252-100.359375-74.3281252-61.792968 0-52.964844 79.4492192-8.828125 70.6210932 28.601563-5.738281 57.203125 14.5625 73.800781 29.484376 2.9375 2.648437 5.507813 5.136718 7.625 7.28125 4.304688 4.316406 10.890626 5.382812 16.339844 2.648437zm0 0" fill="#14a085"/><path d="m104.847656 153.089844c2.367188-3.339844 3.167969-7.539063 2.195313-11.511719-.96875-3.972656-3.613281-7.332031-7.25-9.207031-4.273438-2.1875-9.316407-4.605469-14.859375-6.921875-20.742188-8.738281-48.460938-16.066407-68.324219-5.292969-35.929687 19.507812-5.738281 62.761719 17.125 43.78125 8.898437-6.652344 19.898437-9.882812 30.984375-9.089844 8.386719.273438 16.707031 1.550782 24.789062 3.804688 5.773438 1.585937 11.925782-.644532 15.339844-5.5625zm0 0" fill="#14a085"/><path d="m366.859375 103.992188c-3.617187-1.785157-6.300781-5.035157-7.371094-8.925782-1.070312-3.894531-.421875-8.054687 1.777344-11.441406 1.765625-2.796875 3.890625-5.921875 6.238281-9.285156 19.773438-28.691406 58.007813-74.3281252 100.378906-74.3281252 61.792969 0 52.964844 79.4492192 8.828126 70.6210932-28.601563-5.738281-57.203126 14.5625-73.796876 29.484376-2.949218 2.648437-5.519531 5.136718-7.636718 7.28125-4.304688 4.316406-10.894532 5.382812-16.339844 2.648437zm0 0" fill="#14a085"/><path d="m407.167969 153.089844c-2.363281-3.339844-3.164063-7.539063-2.195313-11.511719.972656-3.972656 3.617188-7.332031 7.253906-9.207031 4.273438-2.1875 9.320313-4.605469 14.863282-6.921875 20.746094-8.738281 48.464844-16.066407 68.328125-5.292969 35.917969 19.507812 5.738281 62.761719-17.136719 43.78125-8.894531-6.652344-19.890625-9.878906-30.972656-9.089844-8.390625.273438-16.714844 1.550782-24.796875 3.804688-5.777344 1.585937-11.925781-.644532-15.34375-5.5625zm0 0" fill="#14a085"/><path d="m353.125 203.046875c.042969 32.835937-16.578125 63.449219-44.136719 81.300781h-105.933593c-34.667969-22.535156-51.242188-64.5625-41.289063-104.695312 9.953125-40.132813 44.25-69.546875 85.429687-73.269532 2.914063-.265624 5.824219-.441406 8.828126-.441406 25.757812-.011718 50.464843 10.210938 68.675781 28.425782 18.214843 18.214843 28.441406 42.921874 28.425781 68.679687zm0 0" fill="#e6e7e8"/><path d="m335.46875 203.046875c.042969 32.835937-16.578125 63.449219-44.136719 81.300781h-88.277343c-34.667969-22.535156-51.242188-64.5625-41.289063-104.695312 9.953125-40.132813 44.25-69.546875 85.429687-73.269532 50.007813 4.515626 88.304688 46.449219 88.273438 96.664063zm0 0" fill="#fff"/><path d="m308.988281 203.046875c0 29.25-23.714843 52.964844-52.964843 52.964844-29.253907 0-52.96875-23.714844-52.96875-52.964844 0-29.253906 23.714843-52.96875 52.96875-52.96875 29.25 0 52.964843 23.714844 52.964843 52.96875zm0 0" fill="#c03a2b"/><path d="m291.332031 203.046875c0 19.5-15.808593 35.308594-35.308593 35.308594-19.503907 0-35.3125-15.808594-35.3125-35.308594 0-19.503906 15.808593-35.3125 35.3125-35.3125 19.5 0 35.308593 15.808594 35.308593 35.3125zm0 0" fill="#2c2f38"/><path d="m256.023438 300.148438v-17.65625c-.03125-9.738282-7.917969-17.625-17.65625-17.652344h-17.65625c-7.355469.011718-13.933594 4.582031-16.507813 11.472656-.785156 1.964844-1.175781 4.066406-1.148437 6.179688v24.453124zm0 0" fill="#f9eab0"/><path d="m247.195312 300.148438v-17.65625c0-9.707032-5.296874-17.652344-11.769531-17.652344h-11.773437c-4.996094 0-9.359375 4.765625-11 11.472656-.53125 2.019531-.789063 4.097656-.769532 6.179688v24.453124zm0 0" fill="#f5efca"/><path d="m308.988281 306.945312v-24.453124c.027344-2.113282-.363281-4.214844-1.148437-6.179688-2.574219-6.890625-9.152344-11.460938-16.507813-11.472656h-17.65625c-9.738281.027344-17.625 7.914062-17.652343 17.652344v17.65625zm0 0" fill="#f5efca"/><path d="m308.988281 306.945312v-24.453124c.027344-2.113282-.363281-4.214844-1.148437-6.179688-2.574219-6.890625-9.152344-11.460938-16.507813-11.472656h-17.65625c-9.738281.027344-17.625 7.914062-17.652343 17.652344v17.65625zm0 0" fill="#f9eab0"/><path d="m300.160156 306.945312v-24.453124c.023438-2.082032-.234375-4.160157-.769531-6.179688-1.640625-6.707031-6-11.472656-10.996094-11.472656h-11.777343c-6.472657 0-11.769532 7.945312-11.769532 17.652344v17.65625zm0 0" fill="#f5efca"/><path d="m256.023438 361.941406c-28.691407 0-39.644532-9.507812-41.554688-11.414062-3.453125-3.402344-3.519531-8.953125-.144531-12.433594s8.925781-3.589844 12.433593-.242188c.496094.40625 8.308594 6.433594 29.265626 6.433594 21.574218 0 29.21875-6.390625 29.289062-6.453125 3.609375-3.136719 9.046875-2.894531 12.359375.558594 3.265625 3.402344 3.21875 8.792969-.105469 12.136719-1.898437 1.90625-12.855468 11.414062-41.542968 11.414062zm0 0" fill="#24ae5f"/><path d="m388.4375 388.425781c-4.136719 0-7.71875-2.875-8.617188-6.914062-.679687-2.921875-18.027343-72.535157-123.796874-72.535157-106.453126 0-123.640626 71.8125-123.789063 72.535157-1.058594 4.765625-5.777344 7.769531-10.542969 6.710937-4.761718-1.058594-7.765625-5.777344-6.707031-10.542968.203125-.863282 20.585937-86.359376 141.039063-86.359376 120.449218 0 140.832031 85.496094 141.035156 86.359376.507812 2.289062.085937 4.683593-1.171875 6.65625-1.257813 1.976562-3.25 3.371093-5.535157 3.875-.628906.140624-1.273437.210937-1.914062.214843zm0 0" fill="#802d40"/><path d="m247.195312 167.734375c0 9.75-7.90625 17.65625-17.65625 17.65625s-17.65625-7.90625-17.65625-17.65625 7.90625-17.65625 17.65625-17.65625 17.65625 7.90625 17.65625 17.65625zm0 0" fill="#fff"/></svg>