<svg height="511pt" viewBox="0 -8 511.99685 511" width="511pt" xmlns="http://www.w3.org/2000/svg"><path d="m503.464844 299.164062c0 136.703126-110.761719 196.269532-247.464844 196.269532-2.902344 0-5.71875 0-8.535156-.085938-132.777344-2.476562-238.933594-62.378906-238.933594-196.183594.605469-42.503906 9.804688-84.449218 27.050781-123.304687l113.492188-141.398437c29.183593-19.847657 63.167969-31.492188 98.390625-33.707032 2.816406-.171875 5.71875-.253906 8.535156-.253906 38.140625.53125 75.277344 12.316406 106.75 33.875l113.492188 141.058594c17.332031 38.984375 26.59375 81.074218 27.222656 123.730468zm0 0" fill="#f29c1f"/><path d="m486.398438 299.164062c0 133.804688-106.15625 193.707032-238.933594 196.183594-132.777344-2.476562-238.933594-62.378906-238.933594-196.183594.605469-42.503906 9.804688-84.449218 27.050781-123.304687l113.492188-141.398437c29.183593-19.847657 63.167969-31.492188 98.390625-33.707032 35.164062 2.1875 69.089844 13.800782 98.21875 33.621094l113.492187 141.058594c17.332031 38.984375 26.59375 81.074218 27.222657 123.730468zm0 0" fill="#f0c419"/><path d="m187.730469 68.765625-47.957031 51.113281c-22.441407-59.476562-84.648438-97.109375-130.132813-119.378906 135.679687.339844 178.089844 68.265625 178.089844 68.265625zm0 0" fill="#f0c419"/><path d="m132.09375 128.070312-60.585938 64.683594c-3.839843 4.113282-9.449218 6.085938-15.019531 5.292969-4.042969-.523437-7.734375-2.570313-10.324219-5.71875-35.753906-44.375-38.398437-140.289063-37.972656-177.066406.085938-9.214844.339844-14.761719.339844-14.761719h1.109375c42.582031 20.820312 99.753906 55.125 125.355469 108.199219 3.144531 6.4375 1.988281 14.140625-2.902344 19.371093zm0 0" fill="#df4d60"/><path d="m115.453125 135.070312-58.964844 62.976563c-4.042969-.523437-7.734375-2.570313-10.324219-5.71875-35.753906-44.375-38.398437-140.289063-37.972656-177.066406 40.105469 21.246093 87.464844 53.503906 110.164063 100.523437 3.09375 6.410156 1.941406 14.0625-2.902344 19.285156zm0 0" fill="#ff5364"/><path d="m502.355469.5c-45.566407 22.269531-107.945313 60.074219-130.304688 119.722656l-48.210937-51.457031s42.496094-68.011719 178.515625-68.265625zm0 0" fill="#f0c419"/><path d="m465.40625 192.328125c-2.503906 3.074219-6.0625 5.113281-9.984375 5.71875-5.679687.882813-11.429687-1.097656-15.359375-5.292969l-60.332031-64.425781c-4.851563-5.101563-6.070313-12.660156-3.070313-19.03125 25.429688-53.417969 82.945313-87.890625 125.695313-108.796875h.683593s.339844 5.714844.339844 15.1875c.425782 37.121094-2.304687 132.4375-37.972656 176.640625zm0 0" fill="#df4d60"/><path d="m465.40625 192.328125c-2.503906 3.074219-6.0625 5.113281-9.984375 5.71875l-58.625-62.636719c-4.847656-5.101562-6.070313-12.660156-3.070313-19.027344 22.355469-47.019531 69.546876-79.363281 109.652344-100.695312.425782 37.121094-2.304687 132.4375-37.972656 176.640625zm0 0" fill="#ff5364"/><path d="m358.398438 239.433594c0 56.574218-45.824219 76.796875-102.398438 76.796875-2.902344 0-5.71875-.085938-8.535156-.167969-52.566406-1.964844-93.867188-22.957031-93.867188-76.628906 0-53.675782 41.300782-120.832032 93.867188-127.40625 2.824218-.414063 5.679687-.613282 8.535156-.59375 56.574219 0 102.398438 71.421875 102.398438 128zm0 0" fill="#e6e7e8"/><path d="m341.332031 239.433594c0 53.671875-41.300781 74.664062-93.867187 76.628906-52.566406-1.964844-93.867188-22.957031-93.867188-76.628906 0-53.675782 41.300782-120.832032 93.867188-127.40625 52.566406 6.574218 93.867187 73.730468 93.867187 127.40625zm0 0" fill="#fff"/><path d="m207.929688 452.765625c-1.355469 0-2.722657-.058594-4.105469-.1875-16.210938-1.546875-29.867188-11.855469-40.566407-30.660156-2.203124-4.078125-.75-9.167969 3.273438-11.46875 4.023438-2.296875 9.148438-.964844 11.539062 3.003906 7.828126 13.652344 17.015626 21.128906 27.308594 22.125 17.859375 1.707031 36.0625-15.078125 42.070313-21.238281v-38.375c0-4.710938 3.820312-8.53125 8.53125-8.53125 4.714843 0 8.535156 3.820312 8.535156 8.53125v41.726562c0 2.039063-.730469 4.011719-2.058594 5.558594-1.058593 1.253906-25.632812 29.515625-54.527343 29.515625zm0 0" fill="#802d40"/><path d="m304.066406 452.765625c-28.894531 0-53.46875-28.269531-54.542968-29.527344-1.328126-1.542969-2.054688-3.511719-2.058594-5.546875v-41.726562c0-4.710938 3.820312-8.53125 8.535156-8.53125 4.710938 0 8.53125 3.820312 8.53125 8.53125v38.398437c5.972656 6.164063 24.125 23.042969 42.070312 21.242188 10.308594-1 19.5-8.441407 27.304688-22.128907 1.472656-2.722656 4.308594-4.4375 7.402344-4.472656 3.097656-.039062 5.972656 1.601563 7.511718 4.289063 1.539063 2.6875 1.5 5.996093-.097656 8.648437-10.746094 18.773438-24.390625 29.117188-40.570312 30.660156-1.355469.113282-2.730469.164063-4.085938.164063zm0 0" fill="#802d40"/><path d="m324.265625 333.382812c0 14.25-17.664063 31.488282-42.667969 38.828126-5.539062 1.65625-11.226562 2.769531-16.980468 3.328124-2.816407.253907-5.71875.425782-8.617188.425782-2.902344 0-5.804688-.171875-8.621094-.425782-5.753906-.558593-11.441406-1.671874-16.980468-3.328124-25.003907-7.339844-42.667969-24.578126-42.667969-38.828126 0-18.859374 30.550781-17.066406 68.269531-17.066406 37.714844 0 68.265625-1.792968 68.265625 17.066406zm0 0" fill="#d75e72"/><path d="m247.464844 358.898438v15.359374c.015625.429688-.015625.859376-.085938 1.28125-5.753906-.558593-11.441406-1.671874-16.980468-3.328124v-13.3125c0-4.710938 3.820312-8.535157 8.535156-8.535157 4.710937 0 8.53125 3.824219 8.53125 8.535157zm0 0" fill="#802d40"/><path d="m281.597656 358.898438v13.3125c-5.539062 1.65625-11.226562 2.769531-16.980468 3.328124-.070313-.421874-.097657-.851562-.085938-1.28125v-15.359374c0-4.710938 3.820312-8.535157 8.535156-8.535157 4.710938 0 8.53125 3.824219 8.53125 8.535157zm0 0" fill="#802d40"/><path d="m324.265625 230.898438c0 37.703124-30.566406 68.265624-68.265625 68.265624-37.703125 0-68.269531-30.5625-68.269531-68.265624 0-37.703126 30.566406-68.265626 68.269531-68.265626 37.699219 0 68.265625 30.5625 68.265625 68.265626zm0 0" fill="#ff5364"/><path d="m307.199219 230.898438c0 28.277343-22.921875 51.199218-51.199219 51.199218s-51.203125-22.921875-51.203125-51.199218c0-28.277344 22.925781-51.199219 51.203125-51.199219s51.199219 22.921875 51.199219 51.199219zm0 0" fill="#2c2f38"/><g fill="#e57e25"><path d="m17.066406 495.433594c-.472656 0-.945312-.039063-1.410156-.121094-2.230469-.371094-4.226562-1.617188-5.539062-3.457031-1.316407-1.84375-1.847657-4.132813-1.472657-6.363281 17.875-107.316407 142.503907-126.296876 143.734375-126.507813 4.664063-.671875 8.992188 2.566406 9.664063 7.230469.671875 4.667968-2.566407 8.992187-7.234375 9.664062-1.132813.164063-113.492188 17.519532-129.339844 112.425782-.6875 4.109374-4.238281 7.121093-8.402344 7.128906zm0 0"/><path d="m8.53125 384.5c-3.449219-.003906-6.5625-2.082031-7.882812-5.269531-1.320313-3.1875-.5898442-6.859375 1.851562-9.296875 53.476562-53.488282 131.675781-45.5 134.96875-45.117188 4.6875.515625 8.066406 4.730469 7.550781 9.417969-.515625 4.683594-4.734375 8.0625-9.417969 7.546875-.734374-.09375-73.464843-7.363281-121.035156 40.21875-1.601562 1.597656-3.773437 2.496094-6.035156 2.5zm0 0"/><path d="m494.933594 495.433594c-4.167969-.007813-7.71875-3.019532-8.40625-7.128906-15.871094-95.136719-128.207032-112.261719-129.339844-112.425782-4.667969-.667968-7.90625-4.992187-7.238281-9.660156.671875-4.664062 4.996093-7.902344 9.660156-7.234375 1.253906.179687 125.859375 19.191406 143.734375 126.507813.375 2.230468-.15625 4.519531-1.472656 6.363281-1.3125 1.839843-3.308594 3.085937-5.539063 3.457031-.460937.082031-.929687.121094-1.398437.121094zm0 0"/><path d="m503.464844 384.5c-2.261719-.003906-4.433594-.902344-6.03125-2.5-47.746094-47.746094-120.320313-40.296875-121.03125-40.21875-3.027344.335938-6.007813-.972656-7.8125-3.429688-1.808594-2.457031-2.164063-5.6875-.941406-8.480468 1.226562-2.792969 3.847656-4.71875 6.878906-5.054688 3.300781-.367187 81.484375-8.371094 134.972656 45.117188 2.4375 2.4375 3.167969 6.109375 1.847656 9.296875-1.320312 3.1875-4.433594 5.265625-7.882812 5.269531zm0 0"/></g><path d="m256 196.765625c0 18.851563-15.285156 34.132813-34.136719 34.132813-18.847656 0-34.132812-15.28125-34.132812-34.132813s15.285156-34.132813 34.132812-34.132813c18.851563 0 34.136719 15.28125 34.136719 34.132813zm0 0" fill="#fff"/></svg>