<svg height="512pt" viewBox="0 -9 512 512" width="512pt" xmlns="http://www.w3.org/2000/svg"><path d="m503.464844 375.464844c0 108.375-110.761719 119.46875-247.464844 119.46875-2.902344 0-5.71875 0-8.535156-.085938-132.777344-.425781-238.929688-13.3125-238.929688-119.382812.074219-12.292969 1.332032-24.550782 3.753906-36.605469l58.539063-127.488281c7.59375-10.324219 15.773437-20.210938 24.488281-29.609375 17.710938-19.097657 37.917969-35.71875 60.074219-49.410157 10.902344-6.625 22.351563-12.304687 34.21875-16.980468h132.78125c11.867187 4.675781 23.316406 10.355468 34.21875 16.980468 22.15625 13.691407 42.363281 30.3125 60.074219 49.410157 8.714844 9.398437 16.894531 19.285156 24.488281 29.609375l58.539063 127.402344v.085937c2.421874 12.054687 3.679687 24.3125 3.753906 36.605469zm0 0" fill="#90bae1"/><path d="m486.398438 375.464844c0 106.070312-106.152344 118.957031-238.933594 119.382812-132.777344-.425781-238.929688-13.3125-238.929688-119.382812.074219-12.292969 1.332032-24.550782 3.753906-36.605469l58.539063-127.488281c7.59375-10.324219 15.773437-20.210938 24.488281-29.609375 17.710938-19.097657 37.917969-35.71875 60.074219-49.410157 10.902344-6.625 22.351563-12.304687 34.21875-16.980468h115.714844c11.867187 4.675781 23.316406 10.355468 34.21875 16.980468 22.15625 13.691407 42.363281 30.3125 60.074219 49.410157 8.714843 9.398437 16.890624 19.285156 24.488281 29.609375l58.539062 127.402344v.085937c2.421875 12.054687 3.679688 24.3125 3.753907 36.605469zm0 0" fill="#b0d3f0"/><path d="m76.800781 213.332031c-39.613281-15.84375-68.265625 25.601563-68.265625 93.867188 0 109.277343 85.332032 8.535156 153.597656 42.667969 46.199219 23.089843 65.042969 3.207031 72.398438-12.066407 1.25-2.636719 1.0625-5.734375-.496094-8.203125-1.554687-2.46875-4.265625-3.972656-7.183594-3.984375-19.15625-1.261719-36.695312-11.179687-47.652343-26.945312-34.132813-42.667969-51.199219 0-93.867188-8.535157" fill="#b0d3f0"/><path d="m435.199219 213.332031c39.613281-15.84375 68.265625 25.601563 68.265625 93.867188 0 109.277343-85.332032 8.535156-153.597656 42.667969-46.199219 23.089843-65.042969 3.207031-72.398438-12.066407-1.25-2.636719-1.0625-5.734375.496094-8.203125 1.554687-2.46875 4.265625-3.972656 7.183594-3.984375 19.15625-1.261719 36.695312-11.179687 47.652343-26.945312 34.132813-42.667969 51.199219 0 93.867188-8.535157" fill="#b0d3f0"/><g fill="#285680"><path d="m179.199219 170.667969c.03125 21.425781-15.832031 39.550781-37.070313 42.359375-21.242187 2.808594-41.273437-10.570313-46.8125-31.265625 17.710938-19.097657 37.917969-35.71875 60.074219-49.410157 14.570313 7.210938 23.796875 22.058594 23.808594 38.316407zm0 0"/><path d="m416.683594 181.761719c-5.132813 18.957031-22.546875 31.960937-42.183594 31.503906-19.636719-.460937-36.421875-14.265625-40.660156-33.445313-4.242188-19.175781 5.15625-38.773437 22.769531-47.46875 22.15625 13.691407 42.363281 30.3125 60.074219 49.410157zm0 0"/><path d="m153.601562 392.535156c0 9.425782-7.640624 17.066406-17.066406 17.066406-9.425781 0-17.070312-7.640624-17.070312-17.066406 0-9.425781 7.644531-17.070312 17.070312-17.070312 9.425782 0 17.066406 7.644531 17.066406 17.070312zm0 0"/><path d="m384 392.535156c0 9.425782-7.640625 17.066406-17.066406 17.066406-9.425782 0-17.066406-7.640624-17.066406-17.066406 0-9.425781 7.640624-17.070312 17.066406-17.070312 9.425781 0 17.066406 7.644531 17.066406 17.070312zm0 0"/></g><path d="m281.601562 221.867188h-51.203124c-18.851563 0-34.132813-15.28125-34.132813-34.132813 0-4.714844 3.820313-8.535156 8.535156-8.535156 4.710938 0 8.53125 3.820312 8.53125 8.535156 0 9.425781 7.640625 17.066406 17.066407 17.066406h51.203124c9.425782 0 17.066407-7.640625 17.066407-17.066406 0-4.714844 3.820312-8.535156 8.53125-8.535156 4.714843 0 8.535156 3.820312 8.535156 8.535156 0 18.851563-15.28125 34.132813-34.132813 34.132813zm0 0" fill="#802d40"/><path d="m199.40625 368.921875c-14.386719-.589844-28.445312-4.480469-41.085938-11.375-25.15625-12.570313-54.136718-4.335937-79.710937 2.933594-23.484375 6.675781-45.679687 12.988281-61.320313 1.179687-11.792968-8.953125-17.289062-26.242187-17.289062-54.460937 0-47.027344 12.9375-82.773438 35.488281-98.011719 13.171875-8.882812 30.003907-10.3125 44.484375-3.78125 4.378906 1.753906 6.507813 6.722656 4.753906 11.101562-1.753906 4.378907-6.722656 6.507813-11.101562 4.753907-9.226562-4.367188-20.0625-3.585938-28.570312 2.054687-17.527344 11.871094-27.988282 43.222656-27.988282 83.882813 0 21.804687 3.542969 35.523437 10.511719 40.796875 8.851563 6.675781 26.234375 1.707031 46.371094-3.976563 27.144531-7.679687 60.921875-17.320312 92-1.789062 18.148437 9.078125 32.929687 11.765625 43.9375 8.003906 7.636719-2.808594 13.773437-8.648437 16.953125-16.136719-21.757813-1.167968-41.78125-12.261718-54.304688-30.097656-16.714844-20.898438-25.984375-17.519531-42.804687-11.382812-14.4375 6.476562-30.476563 8.523437-46.078125 5.878906-3.078125-.507813-5.632813-2.652344-6.667969-5.59375-1.03125-2.941406-.378906-6.214844 1.707031-8.53125 2.085938-2.320313 5.269532-3.316406 8.304688-2.601563 12.535156 1.964844 25.367187.160157 36.875-5.1875 17.628906-6.449219 37.605468-13.710937 61.984375 16.75 9.398437 13.773438 24.5625 22.515625 41.191406 23.742188 5.894531.144531 11.316406 3.273437 14.386719 8.308593 2.988281 4.890626 3.277344 10.964844.777344 16.121094-5.167969 11.605469-14.851563 20.597656-26.8125 24.882813-5.15625 1.71875-10.558594 2.578125-15.992188 2.535156zm0 0" fill="#90bae1"/><path d="m312.59375 368.921875c-5.4375.035156-10.84375-.832031-16-2.558594-11.960938-4.289062-21.648438-13.277343-26.8125-24.886719-2.503906-5.152343-2.210938-11.226562.777344-16.117187 3.070312-5.035156 8.484375-8.164063 14.378906-8.3125 16.632812-1.222656 31.796875-9.964844 41.199219-23.738281 24.371093-30.480469 44.371093-23.195313 61.984375-16.75 11.503906 5.34375 24.339844 7.148437 36.871094 5.1875 4.539062-.746094 8.851562 2.238281 9.753906 6.746094.902344 4.507812-1.929688 8.921874-6.40625 9.976562-15.605469 2.652344-31.640625.605469-46.082032-5.878906-16.816406-6.132813-26.085937-9.511719-42.800781 11.382812-12.476562 17.761719-32.375 28.859375-54.042969 30.140625 3.007813 7.5 9.070313 13.363281 16.664063 16.121094 11 3.761719 25.789063 1.074219 43.941406-8.003906 31.070313-15.53125 64.851563-5.921875 91.996094 1.789062 20.121094 5.710938 37.503906 10.652344 46.371094 3.976563 7.003906-5.273438 10.546875-18.992188 10.546875-40.796875 0-40.660157-10.460938-72.011719-27.988282-83.882813-8.507812-5.644531-19.34375-6.425781-28.570312-2.054687-4.378906 1.753906-9.347656-.375-11.101562-4.753907-1.753907-4.378906.375-9.347656 4.753906-11.101562 14.480468-6.535156 31.3125-5.105469 44.484375 3.78125 22.550781 15.238281 35.488281 50.984375 35.488281 98.011719 0 28.21875-5.496094 45.507812-17.289062 54.417969-15.640626 11.820312-37.828126 5.496093-61.320313-1.175782-25.601563-7.273437-54.554687-15.507812-79.710937-2.9375-12.636719 6.90625-26.695313 10.816406-41.085938 11.417969zm0 0" fill="#90bae1"/><path d="m85.332031 426.667969c0 18.851562-15.28125 34.132812-34.132812 34.132812h-.597657c-14.601562-9.441406-26.136718-22.933593-33.195312-38.828125 2.523438-17.710937 18.296875-30.472656 36.148438-29.238281 17.847656 1.234375 31.714843 16.039063 31.777343 33.933594zm0 0" fill="#285680"/><path d="m494.59375 421.972656c-7.058594 15.894532-18.59375 29.386719-33.195312 38.828125h-.597657c-18.246093.007813-33.269531-14.328125-34.113281-32.554687-.847656-18.222656 12.789062-33.890625 30.957031-35.566406 18.164063-1.679688 34.4375 11.222656 36.949219 29.292968zm0 0" fill="#285680"/><path d="m332.800781 76.800781c0 42.414063-34.386719 76.800781-76.800781 76.800781s-76.800781-34.386718-76.800781-76.800781c0-42.417969 34.386719-76.800781 76.800781-76.800781s76.800781 34.382812 76.800781 76.800781zm0 0" fill="#b0d3f0"/><path d="m324.265625 76.800781c0 37.703125-30.5625 68.265625-68.265625 68.265625-2.851562.003906-5.703125-.167968-8.535156-.511718-34.214844-4.214844-59.917969-33.277344-59.917969-67.753907 0-34.476562 25.703125-63.542969 59.917969-67.753906 2.832031-.34375 5.683594-.515625 8.535156-.511719 37.703125 0 68.265625 30.5625 68.265625 68.265625zm0 0" fill="#e6e7e8"/><path d="m307.199219 76.800781c0-37.421875-26.742188-67.753906-59.734375-67.753906-32.988282 0-59.730469 30.332031-59.730469 67.753906 0 37.417969 26.742187 67.753907 59.730469 67.753907 32.992187 0 59.734375-30.335938 59.734375-67.753907zm0 0" fill="#fff"/><path d="m298.667969 76.800781c0 23.5625-19.105469 42.664063-42.667969 42.664063s-42.667969-19.101563-42.667969-42.664063c0-23.566406 19.105469-42.667969 42.667969-42.667969s42.667969 19.101563 42.667969 42.667969zm0 0" fill="#d75e72"/><path d="m281.601562 76.800781c0 14.136719-11.464843 25.597657-25.601562 25.597657s-25.601562-11.460938-25.601562-25.597657c0-14.140625 11.464843-25.601562 25.601562-25.601562s25.601562 11.460937 25.601562 25.601562zm0 0" fill="#2c2f38"/><path d="m247.464844 51.199219c0 9.425781-7.640625 17.066406-17.066406 17.066406-9.425782 0-17.066407-7.640625-17.066407-17.066406s7.640625-17.066407 17.066407-17.066407c9.425781 0 17.066406 7.640626 17.066406 17.066407zm0 0" fill="#fff"/></svg>