<svg height="512pt" viewBox="0 0 512.06284 512" width="512pt" xmlns="http://www.w3.org/2000/svg"><path d="m133.6875 43.421875c-21.515625-28.25-55.339844-44.386719-90.835938-43.34375-70.621093 0-44.136718 97.105469 8.828126 52.964844 29.132812-24.273438 36.898437 2.207031 37.960937 30.898437v.089844zm0 0" fill="#f29c1f"/><path d="m422.402344 84.03125v-.089844c1.058594-28.691406 8.828125-55.171875 37.960937-30.898437 52.964844 44.140625 79.445313-52.964844 8.828125-52.964844-35.5-1.042969-69.320312 15.09375-90.835937 43.34375zm0 0" fill="#f29c1f"/><path d="m512.039062 309.042969c.414063 27.164062-4.566406 54.140625-14.652343 79.363281-35.136719 85.449219-129.945313 123.671875-241.347657 123.671875-2.382812 0-4.855468 0-7.238281-.085937h-3.179687c-106.8125-2.382813-196.855469-40.785157-230.929688-123.585938-10.085937-25.222656-15.070312-52.199219-14.6523435-79.363281.1523435-26.734375 3.8632815-53.335938 11.0351565-79.09375 30.984375-115.023438 124.46875-224.132813 236.136719-229.605469 2.914062-.175781 5.828124-.265625 8.828124-.265625 115.554688 0 213.1875 111.847656 244.964844 229.871094 7.171875 25.757812 10.882813 52.359375 11.035156 79.09375zm0 0" fill="#f29c1f"/><path d="m494.382812 309.042969c.417969 27.164062-4.5625 54.140625-14.652343 79.363281-34.074219 82.800781-124.117188 121.203125-230.929688 123.585938h-3.179687c-106.8125-2.382813-196.855469-40.785157-230.929688-123.585938-10.085937-25.222656-15.070312-52.199219-14.6523435-79.363281.1523435-26.734375 3.8632815-53.335938 11.0351565-79.09375 30.984375-115.023438 124.46875-224.132813 236.136719-229.605469 111.667968 5.472656 205.152343 114.582031 236.136718 229.605469 7.171875 25.757812 10.882813 52.359375 11.035156 79.09375zm0 0" fill="#f0c419"/><path d="m370.796875 362.011719c.0625 41.964843-22.8125 80.613281-59.636719 100.746093-36.824218 20.132813-81.707031 18.53125-117.003906-4.171874-32.910156-21.089844-52.816406-57.488282-52.816406-96.574219 0-39.089844 19.90625-75.488281 52.816406-96.574219 35.304688-22.65625 80.160156-24.230469 116.964844-4.105469 36.808594 20.121094 59.691406 58.730469 59.675781 100.679688zm0 0" fill="#802d40"/><path d="m397.28125 150.148438c0 39.003906-31.617188 70.621093-70.621094 70.621093-2.953125 0-5.898437-.175781-8.828125-.53125-35.320312-4.449219-61.804687-34.492187-61.792969-70.089843l78.828126-65.675782 4.503906-3.796875c33.546875 6.136719 57.910156 35.371094 57.910156 69.472657zm0 0" fill="#e6e7e8"/><path d="m379.625 150.148438c.011719 35.597656-26.472656 65.640624-61.792969 70.089843-35.320312-4.449219-61.804687-34.492187-61.792969-70.089843l78.828126-65.675782c27.015624 10.59375 44.773437 36.660156 44.757812 65.675782zm0 0" fill="#fff"/><path d="m256.039062 150.148438c0 39.003906-31.617187 70.621093-70.621093 70.621093-2.949219 0-5.898438-.175781-8.828125-.53125 35.320312-4.449219 61.804687-34.492187 61.792968-70.089843.003907-5.535157-.675781-11.050782-2.03125-16.417969zm0 0" fill="#e6e7e8"/><path d="m238.382812 150.148438c.011719 35.597656-26.472656 65.640624-61.792968 70.089843-35.320313-4.449219-61.804688-34.492187-61.792969-70.089843-.003906-5.535157.675781-11.050782 2.03125-16.417969 6.441406-27.210938 28.371094-48.03125 55.878906-53.054688l3.882813 3.265625 16.683594 13.859375 42.285156 35.222657.792968.707031c1.355469 5.367187 2.035157 10.882812 2.03125 16.417969zm0 0" fill="#fff"/><path d="m238.382812 150.148438c0 29.25-23.710937 52.964843-52.964843 52.964843-29.25 0-52.964844-23.714843-52.964844-52.964843 0-29.253907 23.714844-52.964844 52.964844-52.964844 2.632812-.019532 5.261719.1875 7.855469.617187l42.285156 35.222657c1.886718 5.511718 2.84375 11.300781 2.824218 17.125zm0 0" fill="#2fa8cc"/><path d="m379.625 150.148438c0 29.25-23.714844 52.964843-52.964844 52.964843-29.253906 0-52.964844-23.714843-52.964844-52.964843-.019531-5.824219.9375-11.613282 2.824219-17.125l6.445313-5.386719 24.1875-20.125 11.652344-9.710938c2.59375-.429687 5.222656-.636719 7.855468-.617187 29.25 0 52.964844 23.710937 52.964844 52.964844zm0 0" fill="#2fa8cc"/><path d="m220.726562 150.148438c0 19.5-15.808593 35.308593-35.308593 35.308593s-35.308594-15.808593-35.308594-35.308593 15.808594-35.308594 35.308594-35.308594 35.308593 15.808594 35.308593 35.308594zm0 0" fill="#2c2f38"/><path d="m361.96875 150.148438c0 19.5-15.808594 35.308593-35.308594 35.308593-19.503906 0-35.3125-15.808593-35.3125-35.308593s15.808594-35.308594 35.3125-35.308594c19.5 0 35.308594 15.808594 35.308594 35.308594zm0 0" fill="#2c2f38"/><g fill="#f5efca"><path d="m280.578125 249.898438-3.972656 24.101562c-1.695313 10.035156-10.386719 17.386719-20.566407 17.386719-10.179687 0-18.875-7.351563-20.570312-17.386719l-3.96875-24.101562c16.167969-3.53125 32.910156-3.53125 49.078125 0zm0 0"/><path d="m206.074219 312.046875c-7.171875 7.238281-18.535157 8.210937-26.835938 2.292969l-19.773437-14.210938c8.863281-13.980468 20.710937-25.828125 34.691406-34.691406l14.214844 19.773438c5.914062 8.296874 4.941406 19.660156-2.296875 26.835937zm0 0"/><path d="m185.417969 362.011719c.003906 10.179687-7.347657 18.878906-17.390625 20.566406l-24.097656 3.972656c-3.53125-16.167969-3.53125-32.910156 0-49.082031l24.097656 3.972656c10.042968 1.691406 17.394531 10.386719 17.390625 20.570313zm0 0"/><path d="m208.371094 438.808594-14.214844 19.777344c-13.980469-8.863282-25.828125-20.710938-34.691406-34.695313l19.773437-14.210937c8.3125-5.863282 19.640625-4.894532 26.832031 2.300781 7.191407 7.191406 8.164063 18.519531 2.300782 26.828125zm0 0"/><path d="m280.578125 474.121094c-16.167969 3.53125-32.910156 3.53125-49.078125 0l3.96875-24.101563c1.695312-10.035156 10.390625-17.382812 20.570312-17.382812 10.179688 0 18.871094 7.347656 20.566407 17.382812zm0 0"/><path d="m352.613281 423.890625c-8.863281 13.984375-20.710937 25.832031-34.691406 34.695313l-14.214844-19.777344c-5.863281-8.308594-4.890625-19.636719 2.300781-26.828125 7.191407-7.195313 18.519532-8.164063 26.832032-2.300781zm0 0"/><path d="m370.796875 362.011719c.015625 8.25-.871094 16.480469-2.648437 24.539062l-24.097657-3.972656c-10.039062-1.695313-17.386719-10.386719-17.386719-20.566406 0-10.179688 7.347657-18.875 17.386719-20.570313l24.097657-3.972656c1.777343 8.058594 2.664062 16.289062 2.648437 24.542969zm0 0"/><path d="m352.613281 300.128906-19.773437 14.210938c-8.3125 5.863281-19.640625 4.894531-26.832032-2.296875-7.191406-7.195313-8.164062-18.519531-2.300781-26.832031l14.214844-19.773438c13.980469 8.863281 25.828125 20.710938 34.691406 34.691406zm0 0"/></g><path d="m97.140625 309.042969c0 43.878906-35.570313 79.449219-79.445313 79.449219-.972656 0-2.03125 0-3.003906-.085938-10.085937-25.222656-15.070312-52.199219-14.6523435-79.363281.1523435-26.734375 3.8632815-53.335938 11.0351565-79.09375 2.195312-.25 4.40625-.367188 6.621093-.351563 43.875 0 79.445313 35.570313 79.445313 79.445313zm0 0" fill="#d25627"/><path d="m512.039062 309.042969c.414063 27.164062-4.566406 54.140625-14.652343 79.363281-.972657.085938-2.03125.085938-3.003907.085938-4.761718-.003907-9.519531-.417969-14.210937-1.234376-38.40625-6.96875-66.058594-40.804687-65.246094-79.828124.8125-39.019532 29.851563-71.675782 68.511719-77.039063 3.625-.53125 7.28125-.796875 10.945312-.792969 2.210938-.015625 4.421876.101563 6.621094.351563 7.171875 25.757812 10.882813 52.359375 11.035156 79.09375zm0 0" fill="#c03a2b"/><path d="m494.382812 309.042969c.402344 26.75-4.425781 53.320312-14.210937 78.214843-38.40625-6.96875-66.058594-40.804687-65.246094-79.828124.8125-39.019532 29.851563-71.675782 68.511719-77.039063 7.097656 25.621094 10.777344 52.070313 10.945312 78.652344zm0 0" fill="#d25627"/><path d="m176.589844 123.664062c0 9.753907-7.902344 17.65625-17.65625 17.65625-9.75 0-17.652344-7.902343-17.652344-17.65625 0-9.75 7.902344-17.652343 17.652344-17.652343 9.753906 0 17.65625 7.902343 17.65625 17.652343zm0 0" fill="#fff"/><path d="m317.832031 123.664062c.023438 8.996094-6.71875 16.574219-15.65625 17.59375-8.9375 1.015626-17.214843-4.847656-19.210937-13.621093l24.1875-20.125c6.472656 2.757812 10.675781 9.117187 10.679687 16.152343zm0 0" fill="#fff"/></svg>