<svg height="512pt" viewBox="0 0 512 512.00165" width="512pt" xmlns="http://www.w3.org/2000/svg"><path d="m494.027344 512h-476.160156c-5.203126.039062-10.164063-2.214844-13.5625-6.15625-3.398438-3.941406-4.894532-9.179688-4.089844-14.324219l68.058594-412.070312 14.742187-65.589844c1.355469-5.886719 5.613281-10.675781 11.300781-12.710937h.085938c1.9375-.777344 4.007812-1.1679692 6.09375-1.148438 15.070312-.0976562 29.558594 5.804688 40.273437 16.402344 10.714844 10.597656 16.773438 25.023437 16.839844 40.09375.015625 6.105468 2.460937 11.949218 6.796875 16.246094 4.410156 4.3125 10.339844 6.722656 16.507812 6.707031h150.070313c6.136719.058593 12.042969-2.332031 16.414063-6.636719 4.375-4.308594 6.851562-10.175781 6.890624-16.316406-.019531-15.023438 5.988282-29.429688 16.683594-39.988282 7.953125-7.773437 17.972656-13.105468 28.867188-15.359374h.085937c3.773438-.78125 7.621094-1.1679692 11.476563-1.148438 8.347656-.03125 15.605468 5.722656 17.480468 13.859375l14.738282 65.589844 68.0625 412.070312c.804687 5.144531-.691406 10.382813-4.09375 14.324219-3.398438 3.941406-8.355469 6.195312-13.5625 6.15625zm0 0" fill="#df4d60"/><path d="m476.375 512h-458.507812c-5.203126.039062-10.164063-2.214844-13.5625-6.15625-3.398438-3.941406-4.894532-9.179688-4.089844-14.324219l68.058594-412.070312 14.742187-65.589844c1.355469-5.886719 5.613281-10.675781 11.300781-12.710937h.085938c26.425781 5.253906 45.480468 28.410156 45.550781 55.347656.015625 6.105468 2.464844 11.949218 6.796875 16.246094 4.410156 4.3125 10.339844 6.722656 16.507812 6.707031h167.726563c6.136719.058593 12.042969-2.332031 16.414063-6.636719 4.375-4.308594 6.851562-10.175781 6.890624-16.316406-.019531-15.023438 5.988282-29.429688 16.683594-39.988282 7.953125-7.773437 17.972656-13.105468 28.867188-15.359374h.085937c5.6875 2.035156 9.945313 6.824218 11.300781 12.710937l14.742188 65.589844 68.058594 412.070312c.804687 5.144531-.691406 10.382813-4.089844 14.324219s-8.359375 6.195312-13.5625 6.15625zm0 0" fill="#ff5364"/><path d="m227.257812 220.691406c-8.070312 31.183594-36.203124 52.960938-68.414062 52.964844-3.789062.039062-7.570312-.285156-11.296875-.972656.882813.089844 1.765625.265625 2.648437.355468 33.347657-4.214843 59.054688-31.4375 61.351563-64.972656zm0 0" fill="#e6e7e8"/><path d="m423.671875 203.035156c0 39.003906-31.617187 70.621094-70.621094 70.621094-2.894531.015625-5.785156-.1875-8.648437-.617188-28.316406-3.457031-51.765625-23.628906-59.410156-51.113281l92.777343-75.386719 7.679688-6.265624c23.480469 12.121093 38.226562 36.335937 38.222656 62.761718zm0 0" fill="#e6e7e8"/><path d="m406.015625 203.035156c.03125 35.527344-26.375 65.523438-61.613281 70.003906-28.316406-3.457031-51.765625-23.628906-59.410156-51.113281l23.921874-19.417969 52.613282-42.816406 16.242187-13.152344c17.792969 13.328126 28.257813 34.265626 28.246094 56.496094zm0 0" fill="#fff"/><path d="m211.546875 208.066406c-2.296875 33.535156-28.003906 60.757813-61.351563 64.972656-.882812-.089843-1.765624-.265624-2.648437-.355468-.882813-.085938-1.765625-.261719-2.648437-.441406-1.765626-.351563-3.445313-.792969-5.121094-1.234376-1.5-.441406-2.914063-.882812-4.324219-1.324218-2.738281-1.058594-5.386719-2.117188-7.945313-3.355469-1.519531-.734375-2.992187-1.5625-4.414062-2.46875-3.734375-2.160156-7.253906-4.671875-10.503906-7.503906-1.238282-1.058594-2.472656-2.296875-3.707032-3.445313-1.238281-1.144531-2.296874-2.382812-3.355468-3.617187-.410156-.417969-.792969-.863281-1.148438-1.324219-1.875-2.257812-3.585937-4.648438-5.121094-7.152344-.804687-1.191406-1.542968-2.429687-2.207031-3.707031-5.824219-10.410156-8.867187-22.144531-8.828125-34.074219.023438-26.488281 14.84375-50.746094 38.402344-62.851562l24.273438 19.421875 8.300781 6.707031 43.695312 34.871094zm0 0" fill="#fff"/><path d="m202.984375 203.035156c-.007813 23.34375-18.1875 42.640625-41.488281 44.042969-23.296875 1.402344-43.660156-15.578125-46.46875-38.75s12.914062-44.523437 35.871094-48.722656l51.996093 41.578125c.074219.613281.101563 1.234375.089844 1.851562zm0 0" fill="#b0d3f0"/><path d="m397.191406 203.035156c0 24.378906-19.761718 44.136719-44.140625 44.136719-24.375 0-44.136719-19.757813-44.136719-44.136719v-.527344l5.472657-4.414062 27.101562-22.070312 20.039063-16.332032c20.707031 4.085938 35.640625 22.238282 35.664062 43.34375zm0 0" fill="#b0d3f0"/><path d="m185.328125 203.035156c0 14.625-11.855469 26.484375-26.484375 26.484375-14.625 0-26.480469-11.859375-26.480469-26.484375s11.855469-26.480468 26.480469-26.480468c14.628906 0 26.484375 11.855468 26.484375 26.480468zm0 0" fill="#2c2f38"/><path d="m379.535156 203.035156c0 14.625-11.855468 26.484375-26.484375 26.484375-14.625 0-26.480469-11.859375-26.480469-26.484375s11.855469-26.480468 26.480469-26.480468c14.628907 0 26.484375 11.855468 26.484375 26.480468zm0 0" fill="#2c2f38"/><path d="m420.582031 476.691406s-2.03125-10.0625-21.097656-20.570312c-5.238281-2.871094-10.699219-5.320313-16.332031-7.324219-12.105469-4.3125-24.570313-7.53125-37.25-9.625-3.886719-.703125-8.035156-1.324219-12.359375-1.941406-2.03125-.265625-4.148438-.527344-6.269531-.882813-3.617188-.441406-7.5-.792968-11.472657-1.144531-14.65625-1.503906-31.339843-2.386719-50.320312-2.5625-3.085938-.085937-6.265625-.085937-9.53125-.085937s-6.445313 0-9.535157.085937c-18.980468.175781-35.664062 1.058594-50.316406 2.5625-3.972656.351563-7.855468.703125-11.476562 1.144531-2.117188.355469-4.238282.617188-6.265625.882813-4.328125.617187-8.476563 1.238281-12.359375 1.941406-12.679688 2.09375-25.148438 5.3125-37.253906 9.625-5.628907 2.003906-11.089844 4.453125-16.332032 7.324219-19.066406 10.507812-21.097656 20.570312-21.097656 20.570312s-31.335938-67.53125 7.679688-116.878906c1.238281-1.585938 2.5625-3.175781 3.972656-4.675781 3.160156-3.554688 6.617187-6.832031 10.328125-9.800781.851562-.78125 1.769531-1.488282 2.738281-2.117188 22.949219-16.222656 49.59375-26.449219 77.507812-29.75.652344-.074219 1.300782-.191406 1.941407-.351562 5.03125-.707032 10.328125-1.414063 15.800781-1.945313.703125-.101563 1.410156-.160156 2.117188-.175781 28.300781-2.707032 56.796874-2.707032 85.097656 0 .710937.015625 1.417968.074218 2.121094.175781 5.472656.53125 10.769531 1.238281 15.800781 1.945313.636719.160156 1.289062.277343 1.941406.351562 27.910156 3.300781 54.554687 13.527344 77.507813 29.75.96875.628906 1.882812 1.335938 2.734374 2.117188 3.714844 2.96875 7.167969 6.246093 10.328126 9.800781 1.414062 1.5 2.738281 3.089843 3.972656 4.675781 39.019531 49.347656 7.679687 116.878906 7.679687 116.878906zm0 0" fill="#f5efca"/><g fill="#f9eab0"><path d="m128.742188 448.796875c-5.628907 2.003906-11.089844 4.453125-16.332032 7.324219-.4375-.859375-.734375-1.78125-.882812-2.734375l-12.535156-93.574219c1.238281-1.585938 2.5625-3.175781 3.972656-4.675781 3.160156-3.554688 6.617187-6.832031 10.328125-9.800781 1.269531 1.285156 2.050781 2.96875 2.207031 4.765624l3.53125 26.394532zm0 0"/><path d="m184.621094 436.347656c-2.117188.355469-4.238282.617188-6.265625.882813-4.328125.617187-8.476563 1.238281-12.359375 1.941406l-46.964844-62.675781-16.066406-21.359375c3.160156-3.554688 6.617187-6.832031 10.328125-9.800781.851562-.78125 1.769531-1.488282 2.738281-2.117188.15625.070312.285156.195312.351562.351562l62.941407 83.863282 3.621093 4.855468c.882813 1.195313 1.457032 2.589844 1.675782 4.058594zm0 0"/><path d="m316.417969 313.117188c-.09375.789062-.300781 1.5625-.617188 2.292968l-11.566406 26.925782-38.753906 90.304687c-3.085938-.085937-6.265625-.085937-9.53125-.085937s-6.445313 0-9.535157.085937l-38.753906-90.304687-11.5625-26.925782c-.316406-.730468-.527344-1.503906-.617187-2.292968 5.03125-.707032 10.328125-1.414063 15.800781-1.945313.703125-.101563 1.410156-.160156 2.117188-.175781l42.550781 99.136718 42.546875-99.136718c.710937.015625 1.417968.074218 2.121094.175781 5.472656.53125 10.769531 1.238281 15.800781 1.945313zm0 0"/><path d="m412.902344 359.8125-12.535156 93.574219c-.144532.953125-.445313 1.875-.882813 2.734375-5.238281-2.871094-10.699219-5.320313-16.332031-7.324219l9.710937-72.300781 3.53125-26.394532c.160157-1.796874.941407-3.480468 2.207031-4.765624 3.714844 2.96875 7.167969 6.246093 10.328126 9.800781 1.414062 1.5 2.738281 3.089843 3.972656 4.675781zm0 0"/><path d="m333.542969 435.023438c.089843.734374.089843 1.476562 0 2.207031-2.03125-.265625-4.148438-.527344-6.269531-.882813-3.617188-.441406-7.5-.792968-11.472657-1.144531l-11.566406-92.867187-3.617187-29.132813c-.089844-.671875-.089844-1.355469 0-2.03125 5.472656.53125 10.769531 1.238281 15.800781 1.945313.636719.160156 1.289062.277343 1.941406.351562l14.210937 113.964844zm0 0"/><path d="m408.929688 355.136719-16.066407 21.359375-46.960937 62.675781c-3.886719-.703125-8.035156-1.324219-12.359375-1.941406-2.03125-.265625-4.148438-.527344-6.269531-.882813.21875-1.46875.796874-2.863281 1.679687-4.058594l3.617187-4.855468 62.941407-83.863282c.070312-.15625.195312-.28125.355469-.351562.96875.628906 1.882812 1.335938 2.734374 2.117188 3.714844 2.96875 7.167969 6.246093 10.328126 9.800781zm0 0"/><path d="m211.28125 311.171875c.089844.675781.089844 1.359375 0 2.03125l-3.621094 29.132813-11.5625 92.867187c-3.972656.351563-7.855468.703125-11.476562 1.144531-2.117188.355469-4.238282.617188-6.265625.882813-.089844-.730469-.089844-1.472657 0-2.207031l.96875-7.589844 14.214843-113.964844c.652344-.074219 1.300782-.191406 1.941407-.351562 5.03125-.707032 10.328125-1.414063 15.800781-1.945313zm0 0"/></g><path d="m141.191406 185.378906c0 9.753906-7.90625 17.65625-17.65625 17.65625s-17.65625-7.902344-17.65625-17.65625c0-9.75 7.90625-17.652344 17.65625-17.652344s17.65625 7.902344 17.65625 17.652344zm0 0" fill="#fff"/><path d="m344.222656 185.378906c-.027344 9.738282-7.914062 17.628906-17.652344 17.65625-4.554687.019532-8.929687-1.753906-12.183593-4.941406l27.101562-22.070312c1.800781 2.785156 2.75 6.039062 2.734375 9.355468zm0 0" fill="#fff"/></svg>