<svg height="501pt" viewBox="0 -30 501.80774 501" width="501pt" xmlns="http://www.w3.org/2000/svg"><path d="m471.578125 256.402344c0 106.816406-75.832031 168.785156-176.554687 182.378906-5.824219.882812-11.652344 1.5-17.566407 1.941406-5.914062.441406-11.738281.796875-17.742187.882813-2.914063.175781-5.914063.175781-8.828125.175781-2.914063 0-5.914063 0-8.828125-.175781-6.003906-.085938-11.917969-.351563-17.742188-.882813-5.828125-.527344-11.742187-1.058594-17.566406-1.941406-100.722656-13.59375-176.550781-75.5625-176.550781-182.378906.34375-34.339844 7.390625-68.285156 20.742187-99.925782l74.59375-105.492187c32.074219-29.351563 73.082032-47.070313 116.4375-50.316406h.175782c2.914062-.175781 5.824218-.265625 8.738281-.265625 46.539062 1.078125 91.097656 19.058594 125.351562 50.582031l74.59375 105.492187c13.351563 31.640626 20.398438 65.585938 20.746094 99.925782zm0 0" fill="#24ae5f"/><path d="m453.921875 256.402344c0 106.816406-75.828125 168.785156-176.550781 182.378906-5.828125.882812-11.652344 1.5-17.566406 1.941406-5.917969.441406-11.742188.796875-17.746094.882813-6.003906-.085938-11.917969-.351563-17.742188-.882813-5.828125-.527344-11.742187-1.058594-17.566406-1.941406-100.722656-13.59375-176.550781-75.5625-176.550781-182.378906.34375-34.339844 7.390625-68.285156 20.742187-99.925782l74.59375-105.492187c32.074219-29.351563 73.082032-47.070313 116.4375-50.316406h.175782c43.355468 3.246093 84.363281 20.964843 116.433593 50.316406l74.59375 105.492187c13.355469 31.640626 20.402344 65.585938 20.746094 99.925782zm0 0" fill="#4fba6f"/><path d="m153.785156 88.679688-26.484375 35.308593c-29.574219-47.3125-92.601562-72.382812-119.347656-78.035156-2.070313-5.664063-4.425781-11.222656-7.0625-16.648437-1.277344-2.636719-1.175781-5.734376.269531-8.285157 1.445313-2.546875 4.050782-4.226562 6.96875-4.488281 112.886719-9.78125 145.65625 72.148438 145.65625 72.148438zm0 0" fill="#4fba6f"/><path d="m127.300781 123.988281-21.707031 28.949219c-3.011719 4.078125-7.652344 6.640625-12.710938 7.007812-80.871093 4.941407-88.894531-45.59375-80.339843-71.265624 2.976562-14.371094 1.371093-29.316407-4.589844-42.726563 26.746094 5.652344 89.773437 30.722656 119.347656 78.035156zm0 0" fill="#ff5364"/><path d="m500.917969 29.304688c-2.636719 5.425781-4.992188 10.984374-7.0625 16.648437-26.78125 5.652344-89.808594 30.722656-119.382813 78.035156l-26.480468-35.308593s32.765624-81.929688 145.652343-72.148438c2.925781.25 5.542969 1.925781 6.992188 4.476562 1.453125 2.550782 1.558593 5.652344.28125 8.296876zm0 0" fill="#4fba6f"/><path d="m489.230469 88.679688c8.554687 25.671874.53125 76.207031-80.328125 71.265624-5.058594-.367187-9.703125-2.929687-12.714844-7.007812l-21.714844-28.949219c29.574219-47.3125 92.601563-72.382812 119.347656-78.035156-5.960937 13.410156-7.566406 28.355469-4.589843 42.726563zm0 0" fill="#ff5364"/><path d="m339.164062 185.78125c0 34.695312-20.039062 55.792969-49.171874 64.972656l-39.105469 22.070313-8.828125-4.945313 30.28125-17.125c29.128906-9.179687 49.167968-30.277344 49.167968-64.972656.386719-13.160156-3.183593-26.136719-10.238281-37.25 4.429688-1.8125 8.683594-4.027344 12.710938-6.621094 10.335937 12.230469 15.746093 27.871094 15.183593 43.871094zm0 0" fill="#e6e7e8"/><path d="m321.507812 185.78125c0 34.695312-20.039062 55.792969-49.167968 64.972656l-30.28125 17.125-30.277344-17.125c-29.132812-9.179687-49.171875-30.277344-49.171875-64.972656-.382813-13.160156 3.183594-26.136719 10.242187-37.25 1.460938-2.339844 3.113282-4.554688 4.941407-6.621094 12.320312 7.410156 25.960937 12.359375 40.167969 14.566406 7.914062 1.367188 15.902343 2.25 23.921874 2.648438h.351563c2.828125.085938 5.738281.175781 8.652344.175781 11.035156 0 22.050781-.945312 32.925781-2.824219 9.417969-1.628906 18.625-4.292968 27.457031-7.945312 7.054688 11.113281 10.625 24.089844 10.238281 37.25zm0 0" fill="#fff"/><path d="m295.023438 185.78125c.039062 19.679688-12.953126 37.007812-31.855469 42.484375-18.902344 5.472656-39.144531-2.222656-49.628907-18.875-10.488281-16.652344-8.683593-38.234375 4.421876-52.914063 21.789062 3.765626 44.0625 3.765626 65.851562 0 7.214844 8.058594 11.203125 18.492188 11.210938 29.304688zm0 0" fill="#b0d3f0"/><path d="m277.371094 185.78125c0 14.628906-11.859375 26.484375-26.484375 26.484375s-26.484375-11.855469-26.484375-26.484375c0-14.625 11.859375-26.480469 26.484375-26.480469s26.484375 11.855469 26.484375 26.480469zm0 0" fill="#2c2f38"/><path d="m224.402344 247.578125c14.628906 0 26.484375 11.855469 26.484375 26.480469v8.828125h-52.964844v-8.828125c0-14.625 11.855469-26.480469 26.480469-26.480469zm0 0" fill="#f5efca"/><path d="m277.371094 247.578125c14.625 0 26.480468 11.855469 26.480468 26.480469v8.828125h-52.964843v-8.828125c0-14.625 11.855469-26.480469 26.484375-26.480469zm0 0" fill="#f5efca"/><g fill="#24ae5f"><path d="m259.714844 397.644531v43.960938c-2.914063.175781-5.914063.175781-8.828125.175781-2.914063 0-5.914063 0-8.828125-.175781v-43.960938c0-4.875 3.953125-8.828125 8.828125-8.828125s8.828125 3.953125 8.828125 8.828125zm0 0"/><path d="m295.023438 415.300781v23.480469c-5.824219.882812-11.652344 1.5-17.566407 1.941406-.070312-.257812-.101562-.527344-.085937-.792968v-24.628907c0-4.875 3.949218-8.828125 8.828125-8.828125 4.875 0 8.824219 3.953125 8.824219 8.828125zm0 0"/><path d="m224.402344 415.300781v24.628907c.015625.265624-.011719.535156-.085938.792968-5.914062-.441406-11.742187-1.058594-17.566406-1.941406v-23.480469c0-4.875 3.953125-8.828125 8.828125-8.828125s8.824219 3.953125 8.824219 8.828125zm0 0"/></g><path d="m308.796875 10.644531-57.910156 86.863281-57.910157-86.863281c37.398438-13.652343 78.421876-13.652343 115.820313 0zm0 0" fill="#4482c3"/><path d="m383.300781 335.851562c-4.875 0-8.828125-3.953124-8.828125-8.828124 0-19.5-15.808594-35.308594-35.308594-35.308594h-176.554687c-19.5 0-35.308594 15.808594-35.308594 35.308594 0 4.875-3.953125 8.828124-8.828125 8.828124s-8.828125-3.953124-8.828125-8.828124c.03125-29.238282 23.726563-52.933594 52.964844-52.964844h176.554687c29.238282.03125 52.933594 23.726562 52.964844 52.964844 0 2.34375-.929687 4.585937-2.585937 6.242187s-3.902344 2.585937-6.242188 2.585937zm0 0" fill="#802d40"/><path d="m268.542969 327.023438h-35.3125c-4.875 0-8.828125-3.949219-8.828125-8.828126 0-4.875 3.953125-8.824218 8.828125-8.824218h35.3125c4.875 0 8.828125 3.949218 8.828125 8.824218 0 4.878907-3.953125 8.828126-8.828125 8.828126zm0 0" fill="#24ae5f"/><path d="m233.230469 185.78125c0 9.753906-7.902344 17.65625-17.652344 17.65625-9.753906 0-17.65625-7.902344-17.65625-17.65625 0-9.75 7.902344-17.652344 17.65625-17.652344 9.75 0 17.652344 7.902344 17.652344 17.652344zm0 0" fill="#fff"/></svg>