<svg height="512pt" viewBox="0 0 512 512" width="512pt" xmlns="http://www.w3.org/2000/svg"><path d="m512 326.597656c0 123.234375-87.039062 172.492188-203.035156 183.085938-5.824219.527344-11.652344.96875-17.566406 1.234375-8.738282.617187-17.566407.882812-26.570313.972656-2.914063.085937-5.828125.085937-8.828125.085937s-5.914062 0-8.828125-.085937c-9.003906-.089844-17.832031-.355469-26.570313-.972656-5.914062-.265625-11.742187-.707031-17.566406-1.234375-115.996094-10.59375-203.035156-59.851563-203.035156-183.085938 0-116.082031 172.492188-270.652344 234.285156-319.117187 3.792969-3.015625 8.1875-5.183594 12.886719-6.355469 5.789063-1.5 11.867187-1.5 17.65625 0 4.699219 1.171875 9.09375 3.339844 12.886719 6.355469 61.792968 48.464843 234.285156 203.035156 234.285156 319.117187zm0 0" fill="#65ddb9"/><path d="m264.828125 1.125v42.992188c0 4.875-3.953125 8.828124-8.828125 8.828124s-8.828125-3.953124-8.828125-8.828124v-42.992188c5.789063-1.5 11.867187-1.5 17.65625 0zm0 0" fill="#46b29d"/><path d="m256 203.011719c0 39.003906-31.617188 70.621093-70.621094 70.621093-2.949218.003907-5.898437-.175781-8.828125-.527343-35.394531-4.363281-61.988281-34.429688-61.988281-70.09375 0-35.664063 26.59375-65.730469 61.988281-70.089844 2.929688-.355469 5.878907-.53125 8.828125-.53125 39.003906 0 70.621094 31.621094 70.621094 70.621094zm0 0" fill="#e6e7e8"/><path d="m238.34375 203.011719c0-38.710938-27.664062-70.089844-61.792969-70.089844-34.125 0-61.792969 31.378906-61.792969 70.089844 0 38.710937 27.667969 70.09375 61.792969 70.09375 34.128907 0 61.792969-31.382813 61.792969-70.09375zm0 0" fill="#fff"/><path d="m397.242188 203.011719c0 39.003906-31.617188 70.621093-70.621094 70.621093-2.949219.003907-5.898438-.175781-8.828125-.527343-35.398438-4.363281-61.988281-34.429688-61.988281-70.09375 0-35.664063 26.589843-65.730469 61.988281-70.089844 2.929687-.355469 5.878906-.53125 8.828125-.53125 39.003906 0 70.621094 31.621094 70.621094 70.621094zm0 0" fill="#e6e7e8"/><path d="m379.585938 203.011719c0-38.710938-27.664063-70.089844-61.792969-70.089844-34.128907 0-61.792969 31.378906-61.792969 70.089844 0 38.710937 27.664062 70.09375 61.792969 70.09375 34.128906 0 61.792969-31.382813 61.792969-70.09375zm0 0" fill="#fff"/><path d="m229.515625 203.011719c0 24.378906-19.757813 44.140625-44.136719 44.140625-24.375 0-44.136718-19.761719-44.136718-44.140625 0-24.375 19.761718-44.136719 44.136718-44.136719 24.378906 0 44.136719 19.761719 44.136719 44.136719zm0 0" fill="#2fa8cc"/><path d="m370.757812 203.011719c0 24.378906-19.761718 44.140625-44.136718 44.140625-24.378906 0-44.136719-19.761719-44.136719-44.140625 0-24.375 19.757813-44.136719 44.136719-44.136719 24.375 0 44.136718 19.761719 44.136718 44.136719zm0 0" fill="#2fa8cc"/><path d="m211.863281 203.011719c0 14.625-11.859375 26.484375-26.484375 26.484375s-26.480468-11.859375-26.480468-26.484375 11.855468-26.480469 26.480468-26.480469 26.484375 11.855469 26.484375 26.480469zm0 0" fill="#2c2f38"/><path d="m353.101562 203.011719c0 14.625-11.855468 26.484375-26.480468 26.484375s-26.484375-11.859375-26.484375-26.484375 11.859375-26.480469 26.484375-26.480469 26.480468 11.855469 26.480468 26.480469zm0 0" fill="#2c2f38"/><path d="m229.515625 300.117188c14.628906 0 26.484375 11.855468 26.484375 26.480468v26.484375h-52.964844v-26.484375c0-14.625 11.855469-26.480468 26.480469-26.480468zm0 0" fill="#f5efca"/><path d="m282.484375 300.117188c14.625 0 26.480469 11.855468 26.480469 26.480468v26.484375h-52.964844v-26.484375c0-14.625 11.855469-26.480468 26.484375-26.480468zm0 0" fill="#f5efca"/><g fill="#46b29d"><path d="m264.828125 450.183594v61.707031c-2.914063.085937-5.828125.085937-8.828125.085937s-5.914062 0-8.828125-.085937v-61.707031c0-4.875 3.953125-8.828125 8.828125-8.828125s8.828125 3.953125 8.828125 8.828125zm0 0"/><path d="m308.964844 476.667969v33.015625c-5.824219.527344-11.652344.96875-17.566406 1.234375-.070313-.167969-.101563-.347657-.089844-.527344v-33.722656c0-4.875 3.953125-8.828125 8.828125-8.828125s8.828125 3.953125 8.828125 8.828125zm0 0"/><path d="m220.691406 476.667969v33.722656c.011719.179687-.019531.359375-.089844.527344-5.914062-.265625-11.742187-.707031-17.566406-1.234375v-33.015625c0-4.875 3.953125-8.828125 8.828125-8.828125s8.828125 3.953125 8.828125 8.828125zm0 0"/></g><path d="m361.929688 361.910156h-211.859376c-29.242187-.03125-52.9375-23.726562-52.96875-52.964844 0-4.878906 3.953126-8.828124 8.828126-8.828124s8.828124 3.949218 8.828124 8.828124c0 19.5 15.808594 35.308594 35.3125 35.308594h211.859376c19.503906 0 35.3125-15.808594 35.3125-35.308594 0-4.878906 3.953124-8.828124 8.828124-8.828124s8.828126 3.949218 8.828126 8.828124c-.03125 29.238282-23.726563 52.933594-52.96875 52.964844zm0 0" fill="#802d40"/><path d="m282.484375 397.21875h-52.96875c-4.875 0-8.824219-3.953125-8.824219-8.828125s3.949219-8.828125 8.824219-8.828125h52.96875c4.875 0 8.824219 3.953125 8.824219 8.828125s-3.949219 8.828125-8.824219 8.828125zm0 0" fill="#46b29d"/><path d="m176.550781 176.53125c0 9.75-7.902343 17.652344-17.652343 17.652344-9.753907 0-17.65625-7.902344-17.65625-17.652344 0-9.753906 7.902343-17.65625 17.65625-17.65625 9.75 0 17.652343 7.902344 17.652343 17.65625zm0 0" fill="#fff"/><path d="m317.792969 176.53125c0 9.75-7.90625 17.652344-17.65625 17.652344s-17.652344-7.902344-17.652344-17.652344c0-9.753906 7.902344-17.65625 17.652344-17.65625s17.65625 7.902344 17.65625 17.65625zm0 0" fill="#fff"/></svg>