<svg height="511pt" viewBox="0 -8 511.98431 511" width="511pt" xmlns="http://www.w3.org/2000/svg"><path d="m503.457031 307.691406c0 136.703125-110.761719 187.734375-247.464843 187.734375-2.902344 0-5.71875 0-8.535157-.085937-132.777343-2.132813-238.929687-53.84375-238.929687-187.648438 1.367187-57.554687 17.121094-113.847656 45.820312-163.753906l18.347656-29.523438c6.828126-9.902343 14.082032-19.371093 21.675782-28.332031l31.488281-31.914062c25.058594-22.566407 54.992187-39.039063 87.464844-48.128907 5.566406-1.46875 11.207031-2.636718 16.898437-3.5 5.703125-.9375 11.460938-1.535156 17.234375-1.789062 2.816407-.171875 5.71875-.257812 8.535157-.257812 2.816406 0 5.71875.085937 8.535156.257812 5.773437.253906 11.53125.851562 17.234375 1.789062 5.691406.863282 11.332031 2.03125 16.898437 3.5 32.472656 9.089844 62.40625 25.5625 87.464844 48.128907l31.488281 31.914062c7.59375 8.960938 14.847657 18.429688 21.675781 28.332031l18.347657 29.523438c28.699219 49.90625 44.453125 106.199219 45.820312 163.753906zm0 0" fill="#c03a2b"/><path d="m486.390625 307.691406c0 133.804688-106.152344 185.515625-238.933594 187.648438-132.777343-2.132813-238.929687-53.84375-238.929687-187.648438 1.367187-57.554687 17.121094-113.847656 45.820312-163.753906l18.347656-29.523438c6.828126-9.902343 14.082032-19.371093 21.675782-28.332031l31.488281-31.914062c25.058594-22.566407 54.992187-39.039063 87.464844-48.128907 5.566406-1.46875 11.207031-2.636718 16.898437-3.5 5.703125-.9375 11.460938-1.535156 17.234375-1.789062 5.777344.253906 11.535157.851562 17.238281 1.789062 5.691407.863282 11.332032 2.03125 16.898438 3.5 32.472656 9.089844 62.40625 25.5625 87.464844 48.128907l31.488281 31.914062c7.59375 8.960938 14.847656 18.429688 21.675781 28.332031l18.34375 29.523438c28.703125 49.90625 44.457032 106.199219 45.824219 163.753906zm0 0" fill="#e64c3c"/><path d="m136.054688 61.4375c-17.574219-10.011719-29.265626-27.863281-31.425782-47.976562-.300781-1.804688-1.726562-3.21875-3.535156-3.507813-1.808594-.292969-3.601562.605469-4.453125 2.230469-9.992187 19.027344-23.433594 57.785156 9.96875 88.515625 3.488281 3.097656 8.105469 4.617187 12.753906 4.199219 4.648438-.414063 8.917969-2.730469 11.804688-6.402344l9.4375-11.816406c3.097656-3.828126 4.378906-8.816407 3.503906-13.664063s-3.8125-9.074219-8.054687-11.578125zm0 0" fill="#f5efca"/><path d="m375.929688 61.4375c17.574218-10.011719 29.265624-27.863281 31.425781-47.976562.300781-1.804688 1.726562-3.21875 3.535156-3.507813 1.808594-.292969 3.601563.605469 4.453125 2.230469 9.992188 19.027344 23.433594 57.785156-9.96875 88.515625-3.488281 3.097656-8.105469 4.617187-12.753906 4.199219-4.648438-.414063-8.917969-2.730469-11.804688-6.402344l-9.4375-11.816406c-3.097656-3.828126-4.378906-8.816407-3.503906-13.664063s3.8125-9.074219 8.054688-11.578125zm0 0" fill="#f5efca"/><path d="m76.792969 162.625-51.199219-42.667969 18.601562-24.574219 28.5 19.03125 21.164063 14.078126zm0 0" fill="#e64c3c"/><path d="m435.191406 162.625 51.199219-42.667969-18.601563-24.574219-28.5 19.03125-21.164062 14.078126zm0 0" fill="#e64c3c"/><g fill="#c03a2b"><path d="m264.527344.75v42.410156c0 4.710938-3.824219 8.53125-8.535156 8.53125-4.710938 0-8.535157-3.820312-8.535157-8.53125v-42.410156c2.816407-.171875 5.71875-.257812 8.535157-.257812 2.816406 0 5.71875.085937 8.535156.257812zm0 0"/><path d="m230.390625 4.074219v22.019531c0 4.710938-3.820313 8.53125-8.53125 8.53125-4.714844 0-8.535156-3.820312-8.535156-8.53125v-20.054688c5.566406-1.46875 11.207031-2.636718 16.898437-3.5.097656.507813.15625 1.019532.167969 1.535157zm0 0"/><path d="m298.660156 6.039062v20.054688c0 4.710938-3.820312 8.53125-8.535156 8.53125-4.710938 0-8.53125-3.820312-8.53125-8.53125v-22.019531c.011719-.515625.070312-1.027344.167969-1.535157 5.691406.863282 11.332031 2.03125 16.898437 3.5zm0 0"/></g><path d="m255.992188 205.292969c0 42.414062-34.382813 76.800781-76.800782 76.800781-2.851562 0-5.699218-.171875-8.53125-.511719-38.730468-4.496093-67.949218-37.300781-67.949218-76.289062 0-38.992188 29.21875-71.792969 67.949218-76.289063 2.832032-.34375 5.679688-.515625 8.53125-.511718 42.417969 0 76.800782 34.382812 76.800782 76.800781zm0 0" fill="#e6e7e8"/><path d="m238.925781 205.292969c0-42.132813-30.5625-76.289063-68.265625-76.289063s-68.269531 34.15625-68.269531 76.289063c0 42.132812 30.566406 76.289062 68.269531 76.289062s68.265625-34.15625 68.265625-76.289062zm0 0" fill="#fff"/><path d="m409.59375 205.292969c0 42.414062-34.386719 76.800781-76.800781 76.800781-2.851563 0-5.703125-.171875-8.535157-.511719-38.730468-4.496093-67.945312-37.300781-67.945312-76.289062 0-38.992188 29.214844-71.792969 67.945312-76.289063 2.832032-.34375 5.683594-.515625 8.535157-.511718 42.414062 0 76.800781 34.382812 76.800781 76.800781zm0 0" fill="#e6e7e8"/><path d="m392.527344 205.292969c0-42.132813-30.566406-76.289063-68.269532-76.289063-37.703124 0-68.265624 34.15625-68.265624 76.289063 0 42.132812 30.5625 76.289062 68.265624 76.289062 37.703126 0 68.269532-34.15625 68.269532-76.289062zm0 0" fill="#fff"/><path d="m230.390625 205.292969c0 28.277343-22.921875 51.199219-51.199219 51.199219s-51.199218-22.921876-51.199218-51.199219c0-28.277344 22.921874-51.199219 51.199218-51.199219s51.199219 22.921875 51.199219 51.199219zm0 0" fill="#7ed09e"/><path d="m383.992188 205.292969c0 28.277343-22.921876 51.199219-51.199219 51.199219-28.277344 0-51.199219-22.921876-51.199219-51.199219 0-28.277344 22.921875-51.199219 51.199219-51.199219 28.277343 0 51.199219 22.921875 51.199219 51.199219zm0 0" fill="#7ed09e"/><path d="m213.324219 205.292969c0 18.851562-15.28125 34.132812-34.132813 34.132812-18.851562 0-34.132812-15.28125-34.132812-34.132812 0-18.851563 15.28125-34.132813 34.132812-34.132813 18.851563 0 34.132813 15.28125 34.132813 34.132813zm0 0" fill="#2c2f38"/><path d="m366.925781 205.292969c0 18.851562-15.28125 34.132812-34.132812 34.132812-18.851563 0-34.132813-15.28125-34.132813-34.132812 0-18.851563 15.28125-34.132813 34.132813-34.132813 18.851562 0 34.132812 15.28125 34.132812 34.132813zm0 0" fill="#2c2f38"/><path d="m204.792969 316.226562h51.199219v8.53125c0 14.140626-11.460938 25.601563-25.601563 25.601563-14.136719 0-25.597656-11.460937-25.597656-25.601563zm0 0" fill="#f5efca"/><path d="m255.992188 316.226562h51.199218v8.53125c0 14.140626-11.460937 25.601563-25.597656 25.601563-14.140625 0-25.601562-11.460937-25.601562-25.601563zm0 0" fill="#f5efca"/><path d="m8.527344 145.558594c-3.332032-.003906-6.355469-1.941406-7.746094-4.96875-1.390625-3.023438-.898438-6.582032 1.265625-9.109375l51.203125-59.734375c1.941406-2.449219 5.066406-3.640625 8.144531-3.105469s5.621094 2.710937 6.621094 5.671875c1.003906 2.960938.308594 6.230469-1.8125 8.527344l-51.199219 59.730468c-1.617187 1.902344-3.984375 2.996094-6.476562 2.988282zm0 0" fill="#c03a2b"/><path d="m503.457031 145.558594c-2.492187.007812-4.859375-1.085938-6.476562-2.988282l-51.199219-59.730468c-2.121094-2.296875-2.816406-5.566406-1.8125-8.527344 1-2.960938 3.539062-5.136719 6.621094-5.671875 3.078125-.535156 6.203125.65625 8.144531 3.105469l51.203125 59.734375c2.164062 2.527343 2.65625 6.085937 1.265625 9.109375-1.390625 3.027344-4.414063 4.964844-7.746094 4.96875zm0 0" fill="#c03a2b"/><path d="m409.59375 375.957031c-4.714844 0-8.535156-3.820312-8.535156-8.53125-.027344-23.554687-19.113282-42.640625-42.667969-42.667969h-204.796875c-23.554688.027344-42.640625 19.113282-42.667969 42.667969 0 4.710938-3.820312 8.53125-8.535156 8.53125-4.710937 0-8.53125-3.820312-8.53125-8.53125.035156-32.972656 26.757813-59.695312 59.734375-59.734375h204.796875c32.976563.039063 59.695313 26.761719 59.734375 59.734375 0 4.710938-3.820312 8.53125-8.53125 8.53125zm0 0" fill="#802d40"/><path d="m255.992188 401.558594c-15.984376.222656-31.835938-2.976563-46.480469-9.386719-4.222657-2.097656-5.941407-7.222656-3.839844-11.441406 2.097656-4.222657 7.222656-5.941407 11.441406-3.839844 12.296875 5.191406 25.535157 7.777344 38.878907 7.601563 13.347656.199218 26.585937-2.417969 38.851562-7.679688 4.21875-2.105469 9.347656-.394531 11.453125 3.824219 2.105469 4.214843.394531 9.34375-3.824219 11.449219-14.640625 6.441406-30.488281 9.667968-46.480468 9.472656zm0 0" fill="#c03a2b"/><path d="m170.660156 171.160156c0 14.136719-11.460937 25.597656-25.601562 25.597656-14.136719 0-25.601563-11.460937-25.601563-25.597656 0-14.140625 11.464844-25.601562 25.601563-25.601562 14.140625 0 25.601562 11.460937 25.601562 25.601562zm0 0" fill="#fff"/><path d="m324.257812 171.160156c0 14.136719-11.460937 25.597656-25.597656 25.597656-14.140625 0-25.601562-11.460937-25.601562-25.597656 0-14.140625 11.460937-25.601562 25.601562-25.601562 14.136719 0 25.597656 11.460937 25.597656 25.601562zm0 0" fill="#fff"/></svg>