<svg height="503pt" viewBox="0 0 503 503.58237" width="503pt" xmlns="http://www.w3.org/2000/svg"><path d="m503.613281 364.734375c0 94.242187-89.902343 130.949219-208.269531 137.632813-5.730469.347656-11.542969.609374-17.359375.78125-5.8125.171874-11.539063.347656-17.355469.347656-2.863281.085937-5.726562.085937-8.675781.085937-2.953125 0-5.816406 0-8.679687-.085937-5.8125 0-11.628907-.175782-17.355469-.347656-5.726563-.171876-11.628907-.433594-17.355469-.78125-118.367188-6.683594-208.269531-43.390626-208.269531-137.632813 0-99.101563 99.449219-226.496094 226.753906-241.421875 2.492187-.253906 4.753906-1.574219 6.199219-3.621094 1.449218-2.042968 1.941406-4.617187 1.351562-7.050781-2.601562-7.847656-8.640625-14.078125-16.402344-16.921875-23.34375-11.628906-35.925781-28.8125-30.632812-51.199219 2.34375-9.894531 14.316406-41.136719 72.027344-44.257812h.257812c3.039063-.1757815 6.164063-.261719 9.460938-.261719 43.128906 0 67.601562 24.039062 74.195312 45.125 12.410156 39.570312-9.109375 44.171875-29.15625 41.132812-1.996094-.257812-3.90625-.605468-5.816406-1.039062-3.28125-.785156-5.820312-3.382812-6.523438-6.683594-.703124-3.300781.550782-6.710937 3.226563-8.765625 5.628906-3.597656 7.363281-11.03125 3.90625-16.746093-5.121094-9.632813-12.410156-18.3125-39.832031-18.3125-3.210938 0-6.335938.085937-9.199219.347656-24.296875 1.5625-36.96875 9.546875-38.789063 17.441406-.476562 8.285156 4.527344 15.898438 12.320313 18.746094 26.207031 13.105468 34.972656 26.554687 36.449219 44.171875.34375 4.113281 3.535156 7.414062 7.636718 7.894531 126.957032 15.535156 225.886719 142.582031 225.886719 241.421875zm0 0" fill="#df4d60"/><path d="m486.257812 364.734375c0 94.242187-89.902343 130.949219-208.273437 137.632813-5.726563.347656-11.539063.609374-17.355469.78125-5.8125.171874-11.539062.347656-17.355468.347656-5.8125 0-11.628907-.175782-17.355469-.347656-5.726563-.171876-11.628907-.433594-17.355469-.78125-118.367188-6.683594-208.269531-43.390626-208.269531-137.632813 0-99.101563 99.449219-226.496094 226.753906-241.421875 2.492187-.253906 4.753906-1.574219 6.199219-3.621094 1.449218-2.042968 1.941406-4.617187 1.351562-7.050781-2.601562-7.847656-8.640625-14.078125-16.402344-16.921875-23.34375-11.628906-35.925781-28.8125-30.632812-51.199219 2.34375-9.894531 14.316406-41.136719 72.027344-44.257812h.257812c38.183594 2.6875 60.140625 25.078125 66.300782 44.863281 8.679687 27.769531.695312 38.355469-11.800782 41.132812-1.996094-.257812-3.90625-.605468-5.816406-1.039062-3.28125-.785156-5.820312-3.382812-6.523438-6.683594-.703124-3.300781.550782-6.710937 3.226563-8.765625 5.628906-3.597656 7.363281-11.03125 3.90625-16.746093-5.121094-9.632813-12.410156-18.3125-39.832031-18.3125-3.210938 0-6.335938.085937-9.199219.347656-2.710937-.253906-5.433594-.371094-8.15625-.347656-30.285156 0-45.90625 8.9375-47.988281 17.789062-.476563 8.285156 4.527344 15.898438 12.320312 18.746094 26.207032 13.105468 34.972656 26.554687 36.449219 44.171875.34375 4.113281 3.535156 7.414062 7.636719 7.894531 126.957031 15.535156 225.886718 142.582031 225.886718 241.421875zm0 0" fill="#ff5364"/><g fill="#df4d60"><path d="m173.851562 165.140625c-4.117187-.007813-7.664062-2.90625-8.488281-6.941406-.363281-1.65625-8.945312-38.617188-63.304687-54.152344-2.984375-.847656-5.285156-3.222656-6.042969-6.230469-.753906-3.007812.152344-6.191406 2.378906-8.347656 2.226563-2.160156 5.4375-2.964844 8.417969-2.117188 65.085938 18.605469 75.160156 65.40625 75.550781 67.394532.949219 4.691406-2.085937 9.269531-6.777343 10.222656-.570313.117188-1.152344.175781-1.734376.171875zm0 0"/><path d="m121.78125 191.175781c-3.035156 0-5.851562-1.585937-7.425781-4.183593-2.257813-3.695313-22.824219-35.214844-57.535157-14.414063-4.101562 2.363281-9.335937 1.007813-11.773437-3.046875s-1.175781-9.316406 2.835937-11.828125c40.203126-24.113281 70.785157 2.742187 81.328126 20.324219 1.609374 2.679687 1.65625 6.019531.117187 8.738281-1.539063 2.722656-4.417969 4.40625-7.546875 4.410156zm0 0"/><path d="m330.054688 165.140625c-2.59375-.003906-5.046876-1.164063-6.691407-3.164063-1.644531-2.003906-2.3125-4.636718-1.8125-7.179687.390625-1.988281 10.464844-48.785156 75.550781-67.390625 2.980469-.851562 6.191407-.046875 8.417969 2.113281 2.226563 2.15625 3.132813 5.339844 2.375 8.347657-.753906 3.007812-3.054687 5.382812-6.039062 6.234374-54.4375 15.550782-62.96875 52.585938-63.347657 54.160157-.847656 3.996093-4.367187 6.863281-8.453124 6.878906zm0 0"/><path d="m382.121094 191.175781c-3.125-.003906-6.007813-1.6875-7.542969-4.410156-1.539063-2.71875-1.496094-6.058594.113281-8.738281 10.546875-17.589844 41.117188-44.449219 81.332032-20.324219 2.71875 1.570313 4.378906 4.480469 4.34375 7.617187-.039063 3.140626-1.765626 6.011719-4.519532 7.515626-2.75 1.507812-6.101562 1.40625-8.761718-.257813-35.519532-21.296875-56.632813 12.921875-57.519532 14.386719-1.570312 2.617187-4.394531 4.214844-7.445312 4.210937zm0 0"/></g><path d="m251.953125 260.597656c0 38.34375-31.082031 69.425782-69.425781 69.425782-2.898438 0-5.796875-.171876-8.675782-.519532-34.796874-4.289062-60.9375-33.84375-60.9375-68.90625 0-35.058594 26.140626-64.617187 60.9375-68.902344 2.878907-.347656 5.777344-.523437 8.675782-.519531 38.34375 0 69.425781 31.082031 69.425781 69.421875zm0 0" fill="#e6e7e8"/><path d="m234.597656 260.597656c0-38.050781-27.199218-68.902344-60.746094-68.902344-33.550781 0-60.746093 30.851563-60.746093 68.902344 0 38.054688 27.195312 68.90625 60.746093 68.90625 33.546876 0 60.746094-30.851562 60.746094-68.90625zm0 0" fill="#fff"/><path d="m390.800781 260.597656c0 38.34375-31.082031 69.425782-69.425781 69.425782-2.898438 0-5.796875-.171876-8.675781-.519532-34.796875-4.289062-60.9375-33.84375-60.9375-68.90625 0-35.058594 26.140625-64.617187 60.9375-68.902344 2.878906-.347656 5.777343-.523437 8.675781-.519531 38.34375 0 69.425781 31.082031 69.425781 69.421875zm0 0" fill="#e6e7e8"/><path d="m373.445312 260.597656c0-38.050781-27.199218-68.902344-60.746093-68.902344-33.550781 0-60.746094 30.851563-60.746094 68.902344 0 38.054688 27.195313 68.90625 60.746094 68.90625 33.546875 0 60.746093-30.851562 60.746093-68.90625zm0 0" fill="#fff"/><path d="m217.242188 260.597656c0 19.171875-15.542969 34.714844-34.714844 34.714844-19.167969 0-34.710938-15.542969-34.710938-34.714844 0-19.167968 15.542969-34.710937 34.710938-34.710937 19.171875 0 34.714844 15.542969 34.714844 34.710937zm0 0" fill="#2fa8cc"/><path d="m356.085938 260.597656c0 19.171875-15.539063 34.714844-34.710938 34.714844-19.167969 0-34.710938-15.542969-34.710938-34.714844 0-19.167968 15.542969-34.710937 34.710938-34.710937 19.171875 0 34.710938 15.542969 34.710938 34.710937zm0 0" fill="#2fa8cc"/><path d="m199.882812 260.597656c0 9.585938-7.769531 17.359375-17.355468 17.359375-9.585938 0-17.355469-7.773437-17.355469-17.359375 0-9.582031 7.769531-17.355468 17.355469-17.355468 9.585937 0 17.355468 7.773437 17.355468 17.355468zm0 0" fill="#2c2f38"/><path d="m338.730469 260.597656c0 9.585938-7.769531 17.359375-17.355469 17.359375s-17.355469-7.773437-17.355469-17.359375c0-9.582031 7.769531-17.355468 17.355469-17.355468s17.355469 7.773437 17.355469 17.355468zm0 0" fill="#2c2f38"/><path d="m225.917969 356.058594c14.378906 0 26.035156 11.652344 26.035156 26.03125v8.679687h-52.070313v-8.679687c0-14.378906 11.65625-26.03125 26.035157-26.03125zm0 0" fill="#f5efca"/><path d="m277.984375 356.058594c14.378906 0 26.035156 11.652344 26.035156 26.03125v8.679687h-52.066406v-8.679687c0-14.378906 11.65625-26.03125 26.03125-26.03125zm0 0" fill="#f5efca"/><path d="m260.628906 468.871094v34.625c-2.863281.085937-5.726562.085937-8.675781.085937-2.953125 0-5.816406 0-8.679687-.085937v-34.625c0-4.792969 3.886718-8.679688 8.679687-8.679688s8.675781 3.886719 8.675781 8.679688zm0 0" fill="#df4d60"/><path d="m295.34375 486.226562v16.140626c-5.730469.347656-11.542969.609374-17.359375.78125v-16.921876c0-4.792968 3.886719-8.679687 8.679687-8.679687 4.792969 0 8.679688 3.886719 8.679688 8.679687zm0 0" fill="#df4d60"/><path d="m225.917969 486.226562v16.921876c-5.8125-.171876-11.628907-.433594-17.355469-.78125v-16.140626c0-4.792968 3.886719-8.679687 8.679688-8.679687 4.789062 0 8.675781 3.886719 8.675781 8.679687zm0 0" fill="#df4d60"/><path d="m356.085938 399.445312h-208.269532c-23.953125-.027343-43.359375-19.4375-43.390625-43.386718 0-4.792969 3.886719-8.679688 8.679688-8.679688s8.675781 3.886719 8.675781 8.679688c0 14.375 11.65625 26.03125 26.035156 26.03125h208.269532c14.378906 0 26.035156-11.65625 26.035156-26.03125 0-4.792969 3.886718-8.679688 8.679687-8.679688s8.675781 3.886719 8.675781 8.679688c-.027343 23.949218-19.4375 43.359375-43.390624 43.386718zm0 0" fill="#802d40"/><path d="m251.953125 442.835938c-13.378906-.523438-26.511719-3.773438-38.59375-9.546876-2.773437-1.382812-4.601563-4.144531-4.789063-7.238281-.191406-3.097656 1.285157-6.058593 3.875-7.773437 2.585938-1.710938 5.890626-1.914063 8.664063-.527344 9.671875 4.582031 20.152344 7.210938 30.84375 7.730469 10.695313-.542969 21.175781-3.199219 30.839844-7.808594 4.292969-2.140625 9.507812-.398437 11.648437 3.894531 2.136719 4.292969.394532 9.507813-3.898437 11.644532-12.074219 5.800781-25.207031 9.074218-38.589844 9.625zm0 0" fill="#df4d60"/><path d="m182.527344 243.242188c0 9.585937-7.769532 17.355468-17.355469 17.355468s-17.355469-7.769531-17.355469-17.355468c0-9.585938 7.769532-17.355469 17.355469-17.355469s17.355469 7.769531 17.355469 17.355469zm0 0" fill="#fff"/><path d="m321.375 243.242188c0 9.585937-7.769531 17.355468-17.355469 17.355468-9.585937 0-17.355469-7.769531-17.355469-17.355468 0-9.585938 7.769532-17.355469 17.355469-17.355469 9.585938 0 17.355469 7.769531 17.355469 17.355469zm0 0" fill="#fff"/></svg>