<svg height="512pt" viewBox="0 0 512.08836 512" width="512pt" xmlns="http://www.w3.org/2000/svg"><path d="m64.222656 420.945312-35.753906 6.445313c-7.027344 1.300781-14.269531-.59375-19.761719-5.164063-5.492187-4.570312-8.6679685-11.347656-8.6640622-18.496093.0078124-13.308594 10.7929692-24.09375 24.1015622-24.097657-6.394531.003907-12.527343-2.53125-17.050781-7.050781-4.519531-4.523437-7.0546875-10.65625-7.0507812-17.050781v-4.765625c-.0039063-6.394531 2.5312502-12.527344 7.0507812-17.046875 4.523438-4.523438 10.65625-7.058594 17.050781-7.050781-13.3125.023437-24.1210935-10.746094-24.144531-24.058594-.0234375-13.308594 10.746094-24.117187 24.054688-24.140625 1.480468.019531 2.957031.167969 4.414062.441406l40.695312 7.414063zm0 0" fill="#9fc9d3"/><path d="m442.925781 286.324219 40.695313-7.414063c1.453125-.273437 2.929687-.421875 4.410156-.441406 13.3125.023438 24.082031 10.832031 24.058594 24.140625-.027344 13.3125-10.835938 24.082031-24.144532 24.058594 6.394532-.007813 12.527344 2.527343 17.046876 7.050781 4.523437 4.519531 7.058593 10.652344 7.050781 17.046875v4.765625c.007812 6.394531-2.527344 12.527344-7.050781 17.050781-4.519532 4.519531-10.652344 7.054688-17.046876 7.050781 13.308594.003907 24.09375 10.789063 24.097657 24.097657.003906 7.148437-3.167969 13.925781-8.664063 18.496093-5.492187 4.570313-12.734375 6.464844-19.757812 5.164063l-35.753906-6.445313zm0 0" fill="#9fc9d3"/><path d="m176.597656 211.90625h158.894532c63.378906 0 114.757812 51.378906 114.757812 114.761719v70.617187c0 63.382813-51.378906 114.761719-114.757812 114.761719h-158.894532c-63.382812 0-114.761718-51.378906-114.761718-114.761719v-70.617187c0-63.382813 51.378906-114.761719 114.761718-114.761719zm0 0" fill="#285680"/><path d="m176.597656 211.90625h141.238282c63.378906 0 114.761718 51.378906 114.761718 114.761719v70.617187c0 63.382813-51.382812 114.761719-114.761718 114.761719h-141.238282c-63.382812 0-114.761718-51.378906-114.761718-114.761719v-70.617187c0-63.382813 51.378906-114.761719 114.761718-114.761719zm0 0" fill="#4482c3"/><path d="m158.941406 264.871094c-4.132812-.003906-7.710937-2.875-8.609375-6.910156-6.269531-26.492188-16.648437-51.835938-30.761719-75.113282-2.332031-4.183594-.898437-9.464844 3.226563-11.898437 4.125-2.433594 9.4375-1.136719 11.972656 2.929687 15.058594 24.871094 26.125 51.953125 32.796875 80.25.507813 2.289063.089844 4.683594-1.167968 6.660156-1.253907 1.976563-3.246094 3.371094-5.535157 3.878907-.632812.132812-1.277343.203125-1.921875.203125zm0 0" fill="#285680"/><path d="m256.042969 264.871094c-4.875 0-8.828125-3.949219-8.828125-8.824219 0-30.304687 1.015625-63.234375 3.011718-97.882813.28125-4.875 4.460938-8.597656 9.335938-8.320312 4.875.28125 8.601562 4.460938 8.320312 9.335938-2.003906 34.3125-3.011718 66.90625-3.011718 96.867187 0 4.875-3.953125 8.824219-8.828125 8.824219zm0 0" fill="#285680"/><path d="m344.320312 264.871094c-4.875 0-8.828124-3.949219-8.828124-8.824219-.242188-34.683594 7.617187-68.945313 22.953124-100.054687 1.359376-2.898438 4.179688-4.832032 7.371094-5.058594 3.195313-.222656 6.257813 1.296875 8.007813 3.976562 1.753906 2.679688 1.917969 6.097656.429687 8.929688-14.113281 28.675781-21.339844 60.246094-21.105468 92.207031 0 2.339844-.929688 4.585937-2.585938 6.242187-1.65625 1.652344-3.902344 2.582032-6.242188 2.582032zm0 0" fill="#285680"/><path d="m344.320312 79.492188c0 43.878906-35.570312 79.449218-79.449218 79.449218s-79.449219-35.570312-79.449219-79.449218c0-43.875 35.570313-79.445313 79.449219-79.445313s79.449218 35.570313 79.449218 79.445313zm0 0" fill="#4482c3"/><path d="m158.941406 114.804688c0 43.878906-35.570312 79.449218-79.449218 79.449218-43.878907 0-79.4492192-35.570312-79.4492192-79.449218 0-43.878907 35.5703122-79.449219 79.4492192-79.449219 43.878906 0 79.449218 35.570312 79.449218 79.449219zm0 0" fill="#4482c3"/><path d="m150.113281 114.804688c0 39.003906-31.617187 70.621093-70.621093 70.621093-2.949219 0-5.898438-.175781-8.828126-.53125-35.394531-4.359375-61.988281-34.425781-61.988281-70.089843 0-35.664063 26.59375-65.730469 61.988281-70.089844 2.929688-.355469 5.878907-.535156 8.828126-.53125 39.003906 0 70.621093 31.617187 70.621093 70.621094zm0 0" fill="#e6e7e8"/><path d="m132.457031 114.804688c0-38.710938-27.664062-70.089844-61.792969-70.089844-34.125 0-61.792968 31.378906-61.792968 70.089844 0 38.710937 27.667968 70.089843 61.792968 70.089843 34.128907 0 61.792969-31.378906 61.792969-70.089843zm0 0" fill="#fff"/><path d="m335.492188 79.492188c0 39.003906-31.617188 70.621093-70.621094 70.621093-2.949219.003907-5.898438-.171875-8.828125-.527343-35.394531-4.359376-61.988281-34.429688-61.988281-70.09375 0-35.664063 26.59375-65.730469 61.988281-70.089844 2.929687-.355469 5.878906-.53125 8.828125-.53125 39.003906 0 70.621094 31.621094 70.621094 70.621094zm0 0" fill="#e6e7e8"/><path d="m317.835938 79.492188c0-38.707032-27.664063-70.089844-61.792969-70.089844-34.125 0-61.792969 31.382812-61.792969 70.089844 0 38.710937 27.667969 70.09375 61.792969 70.09375 34.128906 0 61.792969-31.382813 61.792969-70.09375zm0 0" fill="#fff"/><path d="m342.820312 63.957031c16.386719-35.40625 56.085938-53.636719 93.621094-42.996093 37.535156 10.640624 61.761719 46.996093 57.128906 85.734374-4.632812 38.738282-36.746093 68.355469-75.730468 69.847657-38.984375 1.492187-73.269532-25.585938-80.847656-63.859375zm0 0" fill="#4482c3"/><path d="m485.5625 97.148438c0 39.003906-31.617188 70.621093-70.621094 70.621093-2.953125.003907-5.898437-.175781-8.828125-.53125-35.398437-4.359375-61.988281-34.425781-61.988281-70.089843 0-35.664063 26.589844-65.730469 61.988281-70.089844 2.929688-.355469 5.875-.53125 8.828125-.53125 39.003906 0 70.621094 31.617187 70.621094 70.621094zm0 0" fill="#e6e7e8"/><path d="m467.90625 97.148438c0-38.710938-27.664062-70.089844-61.792969-70.089844-34.128906 0-61.792969 31.378906-61.792969 70.089844 0 38.710937 27.664063 70.089843 61.792969 70.089843 34.128907 0 61.792969-31.378906 61.792969-70.089843zm0 0" fill="#fff"/><path d="m123.628906 114.804688c0 24.375-19.757812 44.136718-44.136718 44.136718-24.375 0-44.136719-19.761718-44.136719-44.136718 0-24.378907 19.761719-44.136719 44.136719-44.136719 24.378906 0 44.136718 19.757812 44.136718 44.136719zm0 0" fill="#f0c419"/><path d="m309.007812 79.492188c0 24.378906-19.757812 44.140624-44.136718 44.140624-24.375 0-44.136719-19.761718-44.136719-44.140624 0-24.375 19.761719-44.136719 44.136719-44.136719 24.378906 0 44.136718 19.761719 44.136718 44.136719zm0 0" fill="#f0c419"/><path d="m459.078125 97.148438c0 24.378906-19.761719 44.136718-44.136719 44.136718-24.378906 0-44.136718-19.757812-44.136718-44.136718 0-24.375 19.757812-44.136719 44.136718-44.136719 24.375 0 44.136719 19.761719 44.136719 44.136719zm0 0" fill="#f0c419"/><path d="m105.976562 114.804688c0 14.625-11.859374 26.480468-26.484374 26.480468s-26.484376-11.855468-26.484376-26.480468 11.859376-26.484376 26.484376-26.484376 26.484374 11.859376 26.484374 26.484376zm0 0" fill="#2c2f38"/><path d="m291.355469 79.492188c0 14.628906-11.859375 26.484374-26.484375 26.484374s-26.480469-11.855468-26.480469-26.484374c0-14.625 11.855469-26.480469 26.480469-26.480469s26.484375 11.855469 26.484375 26.480469zm0 0" fill="#2c2f38"/><path d="m441.421875 97.148438c0 14.625-11.855469 26.484374-26.480469 26.484374s-26.484375-11.859374-26.484375-26.484374 11.859375-26.480469 26.484375-26.480469 26.480469 11.855469 26.480469 26.480469zm0 0" fill="#2c2f38"/><path d="m79.492188 88.320312c0 9.75-7.902344 17.65625-17.65625 17.65625-9.75 0-17.652344-7.90625-17.652344-17.65625s7.902344-17.652343 17.652344-17.652343c9.753906 0 17.65625 7.902343 17.65625 17.652343zm0 0" fill="#fff"/><path d="m264.871094 53.011719c0 9.75-7.902344 17.65625-17.65625 17.65625-9.75 0-17.652344-7.90625-17.652344-17.65625s7.902344-17.65625 17.652344-17.65625c9.753906 0 17.65625 7.90625 17.65625 17.65625zm0 0" fill="#fff"/><path d="m414.941406 70.667969c0 9.75-7.90625 17.652343-17.65625 17.652343s-17.65625-7.902343-17.65625-17.652343c0-9.753907 7.90625-17.65625 17.65625-17.65625s17.65625 7.902343 17.65625 17.65625zm0 0" fill="#fff"/><path d="m324.457031 26.96875c-7.0625 15.007812-31.070312 26.042969-59.585937 26.042969-28.511719 0-52.523438-11.035157-59.585938-26.042969 15.074219-17.117188 36.777344-26.9257812 59.585938-26.9257812s44.515625 9.8085932 59.585937 26.9257812zm0 0" fill="#4482c3"/><path d="m139.078125 62.28125c-7.0625 15.003906-31.074219 26.039062-59.585937 26.039062-28.511719 0-52.523438-11.035156-59.585938-26.039062 15.074219-17.117188 36.777344-26.925781 59.585938-26.925781 22.808593 0 44.515624 9.808593 59.585937 26.925781zm0 0" fill="#4482c3"/><path d="m474.527344 44.625c-7.0625 15.007812-31.074219 26.042969-59.585938 26.042969-28.515625 0-52.4375-10.949219-59.585937-25.953125 15.046875-17.152344 36.75-26.996094 59.566406-27.011719s44.535156 9.792969 59.605469 26.921875zm0 0" fill="#4482c3"/><path d="m388.457031 317.839844v123.585937c.015625 16.097657-10.886719 30.160157-26.480469 34.160157-2.875.789062-5.847656 1.175781-8.828124 1.148437h-194.207032c-2.980468.027344-5.953125-.359375-8.828125-1.148437-15.59375-4-26.496093-18.0625-26.484375-34.160157v-123.585937c-.011718-16.101563 10.890625-30.164063 26.484375-34.164063 2.875-.789062 5.847657-1.175781 8.828125-1.148437h194.207032c2.980468-.027344 5.953124.359375 8.828124 1.148437 15.59375 4 26.496094 18.0625 26.480469 34.164063zm0 0" fill="#802d40"/><g fill="#f5efca"><path d="m203.078125 282.527344h52.964844v8.828125c0 14.625-11.855469 26.484375-26.480469 26.484375-14.628906 0-26.484375-11.859375-26.484375-26.484375zm0 0"/><path d="m203.078125 282.527344v8.828125c0 14.625-11.855469 26.484375-26.480469 26.484375-14.628906 0-26.484375-11.859375-26.484375-26.484375v-7.679688c2.875-.789062 5.847657-1.175781 8.828125-1.148437zm0 0"/><path d="m256.042969 282.527344h52.964843v8.828125c0 14.625-11.855468 26.484375-26.480468 26.484375s-26.484375-11.859375-26.484375-26.484375zm0 0"/><path d="m361.976562 283.675781v7.679688c0 14.625-11.859374 26.484375-26.484374 26.484375s-26.484376-11.859375-26.484376-26.484375v-8.828125h44.140626c2.980468-.027344 5.953124.359375 8.828124 1.148437zm0 0"/><path d="m229.5625 441.425781c14.625 0 26.480469 11.855469 26.480469 26.480469v8.828125h-52.964844v-8.828125c0-14.625 11.855469-26.480469 26.484375-26.480469zm0 0"/><path d="m203.078125 467.90625v8.828125h-44.136719c-2.980468.027344-5.953125-.359375-8.828125-1.148437v-7.679688c0-7.019531 2.792969-13.753906 7.769531-18.714844.359376-.375.742188-.726562 1.144532-1.058594 7.792968-6.90625 18.914062-8.605468 28.414062-4.339843 9.5 4.261719 15.621094 13.699219 15.636719 24.113281zm0 0"/><path d="m282.527344 441.425781c14.625 0 26.480468 11.855469 26.480468 26.480469v8.828125h-52.964843v-8.828125c0-14.625 11.859375-26.480469 26.484375-26.480469zm0 0"/><path d="m361.976562 467.90625v7.679688c-2.875.789062-5.847656 1.175781-8.828124 1.148437h-44.140626v-8.828125c0-14.625 11.859376-26.480469 26.484376-26.480469s26.484374 11.855469 26.484374 26.480469zm0 0"/></g><path d="m353.148438 445.839844c.015624.765625-.015626 1.53125-.089844 2.292968-7.792969-6.90625-18.910156-8.605468-28.410156-4.339843-9.503907 4.261719-15.621094 13.699219-15.640626 24.113281 0-14.625-11.855468-26.480469-26.480468-26.480469s-26.484375 11.855469-26.484375 26.480469c0-14.625-11.855469-26.480469-26.480469-26.480469-14.628906 0-26.484375 11.855469-26.484375 26.480469-.015625-10.414062-6.136719-19.851562-15.636719-24.113281-9.5-4.265625-20.621094-2.566407-28.414062 4.339843-.070313-.761718-.101563-1.527343-.085938-2.292968 0-31.691406 43.429688-57.378906 97.101563-57.378906s97.105469 25.6875 97.105469 57.378906zm0 0" fill="#ff5364"/></svg>