<svg height="512pt" viewBox="-9 0 512 512" width="512pt" xmlns="http://www.w3.org/2000/svg"><g fill="#90bae1"><path d="m128.671875 93.132812c-11.035156-28.867187-30.894531-57.824218-66.382813-57.824218-70.621093 0-79.449218 61.792968-35.308593 70.621094 38.929687 7.769531 36.632812-39.371094 65.941406 22.160156v.085937zm0 0"/><path d="m366.046875 93.484375c10.945313-28.953125 30.808594-58.175781 66.472656-58.175781 70.621094 0 79.445313 61.792968 35.308594 70.621094-39.019531 7.769531-36.632813-39.632813-66.117187 22.601562zm0 0"/><path d="m485.484375 282.484375c0 126.761719-106.726563 229.515625-238.34375 229.515625-3.003906 0-5.917969-.089844-8.828125-.175781-127.558594-4.414063-229.519531-105.402344-229.519531-229.339844 0-112.113281 186.527343-246.910156 229.519531-276.480469 5.648438-3.972656 8.828125-6.003906 8.828125-6.003906s238.34375 155.71875 238.34375 282.484375zm0 0"/></g><path d="m467.828125 282.484375c0 123.9375-101.957031 224.925781-229.515625 229.339844-127.558594-4.414063-229.519531-105.402344-229.519531-229.339844 0-112.113281 186.527343-246.910156 229.519531-276.480469 42.988281 29.570313 229.515625 164.367188 229.515625 276.480469zm0 0" fill="#b0d3f0"/><path d="m44.105469 291.308594c-4.875 0-8.828125-3.949219-8.828125-8.824219 0-80.738281 129.984375-193.324219 206.785156-247.058594 3.992188-2.617187 9.339844-1.589843 12.074219 2.320313s1.867187 9.285156-1.957031 12.136718c-95.964844 67.199219-199.246094 168.636719-199.246094 232.601563 0 4.875-3.953125 8.824219-8.828125 8.824219zm0 0" fill="#fff"/><path d="m247.140625 353.101562c0 43.878907-35.570313 79.449219-79.449219 79.449219-2.953125.003907-5.898437-.171875-8.828125-.527343-40.066406-4.652344-70.289062-38.585938-70.289062-78.921876 0-40.332031 30.222656-74.265624 70.289062-78.917968 2.929688-.355469 5.875-.53125 8.828125-.527344 43.878906 0 79.449219 35.570312 79.449219 79.445312zm0 0" fill="#e6e7e8"/><path d="m229.484375 353.101562c0-43.582031-31.617187-78.917968-70.621094-78.917968-39.003906 0-70.621093 35.335937-70.621093 78.917968 0 43.585938 31.617187 78.921876 70.621093 78.921876 39.003907 0 70.621094-35.335938 70.621094-78.921876zm0 0" fill="#fff"/><path d="m406.035156 353.101562c0 43.878907-35.570312 79.449219-79.449218 79.449219-2.949219.003907-5.898438-.171875-8.828126-.527343-40.0625-4.652344-70.289062-38.585938-70.289062-78.921876 0-40.332031 30.226562-74.265624 70.289062-78.917968 2.929688-.355469 5.878907-.53125 8.828126-.527344 43.878906 0 79.449218 35.570312 79.449218 79.445312zm0 0" fill="#e6e7e8"/><path d="m388.378906 353.101562c0-43.582031-31.617187-78.917968-70.621094-78.917968-39 0-70.617187 35.335937-70.617187 78.917968 0 43.585938 31.617187 78.921876 70.617187 78.921876 39.003907 0 70.621094-35.335938 70.621094-78.921876zm0 0" fill="#fff"/><path d="m273.621094 485.515625h-52.964844c-14.625 0-26.484375-11.855469-26.484375-26.480469 0-4.875 3.953125-8.828125 8.828125-8.828125s8.828125 3.953125 8.828125 8.828125 3.953125 8.828125 8.828125 8.828125h52.964844c4.875 0 8.828125-3.953125 8.828125-8.828125s3.953125-8.828125 8.828125-8.828125 8.828125 3.953125 8.828125 8.828125c0 14.625-11.859375 26.480469-26.484375 26.480469zm0 0" fill="#802d40"/><path d="m211.828125 353.101562c0 24.378907-19.761719 44.140626-44.136719 44.140626-24.378906 0-44.140625-19.761719-44.140625-44.140626 0-24.375 19.761719-44.136718 44.140625-44.136718 24.375 0 44.136719 19.761718 44.136719 44.136718zm0 0" fill="#4482c3"/><path d="m370.726562 353.101562c0 24.378907-19.761718 44.140626-44.140624 44.140626-24.375 0-44.136719-19.761719-44.136719-44.140626 0-24.375 19.761719-44.136718 44.136719-44.136718 24.378906 0 44.140624 19.761718 44.140624 44.136718zm0 0" fill="#4482c3"/><path d="m194.171875 353.101562c0 14.628907-11.855469 26.484376-26.480469 26.484376s-26.484375-11.855469-26.484375-26.484376c0-14.625 11.859375-26.480468 26.484375-26.480468s26.480469 11.855468 26.480469 26.480468zm0 0" fill="#2c2f38"/><path d="m353.070312 353.101562c0 14.628907-11.855468 26.484376-26.484374 26.484376-14.625 0-26.480469-11.855469-26.480469-26.484376 0-14.625 11.855469-26.480468 26.480469-26.480468 14.628906 0 26.484374 11.855468 26.484374 26.480468zm0 0" fill="#2c2f38"/><path d="m167.691406 326.621094c0 14.625-11.859375 26.480468-26.484375 26.480468s-26.480469-11.855468-26.480469-26.480468 11.855469-26.484375 26.480469-26.484375 26.484375 11.859375 26.484375 26.484375zm0 0" fill="#fff"/><path d="m326.585938 326.621094c0 14.625-11.855469 26.480468-26.480469 26.480468-14.628907 0-26.484375-11.855468-26.484375-26.480468s11.855468-26.484375 26.484375-26.484375c14.625 0 26.480469 11.859375 26.480469 26.484375zm0 0" fill="#fff"/></svg>