<svg height="512pt" viewBox="0 -46 512.00033 512" width="512pt" xmlns="http://www.w3.org/2000/svg"><path d="m424.519531 178.863281 39.015625 14.652344c8.699219 3.476563 18.421875 3.359375 27.03125-.332031s15.398438-10.65625 18.875-19.355469c1.703125-4.171875 2.574219-8.640625 2.558594-13.152344-.007812-14.414062-8.777344-27.378906-22.15625-32.75l-146.1875-54.820312-175.226562-.085938-.175782.085938-146.097656 54.820312c-13.378906 5.371094-22.1484375 18.335938-22.15625 32.75-.015625 4.511719.855469 8.980469 2.558594 13.152344 3.476562 8.699219 10.265625 15.664063 18.875 19.355469s18.332031 3.808594 27.03125.332031l39.105468-14.652344zm0 0" fill="#804169"/><path d="m212.921875 21.554688c-.363281 1.109374-1.160156 2.023437-2.207031 2.539062-1.042969.511719-2.253906.585938-3.355469.195312-2.140625-.847656-4.359375-1.496093-6.621094-1.941406 3.996094-.890625 8.105469-1.160156 12.183594-.792968zm0 0" fill="#cc66a1"/><path d="m441.378906 264.664062c0 45.109376-14.652344 55.351563-39.28125 82.894532-5.507812 26.261718-17.667968 50.667968-35.3125 70.882812-.976562 1.050782-2.402344 1.5625-3.824218 1.371094-1.425782-.195312-2.664063-1.066406-3.324219-2.339844-1.113281-2.34375-2.640625-4.464844-4.503907-6.269531 14.382813-18.769531 24.394532-40.515625 29.308594-63.644531 24.628906-27.542969 39.28125-37.785156 39.28125-82.894532 0-85.800781-53.140625-175.492187-126.675781-207.976562-1.308594-.519531-2.285156-1.640625-2.617187-3.007812-.332032-1.371094.019531-2.8125.941406-3.878907 7.648437-7.972656 16.347656-14.863281 25.863281-20.476562 1.257813-.796875 2.039063-2.15625 2.089844-3.640625.054687-1.480469-.628907-2.894532-1.824219-3.777344-4.207031-3.109375-9.015625-5.304688-14.125-6.441406 11.027344-2.566406 22.625-.214844 31.78125 6.441406 1.195312.882812 1.878906 2.296875 1.824219 3.777344-.050781 1.484375-.835938 2.84375-2.089844 3.640625-9.515625 5.613281-18.21875 12.503906-25.863281 20.476562-.925782 1.066407-1.273438 2.507813-.941406 3.878907.332031 1.367187 1.308593 2.488281 2.617187 3.007812 73.535156 32.484375 126.675781 122.175781 126.675781 207.976562zm0 0" fill="#804169"/><path d="m423.722656 264.664062c0 45.109376-14.652344 55.351563-39.28125 82.894532-4.914062 23.128906-14.925781 44.875-29.308594 63.644531-3.707031-3.707031-9.355468-5.296875-17.125.441406-2.625 1.964844-5.023437 4.214844-7.148437 6.710938-.941406 1.070312-2.339844 1.625-3.757813 1.484375-1.417968-.136719-2.683593-.957032-3.394531-2.191406-1.058593-1.765626-2.292969-3.796876-3.707031-5.738282-3.59375-5.699218-9.429688-9.613281-16.066406-10.769531-2.707032-.238281-5.425782.28125-7.855469 1.5-.707031.351563-1.414063.707031-2.121094 1.148437-3.316406 2.019532-6.273437 4.585938-8.738281 7.589844-1.398438 1.71875-3.851562 2.132813-5.738281.972656-2.730469-1.792968-5.703125-3.191406-8.828125-4.148437h-.085938c-4.699218-1.554687-9.617187-2.328125-14.566406-2.296875-2.960938-.027344-5.917969.238281-8.828125.796875-5.210937.882813-10.195313 2.804687-14.652344 5.648437-1.886719 1.160157-4.339843.746094-5.738281-.972656-.972656-1.144531-2.03125-2.207031-3-3.175781h-.089844c-2.234375-2.304687-4.867187-4.191406-7.769531-5.5625-2.429687-1.21875-5.148437-1.738281-7.855469-1.5-2.746094.195313-5.394531 1.105469-7.679687 2.648437-5.066407 3.601563-9.210938 8.351563-12.09375 13.859376-.710938 1.234374-1.976563 2.054687-3.394531 2.191406-1.417969.140625-2.816407-.414063-3.757813-1.484375-2.03125-2.382813-4.3125-4.542969-6.796875-6.445313-8.296875-6.355468-14.121094-4.238281-18.007812-.265625-1.597657 1.738281-2.9375 3.703125-3.972657 5.828125-.660156 1.273438-1.898437 2.144532-3.324219 2.339844-1.421874.191406-2.847656-.320312-3.824218-1.371094-2.121094-2.382812-4.148438-4.765625-6.003906-7.238281-14.382813-18.769531-24.394532-40.515625-29.308594-63.644531-24.628906-27.542969-39.28125-37.785156-39.28125-82.894532 0-88.007812 55.789062-180.167968 132.5-210.359374 1.671875-.601563 2.820312-2.140626 2.917968-3.914063.09375-1.773437-.878906-3.429687-2.476562-4.207031-7.617188-3.035156-15.839844-4.242188-24.007812-3.53125-1.847657.050781-3.53125-1.050782-4.21875-2.765625-.691407-1.710938-.238282-3.671875 1.128906-4.914063 6.910156-6.167968 15.257812-10.507812 24.273437-12.625 2.261719.445313 4.480469 1.09375 6.621094 1.941406 1.101563.390626 2.3125.316407 3.355469-.195312 1.046875-.515625 1.84375-1.429688 2.207031-2.539062 4.144531.304687 8.222656 1.226562 12.09375 2.734374 1.101563.390626 2.308594.316407 3.355469-.195312 1.046875-.515625 1.84375-1.429688 2.207031-2.539062 2.207031-6.003907 9.179687-16.066407 31.070313-20.039063 4.640624-.820313 9.328124-1.320313 14.039062-1.5 1.449219-.117187 2.863281.484375 3.78125 1.613281.917969 1.132813 1.21875 2.640625.808594 4.035156-1.511719 4.210938-2.023438 8.710938-1.503906 13.152344.203124 1.179688.527343 2.335938.972656 3.445313.558594 1.105469 1.554687 1.925781 2.746094 2.261719 1.191406.335937 2.46875.15625 3.523437-.496094 6.539063-4.070313 13.738281-6.96875 21.273437-8.5625h.085938c5.109375 1.136718 9.917969 3.332031 14.125 6.441406 1.195312.882812 1.878906 2.296875 1.824219 3.777344-.050781 1.484375-.832031 2.84375-2.089844 3.640625-9.515625 5.613281-18.214844 12.503906-25.863281 20.476562-.921875 1.066407-1.273438 2.507813-.941406 3.878907.332031 1.367187 1.308593 2.488281 2.617187 3.007812 73.535156 32.484375 126.675781 122.175781 126.675781 207.976562zm0 0" fill="#cc66a1"/><path d="m256 194.046875c0 34.125-27.664062 61.792969-61.792969 61.792969-2.957031.035156-5.914062-.203125-8.828125-.707032-30.382812-4.363281-52.941406-30.394531-52.941406-61.085937 0-30.695313 22.558594-56.726563 52.941406-61.089844 2.914063-.503906 5.871094-.742187 8.828125-.707031 34.128907 0 61.792969 27.667969 61.792969 61.796875zm0 0" fill="#e6e7e8"/><path d="m238.34375 194.046875c.046875 30.71875-22.546875 56.777344-52.964844 61.085937-30.382812-4.363281-52.941406-30.394531-52.941406-61.085937 0-30.695313 22.558594-56.726563 52.941406-61.089844 30.417969 4.308594 53.011719 30.367188 52.964844 61.089844zm0 0" fill="#fff"/><path d="m379.585938 194.046875c0 34.125-27.664063 61.792969-61.792969 61.792969-2.957031.035156-5.914063-.203125-8.828125-.707032-30.382813-4.363281-52.941406-30.394531-52.941406-61.085937 0-30.695313 22.558593-56.726563 52.941406-61.089844 2.914062-.503906 5.871094-.742187 8.828125-.707031 34.128906 0 61.792969 27.667969 61.792969 61.796875zm0 0" fill="#e6e7e8"/><path d="m361.929688 194.046875c.046874 30.71875-22.546876 56.777344-52.964844 61.085937-30.382813-4.363281-52.941406-30.394531-52.941406-61.085937 0-30.695313 22.558593-56.726563 52.941406-61.089844 30.417968 4.308594 53.011718 30.367188 52.964844 61.089844zm0 0" fill="#fff"/><path d="m229.515625 194.046875c0 19.5-15.808594 35.308594-35.308594 35.308594s-35.308593-15.808594-35.308593-35.308594c0-19.503906 15.808593-35.3125 35.308593-35.3125s35.308594 15.808594 35.308594 35.3125zm0 0" fill="#f29c1f"/><path d="m353.105469 194.046875c0 19.5-15.8125 35.308594-35.3125 35.308594s-35.308594-15.808594-35.308594-35.308594c0-19.503906 15.808594-35.3125 35.308594-35.3125s35.3125 15.808594 35.3125 35.3125zm0 0" fill="#f29c1f"/><path d="m211.863281 194.046875c0 9.75-7.90625 17.652344-17.65625 17.652344s-17.65625-7.902344-17.65625-17.652344c0-9.753906 7.90625-17.65625 17.65625-17.65625s17.65625 7.902344 17.65625 17.65625zm0 0" fill="#2c2f38"/><path d="m335.449219 194.046875c0 9.75-7.90625 17.652344-17.65625 17.652344s-17.65625-7.902344-17.65625-17.652344c0-9.753906 7.90625-17.65625 17.65625-17.65625s17.65625 7.902344 17.65625 17.65625zm0 0" fill="#2c2f38"/><path d="m220.691406 308.804688h35.308594v17.652343c0 9.753907-7.90625 17.65625-17.65625 17.65625s-17.652344-7.902343-17.652344-17.65625zm0 0" fill="#f5efca"/><path d="m256 308.804688h35.308594v17.652343c0 9.753907-7.902344 17.65625-17.652344 17.65625s-17.65625-7.902343-17.65625-17.65625zm0 0" fill="#f5efca"/><path d="m335.449219 317.632812h-158.898438c-14.625 0-26.480469-11.859374-26.480469-26.484374 0-4.875 3.949219-8.828126 8.828126-8.828126 4.875 0 8.824218 3.953126 8.824218 8.828126s3.953125 8.828124 8.828125 8.828124h158.898438c4.875 0 8.828125-3.953124 8.828125-8.828124s3.949218-8.828126 8.828125-8.828126c4.875 0 8.824219 3.953126 8.824219 8.828126 0 14.625-11.855469 26.484374-26.480469 26.484374zm0 0" fill="#802d40"/><g fill="#fff"><path d="m194.207031 167.5625c0 9.75-7.90625 17.65625-17.65625 17.65625s-17.652343-7.90625-17.652343-17.65625 7.902343-17.65625 17.652343-17.65625 17.65625 7.90625 17.65625 17.65625zm0 0"/><path d="m317.792969 167.5625c0 9.75-7.902344 17.65625-17.65625 17.65625-9.75 0-17.652344-7.90625-17.652344-17.65625s7.902344-17.65625 17.652344-17.65625c9.753906 0 17.65625 7.90625 17.65625 17.65625zm0 0"/></g></svg>