<svg height="512pt" viewBox="0 0 512 512" width="512pt" xmlns="http://www.w3.org/2000/svg"><path d="m141.59375 254.898438c-8.296875-12.183594-21.890625-16.6875-53.316406-16.6875-44.140625 0-35.3125-70.617188 26.480468-52.964844 29.152344 7.390625 53.316407 27.71875 65.589844 55.171875zm0 0" fill="#84b5cb"/><path d="m331.652344 240.417969c12.273437-27.453125 36.4375-47.78125 65.589844-55.171875 61.792968-17.652344 70.621093 52.964844 26.480468 52.964844-31.425781 0-45.019531 4.503906-53.316406 16.6875zm0 0" fill="#84b5cb"/><path d="m512 422.621094c0 78.035156-114.582031 89.246094-256 89.246094-3 0-5.914062 0-8.828125-.085938-137.355469-.441406-247.171875-12.800781-247.171875-89.160156 0-73.003906 100.546875-178.847656 229.515625-191.910156v-58.351563c3.753906-2.957031 8.085937-5.089844 12.714844-6.269531 13.417969-3.351563 26.835937 2.648437 40.253906 6.269531v58.351563c128.96875 13.0625 229.515625 118.90625 229.515625 191.910156zm0 0" fill="#285680"/><path d="m494.34375 422.621094c0 76.359375-109.8125 88.71875-247.171875 89.160156-137.355469-.441406-247.171875-12.800781-247.171875-89.160156 0-73.003906 100.546875-178.847656 229.515625-191.910156v-58.351563c3.753906-2.957031 8.085937-5.089844 12.714844-6.269531 7.5 1.414062 15.09375 4.238281 22.597656 6.269531v58.351563c128.96875 13.0625 229.515625 118.90625 229.515625 191.910156zm0 0" fill="#4482c3"/><path d="m238.34375 317.660156c-6.195312.3125-12.128906-2.515625-15.792969-7.519531-7.554687-10.480469-2.496093-27.3125-1.410156-30.578125.992187-2.996094 3.507813-5.234375 6.601563-5.875 3.089843-.636719 6.289062.421875 8.386718 2.78125s2.777344 5.65625 1.785156 8.652344c-1.878906 4.679687-2.230468 9.828125-1.015624 14.71875.464843.144531.957031.199218 1.445312.167968 4.875 0 8.828125 3.949219 8.828125 8.824219s-3.953125 8.828125-8.828125 8.828125zm0 0" fill="#285680"/><path d="m271.449219 317.660156c-4.875 0-8.828125-3.953125-8.828125-8.828125s3.953125-8.824219 8.828125-8.824219c.511719.039063 1.027343-.03125 1.507812-.214843 1.160157-4.882813.789063-10.003907-1.066406-14.671875-1.535156-4.628906.972656-9.628906 5.605469-11.164063 4.628906-1.535156 9.628906.972657 11.164062 5.605469 1.085938 3.265625 6.179688 20.097656-1.410156 30.578125-3.664062 5.007813-9.605469 7.835937-15.800781 7.519531zm0 0" fill="#285680"/><path d="m406.070312 362.945312c0 6.589844-.472656 13.167969-1.414062 19.6875-2.941406 24.335938-15.066406 46.628907-33.898438 62.320313-5.054687 4.25-10.527343 7.976563-16.332031 11.125-11.539062 6.25-23.859375 10.9375-36.632812 13.945313-5.472657 1.324218-11.300781 2.472656-17.476563 3.355468-11.75 1.796875-23.605468 2.796875-35.488281 3.003906-2.824219.175782-5.828125.175782-8.828125.175782s-6.003906 0-8.828125-.175782c-11.882813-.207031-23.738281-1.207031-35.488281-3.003906-6.175782-.882812-12.003906-2.03125-17.476563-3.355468-12.773437-3.007813-25.09375-7.695313-36.632812-13.945313-5.804688-3.148437-11.277344-6.875-16.332031-11.125-21.457032-18.261719-34.1875-44.75-35.046876-72.914063-.414062-6.734374-.382812-13.484374.089844-20.214843.671875-9.546875 2.105469-19.027344 4.289063-28.34375.699219-2.949219 2.875-5.328125 5.753906-6.285157 2.875-.960937 6.042969-.363281 8.371094 1.578126 5.390625 4.332031 11.234375 8.074218 17.425781 11.15625 5.414062 2.777343 11.019531 5.167968 16.773438 7.152343 11.546874 4.140625 23.414062 7.328125 35.484374 9.535157 1.414063.351562 2.824219.617187 4.238282.882812 4.589844.792969 9.003906 1.5 13.242187 2.027344 14.652344 2.03125 27.363281 2.914062 35.308594 3.179687 5.5625.265625 8.828125.265625 8.828125.265625s3.265625 0 8.828125-.265625c7.945313-.265625 20.65625-1.148437 35.308594-3.179687 5.5625-.792969 11.476562-1.675782 17.480469-2.910156 12.070312-2.207032 23.9375-5.394532 35.484374-9.535157 5.753907-1.984375 11.359376-4.375 16.773438-7.152343 6.183594-3.085938 12.019531-6.828126 17.410156-11.15625 2.332032-1.933594 5.5-2.527344 8.375-1.566407 2.875.960938 5.046875 3.339844 5.746094 6.289063 3.054688 12.929687 4.621094 26.164062 4.664062 39.449218zm0 0" fill="#fff"/><g fill="#e6e7e8"><path d="m406.070312 362.945312c0 6.589844-.472656 13.167969-1.414062 19.6875-10.886719 6.464844-22.214844 12.160157-33.898438 17.035157-1.765624.882812-3.617187 1.589843-5.472656 2.386719-4.058594 1.585937-8.121094 3.175781-12.183594 4.589843-11.554687 4.066407-23.34375 7.429688-35.308593 10.0625-2.382813.53125-4.765625 1.058594-7.148438 1.5-3.445312.707031-6.976562 1.324219-10.507812 1.765625-11.675781 1.957032-23.472657 3.078125-35.308594 3.355469-2.914063.175781-5.914063.265625-8.828125.265625s-5.914062-.089844-8.828125-.179688c-11.851563-.398437-23.65625-1.699218-35.308594-3.882812-3.621093-.707031-7.238281-1.414062-10.859375-2.292969-2.296875-.53125-4.5-1.0625-6.796875-1.679687-12.070312-3.203125-23.875-7.335938-35.308593-12.359375-4.328126-1.851563-8.566407-3.882813-12.800782-6-1.664062-.796875-3.285156-1.679688-4.855468-2.648438-12.316407-6.46875-24.042969-14-35.046876-22.511719-.414062-6.734374-.382812-13.484374.089844-20.214843 1.894532.082031 3.71875.761719 5.207032 1.941406 9.386718 7.617187 19.332031 14.523437 29.75 20.65625 4.148437 2.472656 8.472656 4.855469 12.800781 7.0625 1.585937.792969 3.265625 1.589844 4.855469 2.382813 11.378906 5.441406 23.1875 9.929687 35.308593 13.417968 3.621094 1.058594 7.238281 1.941406 10.859375 2.824219 2.207032.53125 4.5 1.0625 6.796875 1.503906 11.640625 2.3125 23.449219 3.699219 35.308594 4.148438 5.914063.175781 11.742187.261719 17.65625-.089844 11.839844-.292969 23.644531-1.472656 35.308594-3.53125 2.382812-.351563 4.769531-.792969 7.152343-1.234375 3.53125-.707031 6.972657-1.414062 10.503907-2.296875 12.011719-2.78125 23.8125-6.410156 35.308593-10.855469 1.855469-.621094 3.710938-1.414062 5.5625-2.121094 4.0625-1.675781 8.121094-3.355468 12.09375-5.296874 10.476563-4.71875 20.648438-10.082032 30.457032-16.066407 1.453125-.90625 3.140625-1.367187 4.855468-1.324219zm0 0"/><path d="m264.828125 352.707031v123.675781c-2.824219.175782-5.828125.175782-8.828125.175782s-6.003906 0-8.828125-.175782v-123.675781c5.5625.265625 8.828125.265625 8.828125.265625s3.265625 0 8.828125-.265625zm0 0"/><path d="m211.863281 349.527344v122.441406c.03125.476562-.027343.957031-.179687 1.410156-6.175782-.882812-12.003906-2.03125-17.476563-3.355468v-121.820313c.015625-.53125.074219-1.0625.175781-1.585937 1.414063.351562 2.824219.617187 4.238282.882812 4.589844.792969 9.003906 1.5 13.242187 2.027344zm0 0"/><path d="m158.898438 337.082031v114.40625c.019531 1.625-.441407 3.222657-1.324219 4.589844-5.804688-3.148437-11.277344-6.875-16.332031-11.125v-111.3125c-.023438-1.292969.28125-2.566406.882812-3.710937 5.414062 2.777343 11.019531 5.167968 16.773438 7.152343zm0 0"/><path d="m317.792969 348.203125v121.820313c-5.472657 1.324218-11.300781 2.472656-17.476563 3.355468-.152344-.453125-.210937-.933594-.179687-1.410156v-122.441406c5.5625-.792969 11.476562-1.675782 17.480469-2.910156.101562.523437.160156 1.054687.175781 1.585937zm0 0"/><path d="m370.757812 333.640625v111.3125c-5.054687 4.25-10.527343 7.976563-16.332031 11.125-.882812-1.367187-1.34375-2.964844-1.324219-4.589844v-114.40625c5.753907-1.984375 11.359376-4.375 16.773438-7.152343.601562 1.144531.90625 2.417968.882812 3.710937zm0 0"/></g><path d="m282.484375 172.359375c41.535156-13.074219 67.320313-54.5 60.707031-97.542969-6.613281-43.039062-43.644531-74.816406-87.191406-74.816406s-80.578125 31.777344-87.191406 74.816406c-6.613282 43.042969 19.171875 84.46875 60.707031 97.542969zm0 0" fill="#4482c3"/><path d="m305.964844 138.109375c-13.226563 13.28125-31.21875 20.71875-49.964844 20.65625-2.953125.015625-5.90625-.191406-8.828125-.617187-15.578125-1.859376-30.070313-8.917969-41.136719-20.039063-27.542968-27.617187-27.542968-72.3125 0-99.929687 11.066406-11.121094 25.558594-18.183594 41.136719-20.039063 2.921875-.429687 5.875-.632813 8.828125-.617187 28.582031-.023438 54.355469 17.183593 65.296875 43.585937 10.941406 26.40625 4.886719 56.800781-15.332031 77zm0 0" fill="#e6e7e8"/><path d="m288.308594 138.109375c-11.0625 11.121094-25.558594 18.179687-41.136719 20.039063-15.578125-1.859376-30.070313-8.917969-41.136719-20.039063-27.542968-27.617187-27.542968-72.3125 0-99.929687 11.066406-11.121094 25.558594-18.183594 41.136719-20.039063 15.578125 1.855469 30.074219 8.917969 41.136719 20.039063 27.542968 27.617187 27.542968 72.3125 0 99.929687zm0 0" fill="#fff"/><path d="m291.308594 88.144531c0 19.5-15.808594 35.308594-35.308594 35.308594s-35.308594-15.808594-35.308594-35.308594c0-19.503906 15.808594-35.3125 35.308594-35.3125s35.308594 15.808594 35.308594 35.3125zm0 0" fill="#f0c419"/><path d="m273.65625 88.144531c0 9.75-7.90625 17.65625-17.65625 17.65625s-17.65625-7.90625-17.65625-17.65625 7.90625-17.65625 17.65625-17.65625 17.65625 7.90625 17.65625 17.65625zm0 0" fill="#2c2f38"/><path d="m256 61.660156c0 9.75-7.90625 17.65625-17.65625 17.65625s-17.652344-7.90625-17.652344-17.65625 7.902344-17.652344 17.652344-17.652344 17.65625 7.902344 17.65625 17.652344zm0 0" fill="#fff"/></svg>