<svg height="512pt" viewBox="0 -4 512.00009 512" width="512pt" xmlns="http://www.w3.org/2000/svg"><path d="m512 173.558594v286.375c0 23.960937-19.425781 43.386718-43.390625 43.386718h-416.542969c-11.507812 0-22.542968-4.570312-30.679687-12.707031s-12.707031-19.171875-12.707031-30.679687v-338.441406c.015624-63.71875 49.257812-116.59375 112.8125-121.144532 2.863281-.2617185 5.726562-.347656 8.675781-.347656 67.097656 0 121.492187 54.394531 121.492187 121.492188v286.371093c-.050781 11.035157 6.925782 20.875 17.355469 24.472657 2.773437 1.050781 5.714844 1.582031 8.679687 1.5625 14.378907 0 26.035157-11.65625 26.035157-26.035157v-234.304687c-.007813-54.152344 41.492187-99.273438 95.457031-103.789063 2.863281-.257812 5.726562-.347656 8.675781-.347656 27.632813-.035156 54.140625 10.925781 73.675781 30.460937 19.539063 19.539063 30.496094 46.046876 30.460938 73.675782zm0 0" fill="#804169"/><path d="m494.644531 173.558594v286.375c0 23.960937-19.425781 43.386718-43.390625 43.386718h-399.1875c-11.507812 0-22.542968-4.570312-30.679687-12.707031s-12.707031-19.171875-12.707031-30.679687v-338.441406c.015624-63.71875 49.257812-116.59375 112.8125-121.144532 63.574218 4.507813 112.835937 57.410156 112.8125 121.144532v286.371093c0 14.378907 11.65625 26.035157 26.035156 26.035157 2.964844.019531 5.90625-.511719 8.675781-1.5625 2.773437 1.050781 5.714844 1.582031 8.679687 1.5625 14.378907 0 26.035157-11.65625 26.035157-26.035157v-234.304687c-.007813-54.152344 41.492187-99.273438 95.457031-103.789063 53.992188 4.453125 95.527344 49.613281 95.457031 103.789063zm0 0" fill="#cc66a1"/><path d="m130.167969 147.527344c0 11.503906-4.570313 22.542968-12.707031 30.679687-8.136719 8.136719-19.171876 12.707031-30.679688 12.707031-2.886719.023438-5.769531-.269531-8.59375-.867187h-.171875c-20.222656-4.105469-34.757813-21.886719-34.757813-42.519531 0-20.636719 14.535157-38.417969 34.757813-42.523438h.171875c2.824219-.597656 5.707031-.890625 8.59375-.867187 23.960938 0 43.386719 19.425781 43.386719 43.390625zm0 0" fill="#e6e7e8"/><path d="m112.8125 147.527344c-.019531 20.582031-14.472656 38.328125-34.625 42.519531h-.171875c-20.222656-4.105469-34.757813-21.886719-34.757813-42.519531 0-20.636719 14.535157-38.417969 34.757813-42.523438h.171875c20.152344 4.191406 34.605469 21.9375 34.625 42.523438zm0 0" fill="#fff"/><path d="m216.949219 147.527344c0 11.503906-4.570313 22.542968-12.707031 30.679687-8.140626 8.136719-19.175782 12.707031-30.683594 12.707031-2.886719.023438-5.765625-.269531-8.589844-.867187h-.175781c-20.222657-4.105469-34.753907-21.886719-34.753907-42.519531 0-20.636719 14.53125-38.417969 34.753907-42.523438h.175781c2.824219-.597656 5.703125-.890625 8.589844-.867187 23.964844 0 43.390625 19.425781 43.390625 43.390625zm0 0" fill="#e6e7e8"/><path d="m199.59375 147.527344c-.019531 20.582031-14.472656 38.328125-34.625 42.519531h-.175781c-20.222657-4.105469-34.753907-21.886719-34.753907-42.519531 0-20.636719 14.53125-38.417969 34.753907-42.523438h.175781c20.152344 4.191406 34.605469 21.9375 34.625 42.523438zm0 0" fill="#fff"/><path d="m477.289062 199.59375c0 38.339844-31.082031 69.421875-69.425781 69.421875-2.898437.003906-5.796875-.171875-8.675781-.519531-34.796875-4.285156-60.9375-33.84375-60.9375-68.902344s26.140625-64.617188 60.9375-68.902344c2.878906-.351562 5.777344-.523437 8.675781-.523437 38.34375 0 69.425781 31.082031 69.425781 69.425781zm0 0" fill="#e6e7e8"/><path d="m459.933594 199.59375c0-38.054688-27.199219-68.902344-60.746094-68.902344-33.550781 0-60.746094 30.847656-60.746094 68.902344s27.195313 68.902344 60.746094 68.902344c33.546875 0 60.746094-30.847656 60.746094-68.902344zm0 0" fill="#fff"/><path d="m78.101562 60.746094c-4.117187-.007813-7.664062-2.90625-8.488281-6.941406-.363281-1.570313-8.605469-36.449219-60.933593-36.449219-4.792969 0-8.679688-3.882813-8.679688-8.675781 0-4.792969 3.886719-8.679688 8.679688-8.679688 67.078124 0 77.832031 49.863281 77.925781 50.332031.460937 2.253907.007812 4.601563-1.261719 6.523438-1.269531 1.917969-3.25 3.257812-5.507812 3.714843-.570313.121094-1.152344.179688-1.734376.175782zm0 0" fill="#894b9d"/><path d="m182.238281 60.746094c-.585937-.003906-1.164062-.0625-1.738281-.183594-4.691406-.957031-7.722656-5.535156-6.765625-10.230469.09375-.46875 10.847656-50.332031 77.925781-50.332031 4.792969 0 8.679688 3.886719 8.679688 8.679688 0 4.792968-3.886719 8.675781-8.679688 8.675781-52.421875 0-60.605468 34.988281-60.925781 36.449219-.84375 4.027343-4.382813 6.917968-8.496094 6.941406zm0 0" fill="#894b9d"/><path d="m112.8125 147.527344c0 14.375-11.65625 26.03125-26.03125 26.03125-14.378906 0-26.035156-11.65625-26.035156-26.03125 0-14.378906 11.65625-26.035156 26.035156-26.035156 14.375 0 26.03125 11.65625 26.03125 26.035156zm0 0" fill="#f0c419"/><path d="m199.59375 147.527344c0 14.375-11.65625 26.03125-26.035156 26.03125s-26.03125-11.65625-26.03125-26.03125c0-14.378906 11.652344-26.035156 26.03125-26.035156s26.035156 11.65625 26.035156 26.035156zm0 0" fill="#f0c419"/><path d="m95.457031 147.527344c0 4.789062-3.882812 8.675781-8.675781 8.675781s-8.679688-3.886719-8.679688-8.675781c0-4.792969 3.886719-8.679688 8.679688-8.679688s8.675781 3.886719 8.675781 8.679688zm0 0" fill="#2c2f38"/><path d="m182.238281 147.527344c0 4.789062-3.886719 8.675781-8.679687 8.675781-4.792969 0-8.675782-3.886719-8.675782-8.675781 0-4.792969 3.882813-8.679688 8.675782-8.679688 4.792968 0 8.679687 3.886719 8.679687 8.679688zm0 0" fill="#2c2f38"/><path d="m451.253906 199.59375c0 23.964844-19.425781 43.390625-43.390625 43.390625-23.960937 0-43.390625-19.425781-43.390625-43.390625s19.429688-43.390625 43.390625-43.390625c23.964844 0 43.390625 19.425781 43.390625 43.390625zm0 0" fill="#c03a2b"/><path d="m433.898438 199.59375c0 14.378906-11.65625 26.035156-26.035157 26.035156-14.378906 0-26.03125-11.65625-26.03125-26.035156s11.652344-26.035156 26.03125-26.035156c14.378907 0 26.035157 11.65625 26.035157 26.035156zm0 0" fill="#2c2f38"/><g fill="#f5efca"><path d="m112.8125 225.628906c9.585938 0 17.355469 7.769532 17.355469 17.355469v17.355469h-34.710938v-17.355469c0-9.585937 7.769531-17.355469 17.355469-17.355469zm0 0"/><path d="m112.8125 225.628906c9.585938 0 17.355469 7.769532 17.355469 17.355469v17.355469h-34.710938v-17.355469c0-9.585937 7.769531-17.355469 17.355469-17.355469zm0 0"/><path d="m147.527344 225.628906c9.582031 0 17.355468 7.769532 17.355468 17.355469v17.355469h-34.714843v-17.355469c0-9.585937 7.773437-17.355469 17.359375-17.355469zm0 0"/><path d="m373.152344 303.730469h34.710937v17.355469c0 9.585937-7.769531 17.355468-17.355469 17.355468-9.585937 0-17.355468-7.769531-17.355468-17.355468zm0 0"/><path d="m407.863281 303.730469h34.714844v17.355469c0 9.585937-7.773437 17.355468-17.359375 17.355468-9.582031 0-17.355469-7.769531-17.355469-17.355468zm0 0"/></g><path d="m407.863281 78.101562c-4.792969 0-8.675781-3.886718-8.675781-8.679687v-34.710937c0-4.792969 3.882812-8.675782 8.675781-8.675782s8.679688 3.882813 8.679688 8.675782v34.710937c0 4.792969-3.886719 8.679687-8.679688 8.679687zm0 0" fill="#cc66a1"/><path d="m425.21875 17.355469c0 9.585937-7.769531 17.355469-17.355469 17.355469-9.585937 0-17.355469-7.769532-17.355469-17.355469 0-9.585938 7.769532-17.355469 17.355469-17.355469 9.585938 0 17.355469 7.769531 17.355469 17.355469zm0 0" fill="#894b9d"/><path d="m78.101562 433.898438c0 19.171874-15.539062 34.710937-34.710937 34.710937s-34.710937-15.539063-34.710937-34.710937c0-19.171876 15.539062-34.710938 34.710937-34.710938s34.710937 15.539062 34.710937 34.710938zm0 0" fill="#955ba5"/><path d="m251.660156 355.796875c.03125 14.792969-6.289062 28.886719-17.355468 38.703125v-77.40625c11.066406 9.816406 17.386718 23.910156 17.355468 38.703125zm0 0" fill="#894b9d"/><path d="m234.304688 317.09375v77.40625c-9.5 8.625-21.878907 13.394531-34.710938 13.363281-28.757812 0-52.066406-23.308593-52.066406-52.066406s23.308594-52.066406 52.066406-52.066406c12.832031-.03125 25.210938 4.738281 34.710938 13.363281zm0 0" fill="#955ba5"/><path d="m451.253906 468.609375c0 19.171875-15.539062 34.710937-34.710937 34.710937s-34.710938-15.539062-34.710938-34.710937 15.539063-34.710937 34.710938-34.710937 34.710937 15.539062 34.710937 34.710937zm0 0" fill="#955ba5"/><path d="m199.59375 477.289062c0 14.378907-11.65625 26.03125-26.035156 26.03125s-26.03125-11.652343-26.03125-26.03125c0-14.378906 11.652344-26.035156 26.03125-26.035156s26.035156 11.65625 26.035156 26.035156zm0 0" fill="#955ba5"/><path d="m182.238281 269.015625h-104.136719c-23.953124-.027344-43.359374-19.4375-43.390624-43.386719 0-4.792968 3.886718-8.679687 8.679687-8.679687s8.675781 3.886719 8.675781 8.679687c0 14.375 11.65625 26.03125 26.035156 26.03125h104.136719c14.378907 0 26.03125-11.65625 26.03125-26.03125 0-4.792968 3.886719-8.679687 8.679688-8.679687s8.679687 3.886719 8.679687 8.679687c-.03125 23.949219-19.441406 43.359375-43.390625 43.386719zm0 0" fill="#802d40"/><path d="m477.289062 347.117188c-4.792968 0-8.679687-3.882813-8.679687-8.675782 0-14.378906-11.65625-26.035156-26.03125-26.035156h-69.425781c-14.378906 0-26.035156 11.65625-26.035156 26.035156 0 4.792969-3.882813 8.675782-8.675782 8.675782-4.792968 0-8.679687-3.882813-8.679687-8.675782.03125-23.953125 19.4375-43.363281 43.390625-43.390625h69.425781c23.949219.027344 43.359375 19.4375 43.386719 43.390625 0 4.792969-3.882813 8.675782-8.675782 8.675782zm0 0" fill="#802d40"/><path d="m407.863281 173.558594c0 9.585937-7.769531 17.355468-17.355469 17.355468-9.585937 0-17.355468-7.769531-17.355468-17.355468 0-9.585938 7.769531-17.355469 17.355468-17.355469 9.585938 0 17.355469 7.769531 17.355469 17.355469zm0 0" fill="#fff"/><path d="m173.558594 130.167969c0 9.585937-7.769532 17.359375-17.355469 17.359375s-17.355469-7.773438-17.355469-17.359375c0-9.582031 7.769532-17.355469 17.355469-17.355469s17.355469 7.773438 17.355469 17.355469zm0 0" fill="#fff"/><path d="m86.78125 130.167969c0 9.585937-7.773438 17.359375-17.359375 17.359375-9.582031 0-17.355469-7.773438-17.355469-17.359375 0-9.582031 7.773438-17.355469 17.355469-17.355469 9.585937 0 17.359375 7.773438 17.359375 17.355469zm0 0" fill="#fff"/></svg>