<svg height="511pt" viewBox="0 0 511.93108 511" width="511pt" xmlns="http://www.w3.org/2000/svg"><path d="m89.402344 239.855469c-12.191406 11.625-27.824219 33.464843-34.585938 72.253906-.503906 2.820313.394532 5.710937 2.410156 7.753906 2.015626 2.039063 4.894532 2.972657 7.722657 2.503907 4.230469-.796876 8.542969-1.09375 12.84375-.882813 2.617187.179687 5.019531 1.511719 6.554687 3.640625 1.535156 2.125 2.042969 4.828125 1.390625 7.367188-4.070312 15.90625-1.523437 32.789062 7.0625 46.785156 1.878907 3.082031 5.449219 4.707031 9.007813 4.105468 3.558594-.601562 6.390625-3.3125 7.15625-6.839843 3.527344-16.660157 10.589844-39.972657 24.097656-52.753907zm0 0" fill="#d25627"/><path d="m422.554688 239.855469c12.191406 11.625 27.824218 33.464843 34.585937 72.253906.503906 2.820313-.394531 5.710937-2.410156 7.753906-2.015625 2.039063-4.894531 2.972657-7.722657 2.503907-4.234374-.796876-8.542968-1.09375-12.84375-.882813-2.617187.179687-5.019531 1.511719-6.554687 3.640625-1.535156 2.125-2.046875 4.828125-1.390625 7.367188 4.070312 15.90625 1.523438 32.789062-7.0625 46.785156-1.882812 3.082031-5.449219 4.707031-9.007812 4.105468-3.5625-.601562-6.394532-3.3125-7.15625-6.839843-3.53125-16.660157-10.59375-39.972657-24.097657-52.753907zm0 0" fill="#d25627"/><path d="m423.523438 227.847656c-.175782 4.238282-.527344 8.210938-.96875 12.007813-4.765626 41.046875-23.835938 63.734375-43.695313 83.949219-25.511719 25.867187-52.261719 47.582031-52.261719 98.605468 0 40.429688-41.136718 73.621094-60.558594 85.625-5.464843 3.390625-12.355468 3.496094-17.917968.265625-.550782-.289062-1.078125-.613281-1.589844-.96875-19.242188-13.773437-61.175781-50.9375-61.175781-84.921875 0-51.023437-26.746094-72.738281-52.257813-98.605468-19.863281-20.214844-38.929687-42.902344-43.695312-83.949219-.441406-3.796875-.796875-7.769531-.972656-12.007813l8.296874-83.773437c-1.324218-22.421875-4.589843-118.113281 41.402344-128.261719 13.769532-3.089844 31.867188 1.5 55.703125 17.917969.085938.089843.265625.175781.351563.265625h123.585937c.089844-.089844.265625-.175782.355469-.265625 11.363281-8.535157 24.378906-14.609375 38.222656-17.832031 64.175782-12.359376 60.378906 103.371093 58.792969 128.175781zm0 0" fill="#e57e25"/><path d="m406.046875 227.847656c-.175781 4.238282-.53125 8.210938-.972656 12.007813-4.765625 41.046875-23.832031 63.734375-43.695313 83.949219-25.511718 25.867187-52.257812 47.582031-52.257812 98.605468 0 35.132813-31.074219 64.792969-51.90625 79.800782-20.835938-16.417969-54.378906-49.433594-54.378906-79.800782 0-51.023437-26.75-72.738281-52.261719-98.605468-19.859375-20.214844-38.925781-42.902344-43.695313-83.949219-.441406-3.796875-.792968-7.769531-.96875-12.007813l8.296875-83.773437c-1.238281-21.097657-4.238281-106.902344 33.632813-125.527344 10.148437 3.746094 19.738281 8.855469 28.511718 15.183594.089844.089843.265626.175781.355469.265625h123.585938c.085937-.089844.265625-.175782.351562-.265625 23.660157-16.332031 41.753907-20.921875 55.4375-17.832031h.265625c45.902344 10.242187 42.726563 105.84375 41.3125 128.175781zm0 0" fill="#f29c1f"/><path d="m406.046875 227.847656c-.175781 4.238282-.53125 8.210938-.972656 12.007813-4.765625 41.046875-23.832031 63.734375-43.695313 83.949219-25.511718 25.867187-52.257812 47.582031-52.257812 98.605468 0 35.132813-31.074219 64.792969-51.90625 79.800782-20.835938-16.417969-54.378906-49.433594-54.378906-79.800782 0-51.023437-26.75-72.738281-52.261719-98.605468-19.859375-20.214844-38.925781-42.902344-43.695313-83.949219-.441406-3.796875-.792968-7.769531-.96875-12.007813l8.296875-83.773437c-1.238281-21.097657-4.238281-106.902344 33.632813-125.527344 2.460937-1.238281 5.074218-2.15625 7.769531-2.734375 13.828125 3.296875 26.839844 9.398438 38.222656 17.917969.085938.089843.265625.175781.351563.265625h123.585937c.089844-.089844.265625-.175782.355469-.265625 11.292969-8.484375 24.214844-14.554688 37.957031-17.832031h.265625c45.902344 10.242187 42.726563 105.84375 41.3125 128.175781zm0 0" fill="#f29c1f"/><path d="m327.570312 190.949219c-17.960937 14.894531-39.675781 24.546875-62.765624 27.894531-5.863282.707031-11.789063.707031-17.65625 0-23.085938-3.347656-44.804688-13-62.761719-27.894531-2.089844-1.675781-3.304688-4.207031-3.304688-6.882813 0-2.679687 1.214844-5.210937 3.304688-6.886718 17.957031-14.894532 39.675781-24.542969 62.761719-27.894532 5.867187-.707031 11.792968-.707031 17.65625 0 23.089843 3.351563 44.804687 13 62.765624 27.894532 2.085938 1.675781 3.300782 4.207031 3.300782 6.886718 0 2.675782-1.214844 5.207032-3.300782 6.882813zm0 0" fill="#fff"/><path d="m300.117188 184.066406c0-19.503906-19.761719-35.3125-44.140626-35.3125-24.375 0-44.136718 15.808594-44.136718 35.3125 0 19.5 19.761718 35.308594 44.136718 35.308594 24.378907 0 44.140626-15.808594 44.140626-35.308594zm0 0" fill="#c03a2b"/><path d="m219.34375 300.148438c-11.441406.003906-22.867188-.914063-34.164062-2.738282-.175782 0-.351563-.085937-.527344-.085937-5.769532-.878907-11.445313-2.300781-16.949219-4.238281-4.234375-1.472657-8.246094-3.523438-11.917969-6.089844-2.191406-1.648438-4.125-3.609375-5.738281-5.828125-11.566406-17.390625-7.945313-42.460938-4.0625-57.554688 7.980469 2.984375 15.6875 6.644531 23.042969 10.945313 1.5.792968 3 1.675781 4.5 2.648437 4.121094 2.597657 8.074218 5.457031 11.828125 8.5625 6.480469 5.175781 12.292969 11.136719 17.304687 17.742188 8.292969 10.773437 14.003906 23.308593 16.683594 36.636719zm0 0" fill="#fff"/><path d="m361.910156 281.167969c-4.507812 5.707031-10.675781 9.875-17.65625 11.917969-5.671875 2.007812-11.527344 3.457031-17.480468 4.324218-11.292969 1.824219-22.71875 2.742188-34.160157 2.738282 4.542969-21.574219 16.582031-40.839844 33.984375-54.378907 5.105469-4.210937 10.570313-7.960937 16.332032-11.210937 7.351562-4.300782 15.0625-7.960938 23.039062-10.945313 3.882812 15.09375 7.503906 40.164063-4.058594 57.554688zm0 0" fill="#fff"/><path d="m203.011719 267.925781c.527343 12.648438-6.765625 24.320313-18.359375 29.398438-5.769532-.878907-11.445313-2.300781-16.949219-4.238281-4.234375-1.472657-8.246094-3.523438-11.917969-6.089844-3.800781-5.628906-5.800781-12.28125-5.738281-19.070313-.867187-14.644531 9.121094-27.710937 23.480469-30.71875.972656-.089843 2.03125-.175781 3-.175781 14.140625.976562 25.34375 12.328125 26.132812 26.480469.25 1.457031.371094 2.9375.351563 4.414062zm0 0" fill="#c03a2b"/><path d="m308.941406 267.925781c-.523437 12.648438 6.765625 24.320313 18.363282 29.398438 5.769531-.878907 11.445312-2.300781 16.949218-4.238281 4.234375-1.472657 8.246094-3.523438 11.917969-6.089844 3.796875-5.628906 5.796875-12.28125 5.738281-19.070313.867188-14.644531-9.125-27.710937-23.484375-30.71875-.96875-.089843-2.027343-.175781-3-.175781-14.140625.976562-25.339843 12.328125-26.128906 26.480469-.253906 1.457031-.371094 2.9375-.355469 4.414062zm0 0" fill="#c03a2b"/><path d="m321.832031 62.332031c-2.648437-1.234375-4.0625-1.855469-4.0625-1.855469 1.433594-8.847656 1.550781-17.859374.355469-26.746093-1.144531-14.714844-10.660156-27.453125-24.445312-32.722657-2.542969-.929687-5.371094-.65625-7.695313.742188-2.320313 1.398438-3.882813 3.769531-4.257813 6.453125-.867187 13.851563-11.898437 24.898437-25.75 25.792969-13.851562-.894532-24.878906-11.941406-25.75-25.792969-.371093-2.683594-1.9375-5.054687-4.257812-6.453125s-5.148438-1.671875-7.695312-.742188c-13.78125 5.269532-23.296876 18.007813-24.441407 32.722657-1.195312 8.886719-1.078125 17.898437.351563 26.746093 0 0-1.410156.621094-4.058594 1.855469zm0 0" fill="#f29c1f"/><path d="m185.355469 239.148438v56.496093c-.007813.59375-.066407 1.183594-.175781 1.765625-5.953126-.867187-11.808594-2.316406-17.476563-4.324218v-53.9375c-.023437-1.628907.4375-3.226563 1.324219-4.589844 1.570312-2.640625 4.425781-4.253906 7.5-4.238282 4.878906 0 8.828125 3.953126 8.828125 8.828126zm0 0" fill="#2c2f38"/><path d="m344.253906 239.148438v53.9375c-5.671875 2.007812-11.527344 3.457031-17.480468 4.324218-.105469-.582031-.164063-1.171875-.175782-1.765625v-56.496093c0-4.875 3.953125-8.828126 8.828125-8.828126 3.074219-.015624 5.929688 1.597657 7.503907 4.238282.886718 1.363281 1.347656 2.960937 1.324218 4.589844zm0 0" fill="#2c2f38"/><path d="m229.496094 457.71875c-3.363282.019531-6.445313-1.875-7.945313-4.878906l-8.828125-17.65625c-1.410156-2.824219-1.207031-6.183594.53125-8.816406 1.742188-2.632813 4.753906-4.136719 7.902344-3.945313s5.957031 2.046875 7.367188 4.871094l8.828124 17.652343c1.363282 2.730469 1.222657 5.972657-.378906 8.570313-1.597656 2.601563-4.425781 4.191406-7.476562 4.203125zm0 0" fill="#d25627"/><path d="m282.460938 457.71875c-3.058594 0-5.898438-1.585938-7.503907-4.1875-1.609375-2.601562-1.753906-5.847656-.386719-8.585938l8.824219-17.652343c2.179688-4.367188 7.484375-6.136719 11.847657-3.957031 4.363281 2.179687 6.132812 7.484374 3.957031 11.847656l-8.828125 17.65625c-1.5 2.992187-4.5625 4.886718-7.910156 4.878906zm0 0" fill="#d25627"/><path d="m220.667969 387.097656c-4.875 0-8.828125-3.949218-8.828125-8.824218v-35.3125c0-4.875 3.953125-8.828126 8.828125-8.828126s8.828125 3.953126 8.828125 8.828126v35.3125c0 4.875-3.953125 8.824218-8.828125 8.824218zm0 0" fill="#e57e25"/><path d="m291.289062 387.097656c-4.875 0-8.828124-3.949218-8.828124-8.824218v-35.3125c0-4.875 3.953124-8.828126 8.828124-8.828126s8.828126 3.953126 8.828126 8.828126v35.3125c0 4.875-3.953126 8.824218-8.828126 8.824218zm0 0" fill="#e57e25"/><path d="m264.804688 149.285156v69.558594c-5.863282.707031-11.789063.707031-17.65625 0v-69.558594c5.867187-.707031 11.792968-.707031 17.65625 0zm0 0" fill="#2c2f38"/><path d="m220.667969 316.476562c-4.449219-.003906-8.199219-3.316406-8.75-7.730468-7.945313-63.710938-80.699219-80.585938-81.433594-80.746094-4.761719-1.058594-7.765625-5.777344-6.707031-10.539062 1.054687-4.765626 5.773437-7.769532 10.539062-6.710938 3.484375.777344 85.625 19.878906 95.117188 95.804688.601562 4.835937-2.828125 9.246093-7.664063 9.851562-.363281.046875-.734375.070312-1.101562.070312zm0 0" fill="#e57e25"/><path d="m211.839844 104.617188c-2.253906 9.242187-5.207032 18.300781-8.828125 27.101562-2.117188 5.207031-4.679688 10.945312-7.769531 16.945312-6.625 13.265626-14.867188 25.660157-24.539063 36.902344-4.160156 4.746094-8.644531 9.199219-13.417969 13.328125-21.046875 18.65625-48.148437 29.035157-76.269531 29.21875h-.089844c-.882812.089844-1.851562.089844-2.734375.089844-5.410156.011719-10.8125-.402344-16.15625-1.238281-33.101562-5.117188-51.289062-26.570313-58.4375-55.789063-1.449218-5.886719-2.421875-11.878906-2.914062-17.917969-3.972656-41.667968 9.710937-93.664062 32.042968-137.09375.976563-1.816406 3.078126-2.714843 5.066407-2.167968 1.988281.550781 3.328125 2.402344 3.234375 4.464844-2.472656 45.285156-3.269532 151.214843 46.078125 130.292968 31.5-12.117187 52.679687-41.921875 53.761719-75.652344.34375-8.347656 6.496093-15.3125 14.742187-16.683593 19.066406-3 50.140625-.089844 56.230469 48.199219zm0 0" fill="#fdd7ad"/><g fill="#7f6e5d"><path d="m170.703125 185.566406c-4.160156 4.746094-8.644531 9.199219-13.417969 13.328125-1.007812-1.074219-1.734375-2.375-2.117187-3.796875-2.542969-11.972656-9.234375-22.667968-18.890625-30.1875-2.621094-1.765625-4.097656-4.796875-3.875-7.945312.21875-3.152344 2.105468-5.945313 4.941406-7.328125 2.839844-1.382813 6.199219-1.148438 8.820312.617187 11.972657 8.625 20.632813 21.085938 24.539063 35.3125zm0 0"/><path d="m81.015625 228.113281h-.089844c-.882812.089844-1.851562.089844-2.734375.089844-5.410156.011719-10.8125-.402344-16.15625-1.238281.101563-1.316406.527344-2.589844 1.234375-3.707032 7.371094-10.984374 10.070313-24.449218 7.503907-37.425781-.972657-4.78125 2.109374-9.445312 6.886718-10.417969 4.777344-.976562 9.441406 2.105469 10.417969 6.886719 3.164063 15.625.660156 31.867188-7.0625 45.8125zm0 0"/><path d="m30.433594 165.4375c-7.085938 3.738281-14.945313 5.761719-22.953125 5.914062-1.324219 0-2.648438-.085937-3.882813-.175781-1.449218-5.886719-2.421875-11.878906-2.914062-17.917969.851562-.101562 1.714844-.074218 2.558594.085938 6.636718.878906 13.382812-.390625 19.246093-3.617188 2.835938-1.707031 6.386719-1.683593 9.199219.058594 2.8125 1.742188 4.414062 4.910156 4.152344 8.210938-.265625 3.296875-2.351563 6.171875-5.40625 7.441406zm0 0"/><path d="m203.011719 131.71875c-2.117188 5.207031-4.679688 10.945312-7.769531 16.945312-1.207032-.488281-2.269532-1.277343-3.089844-2.292968-8.0625-10.101563-17.867188-18.683594-28.953125-25.335938-4.097657-2.527344-5.414063-7.875-2.957031-12.015625 2.453124-4.140625 7.777343-5.550781 11.960937-3.167969 11.597656 6.902344 22 15.636719 30.808594 25.867188zm0 0"/></g><path d="m247.148438 170.824219c0 7.3125-5.925782 13.242187-13.238282 13.242187-7.316406 0-13.242187-5.929687-13.242187-13.242187s5.925781-13.242188 13.242187-13.242188c7.3125 0 13.238282 5.929688 13.238282 13.242188zm0 0" fill="#fff"/><path d="m167.703125 254.683594c0 4.878906-3.953125 8.828125-8.828125 8.828125s-8.828125-3.949219-8.828125-8.828125c0-4.875 3.953125-8.824219 8.828125-8.824219s8.828125 3.949219 8.828125 8.824219zm0 0" fill="#fff"/><path d="m326.597656 272.339844c0 4.875-3.953125 8.828125-8.828125 8.828125s-8.828125-3.953125-8.828125-8.828125 3.953125-8.828125 8.828125-8.828125 8.828125 3.953125 8.828125 8.828125zm0 0" fill="#fff"/><path d="m291.289062 316.476562c-.371093 0-.738281-.023437-1.105468-.070312-4.835938-.605469-8.265625-5.015625-7.660156-9.851562 9.488281-75.914063 91.628906-95.027344 95.117187-95.804688 4.757813-1.058594 9.476563 1.941406 10.539063 6.699219 1.058593 4.761719-1.941407 9.480469-6.699219 10.542969-2.992188.679687-73.507813 17.292968-81.445313 80.753906-.550781 4.414062-4.300781 7.726562-8.746094 7.730468zm0 0" fill="#e57e25"/><path d="m511.269531 153.257812c-.261719 3-.617187 5.914063-1.058593 8.738282-.527344 3.175781-1.148438 6.179687-1.851563 9.179687-7.152344 29.21875-25.335937 50.671875-58.441406 55.789063-2.734375.441406-5.734375.796875-8.738281.972656-2.351563.175781-4.824219.265625-7.414063.265625-.972656 0-1.855469 0-2.738281-.089844-2.558594 0-5.03125-.085937-7.503906-.265625-25.472657-1.855468-49.632813-12.027344-68.765626-28.953125-2.292968-1.941406-4.414062-3.972656-6.53125-6.003906-2.472656-2.46875-4.855468-4.941406-6.972656-7.5-9.746094-11.121094-17.996094-23.46875-24.542968-36.726563-1.410157-2.644531-2.648438-5.292968-3.796876-7.855468-1.410156-3.175782-2.734374-6.179688-3.972656-9.089844-3.621094-8.800781-6.570312-17.859375-8.824218-27.101562 2.910156-22.953126 11.472656-35.664063 21.714843-42.285157 10.324219-6.144531 22.554688-8.25 34.339844-5.914062 8.320313 1.214843 14.59375 8.191406 14.917969 16.59375.816406 23.6875 11.585937 45.933593 29.660156 61.265625 4.449219 3.746094 9.273438 7.03125 14.390625 9.796875 3 1.589843 6.265625 3.179687 9.707031 4.679687 49.347656 20.921875 48.554688-85.097656 45.992188-130.382812-.097656-2.058594 1.246094-3.914063 3.234375-4.460938 1.988281-.550781 4.089843.347656 5.066406 2.164063 22.421875 43.433593 36.015625 95.515625 32.128906 137.183593zm0 0" fill="#fdd7ad"/><path d="m375.679688 164.910156c-9.660157 7.519532-16.347657 18.214844-18.890626 30.1875-.390624 1.402344-1.082031 2.695313-2.03125 3.796875-2.292968-1.941406-4.414062-3.972656-6.53125-6.003906-2.472656-2.46875-4.855468-4.941406-6.972656-7.5 3.996094-14.140625 12.640625-26.515625 24.539063-35.136719 2.617187-1.765625 5.976562-2 8.816406-.617187 2.839844 1.382812 4.722656 4.175781 4.945313 7.328125.21875 3.148437-1.257813 6.179687-3.875 7.945312zm0 0" fill="#7f6e5d"/><path d="m449.917969 226.964844c-2.734375.441406-5.734375.796875-8.738281.972656-2.351563.175781-4.824219.265625-7.414063.265625-.972656 0-1.855469 0-2.738281-.089844-7.792969-13.921875-10.328125-30.179687-7.148438-45.8125.628906-3.09375 2.863282-5.613281 5.855469-6.609375 2.992187-1 6.289063-.328125 8.648437 1.765625 2.363282 2.089844 3.429688 5.28125 2.796876 8.375-2.566407 12.976563.136718 26.441407 7.503906 37.425781.710937 1.117188 1.136718 2.390626 1.234375 3.707032zm0 0" fill="#7f6e5d"/><path d="m511.269531 153.257812c-.261719 3-.617187 5.914063-1.058593 8.738282-.527344 3.175781-1.148438 6.179687-1.851563 9.179687-1.238281.089844-2.5625.175781-3.886719.175781-8.007812-.152343-15.867187-2.175781-22.949218-5.914062-3.960938-2.382812-5.414063-7.417969-3.328126-11.546875 2.085938-4.125 7.003907-5.941406 11.273438-4.164063 5.863281 3.226563 12.605469 4.496094 19.242188 3.617188.84375-.160156 1.707031-.1875 2.558593-.085938zm0 0" fill="#7f6e5d"/><path d="m348.753906 121.035156c-11.082031 6.652344-20.886718 15.234375-28.953125 25.335938-.816406 1.015625-1.882812 1.804687-3.089843 2.292968-1.410157-2.644531-2.648438-5.292968-3.796876-7.855468-1.410156-3.175782-2.734374-6.179688-3.972656-9.089844 8.808594-10.230469 19.210938-18.964844 30.808594-25.867188 4.183594-2.382812 9.507812-.972656 11.964844 3.167969 2.457031 4.140625 1.140625 9.488281-2.960938 12.015625zm0 0" fill="#7f6e5d"/></svg>