<svg height="512pt" viewBox="0 0 512 512" width="512pt" xmlns="http://www.w3.org/2000/svg"><path d="m512 317.792969c0 123.320312-87.039062 179.199219-203.035156 191.46875-2.914063.355469-5.824219.621093-8.828125.882812-3 .265625-5.824219.441407-8.738281.621094-8.738282.617187-17.566407 1.058594-26.570313 1.144531-2.914063.089844-5.914063.089844-8.828125.089844-2.117188 0-4.324219 0-6.445312-.089844h-4.765626c-8.210937-.175781-16.242187-.527344-24.1875-1.144531-2.914062-.089844-5.828124-.355469-8.738281-.621094-2.914062-.261719-5.914062-.527343-8.828125-.882812-115.996094-12.269531-203.035156-68.148438-203.035156-191.46875 0-5.121094.175781-10.328125.53125-15.625.085938-2.648438.261719-5.382813.527344-8.121094.617187-6.972656 1.414062-14.125 2.5625-21.1875.527344-3.175781 1.058594-6.355469 1.675781-9.53125.097656-.832031.242187-1.660156.441406-2.472656l1.589844-7.945313c.351563-1.675781.703125-3.265625 1.144531-4.855468.53125-2.292969 1.0625-4.679688 1.679688-6.972657.882812-3.53125 1.851562-6.972656 2.824218-10.328125.792969-3.003906 1.675782-6.003906 2.648438-8.917968.089844-.351563.175781-.703126.265625-.96875 1.234375-3.796876 2.472656-7.679688 3.882813-11.476563.070312-.203125.128906-.410156.175781-.617187 1.414062-3.886719 2.824219-7.859376 4.414062-11.742188 1.324219-3.441406 2.738281-6.796875 4.148438-10.152344 3.796875-9.003906 7.945312-17.917968 12.449219-26.660156 3.707031-7.238281 7.679687-14.296875 11.828124-21.273438 2.207032-3.617187 4.503907-7.324218 6.796876-10.945312l100.015624-100.191406c26.519532-16.164063 56.578126-25.617188 87.570313-27.542969 2.914063-.1757812 5.828125-.265625 8.828125-.265625 34.050781.414062 67.355469 10.023438 96.398438 27.808594l42.371093 42.460937.972657.96875 56.671874 56.761719c2.292969 3.621094 4.589844 7.238281 6.796876 10.859375v.085937c1.058593 1.855469 2.207031 3.707032 3.179687 5.5625 31.03125 52.589844 48.109375 112.238282 49.609375 173.285157zm0 0" fill="#804169"/><path d="m494.34375 317.792969c0 116.964843-78.300781 173.199219-185.378906 189.261719-5.824219.882812-11.652344 1.589843-17.65625 2.207031-2.910156.355469-5.824219.621093-8.824219.882812-5.828125.53125-11.652344.882813-17.65625 1.238281-5.03125.265626-10.152344.441407-15.273437.527344h-4.765626c-8.210937-.175781-16.242187-.527344-24.1875-1.144531-2.914062-.089844-5.828124-.355469-8.738281-.621094-2.914062-.261719-5.914062-.527343-8.828125-.882812-115.996094-12.269531-203.035156-68.148438-203.035156-191.46875 0-5.121094.175781-10.328125.53125-15.625.085938-2.648438.261719-5.382813.527344-8.121094.617187-6.972656 1.414062-14.125 2.5625-21.1875.527344-3.175781 1.058594-6.355469 1.675781-9.53125.097656-.832031.242187-1.660156.441406-2.472656l1.589844-7.945313c.351563-1.675781.703125-3.265625 1.144531-4.855468.53125-2.292969 1.0625-4.679688 1.679688-6.972657.882812-3.53125 1.851562-6.972656 2.824218-10.328125.792969-3.003906 1.675782-6.003906 2.648438-8.917968.089844-.351563.175781-.703126.265625-.96875 1.234375-3.796876 2.472656-7.679688 3.882813-11.476563.070312-.203125.128906-.410156.175781-.617187 1.414062-3.886719 2.824219-7.859376 4.414062-11.742188 1.324219-3.441406 2.738281-6.796875 4.148438-10.152344 3.796875-9.003906 7.945312-17.917968 12.449219-26.660156 2.734374-5.292969 5.558593-10.589844 8.648437-15.710938.972656-1.855468 2.121094-3.707031 3.179687-5.5625 2.207032-3.617187 4.503907-7.324218 6.796876-10.945312l100.015624-100.191406c26.519532-16.164063 56.578126-25.617188 87.570313-27.542969 30.996094 1.925781 61.054687 11.378906 87.570313 27.542969l100.015624 100.191406c37.101563 56.503906 57.730469 122.222656 59.585938 189.792969zm0 0" fill="#cc66a1"/><path d="m256 0-24.433594 45.074219c-2.800781 5.691406-2.351562 12.449219 1.183594 17.71875 3.53125 5.269531 9.609375 8.253906 15.941406 7.828125h14.617188c6.332031.425781 12.410156-2.558594 15.941406-7.828125 3.535156-5.269531 3.984375-12.027344 1.183594-17.71875zm0 0" fill="#84b5cb"/><path d="m206.917969 72.933594c-.769531-1.425782-2.261719-2.316406-3.882813-2.316406s-3.113281.890624-3.886718 2.316406l-20.546876 33.933594c-2.800781 5.691406-2.351562 12.449218 1.183594 17.71875 3.53125 5.269531 9.609375 8.253906 15.941406 7.828124h14.617188c6.332031.425782 12.410156-2.558593 15.941406-7.828124 3.53125-5.269532 3.984375-12.027344 1.183594-17.71875zm0 0" fill="#84b5cb"/><path d="m312.851562 72.933594c-.773437-1.425782-2.265624-2.316406-3.886718-2.316406s-3.113282.890624-3.882813 2.316406l-20.550781 33.933594c-2.800781 5.691406-2.347656 12.449218 1.183594 17.71875 3.53125 5.269531 9.609375 8.253906 15.941406 7.828124h14.617188c6.332031.425782 12.410156-2.558593 15.941406-7.828124 3.535156-5.269532 3.984375-12.027344 1.183594-17.71875zm0 0" fill="#84b5cb"/><g fill="#804169"><path d="m264.828125 441.378906v70.53125c-2.914063.089844-5.914063.089844-8.828125.089844-2.117188 0-4.324219 0-6.445312-.089844h-2.382813v-70.53125c0-4.875 3.953125-8.828125 8.828125-8.828125s8.828125 3.953125 8.828125 8.828125zm0 0"/><path d="m220.691406 459.035156v51.109375c.011719.210938-.019531.421875-.089844.621094-2.914062-.089844-5.828124-.355469-8.738281-.621094-2.914062-.261719-5.914062-.527343-8.828125-.882812v-50.226563c0-4.875 3.953125-8.828125 8.828125-8.828125s8.828125 3.953125 8.828125 8.828125zm0 0"/><path d="m308.964844 459.035156v50.226563c-2.914063.355469-5.824219.621093-8.828125.882812-3 .265625-5.824219.441407-8.738281.621094-.070313-.199219-.101563-.410156-.089844-.621094v-51.109375c0-4.875 3.953125-8.828125 8.828125-8.828125s8.828125 3.953125 8.828125 8.828125zm0 0"/></g><path d="m158.898438 88.277344-52.96875 52.964844v-105.933594l44.140624 8.828125zm0 0" fill="#ff5364"/><path d="m353.101562 88.277344 52.96875 52.964844v-105.933594l-44.140624 8.828125zm0 0" fill="#ff5364"/><path d="m158.898438 88.277344c-6.519532-19.632813-21.785157-35.125-41.316407-41.933594l.179688-32.308594c13.648437 5.453125 27.621093 10.050782 41.839843 13.773438 3.003907.808594 6.097657 1.601562 9.289063 2.371094 5.648437 1.300781 10.300781 5.292968 12.445313 10.679687 2.144531 5.386719 1.507812 11.480469-1.703126 16.308594zm0 0" fill="#804169"/><path d="m119.085938 19.507812-.707032 13.417969-6.886718 123.144531c-.214844 4.71875-3.722657 8.628907-8.386719 9.359376-3.257813.628906-6.613281-.433594-8.914063-2.824219l-91.191406-91.191407c-2.714844-2.714843-3.664062-6.734374-2.449219-10.378906 1.214844-3.644531 4.386719-6.289062 8.1875-6.832031l25.246094-3.621094c16.742187-2.378906 32.484375-9.382812 45.464844-20.214843l23.039062-19.15625c3.089844-2.578126 7.414063-3.078126 11.011719-1.28125 3.597656 1.800781 5.792969 5.5625 5.585938 9.578124zm0 0" fill="#cc66a1"/><path d="m103.105469 165.429688-.441407 8.296874c-.21875 4-2.777343 7.492188-6.523437 8.90625-3.742187 1.414063-7.972656.484376-10.777344-2.375l-35.753906-35.75c.972656-1.855468 2.121094-3.707031 3.179687-5.5625 2.207032-3.617187 4.503907-7.324218 6.796876-10.945312l34.605468 34.605469c2.300782 2.390625 5.65625 3.453125 8.914063 2.824219zm0 0" fill="#804169"/><path d="m509 71.414062-91.191406 91.191407c-2.300782 2.390625-5.65625 3.453125-8.914063 2.824219-4.664062-.730469-8.171875-4.640626-8.386719-9.359376l-6.886718-123.144531-.707032-13.417969c-.207031-4.015624 1.988282-7.777343 5.585938-9.578124 3.597656-1.796876 7.921875-1.296876 11.011719 1.28125l23.039062 19.15625c12.980469 10.832031 28.722657 17.835937 45.464844 20.214843l25.246094 3.621094c3.800781.542969 6.972656 3.1875 8.1875 6.832031 1.214843 3.644532.265625 7.664063-2.449219 10.378906zm0 0" fill="#cc66a1"/><path d="m462.390625 144.507812-35.753906 35.75c-2.804688 2.859376-7.035157 3.789063-10.777344 2.375-3.746094-1.414062-6.304687-4.90625-6.523437-8.90625l-.441407-8.296874c3.257813.628906 6.613281-.433594 8.914063-2.824219l34.605468-34.605469c2.292969 3.621094 4.589844 7.238281 6.796876 10.859375v.085937c1.058593 1.855469 2.207031 3.707032 3.179687 5.5625zm0 0" fill="#804169"/><path d="m353.101562 88.277344c6.519532-19.632813 21.785157-35.125 41.316407-41.933594l-.179688-32.308594c-13.648437 5.453125-27.621093 10.050782-41.839843 13.773438-3.003907.808594-6.097657 1.601562-9.289063 2.371094-5.648437 1.300781-10.300781 5.292968-12.445313 10.679687-2.144531 5.386719-1.507812 11.480469 1.703126 16.308594zm0 0" fill="#804169"/><path d="m247.171875 206.652344c-5.835937 12.710937-8.847656 26.535156-8.828125 40.519531.03125-50.210937-38.265625-92.148437-88.273438-96.660156 2.910157-.265625 5.824219-.441407 8.828126-.441407 37.960937-.039062 72.457031 22.074219 88.273437 56.582032zm0 0" fill="#e6e7e8"/><path d="m450.207031 247.171875c.050781 18.097656-4.996093 35.84375-14.566406 51.199219-4.078125-3.1875-8.417969-6.019532-12.976563-8.472656 14.042969-28.6875 13.078126-62.445313-2.578124-90.285157-15.65625-27.839843-44.003907-46.199219-75.808594-49.101562 2.910156-.265625 5.824218-.441407 8.824218-.441407 25.757813-.015624 50.464844 10.210938 68.679688 28.425782 18.214844 18.210937 28.441406 42.917968 28.425781 68.675781zm0 0" fill="#e6e7e8"/><path d="m432.550781 247.171875c.039063 14.8125-3.34375 29.433594-9.886719 42.726563-21.496093-11.054688-45.390624-16.632813-69.5625-16.242188-2.824218 0-5.558593.085938-8.296874.265625-23.414063.609375-46.289063 7.171875-66.472657 19.066406h-44.664062c-11.34375-6.886719-23.710938-11.921875-36.636719-14.917969-12.496094-2.953124-25.292969-4.433593-38.132812-4.414062-3.003907 0-5.917969.085938-8.828126.265625-9.875.480469-19.6875 1.871094-29.308593 4.148437-16.054688 3.59375-31.179688 10.511719-44.402344 20.300782-1.703125-2.695313-3.234375-5.496094-4.589844-8.386719-6.609375-13.300781-10.027343-27.960937-9.976562-42.8125-.03125-50.210937 38.265625-92.148437 88.277343-96.660156 50.007813 4.511719 88.304688 46.449219 88.273438 96.660156-.019531-13.984375 2.992188-27.808594 8.828125-40.519531 5.835937 12.710937 8.847656 26.535156 8.828125 40.519531-.03125-50.210937 38.265625-92.148437 88.277344-96.660156 50.007812 4.511719 88.304687 46.449219 88.273437 96.660156zm0 0" fill="#fff"/><path d="m220.691406 229.515625c.039063 18.972656-8.695312 36.894531-23.660156 48.554687-25.082031-5.886718-51.1875-5.886718-76.269531 0-22.742188-17.835937-30.082031-49.054687-17.671875-75.15625 12.410156-26.101562 41.25-40.113281 69.441406-33.738281 28.1875 6.378907 48.191406 31.441407 48.160156 60.339844zm0 0" fill="#f29c1f"/><path d="m414.898438 229.515625c.039062 18.972656-8.695313 36.894531-23.660157 48.554687-25.082031-5.886718-51.1875-5.886718-76.269531 0-22.742188-17.835937-30.082031-49.054687-17.671875-75.15625 12.40625-26.101562 41.25-40.113281 69.441406-33.738281 28.1875 6.378907 48.191407 31.441407 48.160157 60.339844zm0 0" fill="#f29c1f"/><path d="m203.035156 229.515625c0 24.378906-19.761718 44.140625-44.136718 44.140625-24.378907 0-44.140626-19.761719-44.140626-44.140625 0-24.375 19.761719-44.136719 44.140626-44.136719 24.375 0 44.136718 19.761719 44.136718 44.136719zm0 0" fill="#2c2f38"/><path d="m397.242188 229.515625c0 24.378906-19.761719 44.140625-44.140626 44.140625-24.375 0-44.136718-19.761719-44.136718-44.140625 0-24.375 19.761718-44.136719 44.136718-44.136719 24.378907 0 44.140626 19.761719 44.140626 44.136719zm0 0" fill="#2c2f38"/><path d="m285.308594 353.28125c13.15625-7.308594 21.972656-20.53125 23.65625-35.488281 0-19.507813-23.746094-26.484375-52.964844-26.484375s-52.964844 6.976562-52.964844 26.484375c1.683594 14.957031 10.5 28.179687 23.65625 35.488281h.089844l29.21875 17.476562zm0 0" fill="#f09372"/><path d="m229.515625 353.101562c14.628906 0 26.484375 11.859376 26.484375 26.484376v26.484374h-52.964844v-26.484374c0-14.625 11.855469-26.484376 26.480469-26.484376zm0 0" fill="#f9eab0"/><path d="m229.515625 353.101562c9.753906 0 17.65625 7.90625 17.65625 17.65625v35.3125h-35.308594v-35.3125c0-9.75 7.902344-17.65625 17.652344-17.65625zm0 0" fill="#f5efca"/><path d="m282.484375 353.101562c14.625 0 26.480469 11.859376 26.480469 26.484376v26.484374h-52.964844v-26.484374c0-14.625 11.855469-26.484376 26.484375-26.484376zm0 0" fill="#f9eab0"/><path d="m282.484375 353.101562c9.75 0 17.652344 7.90625 17.652344 17.65625v35.3125h-35.308594v-35.3125c0-9.75 7.902344-17.65625 17.65625-17.65625zm0 0" fill="#f5efca"/><path d="m353.101562 414.898438h-194.203124c-38.988282-.046876-70.578126-31.636719-70.621094-70.621094 0-4.875 3.949218-8.828125 8.824218-8.828125 4.878907 0 8.828126 3.953125 8.828126 8.828125.03125 29.238281 23.726562 52.933594 52.96875 52.964844h194.203124c29.242188-.03125 52.9375-23.726563 52.96875-52.964844 0-4.875 3.949219-8.828125 8.828126-8.828125 4.875 0 8.824218 3.953125 8.824218 8.828125-.042968 38.984375-31.632812 70.574218-70.621094 70.621094zm0 0" fill="#802d40"/><path d="m141.242188 203.035156c0 14.625-11.859376 26.480469-26.484376 26.480469s-26.480468-11.855469-26.480468-26.480469 11.855468-26.484375 26.480468-26.484375 26.484376 11.859375 26.484376 26.484375zm0 0" fill="#fff"/><path d="m335.449219 203.035156c0 14.625-11.859375 26.480469-26.484375 26.480469s-26.480469-11.855469-26.480469-26.480469 11.855469-26.484375 26.480469-26.484375 26.484375 11.859375 26.484375 26.484375zm0 0" fill="#fff"/></svg>