<svg height="512pt" viewBox="0 0 512 512" width="512pt" xmlns="http://www.w3.org/2000/svg"><path d="m485.515625 188.027344v244.523437c0 43.878907-35.570313 79.449219-79.445313 79.449219h-300.140624c-43.875 0-79.445313-35.570312-79.445313-79.449219v-244.523437l197.472656-108.578125h64.085938zm0 0" fill="#df4d60"/><path d="m467.863281 188.027344v244.523437c0 43.878907-35.570312 79.449219-79.449219 79.449219h-282.484374c-43.875 0-79.445313-35.570312-79.445313-79.449219v-244.523437l197.472656-108.578125h76.179688zm0 0" fill="#ff5364"/><path d="m512 114.757812c0 63.378907-51.378906 114.757813-114.757812 114.757813-63.378907 0-114.757813-51.378906-114.757813-114.757813 0-63.378906 51.378906-114.757812 114.757813-114.757812 63.378906 0 114.757812 51.378906 114.757812 114.757812zm0 0" fill="#fb7b76"/><path d="m476.691406 114.757812c.027344 23.160157-10.105468 45.167969-27.71875 60.203126-3.175781-2.742188-6.671875-5.085938-10.417968-6.972657 19.941406-22.121093 25.835937-53.535156 15.273437-81.378906-10.566406-27.847656-35.816406-47.445313-65.414063-50.769531 2.929688-.355469 5.875-.53125 8.828126-.53125 43.878906 0 79.449218 35.570312 79.449218 79.449218zm0 0" fill="#e6e7e8"/><path d="m459.035156 114.757812c.027344 19.671876-7.273437 38.652344-20.480468 53.230469-12.871094-6.214843-27.019532-9.328125-41.3125-9.089843-3.003907 0-6.003907.085937-8.828126.351562-15.578124.6875-30.566406 6.175781-42.902343 15.710938-2.539063-2.1875-4.957031-4.515626-7.238281-6.972657-19.941407-22.121093-25.835938-53.535156-15.273438-81.378906 10.566406-27.847656 35.816406-47.445313 65.414062-50.769531 40.210938 4.46875 70.628907 38.460937 70.621094 78.917968zm0 0" fill="#fff"/><path d="m229.515625 114.757812c0 63.378907-51.378906 114.757813-114.757813 114.757813-63.378906 0-114.757812-51.378906-114.757812-114.757813 0-63.378906 51.378906-114.757812 114.757812-114.757812 63.378907 0 114.757813 51.378906 114.757813 114.757812zm0 0" fill="#fb7b76"/><path d="m194.207031 114.757812c.03125 23.160157-10.101562 45.167969-27.71875 60.203126-3.171875-2.742188-6.671875-5.085938-10.417969-6.972657 19.941407-22.121093 25.839844-53.535156 15.273438-81.378906-10.566406-27.847656-35.816406-47.445313-65.414062-50.769531 2.929687-.355469 5.878906-.53125 8.828124-.53125 43.878907 0 79.449219 35.570312 79.449219 79.449218zm0 0" fill="#e6e7e8"/><path d="m176.550781 114.757812c.03125 19.671876-7.273437 38.652344-20.480469 53.230469-5.378906-2.734375-11.070312-4.808593-16.949218-6.179687-7.972656-1.953125-16.152344-2.933594-24.363282-2.910156-3 0-6 .085937-8.828124.351562-5.210938.421875-10.378907 1.277344-15.445313 2.558594-10.066406 2.144531-19.476563 6.652344-27.457031 13.152344-2.539063-2.1875-4.957032-4.515626-7.238282-6.972657-19.941406-22.121093-25.835937-53.535156-15.269531-81.378906 10.5625-27.847656 35.816407-47.445313 65.410157-50.769531 40.210937 4.46875 70.632812 38.460937 70.621093 78.917968zm0 0" fill="#fff"/><path d="m167.722656 114.757812c-.011718 19.792969-11.035156 37.929688-28.601562 47.050782-7.972656-1.953125-16.152344-2.933594-24.363282-2.910156-3 0-6 .085937-8.828124.351562-5.210938.421875-10.378907 1.277344-15.445313 2.558594-23.132813-11.925782-34.167969-38.890625-26.042969-63.613282 8.125-24.722656 33.007813-39.878906 58.703125-35.757812 25.695313 4.121094 44.589844 26.296875 44.578125 52.320312zm0 0" fill="#2fa8cc"/><path d="m344.277344 114.757812c.011718 19.792969 11.035156 37.929688 28.601562 47.050782 7.972656-1.953125 16.152344-2.933594 24.363282-2.910156 3 0 6 .085937 8.828124.351562 5.210938.421875 10.378907 1.277344 15.445313 2.558594 23.132813-11.925782 34.167969-38.890625 26.042969-63.613282-8.125-24.722656-33.007813-39.878906-58.703125-35.757812-25.695313 4.121094-44.589844 26.296875-44.578125 52.320312zm0 0" fill="#2fa8cc"/><path d="m150.070312 114.757812c0 19.503907-15.808593 35.3125-35.3125 35.3125-19.5 0-35.308593-15.808593-35.308593-35.3125 0-19.5 15.808593-35.308593 35.308593-35.308593 19.503907 0 35.3125 15.808593 35.3125 35.308593zm0 0" fill="#2c2f38"/><path d="m432.550781 114.757812c0 19.503907-15.808593 35.3125-35.308593 35.3125-19.503907 0-35.3125-15.808593-35.3125-35.3125 0-19.5 15.808593-35.308593 35.3125-35.308593 19.5 0 35.308593 15.808593 35.308593 35.308593zm0 0" fill="#2c2f38"/><path d="m414.898438 291.308594v44.140625c-.015626 62.921875-44.289063 117.152343-105.933594 129.765625-8.714844 1.78125-17.585938 2.667968-26.480469 2.648437h-52.96875c-8.894531.019531-17.765625-.867187-26.480469-2.648437-61.644531-12.613282-105.917968-66.84375-105.933594-129.765625v-44.140625c.03125-9.738282 7.917969-17.625 17.65625-17.652344h282.484376c9.738281.027344 17.625 7.914062 17.65625 17.652344zm0 0" fill="#802d40"/><path d="m390.179688 273.65625-24.011719 59.9375c-1.023438 2.527344-3.15625 4.441406-5.78125 5.183594-2.621094.742187-5.441407.230468-7.636719-1.386719l-3.175781-2.382813-17.65625-13.242187c-3.128907-2.382813-7.464844-2.382813-10.59375 0l-2.648438 2.03125-22.070312 16.507813c-3.128907 2.382812-7.464844 2.382812-10.589844 0l-2.648437-1.941407-22.070313-16.597656c-3.128906-2.382813-7.464844-2.382813-10.59375 0l-2.648437 2.03125-22.070313 16.507813c-3.125 2.382812-7.460937 2.382812-10.589844 0l-2.648437-1.941407-22.070313-16.597656c-3.128906-2.382813-7.464843-2.382813-10.59375 0l-2.648437 2.03125-18.183594 13.59375c-1.972656 1.457031-4.464844 2.03125-6.875 1.578125-2.414062-.453125-4.527344-1.886719-5.835938-3.960938-.289062-.445312-.527343-.917968-.707031-1.414062l-24.011719-59.9375zm0 0" fill="#f9eab0"/><path d="m374.289062 273.65625-24.011718 59.9375c-.179688.496094-.417969.96875-.703125 1.414062l-17.65625-13.242187c-3.128907-2.382813-7.464844-2.382813-10.59375 0l-2.648438 2.03125-2.648437-2.03125c-3.128906-2.382813-7.464844-2.382813-10.59375 0l-22.066406 16.597656-22.070313-16.597656c-3.128906-2.382813-7.464844-2.382813-10.59375 0l-2.648437 2.03125-2.648438-2.03125c-3.128906-2.382813-7.464844-2.382813-10.59375 0l-22.066406 16.597656-22.070313-16.597656c-3.128906-2.382813-7.464843-2.382813-10.59375 0l-2.648437 2.03125-2.648438-2.03125c-3.128906-2.382813-7.464844-2.382813-10.59375 0l-17.652344 13.242187c-.289062-.445312-.527343-.917968-.707031-1.414062l-24.011719-59.9375zm0 0" fill="#f5efca"/><path d="m308.964844 406.070312v59.144532c-8.714844 1.78125-17.585938 2.667968-26.480469 2.648437h-52.96875c-8.894531.019531-17.765625-.867187-26.480469-2.648437v-59.144532c0-14.628906 11.855469-26.484374 26.480469-26.484374 14.628906 0 26.484375 11.855468 26.484375 26.484374 0-14.628906 11.855469-26.484374 26.484375-26.484374 14.625 0 26.480469 11.855468 26.480469 26.484374zm0 0" fill="#d75e72"/><g fill="#fff"><path d="m105.929688 79.449219c0 14.625-11.855469 26.480469-26.480469 26.480469-14.628907 0-26.484375-11.855469-26.484375-26.480469 0-14.628907 11.855468-26.484375 26.484375-26.484375 14.625 0 26.480469 11.855468 26.480469 26.484375zm0 0"/><path d="m388.414062 79.449219c0 14.625-11.855468 26.480469-26.484374 26.480469-14.625 0-26.480469-11.855469-26.480469-26.480469 0-14.628907 11.855469-26.484375 26.480469-26.484375 14.628906 0 26.484374 11.855468 26.484374 26.484375zm0 0"/></g></svg>