<svg height="512pt" viewBox="0 0 512.08836 512" width="512pt" xmlns="http://www.w3.org/2000/svg"><path d="m64.222656 420.945312-35.753906 6.441407c-7.027344 1.300781-14.269531-.589844-19.761719-5.160157-5.492187-4.574218-8.6679685-11.351562-8.6640622-18.496093.0078124-13.308594 10.7929692-24.09375 24.1015622-24.101563-6.394531.007813-12.527343-2.527344-17.050781-7.050781-4.519531-4.519531-7.0546875-10.652344-7.0507812-17.046875v-4.765625c-.0039063-6.394531 2.5312502-12.527344 7.0507812-17.050781 4.523438-4.519532 10.65625-7.058594 17.050781-7.050782-13.3125.023438-24.1210935-10.746093-24.144531-24.054687s10.746094-24.117187 24.054688-24.144531c1.480468.019531 2.957031.167968 4.414062.441406l40.695312 7.417969zm0 0" fill="#9fc9d3"/><path d="m442.925781 286.324219 40.695313-7.417969c1.453125-.273438 2.929687-.421875 4.410156-.441406 13.3125.027344 24.082031 10.835937 24.058594 24.144531-.027344 13.308594-10.835938 24.078125-24.144532 24.054687 6.394532-.007812 12.527344 2.53125 17.046876 7.050782 4.523437 4.523437 7.058593 10.65625 7.050781 17.050781v4.765625c.007812 6.394531-2.527344 12.527344-7.050781 17.046875-4.519532 4.523437-10.652344 7.058594-17.046876 7.050781 13.308594.007813 24.09375 10.792969 24.097657 24.101563.003906 7.144531-3.167969 13.921875-8.664063 18.496093-5.492187 4.570313-12.734375 6.460938-19.757812 5.160157l-35.753906-6.441407zm0 0" fill="#9fc9d3"/><path d="m176.597656 211.90625h158.894532c63.378906 0 114.757812 51.378906 114.757812 114.757812v70.621094c0 63.378906-51.378906 114.757813-114.757812 114.757813h-158.894532c-63.382812 0-114.761718-51.378907-114.761718-114.757813v-70.621094c0-63.378906 51.378906-114.757812 114.761718-114.757812zm0 0" fill="#285680"/><path d="m176.597656 211.90625h141.238282c63.378906 0 114.761718 51.378906 114.761718 114.757812v70.621094c0 63.378906-51.382812 114.757813-114.761718 114.757813h-141.238282c-63.382812 0-114.761718-51.378907-114.761718-114.757813v-70.621094c0-63.378906 51.378906-114.757812 114.761718-114.757812zm0 0" fill="#4482c3"/><path d="m158.941406 264.871094c-4.132812-.003906-7.710937-2.875-8.609375-6.910156-6.269531-26.492188-16.648437-51.835938-30.761719-75.113282-2.332031-4.1875-.898437-9.464844 3.226563-11.902344 4.125-2.433593 9.4375-1.132812 11.972656 2.933594 15.058594 24.871094 26.125 51.949219 32.796875 80.25.507813 2.285156.089844 4.679688-1.167968 6.660156-1.253907 1.976563-3.246094 3.371094-5.535157 3.878907-.632812.132812-1.277343.203125-1.921875.203125zm0 0" fill="#285680"/><path d="m256.042969 264.871094c-4.875 0-8.828125-3.953125-8.828125-8.828125 0-30.304688 1.015625-63.230469 3.011718-97.878907.28125-4.875 4.460938-8.601562 9.335938-8.320312s8.601562 4.460938 8.320312 9.335938c-2.003906 34.3125-3.011718 66.902343-3.011718 96.863281 0 4.875-3.953125 8.828125-8.828125 8.828125zm0 0" fill="#285680"/><path d="m344.320312 264.871094c-4.875 0-8.828124-3.953125-8.828124-8.828125-.242188-34.679688 7.617187-68.941407 22.953124-100.050781 1.359376-2.898438 4.179688-4.832032 7.371094-5.058594 3.195313-.226563 6.257813 1.296875 8.007813 3.976562 1.753906 2.679688 1.917969 6.09375.429687 8.929688-14.113281 28.675781-21.339844 60.246094-21.105468 92.203125 0 2.34375-.929688 4.585937-2.585938 6.242187s-3.902344 2.585938-6.242188 2.585938zm0 0" fill="#285680"/><g fill="#f5efca"><path d="m252.070312 399.414062-2.46875 17.917969c-.6875 6.40625-4.804687 11.929688-10.746093 14.414063-5.941407 2.484375-12.765625 1.535156-17.804688-2.472656-5.039062-4.011719-7.496093-10.449219-6.40625-16.796876l2.648438-19.242187c11.222656 3.765625 22.945312 5.847656 34.777343 6.179687zm0 0"/><path d="m213.847656 392.085938-10.769531 18.625c-5.074219 7.984374-15.542969 10.550781-23.734375 5.816406s-11.195312-15.085938-6.808594-23.46875l10.238282-17.65625c9.5 7.03125 19.964843 12.648437 31.074218 16.683594zm0 0"/><path d="m176.066406 370.015625-15.359375 13.417969c-4.707031 4.4375-11.460937 5.949218-17.605469 3.933594-6.148437-2.011719-10.703124-7.222657-11.871093-13.582032-1.171875-6.363281 1.230469-12.851562 6.257812-16.921875l15.183594-13.242187c6.449219 9.910156 14.332031 18.804687 23.394531 26.394531zm0 0"/><path d="m333.726562 417.15625c-8.433593 4.867188-19.21875 1.984375-24.097656-6.445312l-10.859375-18.800782c11.097657-4.078125 21.535157-9.757812 30.984375-16.859375l10.417969 18.007813c4.867187 8.433594 1.980469 19.21875-6.445313 24.097656zm0 0"/><path d="m376.804688 381.757812c-6.414063 7.332032-17.554688 8.082032-24.894532 1.675782l-15.625-13.679688c9.058594-7.605468 16.917969-16.535156 23.304688-26.484375l15.539062 13.59375c3.546875 3.0625 5.722656 7.421875 6.035156 12.097657.316407 4.675781-1.253906 9.285156-4.359374 12.796874zm0 0"/><path d="m281.996094 431.808594c-4.648438.65625-9.367188-.570313-13.109375-3.402344-3.742188-2.832031-6.203125-7.039062-6.839844-11.691406l-2.382813-17.300782c11.859376-.296874 23.609376-2.347656 34.867188-6.09375l2.5625 18.628907c1.304688 9.648437-5.449219 18.535156-15.097656 19.859375zm0 0"/></g><path d="m344.320312 79.492188c0 43.878906-35.570312 79.449218-79.449218 79.449218s-79.449219-35.570312-79.449219-79.449218c0-43.878907 35.570313-79.4492192 79.449219-79.4492192s79.449218 35.5703122 79.449218 79.4492192zm0 0" fill="#4482c3"/><path d="m158.941406 114.804688c0 43.875-35.570312 79.445312-79.449218 79.445312-43.878907 0-79.4492192-35.570312-79.4492192-79.445312 0-43.878907 35.5703122-79.449219 79.4492192-79.449219 43.878906 0 79.449218 35.570312 79.449218 79.449219zm0 0" fill="#4482c3"/><path d="m150.113281 114.804688c0 39-31.617187 70.617187-70.621093 70.617187-2.949219.003906-5.898438-.171875-8.828126-.527344-35.394531-4.359375-61.988281-34.425781-61.988281-70.089843 0-35.667969 26.59375-65.734376 61.988281-70.09375 2.929688-.355469 5.878907-.53125 8.828126-.527344 39.003906 0 70.621093 31.617187 70.621093 70.621094zm0 0" fill="#e6e7e8"/><path d="m132.457031 114.804688c0-38.710938-27.664062-70.09375-61.792969-70.09375-34.125 0-61.792968 31.382812-61.792968 70.09375 0 38.707031 27.667968 70.089843 61.792968 70.089843 34.128907 0 61.792969-31.382812 61.792969-70.089843zm0 0" fill="#fff"/><path d="m335.492188 79.492188c0 39.003906-31.617188 70.621093-70.621094 70.621093-2.949219.003907-5.898438-.175781-8.828125-.53125-35.394531-4.359375-61.988281-34.425781-61.988281-70.089843 0-35.664063 26.59375-65.730469 61.988281-70.089844 2.929687-.355469 5.878906-.53125 8.828125-.53125 39.003906 0 70.621094 31.617187 70.621094 70.621094zm0 0" fill="#e6e7e8"/><path d="m317.835938 79.492188c0-38.710938-27.664063-70.089844-61.792969-70.089844-34.125 0-61.792969 31.378906-61.792969 70.089844 0 38.710937 27.667969 70.089843 61.792969 70.089843 34.128906 0 61.792969-31.378906 61.792969-70.089843zm0 0" fill="#fff"/><path d="m342.820312 63.957031c16.386719-35.40625 56.085938-53.640625 93.621094-43s61.761719 46.996094 57.128906 85.734375c-4.632812 38.738282-36.746093 68.359375-75.730468 69.851563-38.984375 1.492187-73.269532-25.585938-80.847656-63.859375zm0 0" fill="#4482c3"/><path d="m485.5625 97.148438c0 39-31.617188 70.621093-70.621094 70.621093-2.953125 0-5.898437-.175781-8.828125-.53125-35.398437-4.359375-61.988281-34.425781-61.988281-70.089843 0-35.664063 26.589844-65.730469 61.988281-70.09375 2.929688-.351563 5.875-.53125 8.828125-.527344 39.003906 0 70.621094 31.617187 70.621094 70.621094zm0 0" fill="#e6e7e8"/><path d="m467.90625 97.148438c0-38.710938-27.664062-70.09375-61.792969-70.09375-34.128906 0-61.792969 31.382812-61.792969 70.09375 0 38.710937 27.664063 70.089843 61.792969 70.089843 34.128907 0 61.792969-31.378906 61.792969-70.089843zm0 0" fill="#fff"/><path d="m123.628906 114.804688c0 24.375-19.757812 44.136718-44.136718 44.136718-24.375 0-44.136719-19.761718-44.136719-44.136718 0-24.378907 19.761719-44.140626 44.136719-44.140626 24.378906 0 44.136718 19.761719 44.136718 44.140626zm0 0" fill="#f0c419"/><path d="m309.007812 79.492188c0 24.378906-19.757812 44.136718-44.136718 44.136718-24.375 0-44.136719-19.757812-44.136719-44.136718 0-24.375 19.761719-44.136719 44.136719-44.136719 24.378906 0 44.136718 19.761719 44.136718 44.136719zm0 0" fill="#f0c419"/><path d="m459.078125 97.148438c0 24.375-19.761719 44.136718-44.136719 44.136718-24.378906 0-44.136718-19.761718-44.136718-44.136718 0-24.378907 19.757812-44.140626 44.136718-44.140626 24.375 0 44.136719 19.761719 44.136719 44.140626zm0 0" fill="#f0c419"/><path d="m105.976562 114.804688c0 14.625-11.859374 26.480468-26.484374 26.480468s-26.484376-11.855468-26.484376-26.480468c0-14.628907 11.859376-26.484376 26.484376-26.484376s26.484374 11.855469 26.484374 26.484376zm0 0" fill="#2c2f38"/><path d="m291.355469 79.492188c0 14.625-11.859375 26.484374-26.484375 26.484374s-26.480469-11.859374-26.480469-26.484374 11.855469-26.484376 26.480469-26.484376 26.484375 11.859376 26.484375 26.484376zm0 0" fill="#2c2f38"/><path d="m441.421875 97.148438c0 14.625-11.855469 26.480468-26.480469 26.480468s-26.484375-11.855468-26.484375-26.480468 11.859375-26.484376 26.484375-26.484376 26.480469 11.859376 26.480469 26.484376zm0 0" fill="#2c2f38"/><path d="m256.042969 408.328125c-1.507813 0-3.027344 0-4.546875-.105469-12.59375-.378906-25.066406-2.609375-37.011719-6.621094-1.128906-.34375-2.464844-.765624-3.796875-1.269531-11.851562-4.320312-23.015625-10.320312-33.15625-17.824219-2.472656-1.765624-4.882812-3.742187-7.292969-5.859374-9.664062-8.109376-18.074219-17.609376-24.953125-28.1875-14.179687-21.535157-21.707031-46.765626-21.65625-72.546876 0-3.152343 1.683594-6.066406 4.414063-7.644531 2.734375-1.578125 6.097656-1.578125 8.828125 0 2.730468 1.578125 4.414062 4.492188 4.414062 7.644531-.050781 22.335938 6.472656 44.191407 18.757813 62.84375 5.972656 9.191407 13.273437 17.441407 21.671875 24.480469 2.179687 1.90625 4.183594 3.53125 6.277344 5.046875 8.824218 6.535156 18.546874 11.753906 28.867187 15.503906 1.113281.433594 2.074219.714844 3.027344 1.003907 10.46875 3.527343 21.398437 5.480469 32.441406 5.792969 1.457031.085937 2.648437.078124 3.714844.085937 1.070312.011719 1.988281 0 3.011719-.070313 11.105468-.253906 22.113281-2.15625 32.660156-5.640624 1.671875-.527344 2.816406-.882813 3.957031-1.3125 10.292969-3.789063 19.984375-9.054688 28.757813-15.636719 2.066406-1.445313 4.027343-3.03125 5.871093-4.746094 8.503907-7.105469 15.875-15.460937 21.867188-24.78125 12.207031-18.582031 18.6875-40.335937 18.636719-62.570313 0-4.875 3.949218-8.828124 8.824218-8.828124s8.828125 3.953124 8.828125 8.828124c.0625 25.65625-7.410156 50.765626-21.496093 72.210938-6.855469 10.679688-15.292969 20.257812-25.023438 28.40625-2.246094 2.097656-4.640625 4.027344-7.160156 5.78125-10.054688 7.527344-21.152344 13.550781-32.945313 17.878906-1.402343.527344-2.824219.976563-4.253906 1.429688-12.15625 4.050781-24.847656 6.28125-37.660156 6.621094-1.085938.078124-2.425781.085937-3.875.085937zm0 0" fill="#802d40"/><path d="m79.492188 88.320312c0 9.75-7.902344 17.65625-17.65625 17.65625-9.75 0-17.652344-7.90625-17.652344-17.65625s7.902344-17.65625 17.652344-17.65625c9.753906 0 17.65625 7.90625 17.65625 17.65625zm0 0" fill="#fff"/><path d="m264.871094 53.007812c0 9.753907-7.902344 17.65625-17.65625 17.65625-9.75 0-17.652344-7.902343-17.652344-17.65625 0-9.75 7.902344-17.652343 17.652344-17.652343 9.753906 0 17.65625 7.902343 17.65625 17.652343zm0 0" fill="#fff"/><path d="m414.941406 70.664062c0 9.75-7.90625 17.65625-17.65625 17.65625s-17.65625-7.90625-17.65625-17.65625 7.90625-17.65625 17.65625-17.65625 17.65625 7.90625 17.65625 17.65625zm0 0" fill="#fff"/></svg>