<svg height="512pt" viewBox="0 0 512.02347 512" width="512pt" xmlns="http://www.w3.org/2000/svg"><path d="m512.011719 377.214844c.210937 14.890625-2.394531 29.683594-7.679688 43.609375-2.671875 6.953125-6.171875 13.5625-10.417969 19.683593-37.515624 55.4375-129.851562 71.503907-237.902343 71.503907-2.558594 0-5.121094 0-7.589844-.089844-.824219.089844-1.652344.089844-2.472656 0-103.726563-.96875-191.472657-17.742187-227.839844-71.414063-4.246094-6.121093-7.746094-12.730468-10.417969-19.683593-5.285156-13.925781-7.890625-28.71875-7.6796872-43.609375 0-95.867188 91.5429692-222.984375 211.9492192-248.851563l48.730468-3.53125 9.796875-.703125c134.710938 9.53125 241.523438 149.539063 241.523438 253.085938zm0 0" fill="#90bae1"/><path d="m494.355469 377.214844c.210937 14.890625-2.394531 29.683594-7.679688 43.609375-2.671875 6.953125-6.167969 13.5625-10.414062 19.683593-36.371094 53.671876-124.117188 70.445313-227.839844 71.414063-.824219.089844-1.652344.089844-2.472656 0-103.726563-.96875-191.472657-17.742187-227.839844-71.414063-4.246094-6.121093-7.746094-12.730468-10.417969-19.683593-5.285156-13.925781-7.890625-28.71875-7.6796872-43.609375 0-95.867188 91.5429692-222.984375 211.9492192-248.851563l48.730468-3.53125c131 14.300781 233.664063 150.863281 233.664063 252.382813zm0 0" fill="#b0d3f0"/><path d="m285.585938 41.5c-1.796876 10.464844-5.863282 20.410156-11.917969 29.132812-11.757813 17.65625-3.9375 54.855469 2.59375 77.746094 1.398437 4.898438.609375 10.167969-2.164063 14.441406-2.773437 4.277344-7.257812 7.148438-12.304687 7.871094l-22.457031 3.207032c-4.632813.671874-9.34375-.535157-13.085938-3.347657s-6.207031-7.003906-6.847656-11.640625c-4.660156-33.371094-21.882813-73.386718-51.667969-88.277344-4.90625-2.308593-9.066406-5.949218-12.003906-10.503906zm0 0" fill="#90bae1"/><g fill="#f5efca"><path d="m256.011719 397.253906v17.65625c-11.839844-.328125-23.683594.648438-35.308594 2.910156v-20.566406c0-9.75 7.902344-17.65625 17.652344-17.65625s17.65625 7.90625 17.65625 17.65625zm0 0"/><path d="m141.253906 432.5625v17.65625c-11.734375 1.238281-23.558594 1.328125-35.3125.265625v-17.921875c0-9.75 7.90625-17.652344 17.65625-17.652344s17.65625 7.902344 17.65625 17.652344zm0 0"/><path d="m406.082031 432.5625v17.921875c-11.753906 1.0625-23.578125.972656-35.3125-.265625v-17.65625c0-9.75 7.90625-17.652344 17.65625-17.652344s17.65625 7.902344 17.65625 17.652344zm0 0"/><path d="m291.320312 397.253906v20.566406c-11.625-2.261718-23.46875-3.238281-35.308593-2.910156v-17.65625c0-9.75 7.90625-17.65625 17.65625-17.65625s17.652343 7.90625 17.652343 17.65625zm0 0"/></g><path d="m256.011719 264.839844c0 21.070312-8.371094 41.277344-23.269531 56.179687-14.898438 14.898438-35.109376 23.269531-56.179688 23.269531-2.949219 0-5.898438-.175781-8.828125-.53125 26.921875-3.015624 50.453125-19.542968 62.425781-43.84375 11.972656-24.300781 10.734375-53.027343-3.28125-76.210937 4.984375-1.15625 9.882813-2.664063 14.65625-4.503906 9.425782 13.351562 14.484375 29.296875 14.476563 45.640625zm0 0" fill="#e6e7e8"/><path d="m238.355469 264.839844c.011719 40.457031-30.410157 74.449218-70.621094 78.917968-26.921875-3.015624-50.449219-19.542968-62.421875-43.84375-11.972656-24.300781-10.734375-53.027343 3.277344-76.210937.972656-1.5 1.941406-3 3.003906-4.503906 9.207031 3.398437 18.726562 5.882812 28.421875 7.417969 8.914063 1.441406 17.90625 2.355468 26.925781 2.734374h1.589844c2.648438.089844 5.296875.175782 8.03125.175782 12.242188.019531 24.464844-.953125 36.546875-2.910156 4.765625-.796876 9.359375-1.765626 13.769531-2.914063 7.503906 12.410156 11.472656 26.632813 11.476563 41.136719zm0 0" fill="#fff"/><path d="m414.910156 264.839844c0 21.070312-8.371094 41.277344-23.273437 56.179687-14.898438 14.898438-35.105469 23.269531-56.175781 23.269531-2.953126 0-5.898438-.175781-8.828126-.53125 26.921876-3.015624 50.449219-19.542968 62.421876-43.84375 11.972656-24.300781 10.738281-53.027343-3.277344-76.210937 4.972656-1.199219 9.867187-2.703125 14.652344-4.503906 9.429687 13.351562 14.484374 29.296875 14.480468 45.640625zm0 0" fill="#e6e7e8"/><path d="m397.253906 264.839844c.007813 40.457031-30.410156 74.449218-70.621094 78.917968-26.921874-3.015624-50.453124-19.542968-62.421874-43.84375-11.972657-24.300781-10.738282-53.027343 3.277343-76.210937.96875-1.5 1.941407-3 3-4.503906 17.910157 6.324219 36.714844 9.75 55.703125 10.152343h.882813c2.734375.089844 5.5625.175782 8.386719.175782 16.949218.160156 33.851562-1.796875 50.316406-5.824219 7.5 12.410156 11.46875 26.632813 11.476562 41.136719zm0 0" fill="#fff"/><path d="m229.527344 264.839844c.054687 24.144531-16.230469 45.265625-39.589844 51.363281-23.363281 6.09375-47.890625-4.378906-59.640625-25.46875-11.753906-21.089844-7.753906-47.460937 9.71875-64.117187 24.210937 3.882812 48.882813 3.882812 73.09375 0 10.503906 9.9375 16.441406 23.765624 16.417969 38.222656zm0 0" fill="#d75e72"/><path d="m388.425781 264.839844c.050781 24.144531-16.230469 45.265625-39.59375 51.363281-23.359375 6.09375-47.886719-4.378906-59.640625-25.46875-11.75-21.089844-7.753906-47.460937 9.722656-64.117187 24.210938 3.882812 48.882813 3.882812 73.09375 0 10.5 9.9375 16.441407 23.765624 16.417969 38.222656zm0 0" fill="#d75e72"/><path d="m211.875 264.839844c0 19.5-15.808594 35.308594-35.3125 35.308594-19.5 0-35.308594-15.808594-35.308594-35.308594s15.808594-35.3125 35.308594-35.3125c19.503906 0 35.3125 15.8125 35.3125 35.3125zm0 0" fill="#2c2f38"/><path d="m370.769531 264.839844c0 19.5-15.808593 35.308594-35.308593 35.308594-19.503907 0-35.3125-15.808594-35.3125-35.308594s15.808593-35.3125 35.3125-35.3125c19.5 0 35.308593 15.8125 35.308593 35.3125zm0 0" fill="#2c2f38"/><path d="m285.585938 41.5c-43.433594 33.632812-91.898438 30.542969-129.855469 18.628906-13.949219-22.335937 14.210937-60.1171872 73.796875-60.1171872 47.757812 0 59.234375 20.2148432 56.058594 41.4882812zm0 0" fill="#4482c3"/><path d="m158.910156 256.011719c0 9.75-7.90625 17.65625-17.65625 17.65625s-17.65625-7.90625-17.65625-17.65625 7.90625-17.65625 17.65625-17.65625 17.65625 7.90625 17.65625 17.65625zm0 0" fill="#fff"/><path d="m317.804688 256.011719c0 9.75-7.90625 17.65625-17.65625 17.65625s-17.652344-7.90625-17.652344-17.65625 7.902344-17.65625 17.652344-17.65625 17.65625 7.90625 17.65625 17.65625zm0 0" fill="#fff"/><path d="m504.332031 420.824219c-2.671875 6.953125-6.171875 13.5625-10.417969 19.683593-28.214843 9.734376-57.496093 16.046876-87.214843 18.804688-5.648438.441406-11.386719.703125-17.125.703125-6.605469.003906-13.207031-.351563-19.773438-1.058594-41.136719-4.589843-51.90625-13.945312-61.351562-22.332031-5.199219-5.230469-11.839844-8.792969-19.070313-10.242188-11-2.046874-22.183594-2.933593-33.367187-2.648437-11.183594-.285156-22.367188.601563-33.367188 2.648437-7.230469 1.449219-13.871093 5.011719-19.070312 10.242188-9.445313 8.386719-20.214844 17.742188-61.351563 22.332031-12.316406 1.3125-24.734375 1.429688-37.074218.355469-29.660157-2.777344-58.878907-9.089844-87.039063-18.804688-4.246094-6.121093-7.746094-12.730468-10.417969-19.683593 2.054688-.855469 4.347656-.917969 6.445313-.179688 29.773437 10.953125 60.839843 18.011719 92.425781 21.011719 11.21875 1.046875 22.511719.988281 33.71875-.175781 35.574219-3.972657 43.785156-11.210938 51.640625-18.097657 7.402344-7.191406 16.71875-12.09375 26.835937-14.125 12.257813-2.46875 24.757813-3.535156 37.253907-3.175781 12.496093-.359375 24.996093.707031 37.253906 3.175781 10.117187 2.03125 19.433594 6.933594 26.835937 14.125 7.855469 6.886719 16.066407 14.125 51.640626 18.097657 11.148437 1.164062 22.382812 1.222656 33.542968.175781 31.644532-2.976562 62.769532-10.039062 92.601563-21.011719 2.097656-.738281 4.390625-.675781 6.445312.179688zm0 0" fill="#802d40"/></svg>