<svg height="503pt" viewBox="0 0 503.68503 503" width="503pt" xmlns="http://www.w3.org/2000/svg"><path d="m503.328125 369.160156c0 74.28125-112.640625 134.507813-251.660156 134.507813-2.949219 0-5.816407 0-8.679688-.085938-135.027343-2.429687-242.9804685-61.699219-242.9804685-134.421875 0-68.121094 94.6757815-124.441406 217.5546875-133.292968 4.523438-.316407 8.035156-4.0625 8.070312-8.59375v-70.722657c0-14.378906-11.65625-26.035156-26.03125-26.035156h-15.1875c0 .085937-.085937.085937-.085937.171875-15.492187 39.535156-55.261719 64.054688-97.542969 60.140625-1.472656-.085937-3.035156-.261719-4.511718-.433594-48.042969-6.699219-83.421876-48.367187-82.2460942-96.859375 1.1757812-48.492187 38.5351562-88.394531 86.8476562-92.753906 2.851562-.320312 5.71875-.464844 8.589844-.433594 39.335937-.027344 74.65625 24.09375 88.949218 60.746094h134.507813c13.132813-33.71875 44.230469-57.085938 80.269531-60.3125 7.285156-.679688 14.621094-.53125 21.871094.433594 49.832031 6.761718 85.871094 51.027344 82.390625 101.199218-3.484375 50.167969-45.292969 89.035157-95.582031 88.847657-2.949219 0-5.902344-.175781-8.765625-.433594-36.003907-3.265625-67.058594-26.625-80.183594-60.3125h-15.1875c-.699219-.027344-1.398437.03125-2.082031.171875-13.542969.984375-24.007813 12.285156-23.949219 25.863281v70.722657c.03125 4.53125 3.546875 8.277343 8.070313 8.59375 122.878906 8.851562 217.554687 65.171874 217.554687 133.292968zm0 0" fill="#24ae5f"/><path d="m485.972656 369.160156c0 72.722656-107.953125 131.992188-242.984375 134.421875-135.027343-2.429687-242.9804685-61.699219-242.9804685-134.421875 0-68.121094 94.6757815-124.441406 217.5546875-133.292968 4.523438-.316407 8.035156-4.0625 8.070312-8.59375v-70.722657c0-14.378906-11.65625-26.035156-26.03125-26.035156h-15.1875c0 .085937-.085937.085937-.085937.171875-.6875-.140625-1.386719-.199219-2.085937-.171875h-15.183594c-13.132813 33.714844-44.234375 57.082031-80.273438 60.3125-1.472656-.085937-3.035156-.261719-4.511718-.433594-48.042969-6.699219-83.421876-48.367187-82.2460942-96.859375 1.1757812-48.492187 38.5351562-88.394531 86.8476562-92.753906 36.003906 3.265625 67.058594 26.625 80.183594 60.3125h151.863281c13.132813-33.71875 44.230469-57.085938 80.269531-60.3125 1.476563.085938 3.039063.257812 4.515625.433594 48.039063 6.699218 83.421875 48.363281 82.242188 96.855468-1.175781 48.492188-38.53125 88.394532-86.84375 92.757813-36.003907-3.265625-67.058594-26.625-80.183594-60.3125h-15.1875c-.699219-.027344-1.398437.03125-2.082031.171875 0-.085938-.085938-.085938-.085938-.171875h-15.1875c-14.378906 0-26.035156 11.65625-26.035156 26.035156v70.722657c.035156 4.53125 3.550781 8.277343 8.074219 8.59375 122.878906 8.851562 217.554687 65.171874 217.554687 133.292968zm0 0" fill="#4fba6f"/><path d="m164.886719 95.804688c0 38.339843-31.082031 69.421874-69.421875 69.421874-2.902344.003907-5.800782-.171874-8.679688-.519531-34.796875-4.285156-60.9375-33.84375-60.9375-68.902343 0-35.0625 26.140625-64.617188 60.9375-68.902344 2.878906-.351563 5.777344-.523438 8.679688-.523438 38.339844 0 69.421875 31.082032 69.421875 69.425782zm0 0" fill="#e6e7e8"/><path d="m477.292969 95.804688c0 38.339843-31.082031 69.421874-69.421875 69.421874-2.902344.003907-5.796875-.171874-8.679688-.519531-34.796875-4.285156-60.933594-33.84375-60.933594-68.902343 0-35.0625 26.136719-64.617188 60.933594-68.902344 2.882813-.351563 5.777344-.523438 8.679688-.523438 38.339844 0 69.421875 31.082032 69.421875 69.425782zm0 0" fill="#e6e7e8"/><path d="m147.53125 95.804688c0-38.054688-27.195312-68.902344-60.746094-68.902344-33.546875 0-60.746094 30.847656-60.746094 68.902344 0 38.054687 27.199219 68.902343 60.746094 68.902343 33.550782 0 60.746094-30.847656 60.746094-68.902343zm0 0" fill="#fff"/><path d="m459.9375 95.804688c0-38.054688-27.195312-68.902344-60.746094-68.902344-33.546875 0-60.742187 30.847656-60.742187 68.902344 0 38.054687 27.195312 68.902343 60.742187 68.902343 33.550782 0 60.746094-30.847656 60.746094-68.902343zm0 0" fill="#fff"/><path d="m130.175781 95.804688c0 19.167968-15.539062 34.710937-34.710937 34.710937s-34.710938-15.542969-34.710938-34.710937c0-19.171876 15.539063-34.710938 34.710938-34.710938s34.710937 15.539062 34.710937 34.710938zm0 0" fill="#2fa8cc"/><path d="m442.582031 95.804688c0 19.167968-15.539062 34.710937-34.710937 34.710937s-34.710938-15.542969-34.710938-34.710937c0-19.171876 15.539063-34.710938 34.710938-34.710938s34.710937 15.539062 34.710937 34.710938zm0 0" fill="#2fa8cc"/><path d="m112.820312 95.804688c0 9.585937-7.769531 17.355468-17.355468 17.355468-9.585938 0-17.355469-7.769531-17.355469-17.355468 0-9.585938 7.769531-17.355469 17.355469-17.355469 9.585937 0 17.355468 7.769531 17.355468 17.355469zm0 0" fill="#2c2f38"/><path d="m425.226562 95.804688c0 9.585937-7.769531 17.355468-17.355468 17.355468-9.585938 0-17.355469-7.769531-17.355469-17.355468 0-9.585938 7.769531-17.355469 17.355469-17.355469 9.585937 0 17.355468 7.769531 17.355468 17.355469zm0 0" fill="#2c2f38"/><path d="m373.160156 444.3125c-5.304687 3.148438-10.847656 5.875-16.574218 8.15625-11.453126 4.652344-23.34375 8.144531-35.496094 10.414062-5.378906 1.15625-11.105469 2.109376-17.179688 2.863282-14.445312 1.925781-28.992187 2.96875-43.566406 3.125-2.863281.085937-5.726562.085937-8.675781.085937s-5.816407 0-8.679688-.085937c-14.570312-.15625-29.117187-1.199219-43.5625-3.125-6.074219-.753906-11.800781-1.707032-17.183593-2.863282-12.148438-2.269531-24.039063-5.761718-35.492188-10.414062-5.730469-2.28125-11.269531-5.007812-16.574219-8.15625-30.300781-16.605469-47.757812-49.707031-44.34375-84.089844.347657-6.445312 1.160157-12.851562 2.429688-19.179687 2.3125-11.492188 5.75-22.730469 10.257812-33.550781 1.117188-2.625 3.449219-4.53125 6.246094-5.105469 2.796875-.570313 5.691406.265625 7.75 2.242187 5.800781 5.378906 12.125 10.164063 18.875 14.285156 5.203125 3.214844 10.59375 6.113282 16.140625 8.679688 11.242188 5.132812 22.953125 9.175781 34.972656 12.0625 5.378906 1.386719 11.019532 2.601562 17.097656 3.644531 14.34375 2.382813 28.847657 3.71875 43.386719 3.992188 2.863281.171875 5.730469.171875 8.679688.171875s5.8125 0 8.675781-.171875c14.542969-.273438 29.046875-1.609375 43.390625-3.992188 6.074219-1.042969 11.714844-2.257812 17.097656-3.644531 12.015625-2.886719 23.730469-6.929688 34.972657-12.0625 5.546874-2.566406 10.9375-5.464844 16.140624-8.679688 6.75-4.121093 13.074219-8.90625 18.875-14.285156 2.054688-1.976562 4.953126-2.8125 7.75-2.242187 2.792969.574219 5.128907 2.480469 6.246094 5.105469 4.507813 10.820312 7.945313 22.058593 10.257813 33.550781 1.269531 6.328125 2.082031 12.734375 2.429687 19.179687 3.414063 34.382813-14.042968 67.484375-44.34375 84.089844zm0 0" fill="#fff"/><g fill="#e6e7e8"><path d="m417.503906 360.222656c-13.484375 11.679688-28.382812 21.621094-44.34375 29.589844-5.46875 2.777344-11.195312 5.382812-17.355468 7.898438-11.277344 4.5625-22.882813 8.277343-34.714844 11.105468-5.550782 1.390625-11.28125 2.605469-17.355469 3.644532-14.335937 2.503906-28.839844 3.953124-43.390625 4.339843-2.863281.085938-5.726562.085938-8.675781.085938s-5.816407 0-8.679688-.085938c-14.546875-.386719-29.050781-1.835937-43.386719-4.339843-6.078124-1.039063-11.804687-2.253907-17.359374-3.644532-11.828126-2.828125-23.433594-6.542968-34.710938-11.105468-6.160156-2.515626-11.886719-5.121094-17.355469-7.898438-15.960937-7.96875-30.859375-17.910156-44.34375-29.589844.347657-6.445312 1.160157-12.851562 2.429688-19.179687 1.699219.210937 3.285156.972656 4.511719 2.167969 11.308593 10.480468 23.871093 19.519531 37.402343 26.902343 5.617188 3.222657 11.410157 6.117188 17.355469 8.679688 11.226562 4.976562 22.832031 9.039062 34.710938 12.148437 5.46875 1.476563 11.28125 2.777344 17.359374 3.816406 14.304688 2.765626 28.820313 4.332032 43.386719 4.6875 2.863281.085938 5.730469.085938 8.679688.085938s5.8125 0 8.675781-.085938c14.570312-.355468 29.082031-1.921874 43.390625-4.6875 6.074219-1.039062 11.890625-2.339843 17.355469-3.816406 11.878906-3.109375 23.488281-7.171875 34.714844-12.148437 5.945312-2.5625 11.738281-5.457031 17.355468-8.679688 13.53125-7.382812 26.09375-16.421875 37.402344-26.902343 1.226562-1.195313 2.8125-1.957032 4.511719-2.167969 1.269531 6.328125 2.082031 12.734375 2.429687 19.179687zm0 0"/><path d="m260.34375 347.292969v121.578125c-2.863281.085937-5.726562.085937-8.675781.085937s-5.816407 0-8.679688-.085937v-121.578125c2.863281.171875 5.730469.171875 8.679688.171875s5.8125 0 8.675781-.171875zm0 0"/><path d="m199.601562 343.300781v121.144531c.027344.4375-.03125.882813-.175781 1.300782-6.074219-.753906-11.800781-1.707032-17.183593-2.863282v-121.320312c-.003907-.644531.085937-1.289062.261718-1.90625 5.378906 1.386719 11.019532 2.601562 17.097656 3.644531zm0 0"/><path d="m147.53125 327.59375v121.402344c.011719 1.203125-.257812 2.390625-.78125 3.472656-5.730469-2.28125-11.269531-5.007812-16.574219-8.15625v-121.058594c0-1.53125.421875-3.03125 1.214844-4.339844 5.203125 3.214844 10.59375 6.113282 16.140625 8.679688zm0 0"/><path d="m321.089844 341.5625v121.320312c-5.378906 1.15625-11.105469 2.109376-17.179688 2.863282-.144531-.417969-.203125-.863282-.175781-1.300782v-121.144531c6.074219-1.042969 11.714844-2.257812 17.097656-3.644531.175781.617188.265625 1.261719.257813 1.90625zm0 0"/><path d="m373.160156 323.253906v121.058594c-5.304687 3.148438-10.847656 5.875-16.574218 8.15625-.527344-1.082031-.792969-2.269531-.78125-3.472656v-121.402344c5.546874-2.566406 10.9375-5.464844 16.140624-8.679688.792969 1.308594 1.210938 2.808594 1.214844 4.339844zm0 0"/></g><path d="m95.464844 69.769531c0 9.585938-7.769532 17.355469-17.355469 17.355469s-17.355469-7.769531-17.355469-17.355469c0-9.585937 7.769532-17.355469 17.355469-17.355469s17.355469 7.769532 17.355469 17.355469zm0 0" fill="#fff"/><path d="m407.871094 69.769531c0 9.585938-7.769532 17.355469-17.355469 17.355469s-17.355469-7.769531-17.355469-17.355469c0-9.585937 7.769532-17.355469 17.355469-17.355469s17.355469 7.769532 17.355469 17.355469zm0 0" fill="#fff"/></svg>