<svg height="512pt" viewBox="0 0 512 512.00792" width="512pt" xmlns="http://www.w3.org/2000/svg"><path d="m459.039062 105.9375c-1.238281.03125-2.476562-.027344-3.707031-.175781 13.925781 24.234375 21.289063 51.675781 21.363281 79.625 0 102.402343-98.78125 185.378906-220.691406 185.378906-2.914062 0-5.914062-.085937-8.828125-.175781 117.847657-3.882813 211.863281-85.273438 211.863281-185.203125-.074218-27.949219-7.4375-55.390625-21.363281-79.625 1.230469.148437 2.46875.207031 3.707031.175781 27.417969-.15625 50.179688-21.210938 52.472657-48.53125s-16.640625-51.875-43.644531-56.605469c2.910156-.535156 5.867187-.800781 8.828124-.7929685 29.25 0 52.964844 23.7148435 52.964844 52.9648435 0 29.253906-23.714844 52.964844-52.964844 52.964844zm0 0" fill="#46b29d"/><g fill="#65ddb9"><path d="m441.382812 105.9375c-1.238281.03125-2.476562-.027344-3.707031-.175781 13.925781 24.234375 21.289063 51.675781 21.363281 79.625 0 99.929687-94.015624 181.320312-211.863281 185.203125-117.847656-3.882813-211.863281-85.273438-211.863281-185.203125.074219-27.949219 7.4375-55.390625 21.363281-79.625-1.230469.148437-2.46875.207031-3.707031.175781-27.414062-.15625-50.179688-21.210938-52.472656-48.53125-2.292969-27.320312 16.640625-51.875 43.644531-56.605469 2.914063-.535156 5.867187-.800781 8.828125-.7929685 23.628906-.00390625 44.386719 15.6718755 50.847656 38.3984375 1.0625 3.65625 1.710938 7.414062 1.941406 11.210938 40.738282-30.996094 90.242188-48.300782 141.417969-49.433594 2.914063-.0859378 5.828125-.1757815 8.828125-.1757815 47.601563-.3789065 94.304688 12.9492185 134.53125 38.3984375 5.472656 3.53125 10.683594 7.328125 15.714844 11.210938 1.523438-24.511719 19.742188-44.742188 43.960938-48.816407 27.003906 4.730469 45.9375 29.285157 43.644531 56.605469s-25.054688 48.375-52.472657 48.53125zm0 0"/><path d="m194.210938 485.523438c0-14.625-23.714844-26.480469-52.964844-26.480469-29.253906 0-52.964844 11.855469-52.964844 26.480469 0 14.628906 23.710938 26.484374 52.964844 26.484374 29.25 0 52.964844-11.855468 52.964844-26.484374zm0 0"/><path d="m105.933594 414.90625c0-14.628906-23.710938-26.484375-52.964844-26.484375-29.25 0-52.96484375 11.855469-52.96484375 26.484375 0 14.625 23.71484375 26.480469 52.96484375 26.480469 29.253906 0 52.964844-11.855469 52.964844-26.480469zm0 0"/><path d="m423.726562 485.523438c0-14.625-23.710937-26.480469-52.964843-26.480469-29.25 0-52.964844 11.855469-52.964844 26.480469 0 14.628906 23.714844 26.484374 52.964844 26.484374 29.253906 0 52.964843-11.855468 52.964843-26.484374zm0 0"/><path d="m512.003906 414.90625c0-14.628906-23.714844-26.484375-52.964844-26.484375-29.253906 0-52.964843 11.855469-52.964843 26.484375 0 14.625 23.710937 26.480469 52.964843 26.480469 29.25 0 52.964844-11.855469 52.964844-26.480469zm0 0"/></g><path d="m52.96875 423.730469c-4.875 0-8.828125-3.949219-8.828125-8.824219 0-137.199219 56.59375-157.636719 59.003906-158.4375 4.546875-1.371094 9.363281 1.101562 10.898438 5.59375 1.539062 4.492188-.753907 9.394531-5.1875 11.097656-1.011719.40625-47.058594 19.765625-47.058594 141.746094 0 4.875-3.953125 8.824219-8.828125 8.824219zm0 0" fill="#46b29d"/><path d="m141.246094 494.351562c-4.875 0-8.828125-3.949218-8.828125-8.828124 0-153.128907 54.164062-166.574219 60.34375-167.597657 4.695312-.652343 9.066406 2.519531 9.902343 7.183594.839844 4.664063-2.15625 9.15625-6.785156 10.179687-1.253906.335938-45.804687 13.292969-45.804687 150.234376 0 4.878906-3.953125 8.828124-8.828125 8.828124zm0 0" fill="#46b29d"/><path d="m459.039062 423.730469c-4.875 0-8.828124-3.949219-8.828124-8.824219 0-122.625-46.460938-141.535156-46.925782-141.703125-2.996094-.996094-5.234375-3.515625-5.871094-6.609375-.632812-3.089844.429688-6.289062 2.792969-8.386719 2.359375-2.09375 5.660157-2.773437 8.65625-1.773437 2.410157.835937 59.003907 21.273437 59.003907 158.472656 0 4.875-3.953126 8.824219-8.828126 8.824219zm0 0" fill="#46b29d"/><path d="m370.761719 494.351562c-4.875 0-8.828125-3.949218-8.828125-8.828124 0-138.714844-45.125-150.113282-45.585938-150.191407-3.1875-.429687-5.886718-2.5625-7.046875-5.566406-1.160156-3-.59375-6.394531 1.472657-8.855469 2.070312-2.464844 5.316406-3.609375 8.472656-2.984375 6.179687 1.023438 60.34375 14.46875 60.34375 167.597657 0 4.878906-3.953125 8.828124-8.828125 8.828124zm0 0" fill="#46b29d"/><path d="m256.003906 141.25c0 39.003906-31.617187 70.621094-70.621094 70.621094-2.949218 0-5.898437-.175782-8.828124-.53125-35.394532-4.359375-61.988282-34.425782-61.988282-70.089844s26.59375-65.730469 61.988282-70.089844c2.929687-.355468 5.878906-.535156 8.828124-.53125 39.003907 0 70.621094 31.617188 70.621094 70.621094zm0 0" fill="#e6e7e8"/><path d="m238.347656 141.25c0-38.710938-27.664062-70.089844-61.792968-70.089844-34.125 0-61.792969 31.378906-61.792969 70.089844s27.667969 70.089844 61.792969 70.089844c34.128906 0 61.792968-31.378906 61.792968-70.089844zm0 0" fill="#fff"/><path d="m397.246094 141.25c0 39.003906-31.617188 70.621094-70.621094 70.621094-2.949219 0-5.898438-.175782-8.828125-.53125-35.394531-4.359375-61.988281-34.425782-61.988281-70.089844s26.59375-65.730469 61.988281-70.089844c2.929687-.355468 5.878906-.535156 8.828125-.53125 39.003906 0 70.621094 31.617188 70.621094 70.621094zm0 0" fill="#e6e7e8"/><path d="m379.589844 141.25c0-38.710938-27.664063-70.089844-61.792969-70.089844s-61.792969 31.378906-61.792969 70.089844 27.664063 70.089844 61.792969 70.089844 61.792969-31.378906 61.792969-70.089844zm0 0" fill="#fff"/><path d="m220.695312 141.25c0 19.5-15.8125 35.308594-35.3125 35.308594s-35.308593-15.808594-35.308593-35.308594c0-19.503906 15.808593-35.3125 35.308593-35.3125s35.3125 15.808594 35.3125 35.3125zm0 0" fill="#7d6599"/><path d="m361.933594 141.25c0 19.5-15.808594 35.308594-35.308594 35.308594s-35.3125-15.808594-35.3125-35.308594c0-19.503906 15.8125-35.3125 35.3125-35.3125s35.308594 15.808594 35.308594 35.3125zm0 0" fill="#7d6599"/><path d="m203.039062 141.25c0 9.75-7.90625 17.65625-17.65625 17.65625s-17.65625-7.90625-17.65625-17.65625 7.90625-17.65625 17.65625-17.65625 17.65625 7.90625 17.65625 17.65625zm0 0" fill="#2c2f38"/><path d="m344.28125 141.25c0 9.75-7.90625 17.65625-17.65625 17.65625s-17.65625-7.90625-17.65625-17.65625 7.90625-17.65625 17.65625-17.65625 17.65625 7.90625 17.65625 17.65625zm0 0" fill="#2c2f38"/><path d="m256.003906 335.457031c-8.480468 0-16.492187-3.90625-21.710937-10.59375-5.21875-6.683593-7.066407-15.402343-5.011719-23.632812l9.066406-36.394531h35.3125l9.101563 36.394531c2.058593 8.234375.207031 16.960937-5.023438 23.648437-5.226562 6.6875-13.246093 10.589844-21.734375 10.578125zm0 0" fill="#ff5364"/><path d="m70.625 70.628906-17.65625 35.308594c-29.25 0-52.96484375-23.710938-52.96484375-52.964844-.01953125-8.957031 2.26171875-17.773437 6.62109375-25.597656 26.488281 4.722656 49.738281 20.4375 64 43.253906zm0 0" fill="#fb7b76"/><path d="m512.003906 52.972656c0 29.253906-23.714844 52.964844-52.964844 52.964844l-17.65625-35.308594c14.261719-22.816406 37.511719-38.53125 64-43.253906 4.359376 7.824219 6.640626 16.640625 6.621094 25.597656zm0 0" fill="#fb7b76"/><path d="m326.625 273.664062h-141.242188c-19.5 0-35.308593-15.808593-35.308593-35.3125 0-4.875 3.949219-8.828124 8.828125-8.828124 4.875 0 8.824218 3.953124 8.824218 8.828124 0 9.75 7.90625 17.65625 17.65625 17.65625h141.242188c9.75 0 17.65625-7.90625 17.65625-17.65625 0-4.875 3.949219-8.828124 8.828125-8.828124 4.875 0 8.824219 3.953124 8.824219 8.828124 0 19.503907-15.808594 35.3125-35.308594 35.3125zm0 0" fill="#802d40"/><path d="m185.382812 123.59375c0 9.75-7.902343 17.65625-17.65625 17.65625-9.75 0-17.652343-7.90625-17.652343-17.65625s7.902343-17.65625 17.652343-17.65625c9.753907 0 17.65625 7.90625 17.65625 17.65625zm0 0" fill="#fff"/><path d="m326.625 123.59375c0 9.75-7.90625 17.65625-17.65625 17.65625s-17.65625-7.90625-17.65625-17.65625 7.90625-17.65625 17.65625-17.65625 17.65625 7.90625 17.65625 17.65625zm0 0" fill="#fff"/></svg>