<svg height="512pt" viewBox="0 -53 512 512" width="512pt" xmlns="http://www.w3.org/2000/svg"><path d="m449.675781 273.121094c-25.773437 77.0625-102.75 132.941406-193.675781 132.941406-37.074219.128906-73.539062-9.457031-105.753906-27.804688-41.21875-23.070312-72.511719-60.488281-87.921875-105.136718l57.644531-197.5625c38.101562-31.949219 86.304688-49.34375 136.03125-49.082032 31.332031.558594 62.183594 7.8125 90.484375 21.273438.136719.003906.265625.070312.351563.179688 16.148437 7.429687 31.398437 16.671874 45.460937 27.539062zm0 0" fill="#46b29d"/><path d="m432.550781 264.292969c-25.777343 77.0625-102.753906 132.941406-193.675781 132.941406-30.558594.078125-60.78125-6.390625-88.628906-18.976563-41.21875-23.070312-72.511719-60.488281-87.921875-105.136718l57.644531-197.5625c38.101562-31.949219 86.304688-49.34375 136.03125-49.082032 31.332031.558594 62.183594 7.8125 90.484375 21.273438.136719.003906.265625.070312.351563.179688 9.898437 5.523437 19.367187 11.78125 28.335937 18.714843zm0 0" fill="#65ddb9"/><path d="m150.246094 97.890625-61.96875 87.484375c-8.902344-5.675781-17.507813-11.804688-25.777344-18.363281-.882812-.707031-1.589844-1.234375-2.121094-1.675781-4.148437-3.386719-8.019531-7.105469-11.5625-11.125-14.40625-16.839844-23.0625-37.835938-24.71875-59.9375-.261718-2.824219-.351562-5.648438-.351562-8.5625-.011719-3.980469.195312-7.960938.617187-11.917969 2.238281-26.882813 13.789063-52.140625 32.664063-71.414063 2.351562-2.042968 5.59375-2.714844 8.566406-1.78125 2.96875.9375 5.242188 3.347656 5.996094 6.371094 7.0625 26.484375 24.101562 55.082031 46.257812 67.53125 8.273438 4.675781 17.246094 7.984375 26.570313 9.796875 2.988281.433594 5.535156 2.390625 6.726562 5.164063 1.1875 2.777343.847657 5.96875-.898437 8.429687zm0 0" fill="#fdd7ad"/><path d="m488.253906 85.710938c0 2.914062-.089844 5.738281-.351562 8.5625-1.59375 22.078124-10.296875 43.046874-24.808594 59.761718-1.4375 1.730469-2.96875 3.382813-4.589844 4.945313-2.886718 2.78125-5.921875 5.402343-9.089844 7.855469-8.246093 6.609374-16.820312 12.796874-25.691406 18.539062l-62.144531-87.746094c-1.691406-2.425781-2.011719-5.550781-.84375-8.261718 1.171875-2.714844 3.660156-4.632813 6.582031-5.070313 11.433594-2.160156 22.324219-6.574219 32.042969-12.976563 19.773437-12.886718 34.691406-40.253906 41.136719-64.703124.773437-2.992188 3.058594-5.363282 6.019531-6.246094 2.960937-.886719 6.167969-.15625 8.457031 1.917968 18.875 19.308594 30.425782 44.59375 32.664063 71.503907.421875 3.957031.625 7.9375.617187 11.917969zm0 0" fill="#fdd7ad"/><path d="m123.585938 264.820312c-59.761719 19.953126-91.453126 3.269532-107.695313-15.003906 76.003906-56.410156 98.601563-19.6875 105.136719 2.117188l2.46875 12.359375c.050781.171875.078125.351562.089844.527343zm0 0" fill="#d75e72"/><path d="m121.027344 251.933594c-6.535156-21.804688-29.132813-58.527344-105.136719-2.117188-7.488281-8.34375-12.929687-18.320312-15.890625-29.132812 52.964844-61.792969 105.929688-44.136719 105.929688-44.136719zm0 0" fill="#65ddb9"/><path d="m496.109375 249.816406c-16.242187 18.273438-47.933594 34.957032-107.695313 15.003906l2.558594-12.886718c6.535156-21.804688 29.132813-58.527344 105.136719-2.117188zm0 0" fill="#d75e72"/><path d="m512 220.683594c-2.960938 10.8125-8.402344 20.789062-15.890625 29.132812-76.003906-56.410156-98.601563-19.6875-105.136719 2.117188l15.097656-75.386719s52.964844-17.65625 105.929688 44.136719zm0 0" fill="#65ddb9"/><g fill="#7f6e5d"><path d="m93.75 121.640625c-13.976562 10.621094-24.28125 25.339844-29.484375 42.105469-.335937 1.207031-.941406 2.324218-1.765625 3.265625-.882812-.707031-1.589844-1.234375-2.121094-1.675781-4.148437-3.386719-8.019531-7.105469-11.5625-11.125 6.714844-18.351563 18.5-34.421876 33.988282-46.34375 2.421874-2.289063 5.929687-3.015626 9.0625-1.878907 3.132812 1.132813 5.363281 3.9375 5.757812 7.246094.398438 3.308594-1.101562 6.558594-3.875 8.40625zm0 0"/><path d="m55.085938 79.179688c-9.382813 2.203124-18.101563 6.621093-25.425782 12.886718-1.539062 1.359375-3.507812 2.140625-5.5625 2.207032-.261718-2.824219-.351562-5.648438-.351562-8.5625-.011719-3.980469.195312-7.960938.617187-11.917969 8.042969-5.488281 17.015625-9.464844 26.484375-11.742188 4.644532-.957031 9.214844 1.921875 10.355469 6.527344 1.140625 4.601563-1.5625 9.285156-6.117187 10.601563zm0 0"/><path d="m463.09375 154.035156c-1.4375 1.730469-2.96875 3.382813-4.589844 4.945313-2.886718 2.78125-5.921875 5.402343-9.089844 7.855469-.746093-.917969-1.316406-1.964844-1.679687-3.089844-5.265625-16.730469-15.5625-31.433594-29.484375-42.105469-2.773438-1.847656-4.273438-5.097656-3.875-8.40625.394531-3.308594 2.625-6.113281 5.757812-7.246094 3.132813-1.136719 6.640626-.410156 9.0625 1.878907 15.484376 11.828124 27.25 27.851562 33.898438 46.167968zm0 0"/><path d="m488.253906 85.710938c0 2.914062-.089844 5.738281-.351562 8.5625-2.054688-.066407-4.023438-.847657-5.5625-2.207032-7.324219-6.265625-16.042969-10.683594-25.425782-12.886718-4.554687-1.316407-7.257812-6-6.117187-10.601563 1.140625-4.605469 5.710937-7.484375 10.355469-6.527344 9.46875 2.277344 18.441406 6.253907 26.484375 11.742188.421875 3.957031.625 7.9375.617187 11.917969zm0 0"/></g><path d="m344.277344 167.71875c.007812 29.058594-14.289063 56.261719-38.226563 72.738281-3.671875-1.867187-7.476562-3.460937-11.386719-4.765625 27.398438-22.6875 38.5-59.605468 28.164063-93.640625-10.335937-34.039062-40.09375-58.546875-75.480469-62.167969 2.824219-.261718 5.738282-.441406 8.652344-.441406 48.753906 0 88.277344 39.523438 88.277344 88.277344zm0 0" fill="#e6e7e8"/><path d="m326.621094 167.71875c.035156 26.292969-11.6875 51.226562-31.957032 67.972656-12.457031-4.183594-25.523437-6.273437-38.664062-6.179687-3 0-5.914062.089843-8.828125.351562-14.3125.722657-28.335937 4.328125-41.222656 10.59375-2.207031-1.5-4.238281-3.089843-6.269531-4.765625-27.398438-22.6875-38.5-59.605468-28.164063-93.640625 10.335937-34.039062 40.09375-58.546875 75.480469-62.167969h.351562c45.039063 4.621094 79.28125 42.5625 79.273438 87.835938zm0 0" fill="#fff"/><path d="m300.136719 167.71875c0 24.375-19.761719 44.136719-44.136719 44.136719s-44.136719-19.761719-44.136719-44.136719 19.761719-44.136719 44.136719-44.136719 44.136719 19.761719 44.136719 44.136719zm0 0" fill="#4482c3"/><path d="m282.484375 167.71875c0 14.625-11.859375 26.484375-26.484375 26.484375s-26.484375-11.859375-26.484375-26.484375 11.859375-26.484375 26.484375-26.484375 26.484375 11.859375 26.484375 26.484375zm0 0" fill="#2c2f38"/><path d="m282.484375 329.175781v23.921875c-.03125 9.738282-7.917969 17.625-17.65625 17.65625h-17.65625c-9.738281-.03125-17.625-7.917968-17.65625-17.65625v-23.921875zm0 0" fill="#f9eab0"/><path d="m273.65625 329.175781v23.921875c0 9.710938-5.296875 17.65625-11.769531 17.65625h-11.773438c-6.472656 0-11.769531-7.945312-11.769531-17.65625v-23.921875zm0 0" fill="#f5efca"/><path d="m282.484375 338.011719c-4.125.015625-7.707031-2.820313-8.636719-6.835938-.929687-4.015625 1.042969-8.140625 4.75-9.9375 6.953125-3.457031 13.171875-8.222656 18.316406-14.035156l28.089844-31.089844c6.769532-7.851562 16.882813-12 27.214844-11.160156 10.84375 1.226563 20.460938 7.519531 25.929688 16.960937l9.003906 14.660157c2.210937 4.117187.832031 9.246093-3.148438 11.695312-3.976562 2.453125-9.179687 1.378907-11.859375-2.453125l-9.003906-14.652344c-2.574219-4.6875-7.207031-7.886718-12.5-8.632812-4.78125-.296875-9.414063 1.722656-12.445313 5.429688l-28.074218 31.070312c-6.65625 7.496094-14.699219 13.636719-23.683594 18.078125-1.230469.605469-2.585938.914063-3.953125.902344zm0 0" fill="#802d40"/><path d="m229.515625 338.011719c-1.335937.003906-2.660156-.300781-3.863281-.882813-8.992188-4.449218-17.042969-10.59375-23.703125-18.097656l-28.046875-31.070312c-3.03125-3.710938-7.664063-5.730469-12.445313-5.429688-5.296875.75-9.929687 3.953125-12.5 8.640625l-9.003906 14.644531c-2.679687 3.832032-7.882813 4.90625-11.863281 2.453125-3.976563-2.449219-5.355469-7.578125-3.144532-11.695312l9.003907-14.652344c5.464843-9.445313 15.085937-15.738281 25.925781-16.96875 10.316406-.8125 20.402344 3.332031 27.164062 11.167969l28.070313 31.074218c5.152344 5.820313 11.378906 10.59375 18.335937 14.054688 3.710938 1.792969 5.683594 5.917969 4.753907 9.933594-.929688 4.015625-4.515625 6.855468-8.636719 6.835937zm0 0" fill="#802d40"/><path d="m256 344.191406c-10.527344 0-20.917969-2.417968-30.367188-7.0625-4.386718-2.144531-6.207031-7.441406-4.058593-11.828125 2.144531-4.386719 7.4375-6.207031 11.828125-4.0625 14.222656 7.125 30.972656 7.125 45.195312 0 2.839844-1.386719 6.203125-1.15625 8.824219.609375s4.101563 4.792969 3.882813 7.945313c-.21875 3.152343-2.097657 5.949219-4.9375 7.335937-9.449219 4.644532-19.839844 7.0625-30.367188 7.0625zm0 0" fill="#802d40"/><path d="m247.171875 141.234375c0 9.753906-7.902344 17.65625-17.65625 17.65625-9.75 0-17.652344-7.902344-17.652344-17.65625 0-9.75 7.902344-17.652344 17.652344-17.652344 9.753906 0 17.65625 7.902344 17.65625 17.652344zm0 0" fill="#fff"/></svg>