<svg height="503pt" viewBox="0 0 503.89971 503" width="503pt" xmlns="http://www.w3.org/2000/svg"><path d="m102.535156 462.726562c3.949219-.714843 7.867188 1.371094 9.484375 5.042969 1.613281 3.671875.503907 7.972657-2.691406 10.402344-28.914063 22.035156-59.234375 34.425781-80.632813 19.4375-4.757812-3.375-8.773437-7.6875-11.804687-12.667969-9.71875-15.101562-15.964844-40.09375-16.746094-78.015625-.175781-5.554687-.175781-11.367187-.0859372-17.441406.0859372-5.121094.2578122-10.328125.5195312-15.882813 1.042969-24.035156 5.300781-47.820312 12.667969-70.722656 2.171875-6.683594 4.515625-13.191406 7.117187-19.441406 13.785157-33.019531 33.722657-63.117188 58.75-88.6875l31.152344 133.640625c-23.59375 24.882813-40.441406 55.378906-48.941406 88.601563-9.808594 44.1875 16.488281 49.464843 41.210937 45.734374zm0 0" fill="#fdd7ad"/><path d="m503.8125 389.570312c.085938 6.074219.085938 11.886719-.085938 17.441407-.78125 37.578125-6.855468 62.394531-16.402343 77.496093-3.078125 5.019532-7.082031 9.40625-11.800781 12.929688-21.367188 15.332031-51.84375 2.914062-80.976563-19.265625-3.191406-2.429687-4.304687-6.730469-2.6875-10.402344 1.613281-3.671875 5.535156-5.757812 9.484375-5.042969 24.6875 3.730469 51.007812-1.546874 41.203125-45.734374-8.457031-33.0625-25.179687-63.429688-48.597656-88.253907l31.414062-133.46875c24.96875 25.667969 44.816407 55.855469 58.492188 88.949219 2.515625 6.25 4.859375 12.671875 7.027343 19.351562 7.1875 22.699219 11.359376 46.246094 12.410157 70.03125.257812 5.554688.433593 10.847657.519531 15.96875zm0 0" fill="#fdd7ad"/><path d="m425.796875 208.722656c0 114.980469-77.667969 208.269532-173.558594 208.269532-2.777343 0-5.640625-.085938-8.417969-.261719h-.519531c-91.726562-5.550781-164.621093-96.585938-164.621093-208.007813 0-111.425781 72.894531-202.457031 164.621093-208.011718h.519531c2.777344-.175782 5.640626-.261719 8.417969-.261719 95.890625 0 173.558594 93.289062 173.558594 208.273437zm0 0" fill="#f0785a"/><path d="m408.441406 208.722656c0 111.421875-72.894531 202.457032-164.621094 208.007813h-.519531c-91.726562-5.550781-164.621093-96.585938-164.621093-208.007813 0-111.425781 72.894531-202.457031 164.621093-208.011718h.519531c91.726563 5.554687 164.621094 96.585937 164.621094 208.011718zm0 0" fill="#f09372"/><path d="m339.019531 139.296875c0 34.496094-20.445312 65.710937-52.070312 79.492187h-69.421875c-36.117188-15.789062-57.058594-53.9375-50.984375-92.886718 6.074219-38.945313 37.632812-68.910156 76.84375-72.949219h.347656c2.777344-.261719 5.640625-.433594 8.503906-.433594 47.925781 0 86.78125 38.851563 86.78125 86.777344zm0 0" fill="#e6e7e8"/><path d="m321.664062 139.296875c0 34.496094-20.445312 65.710937-52.070312 79.492187h-52.066406c-36.117188-15.789062-57.058594-53.9375-50.984375-92.886718 6.074219-38.945313 37.632812-68.910156 76.84375-72.949219h.347656c44.273437 4.539063 77.9375 41.835937 77.929687 86.34375zm0 0" fill="#fff"/><path d="m304.304688 130.621094c0 28.753906-23.308594 52.066406-52.066407 52.066406-28.753906 0-52.066406-23.3125-52.066406-52.066406 0-28.757813 23.3125-52.070313 52.066406-52.070313 28.757813 0 52.066407 23.3125 52.066407 52.070313zm0 0" fill="#4482c3"/><path d="m278.273438 130.621094c0 14.375-11.65625 26.03125-26.035157 26.03125-14.378906 0-26.035156-11.65625-26.035156-26.03125 0-14.378906 11.65625-26.035156 26.035156-26.035156 14.378907 0 26.035157 11.65625 26.035157 26.035156zm0 0" fill="#2c2f38"/><path d="m252.238281 226.078125v-19.457031c-1.136719-8.714844-8.566406-15.234375-17.355469-15.234375-8.789062 0-16.21875 6.519531-17.355468 15.234375v25.011718zm0 0" fill="#f9eab0"/><path d="m243.5625 226.078125v-19.457031c0-8.390625-3.90625-15.257813-8.679688-15.257813-4.773437 0-8.679687 6.867188-8.679687 15.257813v25.011718zm0 0" fill="#f5efca"/><path d="m286.949219 231.632812v-25.011718c-1.136719-8.714844-8.5625-15.234375-17.355469-15.234375-8.789062 0-16.214844 6.519531-17.355469 15.234375v20.132812zm0 0" fill="#f9eab0"/><path d="m278.273438 226.078125v-19.457031c0-8.390625-3.90625-15.257813-8.679688-15.257813s-8.675781 6.867188-8.675781 15.257813v25.011718zm0 0" fill="#f5efca"/><path d="m148.101562 78.550781c-3.8125 0-7.179687-2.496093-8.292968-6.144531-4.179688-11.832031-13.136719-21.367188-24.683594-26.285156-16.199219-5.839844-37.3125-.503906-62.730469 15.863281-4.03125 2.558594-9.367187 1.382813-11.949219-2.632813-2.582031-4.011718-1.4375-9.355468 2.558594-11.960937 30.375-19.519531 56.695313-25.410156 78.230469-17.503906 16.605469 6.785156 29.4375 20.453125 35.164063 37.453125.804687 2.628906.3125 5.484375-1.324219 7.695312-1.632813 2.210938-4.222657 3.515625-6.972657 3.515625zm0 0" fill="#f0785a"/><path d="m52.644531 69.875c0 14.375-11.65625 26.03125-26.03125 26.03125-14.378906 0-26.035156-11.65625-26.035156-26.03125 0-14.378906 11.65625-26.035156 26.035156-26.035156 14.375 0 26.03125 11.65625 26.03125 26.035156zm0 0" fill="#c03a2b"/><path d="m356.375 78.550781c-2.75 0-5.335938-1.304687-6.972656-3.515625-1.636719-2.210937-2.128906-5.066406-1.324219-7.695312 5.734375-17.003906 18.582031-30.675782 35.199219-37.453125 21.546875-7.898438 47.882812-2.015625 78.230468 17.503906 3.996094 2.605469 5.140626 7.949219 2.558594 11.960937-2.582031 4.015626-7.917968 5.191407-11.949218 2.632813-25.574219-16.410156-46.738282-21.746094-62.914063-15.800781-11.527344 4.867187-20.445313 14.398437-24.53125 26.222656-1.117187 3.648438-4.480469 6.144531-8.296875 6.144531zm0 0" fill="#f0785a"/><path d="m503.898438 69.875c0 14.375-11.65625 26.03125-26.03125 26.03125-14.378907 0-26.035157-11.65625-26.035157-26.03125 0-14.378906 11.65625-26.035156 26.035157-26.035156 14.375 0 26.03125 11.65625 26.03125 26.035156zm0 0" fill="#c03a2b"/><g fill="#7f6e5d"><path d="m61.0625 332.382812c-.988281 3.835938-4.453125 6.515626-8.417969 6.507813-.730469-.007813-1.457031-.09375-2.167969-.261719-13.886718-3.558594-26.382812-15.53125-37.230468-35.75 2.171875-6.683594 4.515625-13.191406 7.117187-19.441406 2.019531.777344 3.664063 2.300781 4.597657 4.253906 9.199218 19.4375 19.789062 31.585938 29.855468 34.105469 4.617188 1.238281 7.394532 5.945313 6.246094 10.585937zm0 0"/><path d="m41.449219 397.121094c-8.898438 7.511718-20.410157 11.191406-32.019531 10.238281-2.863282 0-5.988282-.171875-9.285157-.433594-.175781-5.554687-.175781-11.367187-.0859372-17.441406h.7812502c13.882812 1.386719 23.949218-.261719 28.289062-4.6875 3.402344-3.402344 8.917969-3.402344 12.320313 0 3.40625 3.402344 3.40625 8.921875 0 12.324219zm0 0"/><path d="m43.707031 471.144531c-2.566406 9.996094-7.746093 19.132813-15.011719 26.464844-4.757812-3.375-8.773437-7.6875-11.804687-12.667969 4.792969-5.046875 8.226563-11.230468 9.980469-17.964844 1.296875-4.476562 5.898437-7.132812 10.421875-6.015624 4.527343 1.121093 7.359375 5.617187 6.414062 10.183593zm0 0"/><path d="m490.882812 303.570312c-10.847656 19.875-23.257812 31.675782-36.96875 35.058594-4.648437 1.148438-9.347656-1.6875-10.5-6.332031-1.144531-4.648437 1.6875-9.347656 6.335938-10.5 9.980469-2.519531 20.132812-14.058594 29.417969-33.324219.914062-2 2.609375-3.535156 4.6875-4.253906 2.515625 6.25 4.859375 12.671875 7.027343 19.351562zm0 0"/><path d="m503.8125 389.570312c.085938 6.074219.085938 11.886719-.085938 17.441407-3.039062.175781-5.902343.347656-8.679687.347656-11.605469.9375-23.113281-2.742187-32.019531-10.238281-3.402344-3.402344-3.402344-8.921875 0-12.324219s8.917968-3.402344 12.320312 0c4.253906 4.339844 14.148438 6.074219 27.769532 4.773437zm0 0"/><path d="m487.324219 484.507812c-3.078125 5.019532-7.082031 9.40625-11.800781 12.929688-7.109376-7.308594-12.195313-16.339844-14.753907-26.207031-.578125-2.234375-.246093-4.605469.925781-6.589844 1.171876-1.988281 3.089844-3.425781 5.324219-4 4.636719-1.125 9.332031 1.644531 10.585938 6.25 1.660156 6.613281 5.007812 12.683594 9.71875 17.617187zm0 0"/></g><path d="m347.695312 321.535156c-4.453124-.003906-8.179687-3.378906-8.625-7.8125-.339843-3.210937-9.136718-78.96875-86.832031-78.96875-78.023437 0-86.5 75.742188-86.777343 78.96875-.3125 3.085938-2.246094 5.773438-5.070313 7.046875-2.828125 1.273438-6.117187.941407-8.636719-.867187-2.515625-1.8125-3.875-4.828125-3.5625-7.914063.050782-.9375 10.5-94.589843 104.046875-94.589843 93.550781 0 103.996094 93.652343 104.136719 94.589843.230469 2.289063-.460938 4.578125-1.917969 6.359375-1.453125 1.78125-3.558593 2.914063-5.847656 3.144532-.304687.03125-.609375.046874-.914063.042968zm0 0" fill="#802d40"/><path d="m278.273438 278.144531c-3.71875 0-7.023438-2.371093-8.21875-5.890625-5.613282-2.40625-11.738282-3.363281-17.816407-2.785156-6.078125-.578125-12.203125.378906-17.816406 2.785156-1.363281 4.019532-5.4375 6.464844-9.628906 5.773438-4.191407-.691406-7.265625-4.3125-7.265625-8.558594 0-4.070312 2.5-17.359375 34.710937-17.359375 32.214844 0 34.710938 13.289063 34.710938 17.359375 0 4.789062-3.882813 8.675781-8.675781 8.675781zm0 0" fill="#f0785a"/><path d="m243.5625 104.585938c0 14.378906-11.65625 26.035156-26.035156 26.035156s-26.035156-11.65625-26.035156-26.035156c0-14.378907 11.65625-26.035157 26.035156-26.035157s26.035156 11.65625 26.035156 26.035157zm0 0" fill="#fff"/></svg>