<svg height="503pt" viewBox="0 0 503.88713 503" width="503pt" xmlns="http://www.w3.org/2000/svg"><path d="m234.300781 477.210938v.519531c.015625 6.910156-2.722656 13.539062-7.609375 18.425781-4.886718 4.886719-11.515625 7.625-18.425781 7.609375h-52.066406c-6.910157.015625-13.539063-2.722656-18.421875-7.609375-4.886719-4.886719-7.625-11.515625-7.613282-18.425781v-30.285157zm0 0" fill="#df4d60"/><path d="m373.148438 447.445312v30.285157c.015624 6.910156-2.722657 13.539062-7.609376 18.425781-4.886718 4.886719-11.515624 7.625-18.425781 7.609375h-52.066406c-6.910156.015625-13.539063-2.722656-18.425781-7.609375-4.882813-4.886719-7.621094-11.515625-7.609375-18.425781v-.519531zm0 0" fill="#df4d60"/><path d="m459.929688 282.476562c-1.222657 113.816407-94.453126 205.109376-208.273438 203.933594-2.949219 0-5.8125-.085937-8.675781-.175781-110.40625-3.414063-198.460938-93.308594-199.59375-203.757813 1.132812-110.449218 89.1875-200.34375 199.59375-203.757812 2.863281-.085938 5.726562-.171875 8.675781-.171875 113.820312-1.175781 207.050781 90.113281 208.273438 203.929687zm0 0" fill="#ff5364"/><path d="m442.574219 282.476562c0-112.53125-89.363281-203.757812-199.59375-203.757812-110.234375 0-199.59375 91.226562-199.59375 203.757812 0 112.535157 89.359375 203.757813 199.59375 203.757813 110.230469 0 199.59375-91.222656 199.59375-203.757813zm0 0" fill="#fb7b76"/><path d="m324.203125 248.199219c15.167969 21.421875 23.183594 47.085937 22.910156 73.328125 0 62.308594-42.695312 112.816406-95.457031 112.816406s-95.457031-50.507812-95.457031-112.816406c-.269531-26.242188 7.746093-51.90625 22.910156-73.328125zm0 0" fill="#fac176"/><path d="m386.164062 134.953125c0 74.285156-60.21875 134.507813-134.507812 134.507813-74.285156 0-134.507812-60.222657-134.507812-134.507813 0-74.289063 60.222656-134.507813 134.507812-134.507813 74.289062 0 134.507812 60.21875 134.507812 134.507813zm0 0" fill="#ff5364"/><path d="m373.148438 134.953125c-.070313 67.066406-54.421876 121.417969-121.492188 121.492187-2.949219 0-5.8125-.089843-8.675781-.347656-63.359375-4.800781-112.316407-57.609375-112.316407-121.144531 0-63.539063 48.957032-116.347656 112.316407-121.144531 2.863281-.261719 5.726562-.347656 8.675781-.347656 67.070312.070312 121.421875 54.421874 121.492188 121.492187zm0 0" fill="#e6e7e8"/><path d="m355.792969 134.953125c0-66.90625-50.507813-121.144531-112.8125-121.144531-62.304688 0-112.816407 54.238281-112.816407 121.144531s50.511719 121.144531 112.816407 121.144531c62.304687 0 112.8125-54.238281 112.8125-121.144531zm0 0" fill="#fff"/><path d="m338.4375 130.613281c0 47.925781-38.851562 86.78125-86.78125 86.78125-47.925781 0-86.777344-38.855469-86.777344-86.78125s38.851563-86.78125 86.777344-86.78125c47.929688 0 86.78125 38.855469 86.78125 86.78125zm0 0" fill="#f29c1f"/><path d="m295.046875 130.613281c0 23.964844-19.425781 43.390625-43.390625 43.390625-23.960938 0-43.390625-19.425781-43.390625-43.390625 0-23.964843 19.429687-43.390625 43.390625-43.390625 23.964844 0 43.390625 19.425782 43.390625 43.390625zm0 0" fill="#2c2f38"/><path d="m110.078125 329.453125-44.527344 86.109375c-8.804687 17.027344-29.746093 23.695312-46.777343 14.890625-17.027344-8.804687-23.691407-29.746094-14.890626-46.773437l60.46875-116.953126c3.226563-6.242187 9.898438-9.925781 16.898438-9.328124 7.003906.597656 12.953125 5.359374 15.070312 12.0625l14.882813 46.78125c1.386719 4.378906.980469 9.128906-1.125 13.210937zm0 0" fill="#df4d60"/><path d="m393.8125 329.453125 44.523438 86.109375c8.804687 17.027344 29.746093 23.695312 46.777343 14.890625 17.027344-8.804687 23.691407-29.746094 14.890625-46.773437l-60.476562-116.953126c-3.230469-6.230468-9.894532-9.90625-16.890625-9.308593-6.992188.601562-12.9375 5.351562-15.0625 12.042969l-14.890625 46.78125c-1.386719 4.378906-.980469 9.128906 1.128906 13.210937zm0 0" fill="#df4d60"/><path d="m251.65625 364.917969c-68.632812 0-69.421875-60.136719-69.421875-60.746094 0-4.792969 3.882813-8.675781 8.675781-8.675781 4.792969 0 8.679688 3.882812 8.679688 8.675781 0 4.503906 1.925781 43.390625 52.066406 43.390625 51.480469 0 52.070312-41.65625 52.070312-43.390625 0-4.792969 3.882813-8.675781 8.675782-8.675781 4.792968 0 8.679687 3.882812 8.679687 8.675781 0 .609375-.789062 60.746094-69.425781 60.746094zm0 0" fill="#802d40"/><path d="m251.65625 87.222656c0 19.171875-15.539062 34.710938-34.710938 34.710938-19.171874 0-34.710937-15.539063-34.710937-34.710938s15.539063-34.710937 34.710937-34.710937c19.171876 0 34.710938 15.539062 34.710938 34.710937zm0 0" fill="#fff"/></svg>