<svg height="512pt" viewBox="-71 0 512 512" width="512pt" xmlns="http://www.w3.org/2000/svg"><g fill="#fdd7ad"><path d="m123.527344 450.738281v30.363281c0 17.066407 13.835937 30.898438 30.898437 30.898438s30.894531-13.832031 30.894531-30.898438v-22.066406zm0 0"/><path d="m247.113281 450.738281v30.363281c0 17.066407-13.832031 30.898438-30.894531 30.898438s-30.898438-13.832031-30.898438-30.898438v-22.066406zm0 0"/><path d="m290.371094 391.414062 48.726562 35.753907c7.632813 5.597656 11.699219 14.839843 10.667969 24.25-1.03125 9.410156-7.003906 17.550781-15.667969 21.363281-8.667968 3.808594-18.703125 2.710938-26.335937-2.890625l-42.726563-31.335937zm0 0"/></g><path d="m291.253906 337.480469v42.105469c.015625 3.960937-.28125 7.914062-.882812 11.828124-2.699219 18.183594-11.660156 34.859376-25.335938 47.140626-5.394531 4.851562-11.421875 8.949218-17.921875 12.183593-10.964843 5.464844-23.054687 8.304688-35.308593 8.296875h-52.964844c-12.253906.007813-24.34375-2.832031-35.3125-8.296875-6.027344-2.992187-11.636719-6.761719-16.683594-11.210937-13.902344-11.949219-23.203125-28.367188-26.304688-46.433594-.785156-4.460938-1.167968-8.980469-1.148437-13.507812v-42.105469zm0 0" fill="#f0785a"/><path d="m106.84375 439.527344-41.402344 30.363281c-7.628906 5.601563-17.667968 6.699219-26.332031 2.890625-8.664063-3.8125-14.636719-11.953125-15.671875-21.363281-1.03125-9.410157 3.035156-18.652344 10.667969-24.25l46.433593-34.074219c3.101563 18.066406 12.402344 34.484375 26.304688 46.433594zm0 0" fill="#fdd7ad"/><path d="m273.597656 337.480469v42.105469c.015625 3.960937-.277344 7.914062-.882812 11.828124-2.695313 18.183594-11.65625 34.859376-25.335938 47.140626-5.394531 4.851562-11.421875 8.949218-17.917968 12.183593-10.96875 5.464844-23.058594 8.304688-35.3125 8.296875h-35.308594c-12.253906.007813-24.34375-2.832031-35.3125-8.296875-6.027344-2.992187-11.636719-6.761719-16.683594-11.210937-13.902344-11.949219-23.203125-28.367188-26.304688-46.433594-.785156-4.460938-1.167968-8.980469-1.148437-13.507812v-42.105469zm0 0" fill="#f09372"/><path d="m291.253906 337.480469v16.152343c-63.007812 46.375-148.855468 46.375-211.863281 0v-16.152343zm0 0" fill="#f0785a"/><path d="m370.703125 185.378906c.058594 60.660156-29.628906 117.492188-79.449219 152.101563-5.679687 3.996093-11.574218 7.679687-17.65625 11.03125-27.125 14.625-57.460937 22.269531-88.277344 22.246093-2.734374 0-5.472656-.085937-8.121093-.265624-.464844.089843-.945313.089843-1.410157 0-34.609374-1.660157-68.039062-13.109376-96.398437-33.011719-64.984375-45.296875-94.011719-126.875-72.238281-203.039063 21.769531-76.160156 89.53125-130.074218 168.636718-134.175781.464844-.089844.945313-.089844 1.410157 0 2.648437-.1757812 5.386719-.265625 8.121093-.265625 102.382813 0 185.382813 82.996094 185.382813 185.378906zm0 0" fill="#f0785a"/><path d="m353.046875 185.378906c.058594 60.660156-29.628906 117.492188-79.449219 152.101563-28.359375 19.902343-61.789062 31.351562-96.398437 33.011719-.464844.089843-.945313.089843-1.410157 0-2.648437.179687-5.386718.265624-8.121093.265624-30.816407.023438-61.152344-7.621093-88.277344-22.246093v-11.03125c-64.984375-45.296875-94.011719-126.875-72.238281-203.039063 21.769531-76.160156 89.53125-130.074218 168.636718-134.175781.464844-.089844.945313-.089844 1.410157 0 98.558593 5.035156 175.875 86.429687 175.847656 185.113281zm0 0" fill="#f09372"/><path d="m335.390625 185.378906c0 82.882813-67.1875 150.070313-150.070313 150.070313-2.910156 0-5.914062-.089844-8.824218-.265625-79.28125-4.714844-141.160156-70.382813-141.160156-149.804688 0-79.417968 61.878906-145.085937 141.160156-149.804687 2.910156-.175781 5.914062-.265625 8.824218-.265625 82.882813 0 150.070313 67.191406 150.070313 150.070312zm0 0" fill="#e6e7e8"/><path d="m317.734375 185.378906c0-82.734375-63.234375-149.804687-141.238281-149.804687-78.007813 0-141.242188 67.070312-141.242188 149.804687s63.234375 149.804688 141.242188 149.804688c78.003906 0 141.238281-67.070313 141.238281-149.804688zm0 0" fill="#fff"/><path d="m273.597656 185.378906c0 48.753906-39.523437 88.277344-88.277344 88.277344-48.75 0-88.273437-39.523438-88.273437-88.277344s39.523437-88.277344 88.273437-88.277344c48.753907 0 88.277344 39.523438 88.277344 88.277344zm0 0" fill="#2fa8cc"/><path d="m220.632812 185.378906c0 19.5-15.808593 35.3125-35.3125 35.3125-19.5 0-35.308593-15.8125-35.308593-35.3125s15.808593-35.308594 35.308593-35.308594c19.503907 0 35.3125 15.808594 35.3125 35.308594zm0 0" fill="#2c2f38"/><path d="m185.320312 141.242188c0 24.375-19.757812 44.136718-44.136718 44.136718-24.375 0-44.136719-19.761718-44.136719-44.136718 0-24.378907 19.761719-44.140626 44.136719-44.140626 24.378906 0 44.136718 19.761719 44.136718 44.140626zm0 0" fill="#fff"/></svg>