<svg height="512pt" viewBox="-62 0 512 512.00001" width="512pt" xmlns="http://www.w3.org/2000/svg"><path d="m372.980469 386.03125c30.894531 45.902344 15.449219 99.484375-46.34375 99.484375-2.949219.039063-5.898438-.109375-8.828125-.441406-54.378906-4.855469-66.914063-55.4375-37.519532-99.042969 4.753907-7.152344 8.332032-15.023438 10.59375-23.304688-22.367187 12.886719-47.109374 21.113282-72.738281 24.1875-4.503906 14.210938-11.917969 45.992188 2.558594 67.707032 17.65625 26.480468 8.828125 57.378906-26.480469 57.378906-2.957031.003906-5.910156-.234375-8.828125-.707031-27.808593-4.765625-33.722656-32.574219-17.65625-56.671875 14.476563-21.714844 7.0625-53.496094 2.5625-67.707032-25.625-3.109374-50.359375-11.332031-72.742187-24.1875.972656 3.617188 2.210937 7.15625 3.707031 10.59375 1.875 4.449219 4.183594 8.707032 6.886719 12.710938 30.898437 45.902344 15.449218 99.484375-46.34375 99.484375-2.949219.039063-5.898438-.109375-8.828125-.441406-54.378907-4.855469-66.914063-55.4375-37.515625-99.042969 19.242187-28.515625 16.328125-67.179688 10.414062-94.898438-33.796875-58.730468-34.535156-130.832031-1.953125-190.246093 32.582031-59.414063 93.777344-97.546875 161.46875-100.621094 2.914063-.1757812 5.824219-.265625 8.828125-.265625 69.335938.0234375 133.40625 37.003906 168.113282 97.027344 34.710937 60.027344 34.796874 134 .226562 194.105468-5.914062 27.71875-8.828125 66.382813 10.417969 94.898438zm0 0" fill="#90bae1"/><path d="m355.324219 386.03125c29.398437 43.605469 16.863281 94.1875-37.515625 99.042969-54.378906-4.855469-66.914063-55.4375-37.519532-99.042969 4.753907-7.152344 8.332032-15.023438 10.59375-23.304688-6.894531 3.96875-14.027343 7.507813-21.363281 10.59375 1.5-3.4375 2.738281-6.976562 3.710938-10.59375-22.382813 12.855469-47.117188 21.078126-72.742188 24.1875-4.5 14.210938-11.917969 45.992188 2.5625 67.707032 16.066407 24.097656 10.148438 51.90625-17.65625 56.671875-27.808593-4.765625-33.722656-32.574219-17.65625-56.671875 14.476563-21.714844 7.0625-53.496094 2.5625-67.707032-25.625-3.109374-50.359375-11.332031-72.742187-24.1875.972656 3.617188 2.210937 7.15625 3.707031 10.59375-7.332031-3.085937-14.464844-6.625-21.359375-10.59375 2.261719 8.28125 5.839844 16.152344 10.589844 23.304688 29.398437 43.605469 16.863281 94.1875-37.515625 99.042969-54.378907-4.855469-66.914063-55.4375-37.515625-99.042969 19.242187-28.515625 16.328125-67.179688 10.414062-94.898438-33.796875-58.730468-34.535156-130.832031-1.953125-190.246093 32.582031-59.414063 93.777344-97.546875 161.46875-100.621094 67.691407 3.074219 128.886719 41.207031 161.46875 100.621094 32.582031 59.414062 31.84375 131.515625-1.953125 190.246093-5.914062 27.71875-8.828125 66.382813 10.414063 94.898438zm0 0" fill="#b0d3f0"/><path d="m353.117188 194.207031c0 5.382813-.265626 10.769531-.792969 16.066407-1.957031 19.765624-7.679688 38.972656-16.859375 56.585937-2.640625 5.292969-5.648438 10.398437-9.003906 15.269531-6.527344 10.035156-14.265626 19.226563-23.042969 27.367188-4.257813 4.164062-8.800781 8.027344-13.59375 11.5625-10.695313 8.152344-22.421875 14.859375-34.867188 19.949218-5.492187 2.328126-11.121093 4.300782-16.863281 5.917969-14.257812 4.125-29.027344 6.203125-43.871094 6.175781-11.460937.03125-22.890625-1.214843-34.074218-3.707031-5.777344-1.222656-11.464844-2.816406-17.039063-4.765625-13.410156-4.46875-26.128906-10.800781-37.78125-18.800781-5.070313-3.347656-9.910156-7.03125-14.476563-11.035156-10.457031-8.894531-19.6875-19.136719-27.453124-30.457031-3.417969-4.949219-6.570313-10.078126-9.445313-15.359376-9.738281-18.304687-15.796875-38.335937-17.832031-58.96875-.53125-5.25-.796875-10.523437-.796875-15.800781v-1.941406c.289062-29.785156 9.046875-58.871094 25.246093-83.863281 3.132813-5.0625 6.613282-9.898438 10.417969-14.476563 9.523438-11.738281 20.707031-22.027343 33.191407-30.542969 4.859374-3.4375 9.929687-6.566406 15.183593-9.359374 20.390625-10.917969 42.933594-17.21875 66.03125-18.449219 2.914063-.175781 5.914063-.265625 8.828125-.265625 2.914063 0 5.914063.089844 8.828125.265625 14.5.75 28.824219 3.542969 42.546875 8.300781 5.644532 1.867188 11.160156 4.109375 16.507813 6.707031 17.382812 8.160157 33.121093 19.441407 46.433593 33.28125 4.160157 4.230469 8.023438 8.742188 11.5625 13.503907 8.492188 10.898437 15.472657 22.894531 20.746094 35.664062 2.496094 5.824219 4.589844 11.8125 6.269532 17.921875 3.679687 12.957031 5.667968 26.339844 5.914062 39.8125.085938 1.144531.085938 2.292969.085938 3.441406zm0 0" fill="#f5efca"/><path d="m273.671875 194.207031c0 43.878907-35.570313 79.449219-79.449219 79.449219s-79.449218-35.570312-79.449218-79.449219c0-43.878906 35.570312-79.449219 79.449218-79.449219s79.449219 35.570313 79.449219 79.449219zm0 0" fill="#24ae5f"/><path d="m229.53125 194.207031c0 19.5-15.808594 35.308594-35.308594 35.308594-19.503906 0-35.3125-15.808594-35.3125-35.308594s15.808594-35.308593 35.3125-35.308593c19.5 0 35.308594 15.808593 35.308594 35.308593zm0 0" fill="#2c2f38"/><g fill="#cc4b4c"><path d="m203.050781 35.574219v26.21875c.011719 3.332031-1.871093 6.378906-4.855469 7.855469l-17.65625 8.828124c-1.222656.652344-2.585937.988282-3.972656.972657-3.335937.027343-6.390625-1.859375-7.855468-4.855469-1.066407-2.082031-1.253907-4.503906-.523438-6.722656.730469-2.222656 2.316406-4.0625 4.40625-5.105469l12.800781-6.445313v-20.746093c2.914063-.175781 5.914063-.265625 8.828125-.265625 2.914063 0 5.914063.089844 8.828125.265625zm0 0"/><path d="m149.113281 101.074219c-1.464843 2.996093-4.523437 4.886719-7.855469 4.855469-1.386718.015624-2.753906-.316407-3.972656-.96875l-17.65625-8.828126c-1.953125-.921874-3.472656-2.570312-4.238281-4.589843l-11.210937-28.160157c4.859374-3.4375 9.929687-6.566406 15.183593-9.359374.175781.355468.355469.707031.53125 1.148437l10.679688 26.75 14.65625 7.324219c2.089843 1.046875 3.675781 2.882812 4.40625 5.105468.726562 2.222657.539062 4.640626-.523438 6.722657zm0 0"/><path d="m97.117188 123.585938v26.484374c0 4.875-3.949219 8.828126-8.828126 8.828126-4.875 0-8.824218-3.953126-8.824218-8.828126v-22.863281l-18.894532-18.804687c3.132813-5.0625 6.613282-9.898438 10.417969-14.476563.363281.214844.6875.484375.972657.792969l22.597656 22.601562c1.625 1.679688 2.542968 3.925782 2.558594 6.265626zm0 0"/><path d="m83.4375 219.71875c-1.222656.652344-2.589844.984375-3.972656.972656-3.335938.027344-6.394532-1.859375-7.859375-4.855468l-5.824219-11.652344-28.515625 5.738281c-.375.066406-.761719.097656-1.144531.085937-.53125-5.25-.796875-10.523437-.796875-15.800781v-1.941406l33.546875-6.710937c3.898437-.804688 7.847656 1.117187 9.621094 4.679687l8.828124 17.65625c1.0625 2.082031 1.25 4.5.523438 6.722656-.730469 2.222657-2.316406 4.058594-4.40625 5.105469zm0 0"/><path d="m105.945312 256c0 4.875-3.953124 8.828125-8.828124 8.828125h-14.035157l-18.273437 18.359375c-.429688.429688-.902344.816406-1.410156 1.148438-3.417969-4.949219-6.570313-10.078126-9.445313-15.359376l19.242187-19.246093c1.683594-1.625 3.925782-2.539063 6.269532-2.558594h17.652344c4.875 0 8.828124 3.953125 8.828124 8.828125zm0 0"/><path d="m131.457031 295.28125-8.828125 17.65625c-.648437 1.386719-1.691406 2.554688-3 3.355469l-14.300781 9.535156c-5.070313-3.347656-9.910156-7.03125-14.476563-11.035156.539063-.699219 1.195313-1.296875 1.941407-1.765625l15.09375-10.152344 7.859375-15.535156c2.382812-3.964844 7.417968-5.414063 11.546875-3.328125 4.125 2.085937 5.941406 7.003906 4.164062 11.269531zm0 0"/><path d="m180.539062 316.820312-14.035156 7.0625-6.355468 25.511719c-5.777344-1.222656-11.464844-2.816406-17.039063-4.765625l7.238281-28.953125c.597656-2.503906 2.28125-4.605469 4.589844-5.738281l17.65625-8.828125c2.835938-1.707031 6.386719-1.683594 9.199219.058594 2.8125 1.742187 4.417969 4.910156 4.152343 8.210937-.265624 3.296875-2.351562 6.171875-5.40625 7.441406zm0 0"/><path d="m254.957031 341.007812c-5.492187 2.328126-11.121093 4.300782-16.863281 5.917969-5.480469-9.371093-10.316406-19.105469-14.476562-29.132812h-11.742188c-4.875 0-8.824219-3.953125-8.824219-8.828125s3.949219-8.828125 8.824219-8.828125h17.65625c3.617188-.003907 6.871094 2.203125 8.210938 5.5625 4.664062 11.617187 10.148437 22.886719 16.417968 33.722656.335938.492187.601563 1.023437.796875 1.585937zm0 0"/><path d="m303.417969 309.496094c-4.257813 4.164062-8.800781 8.027344-13.59375 11.5625l-30.277344-22.6875c-3.4375-2.554688-4.523437-7.222656-2.5625-11.03125l8.828125-17.65625c1.273438-3.054688 4.148438-5.140625 7.445312-5.40625 3.296876-.265625 6.46875 1.335937 8.210938 4.152344 1.742188 2.8125 1.765625 6.363281.058594 9.199218l-5.472656 11.03125 26.214843 19.6875c.425781.335938.8125.722656 1.148438 1.148438zm0 0"/><path d="m335.464844 266.859375c-2.640625 5.292969-5.648438 10.398437-9.003906 15.269531l-30.808594-18.539062c-2.773438-1.578125-4.476563-4.53125-4.457032-7.71875.015626-3.191406 1.757813-6.125 4.546876-7.667969 2.789062-1.546875 6.199218-1.46875 8.914062.207031zm0 0"/><path d="m353.117188 194.207031c0 5.382813-.265626 10.769531-.792969 16.066407l-30.015625 18.007812c-1.359375.808594-2.917969 1.234375-4.5 1.234375-.839844.015625-1.671875-.105469-2.472656-.351563-2.355469-.664062-4.3125-2.300781-5.382813-4.503906l-8.828125-17.652344c-1.777344-4.269531.039062-9.1875 4.164062-11.273437 4.128907-2.085937 9.164063-.632813 11.546876 3.328125l4.589843 9.179688 27.101563-16.242188c1.367187-.796875 2.921875-1.222656 4.503906-1.234375.085938 1.144531.085938 2.292969.085938 3.441406zm0 0"/><path d="m347.117188 150.953125-23.042969 23.039063c-1.675781 1.632812-3.925781 2.550781-6.265625 2.558593-1.386719.015625-2.75-.316406-3.972656-.96875l-17.65625-8.828125c-3.054688-1.273437-5.140626-4.144531-5.40625-7.445312-.261719-3.296875 1.339843-6.46875 4.152343-8.210938 2.8125-1.742187 6.363281-1.765625 9.199219-.058594l11.917969 5.914063 21.980469-21.980469c.832031-.792968 1.785156-1.449218 2.824218-1.941406 2.496094 5.824219 4.589844 11.8125 6.269532 17.921875zm0 0"/><path d="m320.101562 97.367188c-.257812.335937-.589843.609374-.96875.796874-9.023437 5.046876-18.304687 9.613282-27.808593 13.679688v11.742188c0 4.875-3.953125 8.828124-8.828125 8.828124s-8.824219-3.953124-8.824219-8.828124v-17.65625c-.003906-3.617188 2.199219-6.871094 5.558594-8.207032 10.023437-4.066406 19.808593-8.695312 29.308593-13.859375 4.160157 4.230469 8.023438 8.742188 11.5625 13.503907zm0 0"/><path d="m261.398438 51.90625-12.886719 19.332031 6.53125 13.066407c1.066406 2.082031 1.253906 4.5.523437 6.722656-.730468 2.222656-2.316406 4.058594-4.40625 5.105468-1.222656.652344-2.589844.984376-3.972656.96875-3.335938.03125-6.390625-1.855468-7.855469-4.851562l-8.828125-17.65625c-1.429687-2.824219-1.226562-6.195312.527344-8.828125l14.566406-21.890625c5.644532 1.867188 11.160156 4.109375 16.507813 6.707031-.199219.460938-.4375.902344-.707031 1.324219zm0 0"/></g><path d="m194.222656 150.070312c0 19.5-15.808594 35.308594-35.3125 35.308594-19.5 0-35.308594-15.808594-35.308594-35.308594 0-19.503906 15.808594-35.3125 35.308594-35.3125 19.503906 0 35.3125 15.808594 35.3125 35.3125zm0 0" fill="#fff"/></svg>