<svg height="512pt" viewBox="0 0 512 512.02879" width="512pt" xmlns="http://www.w3.org/2000/svg"><path d="m512.027344 291.308594c.089844 20.835937-2.613282 41.589844-8.035156 61.707031v.085937l-137.53125 140.625c-35.480469 12.425782-72.84375 18.609376-110.433594 18.273438-3.003906 0-5.914063 0-8.828125-.175781-34.625-.484375-68.941407-6.597657-101.605469-18.097657l-137.535156-140.625v-.085937c-5.417969-20.117187-8.121094-40.871094-8.0312502-61.707031.8281252-57.1875 17.4453122-113.03125 48.0195312-161.367188v-.085937l91.632813-94.457031h.085937c32.058594-21.042969 69.136719-33.167969 107.433594-35.132813 2.914062-.1757812 5.914062-.265625 8.828125-.265625 41.347656.390625 81.707031 12.679688 116.257812 35.398438h.089844l91.628906 94.542968c30.574219 48.335938 47.195313 104.179688 48.023438 161.367188zm0 0" fill="#804169"/><path d="m494.371094 291.308594c.089844 20.835937-2.613282 41.589844-8.03125 61.707031v.085937l-137.535156 140.625c-32.664063 11.5-66.980469 17.613282-101.605469 18.097657-34.625-.484375-68.941407-6.597657-101.605469-18.097657l-137.535156-140.625v-.085937c-5.417969-20.117187-8.121094-40.871094-8.0312502-61.707031.8281252-57.1875 17.4453122-113.03125 48.0195312-161.367188v-.085937l91.632813-94.457031h.085937c32.058594-21.042969 69.136719-33.167969 107.433594-35.132813 38.292969 1.964844 75.375 14.089844 107.429687 35.132813h.089844l91.628906 94.542968c30.578125 48.335938 47.195313 104.179688 48.023438 161.367188zm0 0" fill="#cc66a1"/><path d="m150.09375 97.101562-2.558594 1.679688-33.632812 22.421875c-15.625-43.785156-58.085938-78.832031-84.832032-93.835937.527344-3.53125 1.148438-6.886719 1.765626-9.886719.441406-1.945313.882812-3.796875 1.234374-5.476563.621094-2.679687 2.476563-4.90625 5-6 2.523438-1.097656 5.417969-.933594 7.800782.441406 21.949218 10.722657 45.617187 17.507813 69.914062 20.039063 61.792969 8.824219 35.308594 70.617187 35.308594 70.617187zm0 0" fill="#804169"/><path d="m147.535156 98.78125-33.632812 22.421875c-15.625-43.785156-58.085938-78.832031-84.832032-93.835937.527344-3.53125 1.148438-6.886719 1.765626-9.886719 2.65625-1.3125 5.785156-1.246094 8.386718.175781 21.949219 10.722656 45.613282 17.507812 69.914063 20.039062 46.609375 6.621094 42.988281 43.429688 38.398437 61.085938zm0 0" fill="#cc66a1"/><path d="m113.902344 121.203125-27.089844 18.078125c-10.804688 7.210938-25.238281 5.546875-34.113281-3.9375-29.5625-31.671875-28.308594-78.492188-23.628907-107.976562 26.746094 15.003906 69.207032 50.050781 84.832032 93.835937zm0 0" fill="#fb7b76"/><path d="m482.984375 27.367188c-26.746094 15.003906-69.207031 50.050781-84.832031 93.835937l-33.632813-22.421875-2.5625-1.679688s-26.480469-61.792968 35.3125-70.617187c24.296875-2.53125 47.960938-9.316406 69.914063-20.039063 2.382812-1.375 5.277344-1.539062 7.800781-.441406 2.519531 1.09375 4.375 3.320313 5 6 .351563 1.679688.792969 3.53125 1.234375 5.476563.617188 3 1.234375 6.355469 1.765625 9.886719zm0 0" fill="#804169"/><path d="m482.984375 27.367188c-26.746094 15.003906-69.207031 50.050781-84.832031 93.835937l-33.632813-22.421875c-4.59375-17.65625-8.210937-54.464844 38.398438-61.085938 24.296875-2.53125 47.964843-9.316406 69.914062-20.039062 2.601563-1.421875 5.730469-1.488281 8.386719-.175781.617188 3 1.234375 6.355469 1.765625 9.886719zm0 0" fill="#cc66a1"/><path d="m425.242188 139.28125-27.089844-18.078125c15.625-43.785156 58.085937-78.832031 84.832031-93.835937 4.679687 29.484374 5.933594 76.304687-23.632813 107.976562-8.875 9.484375-23.308593 11.148438-34.109374 3.9375zm0 0" fill="#fb7b76"/><path d="m326.78125 370.757812c-25.363281-.683593-49.96875-8.804687-70.753906-23.355468-71.320313 46.246094-123.835938 13.609375-149.097656-10.410156-3.53125-3.359376-3.671876-8.949219-.308594-12.480469 3.359375-3.53125 8.949218-3.671875 12.480468-.308594 26.808594 25.519531 71.503907 47.171875 131.902344 5.296875 3.023438-2.09375 7.023438-2.09375 10.046875 0 60.433594 41.832031 105.046875 20.1875 131.902344-5.296875 3.53125-3.363281 9.117187-3.222656 12.480469.308594 3.363281 3.53125 3.222656 9.121093-.308594 12.480469-20.804688 20.90625-48.863281 32.996093-78.34375 33.765624zm0 0" fill="#802d40"/><path d="m256.027344 229.515625c0 48.753906-39.523438 88.277344-88.277344 88.277344-2.914062 0-5.824219-.175781-8.648438-.441407h-.355468c-45.113282-4.527343-79.457032-42.496093-79.457032-87.835937 0-45.335937 34.34375-83.304687 79.457032-87.832031h.355468c2.824219-.265625 5.734376-.441406 8.648438-.441406 23.414062 0 45.867188 9.300781 62.421875 25.855468 16.554687 16.554688 25.855469 39.007813 25.855469 62.417969zm0 0" fill="#e6e7e8"/><path d="m238.371094 229.515625c.011718 45.277344-34.234375 83.21875-79.269532 87.835937h-.355468c-45.113282-4.527343-79.457032-42.496093-79.457032-87.835937 0-45.335937 34.34375-83.304687 79.457032-87.832031h.355468c45.035157 4.617187 79.28125 42.558594 79.269532 87.832031zm0 0" fill="#fff"/><path d="m432.578125 229.515625c0 48.753906-39.523437 88.277344-88.277344 88.277344-2.910156 0-5.824219-.175781-8.648437-.441407h-.355469c-45.109375-4.527343-79.457031-42.496093-79.457031-87.835937 0-45.335937 34.347656-83.304687 79.457031-87.832031h.355469c2.824218-.265625 5.738281-.441406 8.648437-.441406 23.414063 0 45.867188 9.300781 62.421875 25.855468 16.554688 16.554688 25.855469 39.007813 25.855469 62.417969zm0 0" fill="#e6e7e8"/><path d="m414.921875 229.515625c.011719 45.277344-34.230469 83.21875-79.269531 87.835937h-.355469c-45.109375-4.527343-79.457031-42.496093-79.457031-87.835937 0-45.335937 34.347656-83.304687 79.457031-87.832031h.355469c45.039062 4.617187 79.28125 42.558594 79.269531 87.832031zm0 0" fill="#fff"/><path d="m220.714844 229.515625c0 29.253906-23.710938 52.96875-52.964844 52.96875-29.25 0-52.964844-23.714844-52.964844-52.96875 0-29.25 23.714844-52.964844 52.964844-52.964844 29.253906 0 52.964844 23.714844 52.964844 52.964844zm0 0" fill="#f29c1f"/><path d="m397.269531 229.515625c0 29.253906-23.714843 52.96875-52.96875 52.96875-29.25 0-52.964843-23.714844-52.964843-52.96875 0-29.25 23.714843-52.964844 52.964843-52.964844 29.253907 0 52.96875 23.714844 52.96875 52.964844zm0 0" fill="#f29c1f"/><path d="m203.0625 229.515625c0 19.503906-15.808594 35.3125-35.3125 35.3125-19.5 0-35.308594-15.808594-35.308594-35.3125 0-19.5 15.808594-35.308594 35.308594-35.308594 19.503906 0 35.3125 15.808594 35.3125 35.308594zm0 0" fill="#2c2f38"/><path d="m379.613281 229.515625c0 19.503906-15.808593 35.3125-35.3125 35.3125-19.5 0-35.308593-15.808594-35.308593-35.3125 0-19.5 15.808593-35.308594 35.308593-35.308594 19.503907 0 35.3125 15.808594 35.3125 35.308594zm0 0" fill="#2c2f38"/><path d="m256.027344 459.035156c-4.875 0-8.828125-3.953125-8.828125-8.828125v-52.964843c0-4.875 3.953125-8.828126 8.828125-8.828126s8.828125 3.953126 8.828125 8.828126v52.964843c0 4.875-3.953125 8.828125-8.828125 8.828125zm0 0" fill="#804169"/><path d="m183.992188 468.304688c-24.804688 19.507812-69.296876 48.199218-110.433594 43.078124-21.714844-2.648437-42.371094-14.65625-58.789063-42.285156-29.75-49.964844-7.679687-119.878906 6.796875-156.867187 5.769532-14.746094 18.636719-25.554688 34.164063-28.6875 9.644531-2.082031 19.695312-1.125 28.777343 2.734375 17.140626 7.148437 28.382813 23.804687 28.601563 42.375.007813 3.328125-.375 6.648437-1.148437 9.886718-9.09375 39.898438-17.300782 111.667969 66.558593 114.050782 3.738281.023437 7.058594 2.394531 8.285157 5.925781 1.230468 3.527344.105468 7.449219-2.8125 9.789063zm0 0" fill="#f9eab0"/><path d="m164.394531 468.304688c-20.917969 16.417968-55.789062 39.28125-90.835937 43.078124-21.714844-2.648437-42.371094-14.65625-58.789063-42.285156-29.75-49.964844-7.679687-119.878906 6.796875-156.867187 5.769532-14.746094 18.636719-25.554688 34.164063-28.6875 3.121093.574219 6.171875 1.492187 9.089843 2.734375 17.140626 7.148437 28.386719 23.804687 28.601563 42.375.011719 3.328125-.375 6.648437-1.148437 9.886718-9.089844 39.898438-17.210938 111.667969 66.648437 114.050782 3.738281.023437 7.058594 2.394531 8.285156 5.925781 1.230469 3.527344.105469 7.449219-2.8125 9.789063zm0 0" fill="#f5efca"/><path d="m497.285156 469.097656c-20.921875 35.222656-48.816406 45.109375-76.710937 42.550782-35.664063-3.269532-71.238281-26.660157-92.515625-43.34375-2.914063-2.339844-4.039063-6.261719-2.8125-9.789063 1.230468-3.53125 4.550781-5.902344 8.285156-5.925781 83.863281-2.382813 75.652344-74.152344 66.5625-114.050782-.773438-3.238281-1.160156-6.558593-1.148438-9.886718.214844-18.570313 11.460938-35.226563 28.601563-42.375 3.5625-1.496094 7.296875-2.535156 11.121094-3.089844 21.96875-3.789062 43.585937 8.328125 51.820312 29.042969 14.476563 36.988281 36.546875 106.902343 6.796875 156.867187zm0 0" fill="#f9eab0"/><path d="m481.660156 469.097656c-17.039062 28.601563-38.578125 40.429688-61.085937 42.550782-35.664063-3.269532-71.238281-26.660157-92.515625-43.34375-2.914063-2.339844-4.039063-6.261719-2.8125-9.789063 1.230468-3.53125 4.550781-5.902344 8.285156-5.925781 83.863281-2.382813 75.652344-74.152344 66.5625-114.050782-.773438-3.238281-1.160156-6.558593-1.148438-9.886718.214844-18.570313 11.460938-35.226563 28.601563-42.375 3.5625-1.496094 7.296875-2.535156 11.121094-3.089844 16.355469 2.597656 30.121093 13.640625 36.195312 29.042969 14.476563 36.988281 36.457031 106.902343 6.796875 156.867187zm0 0" fill="#f5efca"/><g fill="#fff"><path d="m158.921875 194.207031c0 9.75-7.902344 17.65625-17.652344 17.65625-9.753906 0-17.65625-7.90625-17.65625-17.65625s7.902344-17.65625 17.65625-17.65625c9.75 0 17.652344 7.90625 17.652344 17.65625zm0 0"/><path d="m335.476562 194.207031c0 9.75-7.90625 17.65625-17.65625 17.65625s-17.65625-7.90625-17.65625-17.65625 7.90625-17.65625 17.65625-17.65625 17.65625 7.90625 17.65625 17.65625zm0 0"/></g></svg>