<svg height="512pt" viewBox="-62 0 512 512.0228" width="512pt" xmlns="http://www.w3.org/2000/svg"><path d="m388.425781 194.246094v238.34375c.011719 16.101562-10.886719 30.160156-26.484375 34.164062-5.785156 1.527344-11.867187 1.527344-17.652344 0-6.097656-1.59375-11.667968-4.761718-16.15625-9.183594-6.601562-6.640624-10.3125-15.617187-10.328124-24.980468v-57.378906c0-12.1875-9.878907-22.070313-22.070313-22.070313-3.039063-.015625-6.050781.617187-8.828125 1.855469-2.542969 1.066406-4.851562 2.628906-6.796875 4.589844-3.191406 3.191406-5.320313 7.292968-6.089844 11.742187-.253906 1.277344-.371093 2.578125-.351562 3.882813v108.84375c.304687 14.261718-10.359375 26.378906-24.542969 27.894531-3.65625.277343-7.328125-.234375-10.769531-1.5-3.734375-1.253907-7.121094-3.371094-9.886719-6.179688-4.972656-4.957031-7.769531-11.691406-7.769531-18.714843v-73.621094c.101562-6.242188-2.332031-12.257813-6.734375-16.679688-4.40625-4.425781-10.414063-6.875-16.65625-6.800781-2.710938.195313-5.367188.851563-7.855469 1.941406-2.386719 1.128907-4.566406 2.648438-6.445313 4.5-4.136718 4.148438-6.457031 9.769531-6.445312 15.625-.082031 17.03125-13.867188 30.816407-30.894531 30.898438-2.996094.011719-5.972657-.433594-8.828125-1.324219-4.925782-1.421875-9.398438-4.097656-12.976563-7.769531-5.832031-5.753907-9.109375-13.609375-9.09375-21.804688v-26.480469c0-5.8125-2.28125-11.390624-6.355469-15.539062l-.089843-.085938c-3.066407-3.058593-6.964844-5.144531-11.210938-6.003906-.121093.003906-.246093-.027344-.351562-.089844-1.339844-.25-2.699219-.367187-4.0625-.351562-3.039063-.015625-6.046875.617188-8.824219 1.855469-2.546875 1.066406-4.855469 2.628906-6.796875 4.589843-4.136719 4.144532-6.457031 9.765626-6.445313 15.625v66.207032c.011719 16.097656-10.886718 30.160156-26.484374 34.160156-5.785157 1.53125-11.867188 1.53125-17.652344 0-6.097656-1.59375-11.667969-4.757812-16.15625-9.179688-6.601563-6.640624-10.3125002-15.617187-10.3281252-24.980468v-251.324219c0-104.605469 80.7734372-193.765625 184.9375002-198.617187.730469-.105469 1.46875-.164063 2.207031-.179688 52.699219-1.898438 103.90625 17.707031 141.863281 54.3125 37.957031 36.609375 59.398438 87.074219 59.40625 139.808594zm0 0" fill="#f29c1f"/><path d="m370.769531 194.246094v238.34375c.011719 16.101562-10.886719 30.160156-26.480469 34.164062-6.097656-1.59375-11.667968-4.761718-16.15625-9.183594-6.601562-6.640624-10.3125-15.617187-10.328124-24.980468v-57.378906c0-12.1875-9.878907-22.070313-22.070313-22.070313-3.039063-.015625-6.050781.617187-8.828125 1.855469-.246094-.15625-.511719-.273438-.792969-.355469-6.152343-2.421875-13.066406-1.949219-18.832031 1.285156s-9.773438 8.886719-10.917969 15.402344c-.25 1.277344-.371093 2.578125-.351562 3.882813v108.84375c.125 11.597656-6.886719 22.082031-17.65625 26.394531-3.734375-1.253907-7.121094-3.371094-9.886719-6.179688-4.972656-4.957031-7.769531-11.691406-7.769531-18.714843v-73.621094c.101562-6.242188-2.332031-12.257813-6.734375-16.679688-4.40625-4.425781-10.414063-6.875-16.65625-6.800781-2.710938.195313-5.367188.851563-7.855469 1.941406-3.058594-1.445312-6.425781-2.113281-9.800781-1.941406-11.667969.699219-20.765625 10.378906-20.746094 22.066406.019531 8.195313-3.257812 16.050781-9.089844 21.804688-3.582031 3.671875-8.050781 6.347656-12.976562 7.769531-4.925782-1.421875-9.398438-4.097656-12.976563-7.769531-5.832031-5.753907-9.109375-13.609375-9.09375-21.804688v-26.480469c0-5.8125-2.28125-11.390624-6.355469-15.539062l-.089843-.085938c-3.066407-3.058593-6.964844-5.144531-11.210938-6.003906-.121093.003906-.246093-.027344-.351562-.089844-1.339844-.25-2.699219-.367187-4.0625-.351562-3.039063-.015625-6.046875.617188-8.824219 1.855469-1.425781-.605469-2.90625-1.078125-4.414062-1.414063-.125.003906-.246094-.027344-.355469-.089844-1.335938-.25-2.699219-.367187-4.058594-.351562-5.859375-.019531-11.484375 2.300781-15.625 6.445312-4.144531 4.140626-6.464844 9.765626-6.445313 15.625v66.207032c.011719 16.097656-10.886718 30.160156-26.480468 34.160156-6.097656-1.59375-11.667969-4.757812-16.15625-9.179688-6.601563-6.640624-10.3125002-15.617187-10.3281252-24.980468v-251.324219c0-104.605469 80.7734372-193.765625 184.9375002-198.617187 103.90625 4.402343 185.863281 89.941406 185.820312 193.941406zm0 0" fill="#f0c419"/><path d="m194.21875 150.105469c.007812 10.359375-2.570312 20.554687-7.503906 29.664062-4.746094-2.484375-9.710938-4.523437-14.832032-6.09375 7.277344-17.609375 6.011719-37.589843-3.429687-54.140625-9.4375-16.550781-25.996094-27.8125-44.855469-30.515625 2.914063-.503906 5.871094-.742187 8.828125-.707031 34.125 0 61.792969 27.667969 61.792969 61.792969zm0 0" fill="#e6e7e8"/><path d="m176.5625 150.105469c.011719 8.089843-1.578125 16.101562-4.679688 23.570312-3.558593-1.179687-7.183593-2.152343-10.855468-2.914062-9.398438-2.019531-18.988282-3.027344-28.601563-3-3.003906 0-5.914062.089843-8.828125.265625-6.644531.40625-13.253906 1.292968-19.773437 2.648437-8.929688 1.867188-17.570313 4.925781-25.6875 9.09375-1.085938-1.964843-2.027344-4-2.824219-6.09375-7.277344-17.609375-6.011719-37.589843 3.429688-54.140625 9.4375-16.550781 25.996093-27.8125 44.855468-30.515625 30.414063 4.308594 53.007813 30.367188 52.964844 61.085938zm0 0" fill="#fff"/><path d="m317.804688 150.105469c.007812 10.359375-2.570313 20.554687-7.503907 29.664062-4.746093-2.484375-9.710937-4.523437-14.828125-6.09375 7.273438-17.609375 6.007813-37.589843-3.433594-54.140625-9.4375-16.550781-25.996093-27.8125-44.855468-30.515625 2.914062-.503906 5.871094-.742187 8.828125-.707031 34.128906 0 61.792969 27.667969 61.792969 61.792969zm0 0" fill="#e6e7e8"/><path d="m300.148438 150.105469c.011718 8.089843-1.578126 16.101562-4.675782 23.570312-12.765625-4.011719-26.082031-6.007812-39.460937-5.914062-3 0-5.914063.089843-8.828125.265625-15.808594.683594-31.296875 4.683594-45.460938 11.742187-1.085937-1.964843-2.027344-4-2.824218-6.09375-7.277344-17.609375-6.011719-37.589843 3.429687-54.140625 9.4375-16.550781 25.996094-27.8125 44.855469-30.515625 30.417968 4.308594 53.011718 30.367188 52.964844 61.085938zm0 0" fill="#fff"/><path d="m167.734375 150.105469c.011719 7.425781-2.339844 14.65625-6.707031 20.65625-9.398438-2.019531-18.988282-3.027344-28.601563-3-3.003906 0-5.914062.089843-8.828125.265625-6.644531.40625-13.253906 1.292968-19.773437 2.648437-4.367188-5.96875-6.71875-13.171875-6.710938-20.570312 0-19.5 15.8125-35.308594 35.3125-35.308594s35.308594 15.808594 35.308594 35.308594zm0 0" fill="#2fa8cc"/><path d="m291.320312 150.105469c.011719 7.425781-2.339843 14.65625-6.707031 20.65625-9.398437-2.019531-18.988281-3.027344-28.601562-3-3 0-5.914063.089843-8.828125.265625-6.644532.40625-13.253906 1.292968-19.773438 2.648437-4.367187-5.96875-6.71875-13.171875-6.710937-20.570312 0-19.5 15.8125-35.308594 35.3125-35.308594s35.308593 15.808594 35.308593 35.308594zm0 0" fill="#2fa8cc"/><path d="m150.082031 150.105469c0 9.753906-7.90625 17.65625-17.65625 17.65625s-17.65625-7.902344-17.65625-17.65625c0-9.75 7.90625-17.652344 17.65625-17.652344s17.65625 7.902344 17.65625 17.652344zm0 0" fill="#2c2f38"/><path d="m273.667969 150.105469c0 9.753906-7.90625 17.65625-17.65625 17.65625s-17.65625-7.902344-17.65625-17.65625c0-9.75 7.90625-17.652344 17.65625-17.652344s17.65625 7.902344 17.65625 17.652344zm0 0" fill="#2c2f38"/><g fill="#e57e25"><path d="m35.320312 370.796875c-4.875 0-8.824218-3.953125-8.824218-8.828125v-123.585938c0-4.875 3.949218-8.828124 8.824218-8.828124s8.828126 3.953124 8.828126 8.828124v123.585938c0 4.875-3.953126 8.828125-8.828126 8.828125zm0 0"/><path d="m361.941406 406.105469v60.648437c-5.785156 1.527344-11.867187 1.527344-17.652344 0v-60.648437c0-4.875 3.949219-8.824219 8.824219-8.824219s8.828125 3.949219 8.828125 8.824219zm0 0"/><path d="m44.148438 432.589844v51.816406c-5.785157 1.53125-11.867188 1.53125-17.652344 0v-51.816406c0-4.875 3.949218-8.828125 8.824218-8.828125s8.828126 3.953125 8.828126 8.828125zm0 0"/><path d="m353.113281 353.140625c-4.875 0-8.824219-3.953125-8.824219-8.828125v-70.621094c0-4.875 3.949219-8.824218 8.824219-8.824218s8.828125 3.949218 8.828125 8.824218v70.621094c0 4.875-3.953125 8.828125-8.828125 8.828125zm0 0"/></g><path d="m282.496094 256.039062h-176.554688c-19.5 0-35.308594-15.808593-35.308594-35.3125 0-4.875 3.953126-8.828124 8.828126-8.828124s8.828124 3.953124 8.828124 8.828124c0 9.75 7.902344 17.65625 17.652344 17.65625h176.554688c9.75 0 17.652344-7.90625 17.652344-17.65625 0-4.875 3.953124-8.828124 8.828124-8.828124s8.828126 3.953124 8.828126 8.828124c0 19.503907-15.808594 35.3125-35.308594 35.3125zm0 0" fill="#802d40"/><path d="m132.425781 123.625c0 9.75-7.90625 17.65625-17.65625 17.65625s-17.65625-7.90625-17.65625-17.65625 7.90625-17.65625 17.65625-17.65625 17.65625 7.90625 17.65625 17.65625zm0 0" fill="#fff"/><path d="m256.011719 123.625c0 9.75-7.90625 17.65625-17.65625 17.65625s-17.65625-7.90625-17.65625-17.65625 7.90625-17.65625 17.65625-17.65625 17.65625 7.90625 17.65625 17.65625zm0 0" fill="#fff"/></svg>