<svg height="512pt" viewBox="0 0 512 512.36222" width="512pt" xmlns="http://www.w3.org/2000/svg"><path d="m344.367188 417.640625-40.429688 86.601563c-15.199219 5.925781-31.453125 8.660156-47.757812 8.03125-2.910157 0-5.824219-.085938-8.738282-.175782-13.378906-.199218-26.605468-2.863281-39.015625-7.855468l-40.433593-86.601563c1.375-30.914063 7.507812-61.433594 18.1875-90.480469h140.003906c10.675781 29.046875 16.8125 59.566406 18.183594 90.480469zm0 0" fill="#802f34"/><path d="m326.800781 417.640625-40.429687 86.601563c-12.382813 4.984374-25.582032 7.648437-38.929688 7.855468-13.378906-.199218-26.605468-2.863281-39.015625-7.855468l-40.433593-86.601563c1.375-30.914063 7.507812-61.433594 18.1875-90.480469h122.4375c10.675781 29.046875 16.808593 59.566406 18.183593 90.480469zm0 0" fill="#c03a2b"/><path d="m441.558594 194.480469c0 92.601562-82.976563 141.242187-185.378906 141.242187-2.734376 0-5.472657 0-8.121094-.175781-.464844.085937-.945313.085937-1.410156 0-97.988282-2.914063-175.847657-51.378906-175.847657-141.066406s77.859375-187.851563 175.847657-193.941407h1.410156c2.648437-.175781 5.386718-.265624 8.121094-.265624 102.402343 0 185.378906 101.605468 185.378906 194.207031zm0 0" fill="#c03a2b"/><path d="m423.90625 194.480469c0 89.6875-77.859375 138.152343-175.847656 141.066406-.464844.085937-.945313.085937-1.410156 0-97.988282-2.914063-175.847657-51.378906-175.847657-141.066406s77.859375-187.851563 175.847657-193.941407h1.410156c97.988281 6.089844 175.847656 104.253907 175.847656 193.941407zm0 0" fill="#e64c3c"/><path d="m169.785156 512.273438c-45.902344 0-58.660156-33.171876-66.992187-65.003907-.816407-3.027343.027343-6.257812 2.222656-8.492187s5.410156-3.140625 8.449219-2.375l10.039062 2.503906c2.636719.664062 5.429688.070312 7.574219-1.601562 2.144531-1.671876 3.398437-4.242188 3.398437-6.960938v-17.238281c0-3.179688 1.710938-6.109375 4.476563-7.675781 2.765625-1.566407 6.160156-1.523438 8.886719.109374l23.949218 14.363282c3.878907 2.324218 8.886719 1.339844 11.601563-2.277344l13.390625-17.851562c1.84375-2.460938 4.839844-3.785157 7.90625-3.492188s5.753906 2.164062 7.101562 4.933594c15.457032 31.40625 45.980469 111.058594-42.003906 111.058594zm0 0" fill="#d25627"/><path d="m342.578125 512.273438c45.902344 0 58.65625-33.171876 66.992187-65.003907.816407-3.027343-.027343-6.257812-2.222656-8.492187-2.195312-2.234375-5.414062-3.140625-8.449218-2.375l-10.039063 2.503906c-2.636719.664062-5.433594.070312-7.574219-1.601562-2.144531-1.671876-3.398437-4.242188-3.398437-6.960938v-17.238281c-.003907-3.179688-1.714844-6.109375-4.480469-7.675781-2.765625-1.566407-6.15625-1.523438-8.882812.109374l-23.949219 14.363282c-3.878907 2.324218-8.886719 1.339844-11.601563-2.277344l-13.390625-17.851562c-1.847656-2.460938-4.84375-3.785157-7.90625-3.492188-3.066406.292969-5.757812 2.164062-7.101562 4.933594-15.457031 31.40625-45.980469 111.058594 42.003906 111.058594zm0 0" fill="#d25627"/><path d="m26.40625 79.722656c-.730469-.003906-1.460938-.089844-2.171875-.265625-2.269531-.574219-4.21875-2.023437-5.421875-4.035156-1.199219-2.011719-1.550781-4.417969-.976562-6.691406 4.695312-18.769531 14.9375-35.691407 29.394531-48.550781 34.242187-30.851563 74.277343-26.15625 109.816406 12.90625 6.933594 7.582031 13.121094 15.808593 18.484375 24.566406 2.460938 4.210937 1.042969 9.617187-3.167969 12.078125-4.210937 2.457031-9.617187 1.039062-12.078125-3.171875-4.75-7.671875-10.207031-14.890625-16.292968-21.554688-29.265626-32.160156-57.839844-36.078125-84.941407-11.652344-11.839843 10.519532-20.234375 24.359376-24.089843 39.722657-.996094 3.910156-4.515626 6.648437-8.554688 6.648437zm0 0" fill="#c03a2b"/><path d="m485.953125 79.722656c-4.039063-.003906-7.5625-2.746094-8.550781-6.664062-3.859375-15.363282-12.257813-29.207032-24.101563-39.726563-27.082031-24.414062-55.667969-20.496093-84.921875 11.664063-6.09375 6.632812-11.546875 13.828125-16.292968 21.484375-2.578126 3.898437-7.746094 5.113281-11.789063 2.773437s-5.5625-7.425781-3.46875-11.601562c5.371094-8.75 11.5625-16.96875 18.496094-24.539063 35.539062-39.082031 75.554687-43.785156 109.796875-12.914062 14.457031 12.851562 24.707031 29.765625 29.40625 48.53125.574218 2.273437.222656 4.679687-.980469 6.691406-1.199219 2.011719-3.148437 3.460937-5.421875 4.035156-.710938.175781-1.4375.261719-2.171875.265625zm0 0" fill="#c03a2b"/><path d="m256.179688 150.34375c0 34.125-27.664063 61.792969-61.792969 61.792969-2.957031.035156-5.910157-.203125-8.828125-.707031-30.378906-4.363282-52.9375-30.390626-52.9375-61.085938s22.558594-56.722656 52.9375-61.085938c2.917968-.507812 5.871094-.742187 8.828125-.707031 34.128906 0 61.792969 27.664063 61.792969 61.792969zm0 0" fill="#e6e7e8"/><path d="m238.527344 150.34375c0-33.738281-23.714844-61.085938-52.96875-61.085938-29.25 0-52.964844 27.347657-52.964844 61.085938s23.714844 61.085938 52.964844 61.085938c29.253906 0 52.96875-27.347657 52.96875-61.085938zm0 0" fill="#fff"/><path d="m379.765625 150.34375c0 34.125-27.664063 61.792969-61.792969 61.792969-2.957031.035156-5.910156-.203125-8.824218-.707031-30.382813-4.363282-52.941407-30.390626-52.941407-61.085938s22.558594-56.722656 52.941407-61.085938c2.914062-.507812 5.867187-.742187 8.824218-.707031 34.128906 0 61.792969 27.664063 61.792969 61.792969zm0 0" fill="#e6e7e8"/><path d="m362.113281 150.34375c0-33.738281-23.714843-61.085938-52.964843-61.085938-29.253907 0-52.96875 27.347657-52.96875 61.085938s23.714843 61.085938 52.96875 61.085938c29.25 0 52.964843-27.347657 52.964843-61.085938zm0 0" fill="#fff"/><path d="m229.699219 150.34375c0 19.5-15.808594 35.308594-35.3125 35.308594-19.5 0-35.308594-15.808594-35.308594-35.308594 0-19.503906 15.808594-35.3125 35.308594-35.3125 19.503906 0 35.3125 15.808594 35.3125 35.3125zm0 0" fill="#2fa8cc"/><path d="m353.285156 150.34375c0 19.5-15.808594 35.308594-35.3125 35.308594-19.5 0-35.308594-15.808594-35.308594-35.308594 0-19.503906 15.808594-35.3125 35.308594-35.3125 19.503906 0 35.3125 15.808594 35.3125 35.3125zm0 0" fill="#2fa8cc"/><path d="m212.042969 150.34375c0 9.75-7.902344 17.65625-17.65625 17.65625-9.75 0-17.652344-7.90625-17.652344-17.65625s7.902344-17.65625 17.652344-17.65625c9.753906 0 17.65625 7.90625 17.65625 17.65625zm0 0" fill="#2c2f38"/><path d="m335.628906 150.34375c0 9.75-7.902344 17.65625-17.65625 17.65625-9.75 0-17.652344-7.90625-17.652344-17.65625s7.902344-17.65625 17.652344-17.65625c9.753906 0 17.65625 7.90625 17.65625 17.65625zm0 0" fill="#2c2f38"/><path d="m335.628906 273.929688h-150.070312c-4.875 0-8.824219-3.953126-8.824219-8.828126s3.949219-8.828124 8.824219-8.828124h150.070312c4.875 0 8.828125 3.953124 8.828125 8.828124s-3.953125 8.828126-8.828125 8.828126zm0 0" fill="#802d40"/><path d="m53.148438 97.378906c0 14.625-11.859376 26.480469-26.484376 26.480469s-26.484374-11.855469-26.484374-26.480469c0-14.628906 11.859374-26.484375 26.484374-26.484375s26.484376 11.855469 26.484376 26.484375zm0 0" fill="#4482c3"/><path d="m512.179688 97.378906c0 14.625-11.855469 26.480469-26.480469 26.480469s-26.484375-11.855469-26.484375-26.480469c0-14.628906 11.859375-26.484375 26.484375-26.484375s26.480469 11.855469 26.480469 26.484375zm0 0" fill="#4482c3"/><g fill="#fff"><path d="m194.386719 123.859375c0 9.75-7.902344 17.65625-17.652344 17.65625-9.753906 0-17.65625-7.90625-17.65625-17.65625s7.902344-17.65625 17.65625-17.65625c9.75 0 17.652344 7.90625 17.652344 17.65625zm0 0"/><path d="m317.972656 123.859375c0 9.75-7.902344 17.65625-17.652344 17.65625-9.753906 0-17.65625-7.90625-17.65625-17.65625s7.902344-17.65625 17.65625-17.65625c9.75 0 17.652344 7.90625 17.652344 17.65625zm0 0"/></g></svg>