<svg height="511pt" viewBox="0 -8 511.99685 511" width="511pt" xmlns="http://www.w3.org/2000/svg"><path d="m503.464844 299.164062c0 136.703126-110.761719 196.269532-247.464844 196.269532-2.902344 0-5.71875 0-8.535156-.085938-132.777344-2.476562-238.933594-62.378906-238.933594-196.183594.605469-42.503906 9.804688-84.449218 27.050781-123.304687l113.492188-141.398437c29.183593-19.847657 63.167969-31.492188 98.390625-33.707032 2.816406-.171875 5.71875-.253906 8.535156-.253906 38.140625.53125 75.277344 12.316406 106.75 33.875l113.492188 141.058594c17.332031 38.984375 26.59375 81.074218 27.222656 123.730468zm0 0" fill="#285680"/><path d="m486.398438 299.164062c0 133.804688-106.15625 193.707032-238.933594 196.183594-132.777344-2.476562-238.933594-62.378906-238.933594-196.183594.605469-42.503906 9.804688-84.449218 27.050781-123.304687l113.492188-141.398437c29.183593-19.847657 63.167969-31.492188 98.390625-33.707032 35.164062 2.1875 69.089844 13.800782 98.21875 33.621094l113.492187 141.058594c17.332031 38.984375 26.59375 81.074218 27.222657 123.730468zm0 0" fill="#4482c3"/><path d="m187.730469 68.765625-47.957031 51.113281c-22.441407-59.476562-84.648438-97.109375-130.132813-119.378906 135.679687.339844 178.089844 68.265625 178.089844 68.265625zm0 0" fill="#4482c3"/><path d="m139.773438 119.878906-68.265626 72.875c-3.265624 3.574219-7.90625 5.578125-12.75 5.492188-4.839843-.082032-9.410156-2.242188-12.550781-5.925782-44.84375-55.5625-37.675781-191.820312-37.675781-191.820312h1.109375c45.484375 22.269531 107.691406 59.902344 130.132813 119.378906zm0 0" fill="#ff5364"/><path d="m502.355469.5c-45.566407 22.269531-107.945313 60.074219-130.304688 119.722656l-48.210937-51.457031s42.496094-68.011719 178.515625-68.265625zm0 0" fill="#4482c3"/><path d="m332.796875 137.03125c-18.871094 17.8125-42.648437 29.554688-68.265625 33.707031-2.816406.257813-5.632812.425781-8.53125.425781-2.902344 0-5.71875-.167968-8.535156-.425781-25.613282-4.152343-49.394532-15.894531-68.265625-33.707031 18.871093-17.8125 42.652343-29.550781 68.265625-33.707031 2.816406-.253907 5.632812-.425781 8.535156-.425781 2.898438 0 5.714844.171874 8.53125.425781 25.617188 4.15625 49.394531 15.894531 68.265625 33.707031zm0 0" fill="#fff"/><path d="m298.664062 137.03125c0-18.851562-19.101562-34.132812-42.664062-34.132812-23.566406 0-42.667969 15.28125-42.667969 34.132812s19.101563 34.132812 42.667969 34.132812c23.5625 0 42.664062-15.28125 42.664062-34.132812zm0 0" fill="#f29c1f"/><path d="m440.078125 192.761719-68.027344-72.539063c22.359375-59.648437 84.738281-97.453125 130.304688-119.722656h.683593s7.167969 136.265625-37.660156 191.828125c-3.140625 3.683594-7.710937 5.839844-12.550781 5.921875-4.839844.085938-9.484375-1.914062-12.75-5.488281zm0 0" fill="#ff5364"/><path d="m207.929688 452.765625c-1.363282 0-2.722657-.070313-4.105469-.195313-16.210938-1.539062-29.867188-11.855468-40.566407-30.652343-1.597656-2.652344-1.636718-5.960938-.097656-8.648438 1.539063-2.6875 4.414063-4.332031 7.511719-4.292969 3.09375.039063 5.929687 1.75 7.398437 4.476563 7.828126 13.652344 17.015626 21.128906 27.308594 22.117187 17.859375 1.707032 36.0625-15.070312 42.070313-21.238281v-38.367187c0-4.710938 3.820312-8.53125 8.53125-8.53125 4.714843 0 8.535156 3.820312 8.535156 8.53125v41.726562c-.003906 2.035156-.734375 4.003906-2.058594 5.546875-1.058593 1.265625-25.632812 29.527344-54.527343 29.527344zm0 0" fill="#802d40"/><path d="m304.066406 452.765625c-28.894531 0-53.46875-28.269531-54.542968-29.535156-1.324219-1.542969-2.054688-3.503907-2.058594-5.539063v-41.726562c0-4.710938 3.820312-8.53125 8.535156-8.53125 4.710938 0 8.53125 3.820312 8.53125 8.53125v38.398437c5.972656 6.171875 24.125 22.949219 42.070312 21.242188 10.308594-.992188 19.5-8.441407 27.304688-22.121094 1.472656-2.722656 4.308594-4.433594 7.402344-4.472656 3.097656-.039063 5.972656 1.601562 7.511718 4.289062 1.539063 2.6875 1.5 6-.097656 8.652344-10.746094 18.769531-24.390625 29.113281-40.570312 30.648437-1.355469.105469-2.730469.164063-4.085938.164063zm0 0" fill="#802d40"/><path d="m324.265625 333.382812c0 14.25-17.664063 31.488282-42.667969 38.828126-5.539062 1.65625-11.226562 2.769531-16.980468 3.328124-2.816407.253907-5.71875.425782-8.617188.425782-2.902344 0-5.804688-.171875-8.621094-.425782-5.753906-.558593-11.441406-1.671874-16.980468-3.328124-25.003907-7.339844-42.667969-24.578126-42.667969-38.828126 0-18.859374 30.550781-17.066406 68.269531-17.066406 37.714844 0 68.265625-1.792968 68.265625 17.066406zm0 0" fill="#d75e72"/><path d="m247.464844 358.898438v15.359374c.015625.429688-.015625.859376-.085938 1.28125-5.753906-.558593-11.441406-1.671874-16.980468-3.328124v-13.3125c0-4.710938 3.820312-8.535157 8.535156-8.535157 4.710937 0 8.53125 3.824219 8.53125 8.535157zm0 0" fill="#802d40"/><path d="m281.597656 358.898438v13.3125c-5.539062 1.65625-11.226562 2.769531-16.980468 3.328124-.070313-.421874-.097657-.851562-.085938-1.28125v-15.359374c0-4.710938 3.820312-8.535157 8.535156-8.535157 4.710938 0 8.53125 3.824219 8.53125 8.535157zm0 0" fill="#802d40"/><path d="m17.066406 495.433594c-.472656 0-.945312-.039063-1.410156-.121094-4.644531-.773438-7.785156-5.167969-7.011719-9.8125 17.875-107.324219 142.503907-126.292969 143.734375-126.515625 4.664063-.671875 8.992188 2.566406 9.664063 7.230469.671875 4.667968-2.566407 8.992187-7.234375 9.664062-1.132813.164063-113.492188 17.519532-129.339844 112.417969-.683594 4.113281-4.234375 7.128906-8.402344 7.136719zm0 0" fill="#b0d3f0"/><path d="m8.53125 384.5c-3.449219-.003906-6.5625-2.082031-7.882812-5.269531-1.320313-3.1875-.5898442-6.859375 1.851562-9.296875 53.476562-53.496094 131.675781-45.46875 134.96875-45.117188 4.6875.515625 8.066406 4.730469 7.550781 9.417969-.515625 4.683594-4.734375 8.0625-9.417969 7.546875-.734374-.078125-73.464843-7.363281-121.035156 40.21875-1.601562 1.597656-3.773437 2.496094-6.035156 2.5zm0 0" fill="#b0d3f0"/><path d="m494.933594 495.433594c-4.167969-.007813-7.722656-3.023438-8.40625-7.136719-15.871094-95.128906-128.207032-112.253906-129.339844-112.417969-4.667969-.667968-7.90625-4.992187-7.238281-9.660156.671875-4.664062 4.996093-7.902344 9.660156-7.234375 1.253906.179687 125.859375 19.191406 143.734375 126.515625.773438 4.644531-2.367188 9.039062-7.011719 9.8125-.460937.082031-.929687.121094-1.398437.121094zm0 0" fill="#b0d3f0"/><path d="m256 247.964844c0 37.703125-30.566406 68.265625-68.269531 68.265625-2.851563.003906-5.699219-.167969-8.53125-.511719 34.140625-4.300781 59.746093-33.339844 59.734375-67.753906.027344-10.871094-2.578125-21.585938-7.597656-31.230469 4.121093-2.601563 8.054687-5.480469 11.777343-8.621094 8.394531 11.589844 12.90625 25.539063 12.886719 39.851563zm0 0" fill="#e6e7e8"/><path d="m238.933594 247.964844c.011718 34.414062-25.59375 63.453125-59.734375 67.753906-34.144531-4.300781-59.746094-33.339844-59.734375-67.753906-.011719-10.132813 2.261718-20.136719 6.65625-29.269532 1.34375-2.90625 2.914062-5.699218 4.691406-8.363281 6.734375 5.300781 14.101562 9.746094 21.933594 13.226563 21.933594 10.242187 47.378906 9.707031 68.863281-1.449219 3.351563-1.582031 6.601563-3.378906 9.726563-5.375 5.019531 9.644531 7.625 20.359375 7.597656 31.230469zm0 0" fill="#fff"/><path d="m392.53125 247.964844c0 37.703125-30.5625 68.265625-68.265625 68.265625-2.851563.003906-5.703125-.167969-8.535156-.511719 34.144531-4.300781 59.746093-33.339844 59.734375-67.753906.015625-10.132813-2.261719-20.136719-6.65625-29.269532 4.304687-2.511718 8.4375-5.304687 12.375-8.363281 7.421875 11.144531 11.371094 24.242188 11.347656 37.632813zm0 0" fill="#e6e7e8"/><path d="m375.464844 247.964844c.011718 34.414062-25.589844 63.453125-59.734375 67.753906-34.140625-4.300781-59.742188-33.339844-59.730469-67.753906-.03125-10.871094 2.578125-21.585938 7.59375-31.230469 1.527344-3.011719 3.296875-5.894531 5.289062-8.621094 13.84375 12.039063 30.894532 19.777344 49.066407 22.273438 17.78125 1.820312 35.660156-2.289063 50.859375-11.691407 4.394531 9.132813 6.671875 19.136719 6.65625 29.269532zm0 0" fill="#fff"/><path d="m503.464844 384.5c-2.261719-.003906-4.433594-.902344-6.03125-2.5-47.746094-47.746094-120.320313-40.332031-121.03125-40.21875-3.027344.335938-6.007813-.972656-7.8125-3.429688-1.808594-2.457031-2.164063-5.6875-.941406-8.480468 1.226562-2.792969 3.847656-4.71875 6.878906-5.054688 3.300781-.332031 81.484375-8.371094 134.972656 45.117188 2.4375 2.4375 3.167969 6.109375 1.847656 9.296875-1.320312 3.1875-4.433594 5.265625-7.882812 5.269531zm0 0" fill="#b0d3f0"/><path d="m230.398438 247.964844c.007812 18.386718-11.765626 34.710937-29.214844 40.507812-17.449219 5.796875-36.652344-.238281-47.648438-14.976562-10.996094-14.734375-11.3125-34.859375-.789062-49.9375 21.933594 10.242187 47.378906 9.707031 68.863281-1.449219 5.726563 7.398437 8.816406 16.5 8.789063 25.855469zm0 0" fill="#f29c1f"/><path d="m281.597656 248.222656c-.007812 18.386719 11.765625 34.707032 29.21875 40.503906 17.449219 5.796876 36.648438-.238281 47.644532-14.972656 10.996093-14.738281 11.316406-34.859375.789062-49.9375-21.929688 10.242188-47.378906 9.707032-68.863281-1.453125-5.722657 7.402344-8.816407 16.5-8.789063 25.859375zm0 0" fill="#f29c1f"/><path d="m204.796875 247.964844c0 9.425781-7.640625 17.066406-17.066406 17.066406s-17.066407-7.640625-17.066407-17.066406c0-9.425782 7.640626-17.066406 17.066407-17.066406s17.066406 7.640624 17.066406 17.066406zm0 0" fill="#2c2f38"/><path d="m341.332031 247.964844c0 9.425781-7.640625 17.066406-17.066406 17.066406s-17.066406-7.640625-17.066406-17.066406c0-9.425782 7.640625-17.066406 17.066406-17.066406s17.066406 7.640624 17.066406 17.066406zm0 0" fill="#2c2f38"/><path d="m264.53125 103.324219v67.414062c-2.816406.257813-5.632812.425781-8.53125.425781-2.902344 0-5.71875-.167968-8.535156-.425781v-67.414062c2.816406-.253907 5.632812-.425781 8.535156-.425781 2.898438 0 5.714844.171874 8.53125.425781zm0 0" fill="#2c2f38"/><g fill="#fff"><path d="m238.933594 124.230469c0 7.070312-5.734375 12.800781-12.800782 12.800781-7.070312 0-12.800781-5.730469-12.800781-12.800781 0-7.066407 5.730469-12.796875 12.800781-12.796875 7.066407 0 12.800782 5.730468 12.800782 12.796875zm0 0"/><path d="m187.730469 273.566406c0 9.425782-7.640625 17.066406-17.066407 17.066406-9.425781 0-17.066406-7.640624-17.066406-17.066406 0-9.425781 7.640625-17.066406 17.066406-17.066406 9.425782 0 17.066407 7.640625 17.066407 17.066406zm0 0"/><path d="m324.265625 273.566406c0 9.425782-7.640625 17.066406-17.066406 17.066406s-17.066407-7.640624-17.066407-17.066406c0-9.425781 7.640626-17.066406 17.066407-17.066406s17.066406 7.640625 17.066406 17.066406zm0 0"/></g></svg>