<svg height="512pt" viewBox="0 0 512 512.00747" width="512pt" xmlns="http://www.w3.org/2000/svg"><path d="m493.289062 120.503906c-8.746093 15.402344-20.339843 29-34.164062 40.078125l-27.894531-26.394531c-.617188-.53125-1.234375-1.058594-1.765625-1.589844-5.433594-5.738281-6.40625-14.382812-2.382813-21.1875 27.1875-45.460937 57.644531-65.410156 82.890625-73.796875h.089844c4.679688 28.75-1.285156 58.222657-16.773438 82.890625zm0 0" fill="#fac176"/><path d="m427.082031 111.410156c-2.972656 6.992188-2.066406 15.03125 2.382813 21.1875l-19.535156-12.171875-34.425782-38.84375c2.867188-7.925781 6.441406-15.578125 10.679688-22.863281 26.835937-46.433594 72.5625-70.265625 102.136718-53.140625 11.445313 7.109375 19.3125 18.769531 21.625 32.042969-25.21875 8.378906-55.675781 28.328125-82.863281 73.789062zm0 0" fill="#65ddb9"/><path d="m112.027344 109.117188-41.402344 33.808593c-9.140625-4.828125-17.75-10.597656-25.6875-17.214843-32.75-27.277344-49.347656-63.820313-43.875-90.835938 40.917969 5.230469 77.851562 27.148438 102.046875 60.558594 3.238281 4.382812 6.214844 8.949218 8.917969 13.683594zm0 0" fill="#fac176"/><path d="m157.929688 71.511719-45.902344 37.605469c-2.703125-4.734376-5.679688-9.300782-8.917969-13.683594-24.195313-33.410156-61.128906-55.328125-102.046875-60.558594 1.308594-6.910156 4.34375-13.378906 8.828125-18.800781 21.804687-26.21875 72.914063-19.6875 114.140625 14.652343 13.8125 11.292969 25.320312 25.140626 33.898438 40.785157zm0 0" fill="#65ddb9"/><path d="m512.003906 293.523438c0 120.675781-114.582031 218.484374-256 218.484374-3 0-5.914062 0-8.828125-.175781-137.355469-3.972656-247.17187475-100.195312-247.17187475-218.308593.80078175-58.015626 26.52734375-112.882813 70.62109375-150.597657 7.199219-6.511719 14.804688-12.554687 22.773438-18.097656l98.871093-42.902344c18.050781-3.953125 36.433594-6.230469 54.90625-6.796875 2.914063-.085937 5.828125-.085937 8.828125-.085937 21.433594-.023438 42.800782 2.285156 63.734375 6.882812l87.058594 31.023438 24.433594 21.238281c9.988281 8.039062 19.320312 16.863281 27.894531 26.394531 33.597656 36.164063 52.457031 83.582031 52.878906 132.941407zm0 0" fill="#46b29d"/><path d="m494.347656 293.523438c0 118.113281-109.8125 214.335937-247.171875 218.308593-137.355469-3.972656-247.17187475-100.195312-247.17187475-218.308593.80078175-58.015626 26.52734375-112.882813 70.62109375-150.597657 7.199219-6.511719 14.804688-12.554687 22.773438-18.097656l98.871093-42.902344c18.050781-3.953125 36.433594-6.230469 54.90625-6.796875 18.472657.578125 36.851563 2.855469 54.90625 6.796875l111.492188 52.261719c9.992187 8.039062 19.320312 16.863281 27.898437 26.394531 33.59375 36.164063 52.453125 83.582031 52.875 132.941407zm0 0" fill="#65ddb9"/><path d="m201.273438 94.207031-10.59375-14.40625c-6.726563-9.234375-18.644532-13.066406-29.492188-9.480469-42.503906 12.835938-73.878906 48.914063-80.695312 92.785157-.4375 2.058593.636718 4.136719 2.566406 4.972656 1.929687.832031 4.183594.191406 5.378906-1.539063 15.890625-22.066406 51.199219-60.027343 105.542969-58.332031 3.339843.054688 6.425781-1.785156 7.96875-4.75 1.542969-2.960937 1.28125-6.542969-.675781-9.25zm0 0" fill="#527f72"/><path d="m310.734375 94.207031 10.59375-14.40625c6.726563-9.234375 18.644531-13.066406 29.492187-9.480469 42.503907 12.835938 73.878907 48.914063 80.695313 92.785157.4375 2.058593-.636719 4.136719-2.566406 4.972656-1.929688.832031-4.183594.191406-5.378907-1.539063-15.890624-22.066406-51.203124-60.027343-105.542968-58.332031-3.34375.054688-6.425782-1.785156-7.96875-4.75-1.542969-2.960937-1.28125-6.542969.675781-9.25zm0 0" fill="#527f72"/><path d="m256.003906 240.117188c-.234375 23.179687-9.664062 45.316406-26.21875 61.539062-16.554687 16.226562-38.878906 25.207031-62.058594 24.972656-2.910156 0-5.824218-.175781-8.648437-.441406 44.59375-4.09375 78.851563-41.289062 79.269531-86.070312-.023437-24.84375-10.886718-48.445313-29.75-64.617188 2.472656-2.472656 4.945313-5.03125 7.328125-7.769531 24.867188 15.683593 39.984375 42.992187 40.078125 72.386719zm0 0" fill="#e6e7e8"/><path d="m238.347656 240.117188c-.417968 44.78125-34.675781 81.976562-79.269531 86.070312h-.355469c-44.59375-4.09375-78.851562-41.289062-79.269531-86.070312-.011719-8.105469 1.179687-16.164063 3.53125-23.921876.132813-.6875.3125-1.363281.527344-2.03125 6.105469 1.066407 12.265625 1.773438 18.449219 2.121094 2.648437.175782 5.296874.261719 8.035156.261719 11.265625.105469 22.5-1.167969 33.457031-3.792969l.085937-.089844c9.273438-2.164062 18.277344-5.363281 26.835938-9.535156 10.105469-4.9375 19.5625-11.105468 28.160156-18.359375 3.523438-2.902343 6.886719-5.996093 10.0625-9.269531 18.863282 16.171875 29.726563 39.773438 29.75 64.617188zm0 0" fill="#fff"/><path d="m432.554688 240.117188c-.230469 23.179687-9.664063 45.316406-26.21875 61.539062-16.554688 16.226562-38.878907 25.207031-62.054688 24.972656-2.914062 0-5.828125-.175781-8.652344-.441406 44.597656-4.09375 78.851563-41.289062 79.269532-86.070312.011718-8.105469-1.179688-16.164063-3.527344-23.921876 5.738281-.363281 11.457031-1.042968 17.125-2.03125 2.703125 8.386719 4.074218 17.144532 4.058594 25.953126zm0 0" fill="#e6e7e8"/><path d="m414.898438 240.117188c-.417969 44.78125-34.671876 81.976562-79.269532 86.070312h-.351562c-44.597656-4.09375-78.855469-41.289062-79.273438-86.070312.023438-24.84375 10.886719-48.445313 29.75-64.617188 3.246094-2.839844 6.699219-5.4375 10.328125-7.769531 12.648438 14.742187 28.140625 26.78125 45.550781 35.398437 8.558594 4.171875 17.5625 7.371094 26.835938 9.535156l.085938.089844c7.828124 1.863282 15.804687 3.042969 23.835937 3.53125 6.320313.414063 12.660156.382813 18.980469-.089844 2.347656 7.757813 3.539062 15.816407 3.527344 23.921876zm0 0" fill="#fff"/><path d="m229.519531 238.351562c0 34.128907-27.664062 61.792969-61.792969 61.792969-34.125 0-61.792968-27.664062-61.792968-61.792969-.015625-7.457031 1.359375-14.851562 4.0625-21.804687 11.265625.105469 22.5-1.167969 33.457031-3.792969l.085937-.089844c9.273438-2.164062 18.277344-5.363281 26.835938-9.535156 10.105469-4.9375 19.5625-11.105468 28.160156-18.359375 19.207032 10.996094 31.035156 31.453125 30.984375 53.582031zm0 0" fill="#2fa8cc"/><path d="m282.488281 238.351562c0 34.128907 27.664063 61.792969 61.792969 61.792969 34.125 0 61.792969-27.664062 61.792969-61.792969.015625-7.457031-1.359375-14.851562-4.0625-21.804687-11.265625.105469-22.5-1.167969-33.457031-3.792969l-.085938-.089844c-9.273438-2.164062-18.277344-5.363281-26.835938-9.535156-10.105468-4.9375-19.566406-11.105468-28.160156-18.359375-19.207031 10.996094-31.035156 31.453125-30.984375 53.582031zm0 0" fill="#2fa8cc"/><path d="m203.039062 238.351562c.019532 16.105469-10.863281 30.1875-26.457031 34.226563-15.589843 4.035156-31.941406-2.988281-39.742187-17.078125-7.804688-14.089844-5.085938-31.675781 6.613281-42.746094l.085937-.089844c9.273438-2.164062 18.277344-5.363281 26.835938-9.535156 18.425781 1.386719 32.667969 16.746094 32.664062 35.222656zm0 0" fill="#2c2f38"/><path d="m379.589844 238.351562c-.007813 19.15625-15.285156 34.8125-34.433594 35.289063-19.152344.476563-35.1875-14.40625-36.144531-33.535156-.953125-19.132813 13.519531-35.539063 32.621093-36.976563 8.558594 4.171875 17.5625 7.371094 26.835938 9.535156l.085938.089844c7.046874 6.648438 11.039062 15.910156 11.035156 25.597656zm0 0" fill="#2c2f38"/><path d="m229.519531 344.285156c14.628907 0 26.484375 11.855469 26.484375 26.480469v8.828125h-52.964844v-8.828125c0-14.625 11.855469-26.480469 26.480469-26.480469zm0 0" fill="#f5efca"/><path d="m282.488281 344.285156c14.625 0 26.480469 11.855469 26.480469 26.480469v8.828125h-52.964844v-8.828125c0-14.625 11.855469-26.480469 26.484375-26.480469zm0 0" fill="#f5efca"/><path d="m282.488281 423.730469h-52.96875c-4.875 0-8.824219-3.949219-8.824219-8.828125 0-4.875 3.949219-8.824219 8.824219-8.824219h52.96875c4.875 0 8.824219 3.949219 8.824219 8.824219 0 4.878906-3.949219 8.828125-8.824219 8.828125zm0 0" fill="#46b29d"/><path d="m397.246094 441.386719c-4.875 0-8.828125-3.953125-8.828125-8.828125-.03125-24.363282-19.773438-44.109375-44.136719-44.136719h-176.554688c-24.363281.027344-44.109374 19.773437-44.136718 44.136719 0 4.875-3.953125 8.828125-8.828125 8.828125s-8.828125-3.953125-8.828125-8.828125c.046875-34.109375 27.683594-61.75 61.792968-61.792969h176.554688c34.109375.042969 61.746094 27.683594 61.792969 61.792969 0 4.875-3.953125 8.828125-8.828125 8.828125zm0 0" fill="#802d40"/><g fill="#fff"><path d="m150.074219 269.25c0 12.1875-9.882813 22.066406-22.070313 22.066406s-22.070312-9.878906-22.070312-22.066406c0-12.191406 9.882812-22.070312 22.070312-22.070312s22.070313 9.878906 22.070313 22.070312zm0 0"/><path d="m326.625 269.25c0 12.1875-9.882812 22.066406-22.070312 22.066406s-22.066407-9.878906-22.066407-22.066406c0-12.191406 9.878907-22.070312 22.066407-22.070312s22.070312 9.878906 22.070312 22.070312zm0 0"/></g></svg>