<svg height="512pt" viewBox="0 0 512 512.30057" width="512pt" xmlns="http://www.w3.org/2000/svg"><path d="m79.597656 296.289062c-.175781-3.105468-79.449218 86.40625-79.449218 83.296876v-197.738282c0-85.785156 75.125-155.363281 167.726562-155.363281h176.550781c92.601563 0 167.722657 69.578125 167.722657 155.363281v197.738282c0 3.109374-79.269532-86.402344-79.445313-83.296876zm0 0" fill="#4482c3"/><path d="m353.253906 375.578125c1.296875 14.433594 4.871094 28.570313 10.59375 41.886719-3.84375 2.597656-6.847656 6.257812-8.652344 10.53125-10.515624-18.648438-17.097656-39.253906-19.332031-60.546875 57.46875-18.988281 96.839844-61.210938 96.839844-129.105469-1.558594-55.660156-23.046875-108.914062-60.558594-150.066406 7.277344 3.683594 14.324219 7.808594 21.097657 12.355468 35.300781 40.53125 55.402343 92.078126 56.851562 145.808594 0 67.925782-39.371094 110.140625-96.839844 129.136719zm0 0" fill="#ff5364"/><path d="m511.886719 377.484375c-2.554688 43.953125-19.882813 85.753906-49.171875 118.625-4.277344 5.441406-9.664063 9.910156-15.800782 13.109375-7.554687 3.054688-15.832031 3.859375-23.835937 2.320312-1.058594-.164062-2.027344-.332031-3-.582031-20.390625-4.226562-27.804687-18.988281-37.253906-35.574219-2.558594-4.5625-5.292969-9.046874-8.03125-13.523437 1.636719.265625 3.289062.402344 4.945312.414063 6.8125.214843 13.429688-2.289063 18.394531-6.953126 4.96875-4.667968 7.875-11.117187 8.085938-17.929687-.019531-6.203125-2.457031-12.15625-6.796875-16.589844-5.121094-5.386719-12.253906-8.402343-19.683594-8.3125-5.6875-.046875-11.246093 1.695313-15.890625 4.976563-5.722656-13.316406-9.296875-27.453125-10.59375-41.886719 57.46875-18.996094 96.839844-61.210937 96.839844-129.136719-1.449219-53.730468-21.550781-105.277344-56.851562-145.808594 51.730468 35.171876 115.378906 113.460938 118.644531 276.851563zm0 0" fill="#fb7b76"/><path d="m176.4375 367.449219c-2.234375 21.292969-8.816406 41.898437-19.332031 60.546875-1.804688-4.273438-4.808594-7.933594-8.652344-10.53125 5.722656-13.316406 9.296875-27.453125 10.59375-41.886719-57.46875-18.996094-96.839844-61.210937-96.839844-129.136719 1.449219-53.730468 21.546875-105.277344 56.851563-145.808594 6.773437-4.546874 13.816406-8.671874 21.097656-12.355468-37.511719 41.152344-59 94.40625-60.558594 150.066406 0 67.894531 39.371094 110.117188 96.839844 129.105469zm0 0" fill="#ff5364"/><path d="m112.878906 420.777344c-4.339844 4.433594-6.777344 10.382812-6.796875 16.585937.210938 6.8125 3.117188 13.261719 8.085938 17.929688 4.964843 4.667969 11.582031 7.167969 18.394531 6.953125 1.65625-.011719 3.308594-.148438 4.945312-.414063-2.738281 4.476563-5.472656 8.960938-8.035156 13.523438-9.445312 16.589843-16.859375 31.347656-37.25 35.578125-.972656.246094-1.941406.414062-3.003906.582031-8 1.535156-16.277344.730469-23.832031-2.324219-6.132813-3.191406-11.519531-7.652344-15.800781-13.082031-29.289063-32.871094-46.617188-74.671875-49.171876-118.625 3.265626-163.390625 66.914063-241.679687 118.644532-276.851563-35.304688 40.53125-55.402344 92.078126-56.851563 145.808594 0 67.972656 39.371094 110.140625 96.839844 129.136719-1.296875 14.433594-4.871094 28.570313-10.59375 41.886719-4.644531-3.28125-10.203125-5.023438-15.890625-4.976563-7.425781-.09375-14.558594 2.90625-19.683594 8.289063zm0 0" fill="#fb7b76"/><path d="m432.703125 247.171875c0 72.296875-39.371094 117.230469-96.839844 137.445313-25.667969 8.683593-52.621093 12.953124-79.714843 12.625-27.089844.328124-54.042969-3.941407-79.710938-12.625-37.6875-11.710938-68.5625-38.988282-84.832031-74.945313-8.257813-19.785156-12.34375-41.0625-12.007813-62.5 1.328125-58.589844 22.699219-114.953125 60.558594-159.691406h231.988281c10.054688 11.855469 18.980469 24.621093 26.660157 38.136719.046874.046874.078124.109374.085937.175781 21.40625 36.929687 33.042969 78.703125 33.8125 121.378906zm0 0" fill="#285680"/><path d="m423.875 226.199219c0 74.273437-39.371094 120.441406-96.839844 141.238281-25.621094 8.902344-52.59375 13.28125-79.710937 12.941406-27.125.332032-54.097657-4.054687-79.714844-12.964844-31.507813-10.445312-58.386719-31.550781-76.003906-59.683593-8.269531-20.382813-12.351563-42.21875-12.007813-64.210938 1.230469-59.933593 22.558594-117.710937 60.558594-164.070312h231.988281c10.078125 12.207031 19 25.324219 26.660157 39.175781.046874.050781.078124.117188.085937.183594 15.949219 33.585937 24.472656 70.214844 24.984375 107.390625zm0 0" fill="#4482c3"/><path d="m256.148438 0-34.355469 115.695312c-5.207031 17.601563 11.601562 34.375 34.355469 34.375 22.757812 0 39.566406-16.816406 34.359374-34.375zm0 0" fill="#fdd7ad"/><path d="m238.496094 220.691406c0 16.386719-6.511719 32.105469-18.101563 43.691406-11.585937 11.589844-27.304687 18.101563-43.691406 18.101563-2.960937.035156-5.914063-.203125-8.828125-.707031-30.382812-4.363282-52.941406-30.394532-52.941406-61.085938 0-30.695312 22.558594-56.726562 52.941406-61.089844 2.914062-.503906 5.867188-.742187 8.828125-.703124 16.386719 0 32.105469 6.507812 43.691406 18.097656 11.589844 11.585937 18.101563 27.304687 18.101563 43.695312zm0 0" fill="#e6e7e8"/><path d="m220.839844 220.691406c0-33.738281-23.714844-61.089844-52.964844-61.089844-29.253906 0-52.964844 27.351563-52.964844 61.089844 0 33.734375 23.710938 61.085938 52.964844 61.085938 29.25 0 52.964844-27.351563 52.964844-61.085938zm0 0" fill="#fff"/><path d="m397.390625 220.691406c0 16.386719-6.507813 32.105469-18.097656 43.691406-11.589844 11.589844-27.304688 18.101563-43.695313 18.101563-2.957031.035156-5.910156-.203125-8.828125-.707031-30.382812-4.363282-52.9375-30.394532-52.9375-61.085938 0-30.695312 22.554688-56.726562 52.9375-61.089844 2.917969-.503906 5.871094-.742187 8.828125-.703124 16.390625 0 32.105469 6.507812 43.695313 18.097656 11.589843 11.585937 18.097656 27.304687 18.097656 43.695312zm0 0" fill="#e6e7e8"/><path d="m379.738281 220.691406c0-33.738281-23.714843-61.089844-52.96875-61.089844-29.25 0-52.964843 27.351563-52.964843 61.089844 0 33.734375 23.714843 61.085938 52.964843 61.085938 29.253907 0 52.96875-27.351563 52.96875-61.085938zm0 0" fill="#fff"/><path d="m212.011719 220.691406c0 19.5-15.808594 35.308594-35.308594 35.308594-19.503906 0-35.3125-15.808594-35.3125-35.308594 0-19.503906 15.808594-35.3125 35.3125-35.3125 19.5 0 35.308594 15.808594 35.308594 35.3125zm0 0" fill="#f29c1f"/><path d="m370.910156 220.691406c0 19.5-15.808594 35.308594-35.3125 35.308594-19.5 0-35.308594-15.808594-35.308594-35.308594 0-19.503906 15.808594-35.3125 35.308594-35.3125 19.503906 0 35.3125 15.808594 35.3125 35.3125zm0 0" fill="#f29c1f"/><path d="m194.355469 220.691406c0 9.75-7.902344 17.652344-17.652344 17.652344s-17.65625-7.902344-17.65625-17.652344c0-9.753906 7.90625-17.65625 17.65625-17.65625s17.652344 7.902344 17.652344 17.65625zm0 0" fill="#2c2f38"/><path d="m353.253906 220.691406c0 9.75-7.90625 17.652344-17.65625 17.652344s-17.652344-7.902344-17.652344-17.652344c0-9.753906 7.902344-17.65625 17.652344-17.65625s17.65625 7.902344 17.65625 17.65625zm0 0" fill="#2c2f38"/><path d="m282.632812 335.449219c0 14.625-11.855468 26.480469-26.484374 26.480469-14.625 0-26.480469-11.855469-26.480469-26.480469 0-14.628907 11.855469-26.484375 26.480469-26.484375 14.628906 0 26.484374 11.855468 26.484374 26.484375zm0 0" fill="#802d40"/><g fill="#fff"><path d="m176.703125 203.035156c0 9.75-7.90625 17.65625-17.65625 17.65625s-17.65625-7.90625-17.65625-17.65625 7.90625-17.65625 17.65625-17.65625 17.65625 7.90625 17.65625 17.65625zm0 0"/><path d="m335.597656 203.035156c0 9.75-7.902344 17.65625-17.652344 17.65625-9.753906 0-17.65625-7.90625-17.65625-17.65625s7.902344-17.65625 17.65625-17.65625c9.75 0 17.652344 7.90625 17.652344 17.65625zm0 0"/></g></svg>