<svg height="496pt" viewBox="0 0 496.54269 496" width="496pt" xmlns="http://www.w3.org/2000/svg"><path d="m108.898438 469.261719c-28.84375 22.1875-59.136719 34.816406-80.382813 19.882812-4.65625-3.339843-8.601563-7.574219-11.605469-12.457031-9.558594-14.847656-15.703125-39.425781-16.46875-76.714844-.171875-5.460937-.171875-11.179687-.085937-17.152344.085937-5.035156.253906-10.15625.511719-15.617187 1.023437-23.605469 5.214843-46.96875 12.457031-69.460937 2.050781-6.65625 4.4375-12.96875 7-19.199219 9.820312-23.824219 23.042969-46.097657 39.253906-66.132813 1.492187-1.804687 3.640625-2.941406 5.972656-3.15625l36.691407-3.328125c2.425781-.222656 4.824218.605469 6.601562 2.265625 1.777344 1.664063 2.757812 4.003906 2.699219 6.4375l-2.730469 105.046875c-.0625 1.984375-.816406 3.886719-2.132812 5.375-22.1875 23.992188-38.027344 53.148438-46.078126 84.820313-9.472656 42.835937 17.492188 47.703125 42.066407 44.03125 3.847656-.453125 7.519531 1.71875 8.976562 5.304687 1.453125 3.585938.328125 7.703125-2.746093 10.054688zm0 0" fill="#fdd7ad"/><path d="m495.714844 382.90625c.085937 5.972656.085937 11.691406-.085938 17.152344-.765625 36.863281-6.742187 61.269531-16.128906 76.117187-3 4.953125-6.941406 9.273438-11.605469 12.714844-21.246093 15.359375-51.710937 2.730469-80.722656-19.628906-3.074219-2.351563-4.199219-6.46875-2.746094-10.054688 1.457031-3.585937 5.128907-5.757812 8.976563-5.304687 24.574218 3.671875 51.539062-1.195313 42.066406-44.03125-8.316406-32.511719-24.757812-62.375-47.785156-86.785156l-28.417969-109.480469 79.789063 1.792969c15.183593 19.527343 27.640624 41.027343 37.035156 63.914062 2.605468 6.246094 4.882812 12.628906 6.824218 19.113281 7.140626 22.277344 11.273438 45.40625 12.289063 68.777344.257813 5.460937.425781 10.667969.511719 15.703125zm0 0" fill="#fdd7ad"/><g fill="#7f6e5d"><path d="m60.34375 326.671875c-.972656 3.773437-4.378906 6.40625-8.277344 6.398437-.71875-.003906-1.433594-.089843-2.132812-.253906-13.566406-3.5-25.941406-15.277344-36.609375-35.074218 2.050781-6.65625 4.4375-12.96875 7-19.199219 2.019531.710937 3.65625 2.222656 4.523437 4.183593 9.042969 19.113282 19.453125 31.058594 29.351563 33.535157 4.542969 1.21875 7.273437 5.84375 6.144531 10.410156zm0 0"/><path d="m41.058594 390.328125c-8.726563 7.375-20.015625 10.996094-31.402344 10.070313-2.902344 0-5.972656-.167969-9.214844-.425782-.171875-5.460937-.171875-11.179687-.085937-17.152344h.769531c13.652344 1.367188 23.550781-.253906 27.816406-4.609374 3.347656-3.34375 8.773438-3.34375 12.117188 0 3.347656 3.347656 3.347656 8.773437 0 12.117187zm0 0"/><path d="m43.277344 463.121094c-2.523438 9.832031-7.617188 18.8125-14.761719 26.023437-4.65625-3.339843-8.601563-7.574219-11.605469-12.457031 4.710938-4.964844 8.085938-11.042969 9.8125-17.664062 1.273438-4.402344 5.796875-7.015626 10.246094-5.914063 4.453125 1.101563 7.238281 5.519531 6.308594 10.011719zm0 0"/><path d="m482.914062 298.425781c-10.582031 19.457031-22.867187 31.0625-36.265624 34.390625-4.570313 1.125-9.191407-1.660156-10.324219-6.230468-1.128907-4.570313 1.660156-9.191407 6.226562-10.324219 9.816407-2.476563 19.800781-13.824219 28.929688-32.769531.898437-1.964844 2.566406-3.476563 4.609375-4.179688 2.605468 6.246094 4.882812 12.628906 6.824218 19.113281zm0 0"/><path d="m495.714844 382.90625c.085937 5.972656.085937 11.691406-.085938 17.152344-2.984375.171875-5.800781.339844-8.53125.339844-11.414062.9375-22.738281-2.679688-31.488281-10.070313-3.347656-3.34375-3.347656-8.769531 0-12.117187 3.34375-3.34375 8.769531-3.34375 12.117187 0 4.265626 4.269531 13.910157 5.976562 27.304688 4.695312zm0 0"/><path d="m479.5 476.175781c-3 4.953125-6.941406 9.273438-11.605469 12.714844-7.003906-7.140625-12.007812-16-14.503906-25.6875-.761719-2.957031.109375-6.09375 2.289063-8.234375 2.179687-2.136719 5.335937-2.949219 8.277343-2.132812 2.941407.820312 5.226563 3.144531 5.988281 6.101562 1.632813 6.480469 4.925782 12.417969 9.554688 17.238281zm0 0"/></g><path d="m418.234375 224.785156c-8.277344 103.847656-81.152344 185.085938-169.902344 185.085938-2.644531 0-5.375-.085938-8.019531-.253906h-.511719c-87.210937-5.121094-157.183593-88.832032-161.878906-193.367188l25.261719-118.871094c28.671875-55.722656 79.101562-93.609375 137.042968-96.851562 2.644532-.171875 5.375-.257813 8.105469-.257813 61.269531 0 115.03125 38.742188 145.070313 97.027344zm0 0" fill="#f29c1f"/><path d="m401.933594 224.785156c-8.019532 100.605469-76.628906 179.964844-161.621094 184.832032h-.511719c-87.210937-5.121094-157.183593-88.832032-161.878906-193.367188l25.261719-118.871094c28.671875-55.722656 79.101562-93.609375 137.042968-96.851562 57.855469 3.242187 108.203126 41.128906 136.875 96.769531zm0 0" fill="#f0c419"/><path d="m120.332031 128.269531-4.949219 27.308594c-34.730468-44.203125-90.195312-42.582031-114.515624-44.457031-1.15625-11.320313-1.15625-22.730469 0-34.050782 102.398437-25.597656 119.464843 51.199219 119.464843 51.199219zm0 0" fill="#f0c419"/><path d="m115.382812 155.578125-8.992187 49.417969c-.886719 4.726562-3.71875 8.867187-7.800781 11.414062-4.085938 2.546875-9.046875 3.265625-13.6875 1.980469-64.1875-17.382813-80.511719-71.347656-84.035156-107.269531 24.320312 1.875 79.785156.253906 114.515624 44.457031zm0 0" fill="#ff5364"/><path d="m495.886719 111.121094c-24.578125 1.875-73.21875.253906-114.859375 45.992187l-4.863282-28.84375s17.066407-76.796875 119.464844-51.199219c1.125 11.320313 1.210938 22.714844.257813 34.050782zm0 0" fill="#f0c419"/><path d="m495.886719 111.121094c-3.132813 38.210937-18.6875 97.277344-83.722657 115.625-4.691406 1.355468-9.742187.648437-13.882812-1.941406-4.144531-2.589844-6.988281-6.820313-7.824219-11.636719l-9.429687-56.054688c41.640625-45.738281 90.28125-44.117187 114.859375-45.992187zm0 0" fill="#ff5364"/><path d="m367.800781 196.539062c0 32.988282-26.742187 59.730469-59.734375 59.730469-2.96875-.011719-5.9375-.238281-8.875-.679687 29.472656-4.023438 51.472656-29.15625 51.558594-58.902344s-21.765625-55.007812-51.214844-59.199219c2.816406-.488281 5.671875-.71875 8.53125-.683593 32.992188 0 59.734375 26.742187 59.734375 59.734374zm0 0" fill="#e6e7e8"/><path d="m350.734375 196.539062c.066406 29.824219-21.980469 55.085938-51.542969 59.050782-3.097656-.410156-6.152344-1.097656-9.128906-2.050782h-83.457031c-5.824219 1.832032-11.898438 2.753907-18.003907 2.730469-2.746093.035157-5.492187-.191406-8.191406-.679687-29.476562-4.023438-51.472656-29.15625-51.558594-58.902344-.085937-29.746094 21.765626-55.007812 51.214844-59.199219 2.816406-.488281 5.675782-.71875 8.535156-.683593 20.988282-.027344 40.4375 10.992187 51.199219 29.011718 5.621094 9.257813 8.574219 19.890625 8.53125 30.722656-.039062-29.695312 21.800781-54.886718 51.203125-59.050781 29.402344 4.164063 51.242188 29.355469 51.199219 59.050781zm0 0" fill="#fff"/><path d="m299.191406 255.589844c-2.703125.488281-5.445312.714844-8.191406.679687-6.105469.023438-12.179688-.898437-18.003906-2.730469h17.066406c2.976562.953126 6.03125 1.640626 9.128906 2.050782zm0 0" fill="#fff"/><path d="m291 341.605469h-85.332031c-28.265625-.027344-51.171875-22.933594-51.199219-51.199219 0-4.714844 3.820312-8.535156 8.53125-8.535156 4.714844 0 8.535156 3.820312 8.535156 8.535156 0 18.851562 15.28125 34.132812 34.132813 34.132812h85.332031c18.851562 0 34.132812-15.28125 34.132812-34.132812 0-4.714844 3.820313-8.535156 8.535157-8.535156 4.710937 0 8.53125 3.820312 8.53125 8.535156-.027344 28.265625-22.933594 51.171875-51.199219 51.199219zm0 0" fill="#802d40"/><path d="m222.734375 196.539062c0 18.851563-15.28125 34.132813-34.132813 34.132813-18.851562 0-34.132812-15.28125-34.132812-34.132813 0-18.851562 15.28125-34.132812 34.132812-34.132812 18.851563 0 34.132813 15.28125 34.132813 34.132812zm0 0" fill="#4fba6f"/><path d="m342.199219 196.539062c0 18.851563-15.28125 34.132813-34.132813 34.132813-18.851562 0-34.132812-15.28125-34.132812-34.132813 0-18.851562 15.28125-34.132812 34.132812-34.132812 18.851563 0 34.132813 15.28125 34.132813 34.132812zm0 0" fill="#4fba6f"/><path d="m205.667969 196.539062c0 9.425782-7.640625 17.066407-17.066407 17.066407-9.425781 0-17.066406-7.640625-17.066406-17.066407 0-9.425781 7.640625-17.066406 17.066406-17.066406 9.425782 0 17.066407 7.640625 17.066407 17.066406zm0 0" fill="#2c2f38"/><path d="m325.132812 196.539062c0 9.425782-7.640624 17.066407-17.066406 17.066407-9.425781 0-17.066406-7.640625-17.066406-17.066407 0-9.425781 7.640625-17.066406 17.066406-17.066406 9.425782 0 17.066406 7.640625 17.066406 17.066406zm0 0" fill="#2c2f38"/><path d="m291 247.738281c0 14.140625-19.105469 34.132813-42.667969 34.132813-23.558593 0-42.664062-19.992188-42.664062-34.132813s19.105469-17.066406 42.664062-17.066406c23.5625 0 42.667969 2.925781 42.667969 17.066406zm0 0" fill="#d75e72"/><path d="m323.511719 21.179688-63.144531 67.496093c-3.152344 3.40625-7.558594 5.378907-12.199219 5.460938s-9.109375-1.738281-12.378907-5.035157l-66.558593-65.535156c46.757812-30.175781 106.613281-31.101562 154.28125-2.386718zm0 0" fill="#d25627"/><path d="m188.601562 170.9375c0 9.425781-7.640624 17.066406-17.066406 17.066406-9.425781 0-17.066406-7.640625-17.066406-17.066406s7.640625-17.066406 17.066406-17.066406c9.425782 0 17.066406 7.640625 17.066406 17.066406zm0 0" fill="#fff"/><path d="m308.066406 170.9375c0 9.425781-7.640625 17.066406-17.066406 17.066406s-17.066406-7.640625-17.066406-17.066406 7.640625-17.066406 17.066406-17.066406 17.066406 7.640625 17.066406 17.066406zm0 0" fill="#fff"/></svg>