<svg height="512pt" viewBox="0 0 512.06364 512" width="512pt" xmlns="http://www.w3.org/2000/svg"><path d="m512.03125 229.535156c0 129.234375-114.582031 282.480469-256 282.480469-2.910156 0-5.914062-.085937-8.828125-.175781-137.355469-6.179688-247.171875-155.804688-247.171875-282.304688-.570312-29.140625 6.394531-57.9375 20.214844-83.597656l86.246094-74.417969c30.742187-13.066406 63.316406-21.3125 96.574218-24.453125 5.738282-.703125 11.652344-1.234375 17.566406-1.585937 8.742188-.707031 17.566407-1.0625 26.570313-1.238281 2.914063-.085938 5.917969-.085938 8.828125-.085938 2.914062 0 5.914062 0 8.828125.085938 9.003906.175781 17.832031.53125 26.570313 1.148437 5.914062.441406 11.742187.972656 17.566406 1.589844 33.578125 3.257812 66.453125 11.683593 97.457031 24.980469h.089844l85.363281 74.0625v.089843c13.753906 25.621094 20.683594 54.347657 20.125 83.421875zm0 0" fill="#24ae5f"/><path d="m494.378906 229.535156c0 126.5-109.816406 276.125-247.175781 282.304688-137.355469-6.179688-247.171875-155.804688-247.171875-282.304688-.570312-29.140625 6.394531-57.9375 20.214844-83.597656l86.246094-74.417969c30.742187-13.066406 63.316406-21.3125 96.574218-24.453125 5.738282-.703125 11.652344-1.234375 17.566406-1.585937 8.742188-.707031 17.566407-1.0625 26.570313-1.238281 9.003906.175781 17.832031.53125 26.574219 1.148437 5.914062.441406 11.738281.972656 17.566406 1.589844 33.578125 3.257812 66.449219 11.683593 97.457031 24.980469h.085938l85.363281 74.0625v.089843c13.753906 25.621094 20.683594 54.347657 20.128906 83.421875zm0 0" fill="#4fba6f"/><path d="m238.378906 282.5c.019532 12.265625-2.855468 24.363281-8.386718 35.308594l-19.597657 8.300781c-3.265625-1.148437-6.710937-2.207031-10.242187-3.179687l12.183594-5.121094c5.535156-10.945313 8.40625-23.042969 8.386718-35.308594.007813-40.457031-30.410156-74.453125-70.621094-78.917969 2.929688-.355469 5.875-.53125 8.828126-.53125 43.878906 0 79.449218 35.570313 79.449218 79.449219zm0 0" fill="#e6e7e8"/><path d="m220.722656 282.5c.019532 12.265625-2.851562 24.363281-8.386718 35.308594l-12.183594 5.121094c-4.296875-1.15625-8.660156-2.070313-13.0625-2.734376-4.0625-.707031-8.210938-1.238281-12.449219-1.679687-5.117187-.441406-10.328125-.707031-15.710937-.707031-3.003907 0-5.914063.089844-8.828126.265625-2.296874.089843-4.589843.265625-6.886718.441406-4.234375.355469-8.386719.972656-12.445313 1.679687-12.035156 1.84375-23.730469 5.472657-34.691406 10.769532-1.414063-1.855469-2.738281-3.710938-3.972656-5.652344-8.273438-12.746094-12.65625-27.621094-12.625-42.8125-.007813-40.457031 30.410156-74.453125 70.621093-78.917969.683594.066407 1.363282.183594 2.03125.351563 12.042969 1.472656 23.550782 5.835937 33.542969 12.710937 21.921875 14.746094 35.058594 39.4375 35.046875 65.855469zm0 0" fill="#fff"/><path d="m432.585938 282.5c.015624 17.550781-5.824219 34.605469-16.597657 48.464844-4.417969-2.210938-8.992187-4.097656-13.683593-5.652344 8.269531-12.746094 12.65625-27.621094 12.625-42.8125.007812-40.457031-30.410157-74.453125-70.621094-78.917969 2.929687-.355469 5.875-.53125 8.828125-.53125 43.878906 0 79.449219 35.570313 79.449219 79.449219zm0 0" fill="#e6e7e8"/><path d="m414.929688 282.5c.03125 15.191406-4.355469 30.066406-12.625 42.8125-10.851563-3.542969-22.078126-5.824219-33.457032-6.796875-5.117187-.441406-10.328125-.707031-15.710937-.707031-3.003907 0-5.914063.089844-8.828125.265625-2.296875.089843-4.589844.265625-6.886719.441406-12.1875 1.015625-24.199219 3.566406-35.75 7.59375l-7.414063-3.179687-12.183593-5.121094c-5.535157-10.945313-8.40625-23.042969-8.386719-35.308594-.007812-40.457031 30.410156-74.453125 70.621094-78.917969 40.210937 4.464844 70.628906 38.460938 70.621094 78.917969zm0 0" fill="#fff"/><path d="m203.066406 269.257812c.507813 18.285157-5.113281 36.21875-15.976562 50.9375-4.0625-.707031-8.210938-1.238281-12.449219-1.679687-5.117187-.441406-10.328125-.707031-15.710937-.707031-3.003907 0-5.914063.089844-8.828126.265625-2.296874.089843-4.589843.265625-6.886718.441406-4.234375.355469-8.386719.972656-12.445313 1.679687-10.863281-14.71875-16.488281-32.652343-15.976562-50.9375 0-33.101562 16.152343-60.46875 37.339843-65.324218 2.214844-.601563 4.5-.898438 6.796876-.882813 10.484374.367188 20.269531 5.34375 26.746093 13.59375 11.820313 14.941407 17.980469 33.574219 17.390625 52.613281zm0 0" fill="#f0c419"/><path d="m397.273438 269.257812c.507812 18.285157-5.113282 36.21875-15.976563 50.9375-4.0625-.707031-8.210937-1.238281-12.449219-1.679687-5.117187-.441406-10.328125-.707031-15.710937-.707031-3.003907 0-5.914063.089844-8.828125.265625-2.296875.089843-4.589844.265625-6.886719.441406-4.238281.355469-8.386719.972656-12.445313 1.679687-10.863281-14.71875-16.488281-32.652343-15.980468-50.9375 0-33.101562 16.15625-60.46875 37.34375-65.324218 2.214844-.601563 4.5-.898438 6.796875-.882813 10.484375.367188 20.269531 5.34375 26.746093 13.59375 11.820313 14.941407 17.980469 33.574219 17.390626 52.613281zm0 0" fill="#f0c419"/><path d="m155.132812 147.703125c-8.058593 18.632813-25 31.925781-45.019531 35.308594-14.742187 3.164062-29.769531 4.792969-44.84375 4.855469-8.886719.796874-17.769531-1.582032-25.070312-6.707032-8.5625-6.976562-11.125-18.097656-15.714844-27.632812-3.601563-6.972656-6.753906-14.164063-9.445313-21.539063-1.058593-2.910156-1.941406-5.914062-2.734374-9.003906-.796876-3.089844-1.324219-6.089844-1.855469-9.179687-1.949219-12.820313-1.589844-25.882813 1.058593-38.578126 1.121094-5.816406 2.777344-11.519531 4.945313-17.035156 3.457031-9.234375 8.085937-17.984375 13.769531-26.042968 6.207032-10.144532 13.265625-19.742188 21.097656-28.6875 2.179688-2.078126 5.273438-2.890626 8.191407-2.15625 2.921875.734374 5.257812 2.914062 6.199219 5.773437 5.878906 19.253906 15.441406 37.183594 28.160156 52.789063 8.144531 8.433593 17.238281 15.898437 27.097656 22.246093 10.066406 6.53125 20.480469 8.738281 27.71875 16.597657 6.496094 8.140624 9.792969 18.375 9.269531 28.777343.390625 6.855469-.566406 13.726563-2.824219 20.214844zm0 0" fill="#fdd7ad"/><path d="m501.617188 113.804688c-.582032 4.230468-1.4375 8.417968-2.5625 12.535156-.527344 1.855468-1.058594 3.707031-1.675782 5.5625-3.152344 8.988281-7.050781 17.699218-11.652344 26.039062-4.855468 9.003906-7.855468 19.511719-16.859374 25.335938-6.414063 3.554687-13.6875 5.265625-21.011719 4.945312-34.691407.703125-88.453125-10.066406-94.453125-51.554687-2.347656-13.449219 1.773437-27.214844 11.121094-37.164063 2.359374-2.359375 5.03125-4.378906 7.945312-6.003906 25.15625-14.300781 45.902344-26.480469 61.527344-52.082031 1.589844-2.558594 9.621094-24.539063 14.125-35.839844 1.042968-2.636719 3.292968-4.605469 6.042968-5.289063 2.75-.679687 5.660157.003907 7.816407 1.847657 16.523437 15.039062 28.589843 34.34375 34.867187 55.789062 1.75 5.636719 3.105469 11.390625 4.0625 17.214844 2.257813 12.769531 2.496094 25.816406.707032 38.664063zm0 0" fill="#fdd7ad"/><g fill="#7f6e5d"><path d="m82.921875 122.898438c-15.550781 6.871093-32.34375 10.476562-49.34375 10.589843-6.210937-.015625-12.40625-.515625-18.539063-1.5-1.058593-2.910156-1.941406-5.914062-2.734374-9.003906-.796876-3.089844-1.324219-6.089844-1.855469-9.179687 1.160156-.265626 2.367187-.265626 3.53125 0 20.921875 4.179687 42.632812 1.675781 62.058593-7.152344 4.433594-1.679688 9.402344.445312 11.253907 4.8125 1.851562 4.363281-.078125 9.414062-4.371094 11.433594zm0 0"/><path d="m55.117188 79.199219c-4.648438 1.15625-9.425782 1.71875-14.214844 1.679687-10.046875-.210937-19.984375-2.121094-29.394532-5.652344 1.121094-5.816406 2.777344-11.519531 4.945313-17.035156.085937 0 .175781.085938.261719.085938 10.746094 4.6875 22.65625 6.011718 34.164062 3.796875 4.644532-.960938 9.21875 1.921875 10.355469 6.523437 1.140625 4.605469-1.5625 9.285156-6.117187 10.601563zm0 0"/><path d="m501.617188 113.804688c-.582032 4.230468-1.4375 8.417968-2.5625 12.535156-.527344 1.855468-1.058594 3.707031-1.675782 5.5625-6.242187 1.054687-12.5625 1.585937-18.890625 1.585937-17-.113281-33.796875-3.71875-49.347656-10.589843-4.289063-2.019532-6.21875-7.070313-4.371094-11.433594 1.851563-4.367188 6.824219-6.492188 11.257813-4.8125 19.457031 8.835937 41.191406 11.335937 62.144531 7.152344 1.132813-.265626 2.3125-.265626 3.445313 0zm0 0"/><path d="m500.910156 75.140625c-9.5 3.652344-19.574218 5.59375-29.75 5.738281-4.789062.035156-9.5625-.53125-14.210937-1.679687-4.558594-1.316407-7.257813-5.996094-6.121094-10.601563 1.140625-4.601562 5.714844-7.484375 10.355469-6.523437 11.503906 2.207031 23.402344.914062 34.164062-3.707031.441406-.175782.972656-.265626 1.5-.441407 1.75 5.636719 3.105469 11.390625 4.0625 17.214844zm0 0"/></g><path d="m176.585938 282.5c.027343 12.03125-.621094 24.058594-1.945313 36.015625-5.117187-.441406-10.328125-.707031-15.710937-.707031-5.386719 0-10.59375.265625-15.714844.707031-1.324219-11.957031-1.972656-23.984375-1.941406-36.015625 0-43.875 7.945312-79.449219 17.65625-79.449219 9.710937 0 17.65625 35.574219 17.65625 79.449219zm0 0" fill="#2c2f38"/><path d="m370.792969 282.5c.027343 12.03125-.621094 24.058594-1.945313 36.015625-5.117187-.441406-10.328125-.707031-15.710937-.707031-5.386719 0-10.59375.265625-15.714844.707031-1.324219-11.957031-1.972656-23.984375-1.941406-36.015625 0-43.875 7.945312-79.449219 17.65625-79.449219 9.710937 0 17.65625 35.574219 17.65625 79.449219zm0 0" fill="#2c2f38"/><path d="m256.03125 353.121094c-4.875 0-8.828125-3.953125-8.828125-8.828125 0-9.75-7.902344-17.65625-17.652344-17.65625s-17.65625 7.90625-17.65625 17.65625c0 4.875-3.953125 8.828125-8.828125 8.828125s-8.828125-3.953125-8.828125-8.828125c0-19.5 15.808594-35.308594 35.3125-35.308594 19.5 0 35.308594 15.808594 35.308594 35.308594 0 4.875-3.953125 8.828125-8.828125 8.828125zm0 0" fill="#24ae5f"/><path d="m308.996094 353.121094c-4.875 0-8.824219-3.953125-8.824219-8.828125 0-9.75-7.90625-17.65625-17.65625-17.65625s-17.65625 7.90625-17.65625 17.65625c0 4.875-3.953125 8.828125-8.828125 8.828125s-8.828125-3.953125-8.828125-8.828125c0-19.5 15.8125-35.308594 35.3125-35.308594s35.308594 15.808594 35.308594 35.308594c0 4.875-3.949219 8.828125-8.828125 8.828125zm0 0" fill="#24ae5f"/><path d="m185.410156 406.085938c3.757813 18.320312 10.226563 35.980468 19.191406 52.390624.980469 1.605469 2.867188 2.410157 4.703126 2.015626 1.835937-.398438 3.21875-1.914063 3.445312-3.78125 1.828125-14.273438 7.574219-38.621094 25.601562-50.652344zm0 0" fill="#f5efca"/><path d="m326.652344 406.085938c-3.757813 18.320312-10.222656 35.980468-19.191406 52.390624-.976563 1.605469-2.863282 2.410157-4.699219 2.015626-1.835938-.398438-3.21875-1.914063-3.449219-3.78125-1.789062-14.246094-7.574219-38.59375-25.625-50.625zm0 0" fill="#f5efca"/><path d="m264.859375 44.242188v88.1875c0 4.875-3.953125 8.828124-8.828125 8.828124s-8.828125-3.953124-8.828125-8.828124v-88.1875c2.914063-.085938 5.917969-.085938 8.828125-.085938 2.914062 0 5.914062 0 8.828125.085938zm0 0" fill="#24ae5f"/><path d="m308.996094 46.980469v58.96875c0 4.875-3.949219 8.828125-8.824219 8.828125s-8.828125-3.953125-8.828125-8.828125v-59.851563c-.015625-.238281.015625-.480468.085938-.707031 5.914062.441406 11.742187.972656 17.566406 1.589844zm0 0" fill="#24ae5f"/><path d="m220.722656 46.183594v59.765625c0 4.875-3.953125 8.828125-8.828125 8.828125s-8.828125-3.953125-8.828125-8.828125v-58.882813c5.738282-.703125 11.652344-1.234375 17.566406-1.585937.074219.226562.105469.464843.089844.703125zm0 0" fill="#24ae5f"/><path d="m335.480469 414.914062h-158.894531c-24.367188-.03125-44.109376-19.773437-44.140626-44.136718 0-4.878906 3.953126-8.828125 8.828126-8.828125s8.828124 3.949219 8.828124 8.828125c0 14.625 11.855469 26.480468 26.484376 26.480468h158.894531c14.625 0 26.484375-11.855468 26.484375-26.480468 0-4.878906 3.949218-8.828125 8.828125-8.828125 4.875 0 8.824219 3.949219 8.824219 8.828125-.027344 24.363281-19.773438 44.105468-44.136719 44.136718zm0 0" fill="#802d40"/><path d="m150.101562 238.363281c0 9.75-7.90625 17.652344-17.65625 17.652344s-17.652343-7.902344-17.652343-17.652344c0-9.753906 7.902343-17.65625 17.652343-17.65625s17.65625 7.902344 17.65625 17.65625zm0 0" fill="#fff"/><path d="m344.308594 238.363281c0 9.75-7.90625 17.652344-17.65625 17.652344s-17.65625-7.902344-17.65625-17.652344c0-9.753906 7.90625-17.65625 17.65625-17.65625s17.65625 7.902344 17.65625 17.65625zm0 0" fill="#fff"/></svg>