<svg height="512pt" viewBox="-4 0 512 512.05896" width="512pt" xmlns="http://www.w3.org/2000/svg"><path d="m468.65625 512.058594h-433.898438c-10.523437-.011719-20.476562-4.796875-27.058593-13.011719-6.578125-8.21875-9.074219-18.976563-6.785157-29.25l58.488282-237.253906 22.390625-90.945313 5.816406-23.429687c9.675781-43.660157 48.394531-74.730469 93.113281-74.71875h141.972656c44.71875-.011719 83.433594 31.058593 93.113282 74.71875l5.8125 23.429687 22.390625 90.945313 58.488281 237.253906c2.289062 10.273437-.207031 21.03125-6.785156 29.25-6.578125 8.214844-16.53125 13-27.058594 13.011719zm0 0" fill="#894b9d"/><path d="m451.300781 512.058594h-416.542969c-10.523437-.011719-20.476562-4.796875-27.058593-13.011719-6.578125-8.21875-9.074219-18.976563-6.785157-29.25l58.488282-237.253906 22.390625-90.945313 5.816406-23.429687c9.675781-43.660157 48.394531-74.730469 93.113281-74.71875h124.613282c44.71875-.011719 83.4375 31.058593 93.117187 74.71875l5.8125 23.429687 22.390625 90.945313 58.488281 237.253906c2.289063 10.273437-.207031 21.03125-6.785156 29.25-6.578125 8.214844-16.53125 13-27.058594 13.011719zm0 0" fill="#955ba5"/><path d="m112.859375 188.890625c.09375 11.714844-4.488281 22.980469-12.730469 31.304687-8.242187 8.324219-19.464844 13.019532-31.179687 13.039063-24.320313 1.230469-47.144531-11.773437-58.488281-33.320313-2.808594-5.515624-4.964844-11.34375-6.421876-17.359374-2.839843-11.433594-4.179687-23.1875-3.992187-34.96875 0-3.300782.085937-6.511719.261719-9.632813v-.089844c.082031-5.800781.488281-11.597656 1.214844-17.355469 10.238281-94.589843 73.328124-110.988281 76.539062-111.683593-10.453125 27.761719-16.285156 57.046875-17.269531 86.691406 0 26.382813 19.265625 46.339844 34.363281 57.96875 11.082031 8.410156 17.625 21.496094 17.703125 35.40625zm0 0" fill="#fdd7ad"/><path d="m503.367188 147.585938c.191406 11.75-1.152344 23.476562-3.988282 34.882812v.085938c-1.460937 6.015624-3.613281 11.84375-6.421875 17.359374-11.347656 21.546876-34.167969 34.550782-58.492187 33.320313-11.714844-.019531-22.933594-4.714844-31.175782-13.039063-8.242187-8.324218-12.824218-19.589843-12.734374-31.304687.078124-13.910156 6.621093-26.996094 17.703124-35.40625 15.101563-11.628906 34.367188-31.585937 34.367188-57.96875-.984375-29.644531-6.820312-58.929687-17.269531-86.691406 3.210937.695312 66.296875 17.09375 76.539062 111.683593.722657 5.757813 1.128907 11.554688 1.214844 17.355469.171875 3.125.257813 6.421875.257813 9.722657zm0 0" fill="#fdd7ad"/><path d="m251.707031 69.484375c-4.238281-.007813-7.851562-3.074219-8.546875-7.257813-.207031-1.230468-4.84375-30.320312 10.484375-48.421874 8.25-9.351563 20.324219-14.414063 32.773438-13.7460942 4.792969 0 8.679687 3.8867182 8.679687 8.6796872s-3.886718 8.675781-8.679687 8.675781c-7.335938-.597656-14.539063 2.210938-19.539063 7.613282-10.023437 11.835937-6.648437 34.128906-6.613281 34.355468.78125 4.722657-2.40625 9.1875-7.125 9.976563-.472656.085937-.953125.125-1.433594.125zm0 0" fill="#894b9d"/><path d="m251.707031 69.484375c-4.121093-.003906-7.671875-2.90625-8.496093-6.945313-2.855469-20.867187-17.136719-38.386718-37-45.382812-4.617188-1.195312-7.410157-5.886719-6.25-10.511719 1.160156-4.625 5.832031-7.449219 10.464843-6.324219 26.414063 8.523438 45.710938 31.292969 49.785157 58.75.460937 2.253907.007812 4.601563-1.261719 6.519532-1.269531 1.921875-3.25 3.257812-5.503907 3.71875-.574218.121094-1.15625.179687-1.738281.175781zm0 0" fill="#894b9d"/><g fill="#7f6e5d"><path d="m67.734375 178.824219c-11.761719 14.664062-29.921875 22.691406-48.683594 21.523437-2.777343 0-5.640625-.175781-8.589843-.433594-2.808594-5.515624-4.964844-11.34375-6.421876-17.359374 1.164063-.421876 2.417969-.539063 3.644532-.34375 21.695312 2.863281 37.226562-1.824219 46.167968-13.800782 2.875-3.832031 8.3125-4.609375 12.148438-1.734375 3.832031 2.875 4.609375 8.316407 1.734375 12.148438zm0 0"/><path d="m43.351562 129.011719c.667969 4.746093-2.632812 9.136719-7.378906 9.808593-5.402344.777344-10.855468 1.183594-16.3125 1.214844-6.511718.046875-13.003906-.652344-19.351562-2.082031v-.089844c.082031-5.800781.488281-11.597656 1.214844-17.355469.464843.015626.929687.074219 1.386718.175782 10.046875 2.359375 20.460938 2.683594 30.632813.953125 4.734375-.628907 9.101562 2.652343 9.808593 7.375zm0 0"/><path d="m499.378906 182.46875v.085938c-1.460937 6.015624-3.613281 11.84375-6.421875 17.359374-2.953125.257813-5.816406.433594-8.59375.433594-18.765625 1.207032-36.941406-6.828125-48.683593-21.523437-1.859376-2.480469-2.253907-5.765625-1.035157-8.613281 1.214844-2.851563 3.863281-4.835938 6.941407-5.207032 3.078124-.371094 6.121093.925782 7.980468 3.40625 8.9375 11.976563 24.472656 16.578125 46.164063 13.800782 1.222656-.179688 2.464843-.09375 3.648437.257812zm0 0"/><path d="m503.109375 137.863281c-6.339844 1.503907-12.839844 2.234375-19.351563 2.171875-5.460937-.03125-10.910156-.4375-16.316406-1.214844-3.113281-.386718-5.773437-2.421874-6.964844-5.324218-1.1875-2.898438-.71875-6.21875 1.230469-8.675782 1.945313-2.460937 5.066407-3.675781 8.164063-3.183593 10.171875 1.730469 20.589844 1.40625 30.632812-.953125.457032-.101563.921875-.160156 1.390625-.175782.722657 5.757813 1.128907 11.554688 1.214844 17.355469zm0 0"/></g><path d="m251.707031 208.332031c0 38.339844-31.082031 69.421875-69.421875 69.421875-2.902344.003906-5.800781-.171875-8.679687-.519531-34.796875-4.285156-60.9375-33.84375-60.9375-68.902344 0-35.0625 26.140625-64.617187 60.9375-68.90625 2.878906-.347656 5.777343-.523437 8.679687-.519531 38.339844 0 69.421875 31.082031 69.421875 69.425781zm0 0" fill="#e6e7e8"/><path d="m234.351562 208.332031c0-38.054687-27.195312-68.90625-60.746093-68.90625-33.546875 0-60.746094 30.851563-60.746094 68.90625 0 38.050781 27.199219 68.902344 60.746094 68.902344 33.550781 0 60.746093-30.851563 60.746093-68.902344zm0 0" fill="#fff"/><path d="m390.554688 208.332031c0 38.339844-31.082032 69.421875-69.421876 69.421875-2.902343.003906-5.800781-.171875-8.679687-.519531-34.796875-4.285156-60.9375-33.84375-60.9375-68.902344 0-35.0625 26.140625-64.617187 60.9375-68.90625 2.878906-.347656 5.777344-.523437 8.679687-.519531 38.339844 0 69.421876 31.082031 69.421876 69.425781zm0 0" fill="#e6e7e8"/><path d="m373.199219 208.332031c0-38.054687-27.195313-68.90625-60.746094-68.90625-33.546875 0-60.746094 30.851563-60.746094 68.90625 0 38.050781 27.199219 68.902344 60.746094 68.902344 33.550781 0 60.746094-30.851563 60.746094-68.902344zm0 0" fill="#fff"/><path d="m216.996094 208.332031c0 19.167969-15.542969 34.710938-34.710938 34.710938-19.171875 0-34.710937-15.542969-34.710937-34.710938 0-19.171875 15.539062-34.714843 34.710937-34.714843 19.167969 0 34.710938 15.542968 34.710938 34.714843zm0 0" fill="#f0c419"/><path d="m355.84375 208.332031c0 19.167969-15.542969 34.710938-34.710938 34.710938-19.171874 0-34.714843-15.542969-34.714843-34.710938 0-19.171875 15.542969-34.714843 34.714843-34.714843 19.167969 0 34.710938 15.542968 34.710938 34.714843zm0 0" fill="#f0c419"/><path d="m199.640625 208.332031c0 9.582031-7.769531 17.355469-17.355469 17.355469-9.585937 0-17.355468-7.773438-17.355468-17.355469 0-9.585937 7.769531-17.359375 17.355468-17.359375 9.585938 0 17.355469 7.773438 17.355469 17.359375zm0 0" fill="#2c2f38"/><path d="m338.488281 208.332031c0 9.582031-7.769531 17.355469-17.355469 17.355469-9.585937 0-17.355468-7.773438-17.355468-17.355469 0-9.585937 7.769531-17.359375 17.355468-17.359375 9.585938 0 17.355469 7.773438 17.355469 17.359375zm0 0" fill="#2c2f38"/><path d="m251.707031 312.464844v26.035156c0 14.378906-11.65625 26.035156-26.03125 26.035156-14.378906 0-26.035156-11.65625-26.035156-26.035156v-18.398438c16.851563-5.246093 34.417969-7.824218 52.066406-7.636718zm0 0" fill="#f5efca"/><path d="m303.777344 320.101562v18.398438c0 14.378906-11.65625 26.035156-26.035156 26.035156-14.378907 0-26.035157-11.65625-26.035157-26.035156v-26.035156c17.648438-.1875 35.21875 2.390625 52.070313 7.636718zm0 0" fill="#f5efca"/><path d="m269.0625 407.921875h-34.710938c-4.792968 0-8.675781-3.882813-8.675781-8.675781 0-4.792969 3.882813-8.679688 8.675781-8.679688h34.710938c4.792969 0 8.679688 3.886719 8.679688 8.679688 0 4.792968-3.886719 8.675781-8.679688 8.675781zm0 0" fill="#894b9d"/><path d="m95.503906 477.347656h-.492187c-2.304688-.128906-4.460938-1.164062-5.996094-2.886718-1.535156-1.71875-2.320313-3.976563-2.1875-6.277344.066406-1.222656 8.027344-123.574219 110.148437-156.34375 17.714844-5.503906 36.179688-8.222656 54.730469-8.050782 18.550781-.167968 37.011719 2.546876 54.722657 8.050782 102.125 32.734375 110.074218 155.09375 110.160156 156.34375.132812 2.300781-.65625 4.558594-2.191406 6.277344-1.535157 1.722656-3.691407 2.757812-5.992188 2.886718-4.777344.230469-8.859375-3.410156-9.171875-8.183594-.070313-1.121093-7.464844-111.703124-98.132813-140.800781-15.988281-4.953125-32.652343-7.386719-49.394531-7.21875-16.746093-.171875-33.414062 2.265625-49.410156 7.21875-90.894531 29.167969-98.070313 139.671875-98.113281 140.792969-.257813 4.601562-4.070313 8.199219-8.679688 8.191406zm0 0" fill="#802d40"/><path d="m182.285156 182.296875c0 9.585937-7.769531 17.355469-17.355468 17.355469-9.585938 0-17.355469-7.769532-17.355469-17.355469s7.769531-17.355469 17.355469-17.355469c9.585937 0 17.355468 7.769532 17.355468 17.355469zm0 0" fill="#fff"/><path d="m321.132812 182.296875c0 9.585937-7.773437 17.355469-17.355468 17.355469-9.585938 0-17.359375-7.769532-17.359375-17.355469s7.773437-17.355469 17.359375-17.355469c9.582031 0 17.355468 7.769532 17.355468 17.355469zm0 0" fill="#fff"/></svg>