<svg height="512pt" viewBox="0 0 512.12443 512" width="512pt" xmlns="http://www.w3.org/2000/svg"><path d="m459.140625 406.148438c0 82.890624-90.921875 105.929687-203.035156 105.929687-2.46875 0-4.851563 0-7.238281-.089844-1.058594 0-2.117188.089844-3.175782 0-107.257812-1.410156-192.617187-25.511719-192.617187-105.839843.152343-13.9375 2.382812-27.773438 6.621093-41.050782l178.582032-152.1875c2.910156-.261718 5.824218-.527344 8.824218-.703125h.265626c2.914062-.179687 5.828124-.265625 8.738281-.265625 5.929687.007813 11.851562.332032 17.746093.96875l178.582032 152.101563v.085937c4.304687 13.265625 6.566406 27.105469 6.707031 41.050782zm0 0" fill="#2c3e50"/><path d="m441.488281 406.148438c0 80.328124-85.363281 104.429687-192.621093 105.839843-1.058594 0-2.117188.089844-3.175782 0-107.257812-1.410156-192.617187-25.511719-192.617187-105.839843.152343-13.9375 2.382812-27.773438 6.621093-41.050782l178.582032-152.1875c2.910156-.261718 5.824218-.527344 8.824218-.703125h.265626c3.003906.175781 32.308593.441407 35.222656.703125l152.1875 152.101563v.085937c4.304687 13.265625 6.566406 27.105469 6.710937 41.050782zm0 0" fill="#35495e"/><path d="m220.796875 423.800781c9.75 0 17.65625 7.90625 17.65625 17.65625v26.484375h-35.3125v-26.484375c0-9.75 7.90625-17.65625 17.65625-17.65625zm0 0" fill="#f5efca"/><path d="m229.191406 254.144531-130.082031 115.632813c-5.621094 4.960937-13.070313 7.324218-20.523437 6.5-7.449219-.820313-14.207032-4.75-18.609376-10.816406-29.230468-37.941407-48.804687-82.417969-57.042968-129.597657h-.089844c-19.507812-124.644531 67.179688-213.980469 88.277344-233.402343 2.691406-2.5195318 6.660156-3.113282 9.972656-1.5 136.308594 67.859374 139.351562 196.300781 136.945312 234.980468-.425781 7-3.605468 13.546875-8.847656 18.203125zm0 0" fill="#2c3e50"/><path d="m282.917969 254.144531c-5.234375-4.65625-8.410157-11.199219-8.828125-18.191406-2.417969-38.683594.589844-167.132813 136.933594-234.949219 3.285156-1.640625 7.242187-1.0781248 9.9375 1.414063 27.898437 25.714843 170.101562 173.285156 31.25 362.988281-4.386719 6.09375-11.144532 10.046875-18.605469 10.886719-7.460938.839843-14.925781-1.511719-20.5625-6.472657zm0 0" fill="#2c3e50"/><path d="m141.347656 194.285156c-50.492187 75.652344-100.898437 70.269532-138.414062 41.578125h-.089844c-15.449219-98.515625 35.574219-175.050781 67.972656-212.304687 45.816406 31.164062 119.347656 97.457031 70.53125 170.726562zm0 0" fill="#ff5364"/><path d="m509.28125 235.773438c-37.605469 28.78125-88.097656 34.339843-138.679688-41.488282-48.816406-73.179687 24.804688-139.476562 70.707032-170.636718 32.488281 37.339843 83.332031 113.699218 67.972656 212.125zm0 0" fill="#ff5364"/><path d="m256.105469 335.527344c0 34.125-27.664063 61.792968-61.792969 61.792968-2.957031.035157-5.910156-.203124-8.824219-.707031-30.382812-4.363281-52.941406-30.390625-52.941406-61.085937 0-30.695313 22.558594-56.722656 52.941406-61.085938 2.914063-.507812 5.867188-.742187 8.824219-.707031 34.128906 0 61.792969 27.664063 61.792969 61.792969zm0 0" fill="#e6e7e8"/><path d="m238.453125 335.527344c.042969 30.71875-22.550781 56.777344-52.964844 61.085937-30.382812-4.363281-52.941406-30.390625-52.941406-61.085937 0-30.695313 22.558594-56.722656 52.941406-61.085938 30.414063 4.308594 53.007813 30.367188 52.964844 61.085938zm0 0" fill="#fff"/><path d="m379.695312 335.527344c0 34.125-27.667968 61.792968-61.796874 61.792968-2.957032.035157-5.910157-.203124-8.824219-.707031-30.382813-4.363281-52.941407-30.390625-52.941407-61.085937 0-30.695313 22.558594-56.722656 52.941407-61.085938 2.914062-.507812 5.867187-.742187 8.824219-.707031 34.128906 0 61.796874 27.664063 61.796874 61.792969zm0 0" fill="#e6e7e8"/><path d="m362.039062 335.527344c.042969 30.71875-22.550781 56.777344-52.964843 61.085937-30.382813-4.363281-52.941407-30.390625-52.941407-61.085937 0-30.695313 22.558594-56.722656 52.941407-61.085938 30.414062 4.308594 53.007812 30.367188 52.964843 61.085938zm0 0" fill="#fff"/><path d="m229.625 335.527344c0 19.5-15.808594 35.308594-35.3125 35.308594-19.5 0-35.308594-15.808594-35.308594-35.308594 0-19.503906 15.808594-35.3125 35.308594-35.3125 19.503906 0 35.3125 15.808594 35.3125 35.3125zm0 0" fill="#cc66a1"/><path d="m353.210938 335.527344c0 19.5-15.808594 35.308594-35.3125 35.308594-19.5 0-35.308594-15.808594-35.308594-35.308594 0-19.503906 15.808594-35.3125 35.308594-35.3125 19.503906 0 35.3125 15.808594 35.3125 35.3125zm0 0" fill="#cc66a1"/><path d="m211.96875 335.527344c0 9.75-7.902344 17.65625-17.65625 17.65625-9.75 0-17.652344-7.90625-17.652344-17.65625s7.902344-17.65625 17.652344-17.65625c9.753906 0 17.65625 7.90625 17.65625 17.65625zm0 0" fill="#2c2f38"/><path d="m335.554688 335.527344c0 9.75-7.902344 17.65625-17.65625 17.65625-9.75 0-17.652344-7.90625-17.652344-17.65625s7.902344-17.65625 17.652344-17.65625c9.753906 0 17.65625 7.90625 17.65625 17.65625zm0 0" fill="#2c2f38"/><path d="m309.074219 476.769531h-105.933594c-24.363281-.03125-44.109375-19.773437-44.136719-44.140625 0-4.875 3.953125-8.828125 8.828125-8.828125s8.828125 3.953125 8.828125 8.828125c0 14.628906 11.855469 26.484375 26.480469 26.484375h105.933594c14.625 0 26.480469-11.855469 26.480469-26.484375 0-4.875 3.953124-8.828125 8.828124-8.828125s8.828126 3.953125 8.828126 8.828125c-.03125 24.367188-19.773438 44.109375-44.136719 44.140625zm0 0" fill="#802d40"/><g fill="#fff"><path d="m194.3125 317.871094c0 9.75-7.902344 17.65625-17.652344 17.65625s-17.65625-7.90625-17.65625-17.65625 7.90625-17.65625 17.65625-17.65625 17.652344 7.90625 17.652344 17.65625zm0 0"/><path d="m317.898438 317.871094c0 9.75-7.902344 17.65625-17.652344 17.65625s-17.65625-7.90625-17.65625-17.65625 7.90625-17.65625 17.65625-17.65625 17.652344 7.90625 17.652344 17.65625zm0 0"/></g></svg>