<svg height="512pt" viewBox="0 0 512.00036 512" width="512pt" xmlns="http://www.w3.org/2000/svg"><path d="m29.050003 11.999956h-.100006" fill="none" stroke="#000" stroke-linecap="round" stroke-linejoin="round" stroke-width="2" transform="matrix(8.827586 0 0 8.827586 0 -.024397)"/><path d="m35.308594 105.90625h441.382812c19.5 0 35.308594 15.808594 35.308594 35.3125v176.550781c0 19.5-15.808594 35.308594-35.308594 35.308594h-441.382812c-19.5 0-35.308594-15.808594-35.308594-35.308594v-176.550781c0-19.503906 15.808594-35.3125 35.308594-35.3125zm0 0" fill="#c03a2b"/><path d="m35.308594 105.90625h423.726562c19.5 0 35.308594 15.808594 35.308594 35.3125v176.550781c0 19.5-15.808594 35.308594-35.308594 35.308594h-423.726562c-19.5 0-35.308594-15.808594-35.308594-35.308594v-176.550781c0-19.503906 15.808594-35.3125 35.308594-35.3125zm0 0" fill="#e64c3c"/><path d="m256 97.078125c.015625 25.757813-10.210938 50.464844-28.425781 68.679687-18.214844 18.210938-42.921875 28.4375-68.675781 28.425782-3.089844 0-6.09375-.175782-9.09375-.441406-41.679688-3.878907-76.171876-34.058594-85.539063-74.859376 17.300781-26.128906 59.144531-67.265624 154.480469-80.242187 5.210937-.707031 10.683594-1.324219 16.246094-1.855469 13.640624 17.132813 21.046874 38.394532 21.007812 60.292969zm0 0" fill="#e6e7e8"/><path d="m238.34375 97.078125c.03125 50.3125-38.417969 92.289063-88.539062 96.664063-41.679688-3.878907-76.171876-34.058594-85.539063-74.859376 17.300781-26.128906 59.144531-67.265624 154.480469-80.242187 12.753906 16.808594 19.636718 37.339844 19.597656 58.4375zm0 0" fill="#fff"/><path d="m447.734375 118.882812c-9.367187 40.800782-43.859375 70.980469-85.539063 74.859376-3 .265624-6.003906.441406-9.09375.441406-37.234374-.011719-71.1875-21.3125-87.398437-54.839844-16.207031-33.523438-11.816406-73.367188 11.304687-102.558594 5.5625.53125 11.035157 1.148438 16.246094 1.855469 95.335938 12.976563 137.179688 54.113281 154.480469 80.242187zm0 0" fill="#e6e7e8"/><path d="m447.734375 118.882812c-9.367187 40.800782-43.859375 70.980469-85.539063 74.859376-35.144531-3.078126-65.847656-24.996094-80.175781-57.234376-14.332031-32.238281-10.03125-69.714843 11.234375-97.867187 95.335938 12.976563 137.179688 54.113281 154.480469 80.242187zm0 0" fill="#fff"/><path d="m211.863281 97.078125c0 29.253906-23.714843 52.964844-52.964843 52.964844-29.253907 0-52.96875-23.710938-52.96875-52.964844 0-29.25 23.714843-52.964844 52.96875-52.964844 29.25 0 52.964843 23.714844 52.964843 52.964844zm0 0" fill="#67b9cc"/><path d="m406.070312 97.078125c0 29.253906-23.714843 52.964844-52.96875 52.964844-29.25 0-52.964843-23.710938-52.964843-52.964844 0-29.25 23.714843-52.964844 52.964843-52.964844 29.253907 0 52.96875 23.714844 52.96875 52.964844zm0 0" fill="#67b9cc"/><path d="m194.207031 97.078125c0 19.503906-15.808593 35.3125-35.308593 35.3125-19.503907 0-35.3125-15.808594-35.3125-35.3125 0-19.5 15.808593-35.308594 35.3125-35.308594 19.5 0 35.308593 15.808594 35.308593 35.308594zm0 0" fill="#2c2f38"/><path d="m388.414062 97.078125c0 19.503906-15.808593 35.3125-35.3125 35.3125-19.5 0-35.308593-15.808594-35.308593-35.3125 0-19.5 15.808593-35.308594 35.308593-35.308594 19.503907 0 35.3125 15.808594 35.3125 35.308594zm0 0" fill="#2c2f38"/><g fill="#f0c419"><path d="m70.621094 238.320312c0 19.5-15.808594 35.308594-35.3125 35.308594-19.5 0-35.308594-15.808594-35.308594-35.308594s15.808594-35.308593 35.308594-35.308593c19.503906 0 35.3125 15.808593 35.3125 35.308593zm0 0"/><path d="m512 264.804688c.089844 25.109374-17.398438 46.855468-41.941406 52.15625-24.546875 5.296874-49.449219-7.300782-59.722656-30.210938-10.277344-22.914062-3.117188-49.886719 17.164062-64.691406 20.28125-14.804688 48.15625-13.398438 66.84375 3.375 11.257812 9.984375 17.6875 24.320312 17.65625 39.371094zm0 0"/><path d="m308.964844 255.976562c0 14.625-11.855469 26.480469-26.480469 26.480469-14.628906 0-26.484375-11.855469-26.484375-26.480469 0-14.628906 11.855469-26.484374 26.484375-26.484374 14.625 0 26.480469 11.855468 26.480469 26.484374zm0 0"/></g><path d="m476.691406 353.078125v123.585937c0 19.503907-15.8125 35.3125-35.3125 35.3125h-17.65625c19.503906 0 35.3125-15.808593 35.3125-35.3125v-123.585937zm0 0" fill="#802f34"/><path d="m459.035156 353.078125v123.585937c0 19.503907-15.808594 35.3125-35.3125 35.3125h-353.101562c-19.5 0-35.3125-15.808593-35.3125-35.3125v-123.585937h44.140625c18.359375 0 45.371093-25.597656 80.859375-35.222656 5.644531-1.621094 11.445312-2.65625 17.300781-3.089844 10.988281-1.179687 22.097656-.28125 32.753906 2.648437.507813.078126 1.007813.195313 1.5.355469 24.621094 6.601563 48.015625 17.125 69.296875 31.160157h.085938c1.589844.839843 3.242187 1.546874 4.945312 2.117187 9.003906 3.003906 18.800782 1.148437 43.164063-9.089844 4.503906-1.941406 9.449219-4.0625 14.921875-6.53125 3.238281-1.460937 6.648437-2.5 10.148437-3.089843 29.839844-5.652344 57.824219 20.742187 86.953125 20.742187zm0 0" fill="#c03a2b"/><path d="m344.277344 370.734375c-.019532 15.445313-10.078125 29.089844-24.828125 33.675781-14.75 4.585938-30.769531-.949218-39.542969-13.660156-8.777344-12.714844-8.269531-29.65625 1.253906-41.820312h.085938c10.769531 5.5625 19.246094 5.121093 48.109375-6.972657 9.363281 6.589844 14.929687 17.328125 14.921875 28.777344zm0 0" fill="#f0c419"/><path d="m185.378906 423.699219c-29.308594 0-50.492187-25.421875-42.371094-50.933594l17.300782-54.910156c16.332031-4.710938 33.640625-4.863281 50.054687-.441407l17.386719 55.351563c8.125 25.511719-13.0625 50.933594-42.371094 50.933594zm0 0" fill="#df4d60"/><path d="m185.378906 406.042969c-24.585937 0-42.371094-21.324219-35.539062-42.722657l14.511718-46.054687c13.699219-3.953125 28.21875-4.082031 41.984376-.371094l14.582031 46.425781c6.832031 21.398438-10.953125 42.722657-35.539063 42.722657zm0 0" fill="#ff5364"/><path d="m441.378906 476.664062c.027344 13.054688-4.820312 25.648438-13.59375 35.3125h-78.742187c-8.773438-9.664062-13.625-22.257812-13.59375-35.3125 0-29.25 23.710937-52.964843 52.964843-52.964843 29.25 0 52.964844 23.714843 52.964844 52.964843zm0 0" fill="#f0c419"/><path d="m88.277344 450.183594c0 14.625-11.859375 26.480468-26.484375 26.480468s-26.484375-11.855468-26.484375-26.480468c0-14.628906 11.859375-26.484375 26.484375-26.484375s26.484375 11.855469 26.484375 26.484375zm0 0" fill="#f0c419"/><path d="m247.171875 485.492188c0 14.625-11.855469 26.484374-26.480469 26.484374-14.628906 0-26.484375-11.859374-26.484375-26.484374s11.855469-26.480469 26.484375-26.480469c14.625 0 26.480469 11.855469 26.480469 26.480469zm0 0" fill="#f0c419"/><path d="m234.992188 36.785156c-106.902344 10.242188-152.453126 54.554688-170.726563 82.097656-1.636719-7.152343-2.464844-14.464843-2.472656-21.804687.011719-41.3125 26.164062-78.09375 65.179687-91.675781 39.015625-13.582032 82.355469-.988282 108.019532 31.382812zm0 0" fill="#e64c3c"/><path d="m450.207031 97.078125c-.007812 7.339844-.835937 14.652344-2.472656 21.804687-18.273437-27.542968-63.824219-71.855468-170.726563-82.097656 25.664063-32.371094 69.003907-44.964844 108.019532-31.382812 39.015625 13.582031 65.167968 50.363281 65.179687 91.675781zm0 0" fill="#e64c3c"/><path d="m150.070312 132.390625c0 14.625-11.859374 26.480469-26.484374 26.480469s-26.484376-11.855469-26.484376-26.480469c0-14.628906 11.859376-26.484375 26.484376-26.484375s26.484374 11.855469 26.484374 26.484375zm0 0" fill="#fff"/><path d="m344.277344 132.390625c0 14.625-11.859375 26.480469-26.484375 26.480469s-26.484375-11.855469-26.484375-26.480469c0-14.628906 11.859375-26.484375 26.484375-26.484375s26.484375 11.855469 26.484375 26.484375zm0 0" fill="#fff"/><path d="m512 264.804688c.03125 15.046874-6.398438 29.382812-17.65625 39.371093v-78.742187c11.257812 9.984375 17.6875 24.320312 17.65625 39.371094zm0 0" fill="#f29c1f"/></svg>