<svg height="512pt" viewBox="0 -4 512 512" width="512pt" xmlns="http://www.w3.org/2000/svg"><path d="m512 370.757812c0 16.332032-12.886719 31.605469-35.308594 44.757813l-70.621094 26.746094c-11.125 2.824219-22.953124 5.296875-35.3125 7.328125l-70.621093 8.121094c-14.300781.882812-29.128907 1.324218-44.136719 1.324218-2.117188 0-4.324219 0-6.445312-.089844-1.585938 0-3.175782.089844-4.765626 0-11.210937-.175781-22.15625-.617187-32.925781-1.234374l-70.621093-8.121094c-12.359376-2.03125-24.1875-4.503906-35.3125-7.328125l-70.621094-26.746094c-22.421875-13.152344-35.308594-28.425781-35.308594-44.757813 0-26.480468 33.808594-50.226562 87.304688-66.292968 13.589843-4.105469 27.378906-7.523438 41.3125-10.242188 30.613281-5.929687 61.625-9.558594 92.777343-10.855468l40.167969-.53125 12.445312-.175782c34.734376.722656 69.355469 4.175782 103.546876 10.328125 12.359374 2.382813 24.101562 5.03125 35.136718 8.03125 60.46875 16.066407 99.308594 41.402344 99.308594 69.738281zm0 0" fill="#f29c1f"/><path d="m494.34375 370.757812c0 16.332032-12.886719 31.605469-35.308594 44.757813l-70.621094 26.746094c-11.121093 2.824219-22.953124 5.296875-35.3125 7.328125l-70.617187 8.121094c-10.769531.617187-21.71875 1.058593-32.929687 1.234374-1.585938 0-3.175782.089844-4.765626 0-11.210937-.175781-22.15625-.617187-32.925781-1.234374l-70.621093-8.121094c-12.359376-2.03125-24.1875-4.503906-35.3125-7.328125l-70.621094-26.746094c-22.421875-13.152344-35.308594-28.425781-35.308594-44.757813 0-26.480468 33.808594-50.226562 87.304688-66.292968 13.589843-4.105469 27.378906-7.523438 41.3125-10.242188 30.613281-5.929687 61.625-9.558594 92.777343-10.855468l40.167969-.53125c32.988281.898437 65.863281 4.292968 98.339844 10.152343 12.355468 2.382813 24.097656 5.03125 35.132812 8.03125 60.46875 16.066407 99.308594 41.402344 99.308594 69.738281zm0 0" fill="#f0c419"/><g fill="#f29c1f"><path d="m105.929688 427.132812v40.730469c0 19.5-15.808594 35.308594-35.308594 35.308594s-35.3125-15.808594-35.3125-35.308594v-53.972656c.003906-5.785156 2.839844-11.203125 7.59375-14.5 4.753906-3.300781 10.824218-4.058594 16.242187-2.035156l35.3125 13.242187c6.898438 2.578125 11.472657 9.167969 11.472657 16.535156zm0 0"/><path d="m211.863281 448.140625v19.722656c0 19.5-15.808593 35.308594-35.3125 35.308594-19.5 0-35.308593-15.808594-35.308593-35.308594v-24.136719c0-5.0625 2.171874-9.882812 5.96875-13.238281 3.796874-3.351562 8.847656-4.910156 13.875-4.28125l35.308593 4.410157c8.839844 1.105468 15.46875 8.617187 15.46875 17.523437zm0 0"/><path d="m370.757812 443.726562v24.136719c0 19.5-15.808593 35.308594-35.308593 35.308594-19.503907 0-35.3125-15.808594-35.3125-35.308594v-19.722656c0-8.90625 6.628906-16.417969 15.46875-17.523437l35.308593-4.410157c5.027344-.628906 10.078126.929688 13.875 4.28125 3.796876 3.355469 5.96875 8.175781 5.96875 13.238281zm0 0"/><path d="m476.691406 413.890625v53.972656c0 19.5-15.8125 35.308594-35.3125 35.308594s-35.308594-15.808594-35.308594-35.308594v-40.730469c0-7.367187 4.574219-13.957031 11.472657-16.535156l35.3125-13.242187c5.417969-2.023438 11.488281-1.265625 16.242187 2.035156 4.753906 3.296875 7.589844 8.714844 7.59375 14.5zm0 0"/></g><path d="m414.984375 46.167969-16.949219 19.070312c5.511719 13.25 8.246094 27.492188 8.035156 41.839844-1.070312 56.085937-45.320312 101.800781-101.34375 104.695313-3.972656.179687-7.953124.089843-11.914062-.265626-5.050781-.265624-10.070312-.945312-15.007812-2.027343-.089844.703125-.265626 1.324219-.355469 2.027343-5.15625 31.21875-5.542969 63.035157-1.144531 94.367188 1.070312 7.445312-1.148438 14.988281-6.078126 20.664062-4.933593 5.679688-12.089843 8.929688-19.613281 8.910157-12.632812-.046875-23.4375-9.105469-25.6875-21.539063-7.164062-42.667968-5.296875-86.363281 5.472657-128.265625-33.246094-29.109375-44.960938-75.785156-29.394532-117.140625l-19.863281-22.335937c-4.6875-5.242188-7.097656-12.132813-6.703125-19.152344.398438-7.023437 3.574219-13.597656 8.824219-18.277344 2.871093-2.566406 6.277343-4.464843 9.972656-5.558593 2.457031-.777344 5.019531-1.164063 7.59375-1.148438 7.570313-.023438 14.777344 3.226562 19.773437 8.914062l5.824219 6.535157 6.09375 6.796875c17.039063-14.089844 38.058594-22.484375 60.113281-24.011719 2.472657-.1757812 4.945313-.265625 7.503907-.265625 19.628906-.0625 38.875 5.414062 55.527343 15.800781 3.347657 1.964844 6.5625 4.144531 9.621094 6.535157l10.152344-11.390626c4.628906-5.300781 11.199219-8.511718 18.222656-8.910156 7.027344-.398437 13.917969 2.050782 19.117188 6.792969 5.265625 4.648437 8.457031 11.203125 8.871094 18.210937.414062 7.011719-1.984376 13.894532-6.664063 19.128907zm0 0" fill="#e57e25"/><path d="m399.535156 46.167969-16.949218 19.070312c5.511718 13.25 8.246093 27.492188 8.035156 41.839844-1.027344 54.730469-43.265625 99.828125-97.808594 104.429687-1.148438.179688-2.386719.179688-3.53125.265626-3.945312.179687-7.898438.089843-11.832031-.265626-5.074219-.273437-10.125-.949218-15.09375-2.027343-5.476563 31.859375-5.980469 64.378906-1.5 96.394531.171875 1.171875.261719 2.351562.265625 3.53125-.019532 11.402344-7.464844 21.460938-18.363282 24.808594-9.308593-2.84375-16.214843-10.707032-17.832031-20.304688-7.164062-42.667968-5.296875-86.363281 5.472657-128.265625-33.246094-29.109375-44.960938-75.785156-29.394532-117.140625l-19.863281-22.335937c-4.6875-5.242188-7.097656-12.132813-6.703125-19.152344.398438-7.023437 3.574219-13.597656 8.824219-18.277344 2.871093-2.566406 6.277343-4.464843 9.972656-5.558593 4.605469 1.460937 8.722656 4.144531 11.917969 7.765624l11.917968 13.332032c2.964844-2.472656 6.089844-4.742188 9.355469-6.796875l6.09375 6.796875c17.039063-14.089844 38.058594-22.484375 60.113281-24.011719 20.84375 1.492187 40.761719 9.175781 57.203126 22.070313l5.828124-6.535157c3.347657 1.964844 6.5625 4.144531 9.621094 6.535157l10.152344-11.390626c3.195312-3.621093 7.316406-6.304687 11.917969-7.765624 3.691406 1.140624 7.09375 3.066406 9.972656 5.648437 5.265625 4.648437 8.457031 11.203125 8.871094 18.210937.414062 7.011719-1.984375 13.894532-6.664063 19.128907zm0 0" fill="#f29c1f"/><path d="m388.414062 105.929688c0 23.414062-9.300781 45.867187-25.855468 62.421874-16.554688 16.554688-39.007813 25.855469-62.421875 25.855469-2.910157 0-5.824219-.175781-8.648438-.441406h-.355469c-45.113281-4.527344-79.457031-42.496094-79.457031-87.835937 0-45.335938 34.34375-83.304688 79.457031-87.832032h.355469c2.824219-.265625 5.738281-.441406 8.648438-.441406 48.753906 0 88.277343 39.523438 88.277343 88.273438zm0 0" fill="#e6e7e8"/><path d="m370.757812 105.929688c.011719 45.277343-34.234374 83.21875-79.269531 87.835937h-.355469c-45.113281-4.527344-79.457031-42.496094-79.457031-87.835937 0-45.335938 34.34375-83.304688 79.457031-87.832032h.355469c45.035157 4.617188 79.28125 42.558594 79.269531 87.832032zm0 0" fill="#fff"/><path d="m353.101562 105.929688c0 29.253906-23.710937 52.96875-52.964843 52.96875-29.25 0-52.964844-23.714844-52.964844-52.96875 0-29.25 23.714844-52.964844 52.964844-52.964844 29.253906 0 52.964843 23.714844 52.964843 52.964844zm0 0" fill="#d25627"/><path d="m326.621094 105.929688c0 14.628906-11.855469 26.484374-26.484375 26.484374-14.625 0-26.480469-11.855468-26.480469-26.484374 0-14.625 11.855469-26.480469 26.480469-26.480469 14.628906 0 26.484375 11.855469 26.484375 26.480469zm0 0" fill="#2c2f38"/><path d="m150.070312 326.621094c.019532 15.527344-10.105468 29.25-24.949218 33.804687-14.847656 4.558594-30.925782-1.121093-39.621094-13.984375-8.691406-12.867187-7.960938-29.902344 1.804688-41.976562 13.589843-4.105469 27.378906-7.523438 41.3125-10.242188 13.023437 5.496094 21.476562 18.265625 21.453124 32.398438zm0 0" fill="#c03a2b"/><path d="m423.722656 326.621094c-.015625 18.074218-13.679687 33.21875-31.660156 35.085937-17.976562 1.871094-34.464844-10.140625-38.199219-27.824219-3.730469-17.6875 6.492188-35.335937 23.691407-40.894531 12.359374 2.382813 24.101562 5.03125 35.136718 8.03125 7.042969 6.652344 11.035156 15.914063 11.03125 25.601563zm0 0" fill="#c03a2b"/><path d="m300.136719 70.621094c0 14.625-11.855469 26.484375-26.480469 26.484375-14.628906 0-26.484375-11.859375-26.484375-26.484375s11.855469-26.484375 26.484375-26.484375c14.625 0 26.480469 11.859375 26.480469 26.484375zm0 0" fill="#fff"/></svg>