<svg height="504pt" viewBox="0 0 504 504.90053" width="504pt" xmlns="http://www.w3.org/2000/svg"><path d="m503.773438 312.40625c0 85.304688-42.4375 137.804688-107.347657 165.574219l-57.449219 17.445312h-.085937c-28.597656 5.457031-57.664063 8.101563-86.78125 7.894531-1.992187 0-3.988281 0-5.984375-.085937h-.347656c-136.070313-1.5625-245.328125-53.976563-245.328125-190.828125 0-70.289062 28.8125-149.433594 75.238281-210.441406l73.9375-69.855469c27.914062-18.707031 60.277344-29.691406 93.808594-31.847656 2.863281-.1757815 5.8125-.261719 8.675781-.261719 36.550781.566406 72.148437 11.722656 102.488281 32.109375l73.9375 69.855469c46.425782 61.007812 75.238282 140.152344 75.238282 210.441406zm0 0" fill="#90bae1"/><path d="m486.417969 312.40625c0 85.304688-42.4375 137.804688-107.347657 165.574219l-57.449218 17.445312h-.085938c-24.867187 4.761719-50.097656 7.375-75.410156 7.808594h-.347656c-136.070313-1.5625-245.328125-53.976563-245.328125-190.828125 0-70.289062 28.8125-149.433594 75.238281-210.441406l73.9375-69.855469c27.914062-18.707031 60.277344-29.691406 93.808594-31.847656 33.53125 2.15625 65.894531 13.140625 93.808594 31.847656l73.9375 69.855469c46.425781 61.007812 75.238281 140.152344 75.238281 210.441406zm0 0" fill="#b0d3f0"/><path d="m241.523438 433.898438h-67.515626c-23.949218-.027344-43.359374-19.4375-43.386718-43.390626 0-4.792968 3.882812-8.675781 8.675781-8.675781s8.679687 3.882813 8.679687 8.675781c0 14.378907 11.65625 26.035157 26.03125 26.035157h67.515626c4.792968 0 8.679687 3.882812 8.679687 8.675781s-3.886719 8.679688-8.679687 8.679688zm0 0" fill="#802d40"/><path d="m208.632812 273.617188v.085937c-.085937 2.777344-.171874 6.160156-.171874 9.980469v.257812c-.695313 49.292969 3.644531 175.296875 130.429687 211.484375h.085937c19.503907 5.433594 39.566407 8.609375 59.792969 9.457031 3.378907.210938 6.574219-1.570312 8.175781-4.550781 1.605469-2.984375 1.324219-6.628906-.714843-9.332031l-9.804688-13.019531-1.5625-2.082031c-2.34375-3.074219-2.34375-7.335938 0-10.414063l13.363281-17.875c1.785157-2.367187 2.238282-5.480469 1.203126-8.257813-1.039063-2.777343-3.421876-4.835937-6.320313-5.453124-33.410156-6.683594-100.492187-36.101563-107-146.65625-.101563-.515626-.160156-1.039063-.175781-1.5625-.171875-3.734376-.34375-7.636719-.34375-11.542969v-.433594zm0 0" fill="#90bae1"/><path d="m208.722656 277.695312c0 43.132813-34.96875 78.101563-78.101562 78.101563-2.902344 0-5.800782-.171875-8.679688-.519531-39.386718-4.574219-69.097656-37.929688-69.097656-77.582032 0-39.652343 29.710938-73.011718 69.097656-77.582031 2.878906-.347656 5.777344-.523437 8.679688-.519531 43.132812 0 78.101562 34.964844 78.101562 78.101562zm0 0" fill="#e6e7e8"/><path d="m451.703125 277.695312c0 43.132813-34.964844 78.101563-78.101563 78.101563-2.898437 0-5.796874-.171875-8.675781-.519531-39.386719-4.574219-69.097656-37.929688-69.097656-77.582032 0-39.652343 29.710937-73.011718 69.097656-77.582031 2.878907-.347656 5.777344-.523437 8.675781-.519531 43.136719 0 78.101563 34.964844 78.101563 78.101562zm0 0" fill="#e6e7e8"/><path d="m191.367188 277.695312c0-42.847656-31.082032-77.582031-69.425782-77.582031-38.339844 0-69.421875 34.734375-69.421875 77.582031 0 42.847657 31.082031 77.582032 69.421875 77.582032 38.34375 0 69.425782-34.734375 69.425782-77.582032zm0 0" fill="#fff"/><path d="m434.347656 277.695312c0-42.847656-31.082031-77.582031-69.421875-77.582031-38.34375 0-69.425781 34.734375-69.425781 77.582031 0 42.847657 31.082031 77.582032 69.425781 77.582032 38.339844 0 69.421875-34.734375 69.421875-77.582032zm0 0" fill="#fff"/><path d="m174.007812 277.695312c0 23.964844-19.425781 43.390626-43.386718 43.390626-23.964844 0-43.390625-19.425782-43.390625-43.390626 0-23.964843 19.425781-43.390624 43.390625-43.390624 23.960937 0 43.386718 19.425781 43.386718 43.390624zm0 0" fill="#4fba6f"/><path d="m416.992188 277.695312c0 23.964844-19.425782 43.390626-43.390626 43.390626-23.960937 0-43.386718-19.425782-43.386718-43.390626 0-23.964843 19.425781-43.390624 43.386718-43.390624 23.964844 0 43.390626 19.425781 43.390626 43.390624zm0 0" fill="#4fba6f"/><path d="m156.652344 277.695312c0 14.378907-11.65625 26.035157-26.03125 26.035157-14.378906 0-26.035156-11.65625-26.035156-26.035157 0-14.378906 11.65625-26.035156 26.035156-26.035156 14.375 0 26.03125 11.65625 26.03125 26.035156zm0 0" fill="#2c2f38"/><path d="m399.636719 277.695312c0 14.378907-11.65625 26.035157-26.035157 26.035157-14.375 0-26.03125-11.65625-26.03125-26.035157 0-14.378906 11.65625-26.035156 26.03125-26.035156 14.378907 0 26.035157 11.65625 26.035157 26.035156zm0 0" fill="#2c2f38"/><g fill="#90bae1"><path d="m196.519531 66.222656c-27.714843-25.011718-100.132812-79.292968-189.066406-60.894531-2.972656.613281-5.414063 2.722656-6.453125 5.574219-1.0390625 2.855468-.527344 6.039062 1.351562 8.421875l22.230469 27.769531c2.359375 2.953125 2.539063 7.089844.445313 10.234375l-20.167969 30.265625c-1.863281 2.804688-1.9375 6.429688-.195313 9.308594 1.746094 2.875 4.996094 4.484375 8.34375 4.125 29.722657-3.46875 91.855469-4.753906 123.835938 30.269531 3.328125 3.601563 8.03125 5.613281 12.933594 5.535156s9.539062-2.238281 12.75-5.941406l35.363281-40.40625c6.253906-7.101563 5.644531-17.910156-1.371094-24.261719zm0 0"/><path d="m307.703125 66.222656c27.714844-25.011718 100.132813-79.292968 189.066406-60.894531 2.972657.613281 5.414063 2.722656 6.453125 5.574219 1.039063 2.855468.527344 6.039062-1.351562 8.421875l-22.230469 27.769531c-2.359375 2.953125-2.539063 7.089844-.445313 10.234375l20.167969 30.25c1.863281 2.800781 1.9375 6.429687.195313 9.304687-1.746094 2.878907-4.996094 4.484376-8.34375 4.128907-29.722656-3.472657-91.855469-4.753907-123.835938 30.269531-3.328125 3.597656-8.03125 5.613281-12.933594 5.535156-4.902343-.078125-9.539062-2.238281-12.75-5.945312l-35.363281-40.402344c-6.246093-7.101562-5.632812-17.898438 1.371094-24.246094zm0 0"/><path d="m252.109375 234.304688c-4.789063 0-8.675781-3.886719-8.675781-8.675782v-121.492187c0-4.792969 3.886718-8.679688 8.675781-8.679688 4.792969 0 8.679687 3.886719 8.679687 8.679688v121.492187c0 4.789063-3.886718 8.675782-8.679687 8.675782zm0 0"/><path d="m286.824219 138.847656h-69.425781c-4.792969 0-8.675782-3.886718-8.675782-8.679687s3.882813-8.675781 8.675782-8.675781h69.425781c4.792969 0 8.675781 3.882812 8.675781 8.675781s-3.882812 8.679687-8.675781 8.679687zm0 0"/><path d="m286.824219 182.238281h-69.425781c-4.792969 0-8.675782-3.886719-8.675782-8.679687 0-4.792969 3.882813-8.675782 8.675782-8.675782h69.425781c4.792969 0 8.675781 3.882813 8.675781 8.675782 0 4.792968-3.882812 8.679687-8.675781 8.679687zm0 0"/></g><path d="m130.621094 242.984375c0 14.375-11.65625 26.03125-26.035156 26.03125-14.378907 0-26.035157-11.65625-26.035157-26.03125 0-14.378906 11.65625-26.035156 26.035157-26.035156 14.378906 0 26.035156 11.65625 26.035156 26.035156zm0 0" fill="#fff"/><path d="m373.601562 242.984375c0 14.375-11.65625 26.03125-26.03125 26.03125-14.378906 0-26.035156-11.65625-26.035156-26.03125 0-14.378906 11.65625-26.035156 26.035156-26.035156 14.375 0 26.03125 11.65625 26.03125 26.035156zm0 0" fill="#fff"/></svg>