<svg height="503pt" viewBox="0 -13 503.43218 503" width="503pt" xmlns="http://www.w3.org/2000/svg"><path d="m485.449219 294.398438c-1.390625 127.480468-105.785157 183.105468-234.21875 183.105468-2.863281 0-5.726563 0-8.59375-.085937-124.441407-2.429688-224.238281-58.402344-225.625-183.019531l16.835937-97.191407c14.984375-43.398437 38.832032-83.207031 70.03125-116.894531l36.96875-32.886719c29.480469-22.398437 64.855469-35.699219 101.789063-38.269531 2.867187-.175781 5.730469-.261719 8.59375-.261719 40.066406.75 78.84375 14.316407 110.644531 38.703125l36.878906 32.890625c31.09375 33.664063 54.878906 73.40625 69.859375 116.71875v.085938zm0 0" fill="#24ae5f"/><g fill="#4fba6f"><path d="m468.179688 294.398438c-1.390626 124.617187-101.097657 180.589843-225.542969 183.019531-124.441407-2.429688-224.238281-58.402344-225.625-183.019531l16.835937-97.191407c14.984375-43.398437 38.832032-83.207031 70.03125-116.894531l36.96875-32.886719c29.480469-22.398437 64.855469-35.699219 101.789063-38.269531 37.019531 2.5625 72.472656 15.929688 101.96875 38.441406l36.878906 32.890625c31.09375 33.664063 54.878906 73.40625 69.859375 116.71875v.085938zm0 0"/><path d="m47.132812 311.171875c-32.519531-7.484375-52.914062-39.800781-45.671874-72.378906 7.242187-32.574219 39.40625-53.210938 72.035156-46.210938"/><path d="m455.308594 311.171875c21.363281-4.535156 38.640625-20.191406 45.261718-41 6.621094-20.808594 1.5625-43.570313-13.246093-59.617187-14.8125-16.046876-37.097657-22.910157-58.371094-17.972657"/></g><path d="m251.230469 329.980469v17.355469c-17.523438.003906-34.992188-1.976563-52.070313-5.902344v-11.453125c0-14.378907 11.65625-26.035157 26.035156-26.035157 14.378907 0 26.035157 11.65625 26.035157 26.035157zm0 0" fill="#f5efca"/><path d="m303.296875 329.980469v11.453125c-17.078125 3.925781-34.542969 5.90625-52.066406 5.902344v-17.355469c0-14.378907 11.65625-26.035157 26.03125-26.035157 14.378906 0 26.035156 11.65625 26.035156 26.035157zm0 0" fill="#f5efca"/><path d="m251.230469 399.402344c-21.214844.917968-41.996094-6.183594-58.203125-19.898438-3.300782-3.394531-3.269532-8.808594.070312-12.167968 3.335938-3.355469 8.75-3.417969 12.164063-.136719 12.980469 10.425781 29.339843 15.710937 45.96875 14.847656 16.636719.878906 33.015625-4.414063 45.992187-14.867187 3.402344-3.375 8.898438-3.355469 12.273438.050781 3.378906 3.402343 3.355468 8.898437-.046875 12.273437-16.214844 13.71875-37 20.824219-58.21875 19.898438zm0 0" fill="#24ae5f"/><path d="m251.230469 182.453125c0 38.34375-31.082031 69.425781-69.425781 69.425781-2.898438 0-5.796876-.171875-8.675782-.523437-34.796875-4.285157-60.9375-33.84375-60.9375-68.902344s26.140625-64.617187 60.9375-68.902344c2.878906-.347656 5.777344-.523437 8.675782-.519531 38.34375 0 69.425781 31.082031 69.425781 69.421875zm0 0" fill="#e6e7e8"/><path d="m233.875 182.453125c0-38.054687-27.199219-68.902344-60.746094-68.902344-33.550781 0-60.746094 30.847657-60.746094 68.902344s27.195313 68.902344 60.746094 68.902344c33.546875 0 60.746094-30.847657 60.746094-68.902344zm0 0" fill="#fff"/><path d="m390.078125 182.453125c0 38.34375-31.082031 69.425781-69.425781 69.425781-2.898438 0-5.796875-.171875-8.675782-.523437-34.796874-4.285157-60.9375-33.84375-60.9375-68.902344s26.140626-64.617187 60.9375-68.902344c2.878907-.347656 5.777344-.523437 8.675782-.519531 38.34375 0 69.425781 31.082031 69.425781 69.421875zm0 0" fill="#e6e7e8"/><path d="m372.722656 182.453125c0-38.054687-27.199218-68.902344-60.746094-68.902344-33.550781 0-60.746093 30.847657-60.746093 68.902344s27.195312 68.902344 60.746093 68.902344c33.546876 0 60.746094-30.847657 60.746094-68.902344zm0 0" fill="#fff"/><path d="m143.074219 79.1875c7.484375-5.554688 9.210937-16.042969 3.90625-23.703125-14.308594-20.332031-46.097657-55.269531-95.34375-55.269531-69.425781 0-43.390625 78.101562 0 69.425781 21.503906-4.214844 43.742187 1.886719 60.085937 16.488281 6.15625 5.132813 15.042969 5.324219 21.417969.46875zm0 0" fill="#24ae5f"/><path d="m359.921875 79.1875c-7.484375-5.554688-9.210937-16.042969-3.90625-23.703125 14.308594-20.332031 46.089844-55.269531 95.34375-55.269531 69.425781 0 43.390625 78.101562 0 69.425781-21.503906-4.214844-43.742187 1.886719-60.085937 16.488281-6.15625 5.132813-15.042969 5.324219-21.417969.46875zm0 0" fill="#24ae5f"/><path d="m225.195312 182.453125c0 23.964844-19.425781 43.390625-43.390624 43.390625-23.960938 0-43.390626-19.425781-43.390626-43.390625s19.429688-43.390625 43.390626-43.390625c23.964843 0 43.390624 19.425781 43.390624 43.390625zm0 0" fill="#ff5364"/><path d="m364.042969 182.453125c0 23.964844-19.425781 43.390625-43.390625 43.390625-23.960938 0-43.390625-19.425781-43.390625-43.390625s19.429687-43.390625 43.390625-43.390625c23.964844 0 43.390625 19.425781 43.390625 43.390625zm0 0" fill="#ff5364"/><path d="m207.839844 182.453125c0 14.378906-11.65625 26.035156-26.035156 26.035156-14.378907 0-26.03125-11.65625-26.03125-26.035156s11.652343-26.035156 26.03125-26.035156c14.378906 0 26.035156 11.65625 26.035156 26.035156zm0 0" fill="#2c2f38"/><path d="m346.6875 182.453125c0 14.378906-11.65625 26.035156-26.035156 26.035156s-26.03125-11.65625-26.03125-26.035156 11.652344-26.035156 26.03125-26.035156 26.035156 11.65625 26.035156 26.035156zm0 0" fill="#2c2f38"/><path d="m251.230469 356.011719c-18.175781.015625-36.292969-2.023438-54.011719-6.074219-58.992188-14.664062-112.117188-46.953125-152.300781-92.566406-2.921875-3.714844-2.335938-9.085938 1.320312-12.082032 3.660157-2.996093 9.039063-2.511718 12.105469 1.085938 37.945312 42.382812 87.636719 72.527344 142.753906 86.605469 32.992188 7.542969 67.261719 7.542969 100.253906 0 55.125-14.074219 104.816407-44.21875 142.761719-86.605469 3.066407-3.597656 8.449219-4.082031 12.105469-1.085938 3.65625 2.996094 4.246094 8.367188 1.320312 12.082032-40.183593 45.613281-93.3125 77.902344-152.304687 92.566406-17.71875 4.050781-35.832031 6.089844-54.003906 6.074219zm0 0" fill="#802d40"/><path d="m173.128906 156.417969c0 9.585937-7.773437 17.359375-17.355468 17.359375-9.585938 0-17.359376-7.773438-17.359376-17.359375 0-9.582031 7.773438-17.355469 17.359376-17.355469 9.582031 0 17.355468 7.773438 17.355468 17.355469zm0 0" fill="#fff"/><path d="m311.976562 156.417969c0 9.585937-7.773437 17.359375-17.355468 17.359375-9.585938 0-17.359375-7.773438-17.359375-17.359375 0-9.582031 7.773437-17.355469 17.359375-17.355469 9.582031 0 17.355468 7.773438 17.355468 17.355469zm0 0" fill="#fff"/></svg>