<svg height="512pt" viewBox="0 0 512 512" width="512pt" xmlns="http://www.w3.org/2000/svg"><path d="m211.597656 423.722656c-.050781 0-.089844-.039062-.089844-.085937-7.042968-5.742188-12.257812-13.410157-15.003906-22.070313-9.800781 7.125-21.609375 10.957032-33.722656 10.945313-30.789062.441406-60.914062 9.027343-87.304688 24.894531 15.867188-26.390625 24.453126-56.515625 24.894532-87.304688-.035156-11.925781 3.667968-23.566406 10.589844-33.28125-11.945313-1.859374-22.988282-7.488281-31.511719-16.0625-22.066407-21.542968-49.5-36.785156-79.449219-44.140624 29.949219-7.355469 57.382812-22.59375 79.449219-44.136719 8.402343-8.4375 19.238281-14.023438 30.984375-15.976563-7.125-9.800781-10.957032-21.609375-10.945313-33.722656-.441406-30.789062-9.027343-60.914062-24.894531-87.304688 26.390625 15.867188 56.515625 24.453126 87.304688 24.894532 11.925781-.035156 23.566406 3.667968 33.28125 10.589844 1.859374-11.945313 7.488281-22.988282 16.0625-31.511719 21.542968-22.066407 36.785156-49.5 44.140624-79.449219 7.355469 29.949219 22.59375 57.382812 44.136719 79.449219 8.4375 8.402343 14.023438 19.238281 15.976563 30.984375 9.800781-7.125 21.609375-10.957032 33.722656-10.945313 30.789062-.441406 60.914062-9.027343 87.304688-24.894531-15.867188 26.390625-24.453126 56.515625-24.894532 87.304688.035156 11.925781-3.667968 23.566406-10.589844 33.28125 11.945313 1.859374 22.988282 7.488281 31.511719 16.0625 22.066407 21.542968 49.5 36.785156 79.449219 44.140624-29.949219 7.355469-57.382812 22.59375-79.449219 44.136719-8.402343 8.4375-19.238281 14.023438-30.984375 15.976563 7.125 9.800781 10.957032 21.609375 10.945313 33.722656.441406 30.789062 9.027343 60.914062 24.894531 87.304688-26.390625-15.867188-56.515625-24.453126-87.304688-24.894532-11.925781.035156-23.566406-3.667968-33.28125-10.589844-3.050781 9.117188-8.773437 17.113282-16.417968 22.949219l-.085938.089844zm0 0" fill="#b0d3f0"/><path d="m220.558594 382.347656c-.039063 0-.070313-.03125-.070313-.070312-5.628906-4.59375-9.789062-10.730469-11.980469-17.652344-7.820312 5.6875-17.246093 8.75-26.914062 8.738281-24.578125.347657-48.621094 7.207031-69.6875 19.871094 12.664062-21.066406 19.523438-45.109375 19.871094-69.6875-.027344-9.519531 2.929687-18.808594 8.457031-26.558594-9.539063-1.488281-18.351563-5.984375-25.15625-12.828125-17.613281-17.191406-39.507813-29.355468-63.410156-35.222656 23.902343-5.871094 45.796875-18.035156 63.410156-35.230469 6.699219-6.730469 15.34375-11.1875 24.714844-12.746093-5.6875-7.820313-8.746094-17.246094-8.738281-26.917969-.339844-24.59375-7.199219-48.65625-19.871094-69.734375 21.0625 12.664062 45.109375 19.519531 69.683594 19.867187 9.523437-.023437 18.816406 2.933594 26.570312 8.457031 1.484375-9.535156 5.976562-18.34375 12.820312-25.148437 17.191407-17.59375 29.359376-39.464844 35.246094-63.347656 5.871094 23.90625 18.039063 45.804687 35.234375 63.417969 6.726563 6.703124 11.1875 15.347656 12.753907 24.71875 7.828124-5.667969 17.25-8.710938 26.914062-8.6875 24.578125-.355469 48.621094-7.210938 69.6875-19.871094-12.667969 21.0625-19.523438 45.109375-19.871094 69.683594.027344 9.523437-2.929687 18.8125-8.457031 26.5625 9.539063 1.480468 18.355469 5.976562 25.15625 12.828124 17.613281 17.191407 39.507813 29.351563 63.410156 35.222657-23.902343 5.875-45.796875 18.039062-63.410156 35.230469-6.699219 6.734374-15.34375 11.195312-24.714844 12.753906 5.6875 7.820312 8.75 17.246094 8.738281 26.917968.339844 24.558594 7.183594 48.589844 19.828126 69.648438-21.066407-12.664062-45.109376-19.519531-69.6875-19.871094-9.523438.027344-18.8125-2.929687-26.570313-8.457031-2.433594 7.28125-6.996094 13.667969-13.097656 18.328125l-.074219.070312zm0 0" fill="#90bae1"/><path d="m362.636719 290.78125c-29.128907 73.710938-67.882813 115.816406-67.882813 168.519531 0 36.457031-18.539062 47.667969-29.925781 51.199219-2.867187.878906-5.832031 1.382812-8.828125 1.5-2.996094-.117188-5.960938-.621094-8.828125-1.5-11.386719-3.53125-29.925781-14.742188-29.925781-51.199219 0-52.703125-38.753906-94.808593-67.882813-168.519531-29.132812-73.710938 29.128907-105.402344 29.128907-105.402344l59.851562-8.828125 17.65625-61.792969 17.65625 61.792969 59.851562 8.828125s58.171876 31.601563 29.128907 105.402344zm0 0" fill="#ff5364"/><path d="m344.980469 290.78125c-29.128907 73.710938-67.882813 115.816406-67.882813 168.519531 0 36.457031-18.539062 47.667969-29.925781 51.199219-11.386719-3.53125-29.925781-14.742188-29.925781-51.199219 0-52.703125-38.753906-94.808593-67.882813-168.519531-29.132812-73.710938 29.128907-105.402344 29.128907-105.402344l59.851562-8.828125 8.828125-30.894531 8.828125 30.894531 59.851562 8.828125s58.171876 31.601563 29.128907 105.402344zm0 0" fill="#fb7b76"/><path d="m191.648438 260.148438c-3.179688 20.390624-5.476563 57.644531 20.214843 57.644531 15.359375 0 17.566407-10.769531 17.742188-32.308594zm0 0" fill="#fff"/><path d="m282.394531 285.484375c.175781 21.539063 2.382813 32.308594 17.742188 32.308594 25.691406 0 23.394531-37.253907 20.214843-57.644531zm0 0" fill="#fff"/><g fill="#ff5364"><path d="m238.34375 406.070312c-4.875 0-8.828125-3.953124-8.828125-8.828124v-52.964844c0-4.875 3.953125-8.828125 8.828125-8.828125s8.828125 3.953125 8.828125 8.828125v52.964844c0 4.875-3.953125 8.828124-8.828125 8.828124zm0 0"/><path d="m273.65625 406.070312c-4.875 0-8.828125-3.953124-8.828125-8.828124v-52.964844c0-4.875 3.953125-8.828125 8.828125-8.828125s8.828125 3.953125 8.828125 8.828125v52.964844c0 4.875-3.953125 8.828124-8.828125 8.828124zm0 0"/><path d="m264.828125 476.691406v33.808594c-2.867187.878906-5.832031 1.382812-8.828125 1.5-2.996094-.117188-5.960938-.621094-8.828125-1.5v-33.808594c0-4.878906 3.953125-8.828125 8.828125-8.828125s8.828125 3.949219 8.828125 8.828125zm0 0"/><path d="m238.34375 300.136719c-1.738281 0-3.441406-.515625-4.890625-1.480469l-52.964844-35.3125c-2.625-1.75-4.113281-4.765625-3.910156-7.914062.203125-3.148438 2.070313-5.949219 4.898437-7.34375 2.828126-1.398438 6.1875-1.179688 8.8125.570312l52.964844 35.308594c3.238282 2.160156 4.679688 6.183594 3.550782 9.910156-1.132813 3.722656-4.566407 6.269531-8.460938 6.261719zm0 0"/><path d="m273.65625 300.136719c-3.894531.007812-7.328125-2.539063-8.460938-6.261719-1.128906-3.726562.3125-7.75 3.550782-9.910156l52.964844-35.308594c2.625-1.75 5.984374-1.96875 8.8125-.570312 2.828124 1.394531 4.695312 4.195312 4.898437 7.34375.203125 3.148437-1.285156 6.164062-3.910156 7.914062l-52.964844 35.3125c-1.449219.964844-3.152344 1.480469-4.890625 1.480469zm0 0"/></g></svg>