<svg height="512pt" viewBox="0 -4 512.04925 512" width="512pt" xmlns="http://www.w3.org/2000/svg"><path d="m503.351562 332.855469c0 122.539062-110.761718 170.667969-247.464843 170.667969-2.902344 0-5.71875 0-8.535157-.085938-132.777343-1.960938-238.933593-50.601562-238.933593-170.582031 0-57.257813 24.152343-120.660157 64-171.859375l90.882812-76.203125c15.871094-8.242188 32.613281-14.683594 49.917969-19.199219 2.816406-.769531 5.632812-1.453125 8.535156-2.050781 2.898438-.597657 5.546875-1.109375 8.363282-1.621094 5.714843-.851563 11.433593-1.535156 17.234374-1.875 2.816407-.171875 5.632813-.257813 8.535157-.257813 2.902343 0 5.714843.085938 8.53125.257813 5.804687.339844 11.523437 1.023437 17.238281 1.875 2.816406.511719 5.546875 1.023437 8.363281 1.621094 2.816407.597656 5.71875 1.28125 8.535157 2.050781 17.300781 4.515625 34.046874 10.957031 49.917968 19.199219l90.878906 76.203125c39.851563 51.199218 64 114.601562 64 171.859375zm0 0" fill="#285680"/><path d="m486.285156 332.855469c0 119.980469-106.152344 168.621093-238.933594 170.582031-132.777343-1.960938-238.933593-50.601562-238.933593-170.582031 0-57.257813 24.152343-120.660157 64-171.859375l90.882812-76.203125c15.871094-8.242188 32.613281-14.683594 49.917969-19.199219 2.816406-.769531 5.632812-1.453125 8.535156-2.050781 2.898438-.597657 5.546875-1.109375 8.363282-1.621094 5.714843-.851563 11.433593-1.535156 17.234374-1.875 5.804688.339844 11.519532 1.023437 17.238282 1.875 2.816406.511719 5.546875 1.023437 8.363281 1.621094 2.816406.597656 5.71875 1.28125 8.53125 2.050781 17.304687 4.515625 34.050781 10.957031 49.921875 19.199219l90.878906 76.203125c39.851563 51.199218 64 114.601562 64 171.859375zm0 0" fill="#4482c3"/><path d="m170.554688 153.65625c-11.886719-.050781-23.644532 2.453125-34.476563 7.339844-2.304687-9.898438-21.84375-79.105469-109.824219-133.546875l-.769531-1.792969s43.265625 18.515625 108.886719 2.988281c42.582031 48.296875 36.183594 125.011719 36.183594 125.011719zm0 0" fill="#9bc8c2"/><path d="m136.078125 160.996094c-11.472656 5.019531-21.675781 12.542968-29.867187 22.015625-9.714844-9.480469-21.195313-16.957031-33.792969-22.015625-13.878907-5.683594-29.082031-7.339844-43.859375-4.78125 11.519531-23.890625 23.464844-70.910156-2.304688-128.765625 87.980469 54.441406 107.519532 123.648437 109.824219 133.546875zm0 0" fill="#9bc8c2"/><path d="m483.980469 155.535156.257812.851563c-15.09375-2.789063-30.671875-1.191407-44.886719 4.609375-12.59375 5.058594-24.074218 12.535156-33.789062 22.015625-8.191406-9.472657-18.398438-16.996094-29.867188-22.015625 2.304688-9.898438 21.84375-79.105469 109.824219-133.546875-28.160156 63.144531-13.570312 106.75-1.539062 128.085937zm0 0" fill="#9bc8c2"/><path d="m486.285156 25.65625-.765625 1.792969c-87.980469 54.441406-107.519531 123.648437-109.824219 133.546875-10.835937-4.886719-22.589843-7.390625-34.476562-7.339844 0 0-6.398438-76.714844 36.183594-125.011719 65.621094 15.527344 108.882812-2.988281 108.882812-2.988281zm0 0" fill="#9bc8c2"/><g fill="#285680"><path d="m170.554688 162.191406c-.230469 0-.472657 0-.710938 0-2.265625-.183594-4.363281-1.257812-5.832031-2.992187-1.46875-1.730469-2.1875-3.980469-1.992188-6.242188.085938-.972656 7.21875-97.777343-55.75-137.132812-2.589843-1.613281-4.121093-4.488281-4.019531-7.542969.105469-3.050781 1.828125-5.816406 4.523438-7.253906 2.695312-1.433594 5.953124-1.324219 8.542968.292968 71.875 44.945313 64.109375 148.648438 63.769532 153.042969-.367188 4.433594-4.082032 7.839844-8.53125 7.828125zm0 0"/><path d="m136.070312 169.527344c-3.964843-.003906-7.402343-2.734375-8.304687-6.59375-1.707031-7.492188-19.523437-74.71875-106.007813-128.222656-5.929687-3.695313-11.769531-7.082032-17.359374-10.0625-4.078126-2.257813-5.585938-7.371094-3.390626-11.484376 2.195313-4.113281 7.285157-5.699218 11.429688-3.566406 5.921875 3.15625 12.085938 6.722656 18.320312 10.597656 92.324219 57.171876 111.71875 130.671876 113.632813 138.871094 1.0625 4.585938-1.789063 9.171875-6.375 10.238282-.636719.15625-1.289063.230468-1.945313.222656zm0 0"/><path d="m106.210938 191.542969c-2.238282 0-4.382813-.882813-5.972657-2.457031-8.910156-8.648438-19.414062-15.492188-30.925781-20.148438-18.507812-7.539062-39.304688-7.140625-57.515625 1.09375-4.3125 1.777344-9.253906-.238281-11.089844-4.527344-1.839843-4.289062.105469-9.257812 4.367188-11.15625 22.335937-10.089844 47.835937-10.550781 70.519531-1.273437 13.664062 5.472656 26.109375 13.59375 36.625 23.894531 2.457031 2.429688 3.207031 6.101562 1.898438 9.300781-1.308594 3.195313-4.417969 5.289063-7.871094 5.300781zm0 0"/><path d="m341.21875 162.191406c-4.449219.011719-8.164062-3.394531-8.53125-7.828125-.34375-4.394531-8.109375-108.097656 63.742188-153.011719 4.007812-2.496093 9.277343-1.273437 11.777343 2.730469 2.496094 4.007813 1.273438 9.28125-2.730469 11.777344-62.96875 39.320313-55.835937 136.089844-55.722656 137.097656.191406 2.265625-.527344 4.511719-1.996094 6.246094-1.472656 1.734375-3.574218 2.808594-5.839843 2.988281-.238281 0-.476563 0-.699219 0zm0 0"/><path d="m375.703125 169.527344c-.65625.007812-1.308594-.066406-1.945313-.222656-4.585937-1.066407-7.441406-5.652344-6.375-10.238282 1.910157-8.199218 21.332032-81.730468 113.648438-138.878906 6.21875-3.867188 12.378906-7.433594 18.300781-10.589844 4.148438-2.132812 9.238281-.546875 11.433594 3.566406 2.195313 4.113282.683594 9.226563-3.394531 11.484376-5.589844 2.980468-11.425782 6.367187-17.347656 10.054687-86.511719 53.511719-104.277344 120.738281-106.019532 128.230469-.898437 3.859375-4.335937 6.589844-8.300781 6.59375zm0 0"/><path d="m405.5625 191.542969c-3.457031-.011719-6.5625-2.101563-7.871094-5.300781-1.308594-3.199219-.558594-6.867188 1.894532-9.296876 10.539062-10.308593 23.007812-18.425781 36.695312-23.894531 15.722656-6.414062 32.953125-8.167969 49.648438-5.0625 7.164062 1.320313 14.152343 3.453125 20.835937 6.351563 2.847656 1.171875 4.839844 3.785156 5.21875 6.839844.378906 3.054687-.917969 6.074218-3.390625 7.90625-2.472656 1.832031-5.742188 2.191406-8.550781.9375-5.507813-2.398438-11.269531-4.15625-17.179688-5.238282-13.546875-2.519531-27.535156-1.082031-40.292969 4.128906-11.527343 4.65625-22.042968 11.503907-30.96875 20.164063-1.605468 1.59375-3.777343 2.484375-6.039062 2.464844zm0 0"/></g><path d="m255.886719 238.988281c0 47.128907-38.207031 85.335938-85.332031 85.335938-2.816407 0-5.632813-.171875-8.363282-.429688h-.34375c-43.609375-4.375-76.808594-41.078125-76.808594-84.90625s33.199219-80.527343 76.808594-84.90625h.34375c2.730469-.253906 5.546875-.425781 8.363282-.425781 47.125 0 85.332031 38.203125 85.332031 85.332031zm0 0" fill="#e6e7e8"/><path d="m238.820312 238.988281c.007813 43.765625-33.09375 80.445313-76.628906 84.90625h-.34375c-43.609375-4.375-76.808594-41.078125-76.808594-84.90625s33.199219-80.527343 76.808594-84.90625h.34375c43.535156 4.464844 76.636719 41.140625 76.628906 84.90625zm0 0" fill="#fff"/><path d="m426.554688 238.988281c0 47.128907-38.207032 85.335938-85.335938 85.335938-2.816406 0-5.632812-.171875-8.363281-.429688h-.339844c-43.609375-4.375-76.8125-41.078125-76.8125-84.90625s33.203125-80.527343 76.8125-84.90625h.339844c2.730469-.253906 5.546875-.425781 8.363281-.425781 47.128906 0 85.335938 38.203125 85.335938 85.332031zm0 0" fill="#e6e7e8"/><path d="m409.484375 238.988281c.011719 43.765625-33.089844 80.445313-76.628906 84.90625h-.339844c-43.609375-4.375-76.8125-41.078125-76.8125-84.90625s33.203125-80.527343 76.8125-84.90625h.339844c43.539062 4.464844 76.640625 41.140625 76.628906 84.90625zm0 0" fill="#fff"/><path d="m230.285156 238.988281c0 32.992188-26.742187 59.734375-59.730468 59.734375-32.992188 0-59.734376-26.742187-59.734376-59.734375 0-32.988281 26.742188-59.730469 59.734376-59.730469 32.988281 0 59.730468 26.742188 59.730468 59.730469zm0 0" fill="#cc66a1"/><path d="m400.953125 238.988281c0 32.992188-26.742187 59.734375-59.734375 59.734375-32.988281 0-59.734375-26.742187-59.734375-59.734375 0-32.988281 26.746094-59.730469 59.734375-59.730469 32.992188 0 59.734375 26.742188 59.734375 59.730469zm0 0" fill="#cc66a1"/><path d="m204.6875 238.988281c0 18.851563-15.285156 34.132813-34.132812 34.132813-18.851563 0-34.136719-15.28125-34.136719-34.132813 0-18.851562 15.285156-34.132812 34.136719-34.132812 18.847656 0 34.132812 15.28125 34.132812 34.132812zm0 0" fill="#2c2f38"/><path d="m375.351562 238.988281c0 18.851563-15.28125 34.132813-34.132812 34.132813s-34.132812-15.28125-34.132812-34.132813c0-18.851562 15.28125-34.132812 34.132812-34.132812s34.132812 15.28125 34.132812 34.132812zm0 0" fill="#2c2f38"/><path d="m255.886719 375.523438v25.597656h-51.199219v-25.597656c-.03125-12.488282 9.007812-23.15625 21.332031-25.175782 1.398438-.3125 2.832031-.457031 4.265625-.425781 14.140625 0 25.601563 11.460937 25.601563 25.601563zm0 0" fill="#f9eab0"/><path d="m247.351562 375.523438v25.597656h-34.132812v-25.597656c-.003906-10.855469 6.835938-20.53125 17.066406-24.148438 10.234375 3.617188 17.074219 13.292969 17.066406 24.148438zm0 0" fill="#f5efca"/><path d="m247.351562 374.070312v25.601563h-34.132812v-25.601563c-.003906-10.851562 6.835938-20.53125 17.066406-24.148437 10.234375 3.617187 17.074219 13.296875 17.066406 24.148437zm0 0" fill="#f5efca"/><path d="m281.484375 349.921875c14.140625 0 25.601563 11.460937 25.601563 25.601563v25.597656h-51.199219v-25.597656c0-14.140626 11.460937-25.601563 25.597656-25.601563zm0 0" fill="#f9eab0"/><path d="m298.554688 374.070312v25.601563h-34.136719v-25.601563c-.003907-10.851562 6.835937-20.53125 17.066406-24.148437 10.234375 3.617187 17.074219 13.296875 17.070313 24.148437zm0 0" fill="#f5efca"/><path d="m255.886719 452.324219c-18.796875.832031-37.554688-2.371094-55.015625-9.386719-4.183594-2.117188-5.875-7.214844-3.789063-11.414062 2.089844-4.195313 7.171875-5.925782 11.382813-3.871094 15.132812 5.714844 31.261718 8.300781 47.421875 7.605468 16.167969.6875 32.304687-1.925781 47.425781-7.679687 4.226562-2.097656 9.347656-.371094 11.441406 3.851563 2.09375 4.222656.371094 9.34375-3.851562 11.4375-17.457032 7.042968-36.214844 10.265624-55.015625 9.457031zm0 0" fill="#285680"/><path d="m264.417969 60.046875v50.941406c0 4.714844-3.820313 8.535157-8.53125 8.535157-4.714844 0-8.535157-3.820313-8.535157-8.535157v-50.941406c2.816407-.171875 5.632813-.257813 8.535157-.257813 2.902343 0 5.714843.085938 8.53125.257813zm0 0" fill="#285680"/><path d="m230.285156 63.542969v30.378906c0 4.714844-3.820312 8.535156-8.53125 8.535156-4.714844 0-8.535156-3.820312-8.535156-8.535156v-28.328125c2.816406-.769531 5.632812-1.453125 8.535156-2.050781 2.898438-.597657 5.546875-1.109375 8.363282-1.621094.101562.535156.160156 1.078125.167968 1.621094zm0 0" fill="#285680"/><path d="m298.554688 65.59375v28.328125c0 4.714844-3.824219 8.535156-8.535157 8.535156-4.710937 0-8.535156-3.820312-8.535156-8.535156v-30.378906c.011719-.542969.070313-1.085938.171875-1.621094 2.816406.511719 5.546875 1.023437 8.363281 1.621094 2.816407.597656 5.71875 1.28125 8.535157 2.050781zm0 0" fill="#285680"/><path d="m366.820312 409.65625h-221.867187c-32.972656-.039062-59.695313-26.757812-59.734375-59.734375 0-4.710937 3.820312-8.53125 8.535156-8.53125 4.710938 0 8.53125 3.820313 8.53125 8.53125.027344 23.554687 19.113282 42.640625 42.667969 42.667969h221.867187c23.550782-.027344 42.636719-19.113282 42.664063-42.667969 0-4.710937 3.824219-8.53125 8.535156-8.53125 4.710938 0 8.535157 3.820313 8.535157 8.53125-.039063 32.976563-26.761719 59.695313-59.734376 59.734375zm0 0" fill="#802d40"/><path d="m170.554688 204.855469c0 14.140625-11.464844 25.601562-25.601563 25.601562-14.140625 0-25.601563-11.460937-25.601563-25.601562 0-14.136719 11.460938-25.597657 25.601563-25.597657 14.136719 0 25.601563 11.460938 25.601563 25.597657zm0 0" fill="#fff"/><path d="m341.21875 204.855469c0 14.140625-11.460938 25.601562-25.597656 25.601562-14.140625 0-25.601563-11.460937-25.601563-25.601562 0-14.136719 11.460938-25.597657 25.601563-25.597657 14.136718 0 25.597656 11.460938 25.597656 25.597657zm0 0" fill="#fff"/></svg>