<svg height="512pt" viewBox="0 0 512.12443 512" width="512pt" xmlns="http://www.w3.org/2000/svg"><path d="m459.140625 406.148438c0 82.890624-90.921875 105.929687-203.035156 105.929687-2.46875 0-4.851563 0-7.238281-.089844-1.058594 0-2.117188.089844-3.175782 0-107.257812-1.410156-192.617187-25.511719-192.617187-105.839843.152343-13.9375 2.382812-27.773438 6.621093-41.050782l178.582032-152.1875c2.910156-.261718 5.824218-.527344 8.824218-.703125h.265626c2.914062-.179687 5.828124-.265625 8.738281-.265625 5.929687.007813 11.851562.332032 17.746093.96875l178.582032 152.101563v.085937c4.304687 13.265625 6.566406 27.105469 6.707031 41.050782zm0 0" fill="#f29c1f"/><path d="m441.488281 406.148438c0 80.328124-85.363281 104.429687-192.621093 105.839843-1.058594 0-2.117188.089844-3.175782 0-107.257812-1.410156-192.617187-25.511719-192.617187-105.839843.152343-13.9375 2.382812-27.773438 6.621093-41.050782l178.582032-152.1875c2.910156-.261718 5.824218-.527344 8.824218-.703125h.265626c3.003906.175781 32.308593.441407 35.222656.703125l152.1875 152.101563v.085937c4.304687 13.265625 6.566406 27.105469 6.710937 41.050782zm0 0" fill="#f0c419"/><path d="m229.191406 254.144531-130.082031 115.632813c-5.621094 4.960937-13.070313 7.324218-20.523437 6.5-7.449219-.820313-14.207032-4.75-18.609376-10.816406-29.230468-37.941407-48.804687-82.417969-57.042968-129.597657h-.089844c-19.507812-124.644531 67.179688-213.980469 88.277344-233.402343 2.691406-2.5195318 6.660156-3.113282 9.972656-1.5 136.308594 67.859374 139.351562 196.300781 136.945312 234.980468-.425781 7-3.605468 13.546875-8.847656 18.203125zm0 0" fill="#e57e25"/><path d="m282.917969 254.144531c-5.234375-4.65625-8.410157-11.199219-8.828125-18.191406-2.417969-38.683594.589844-167.132813 136.933594-234.949219 3.285156-1.640625 7.242187-1.0781248 9.9375 1.414063 27.898437 25.714843 170.101562 173.285156 31.25 362.988281-4.386719 6.09375-11.144532 10.046875-18.605469 10.886719-7.460938.839843-14.925781-1.511719-20.5625-6.472657zm0 0" fill="#e57e25"/><path d="m141.347656 194.285156c-50.492187 75.652344-100.898437 70.269532-138.414062 41.578125h-.089844c-15.449219-98.515625 35.574219-175.050781 67.972656-212.304687 45.816406 31.164062 119.347656 97.457031 70.53125 170.726562zm0 0" fill="#fb7b76"/><path d="m509.28125 235.773438c-37.605469 28.78125-88.097656 34.339843-138.679688-41.488282-48.816406-73.179687 24.804688-139.476562 70.707032-170.636718 32.488281 37.339843 83.332031 113.699218 67.972656 212.125zm0 0" fill="#fb7b76"/><path d="m379.429688 315.929688c-3.242188 29.6875-27.085938 52.902343-56.851563 55.347656-4.535156.359375-9.097656.183594-13.59375-.527344-27.15625-3.914062-48.441406-25.34375-52.171875-52.527344l46.523438-18.625h.085937l18.007813-7.238281 32.488281-12.976563 7.324219-2.914062c4.179687-1.652344 8.9375.046875 11.125 3.972656 5.859374 10.855469 8.320312 23.21875 7.0625 35.488282zm0 0" fill="#e6e7e8"/><g fill="#fff"><path d="m361.773438 315.929688c-3.035157 28.171874-24.75 50.722656-52.789063 54.820312-27.15625-3.914062-48.441406-25.34375-52.171875-52.527344l17.125-6.882812 29.398438-11.742188h.085937l2.296875-.882812 15.710938-6.355469 32.488281-12.976563c.320312.308594.585937.667969.792969 1.058594 5.859374 10.855469 8.320312 23.21875 7.0625 35.488282zm0 0"/><path d="m173.65625 367.835938c-11.851562-4.078126-22.132812-11.765626-29.394531-21.980469 7.4375 10.046875 17.65625 17.6875 29.394531 21.980469zm0 0"/><path d="m185.75 370.75c-.101562.070312-.226562.101562-.351562.085938-.421876-.042969-.835938-.132813-1.234376-.265626.523438.105469 1.054688.164063 1.585938.179688zm0 0"/><path d="m238.363281 311.425781c0 1.503907-.085937 3.003907-.175781 4.59375-3.003906 28.039063-24.546875 50.527344-52.4375 54.730469-.53125-.015625-1.0625-.074219-1.585938-.179688-1.792968-.253906-3.5625-.636718-5.296874-1.144531-1.765626-.4375-3.503907-.96875-5.210938-1.589843-11.738281-4.292969-21.957031-11.933594-29.394531-21.980469-.972657-1.414063-1.941407-2.914063-2.914063-4.503907-.9375-1.507812-1.792968-3.070312-2.558594-4.675781-.679687-1.285156-1.269531-2.609375-1.765624-3.972656-.609376-1.472656-1.136719-2.976563-1.589844-4.503906-.535156-1.589844-.976563-3.210938-1.324219-4.855469-.617187-2.4375-1.0625-4.914062-1.324219-7.414062-1.257812-12.269532 1.203125-24.632813 7.0625-35.488282 2.1875-3.925781 6.945313-5.625 11.121094-3.972656l19.421875 7.769531 20.390625 8.121094 3.621094 1.5 14.390625 5.738281 20.300781 8.121094zm0 0"/></g><path d="m255.402344 318.222656c-4.410156 32.3125-33.253906 55.582032-65.765625 53.054688-1.308594-.082032-2.605469-.257813-3.886719-.527344 27.890625-4.203125 49.433594-26.691406 52.4375-54.730469.089844-1.589843.175781-3.089843.175781-4.59375zm0 0" fill="#e6e7e8"/><path d="m229.183594 309.484375c.054687 15.925781-10.683594 29.863281-26.097656 33.871094-15.410157 4.003906-31.578126-2.9375-39.285157-16.871094-7.707031-13.9375-4.996093-31.320313 6.589844-42.246094l20.390625 8.121094 3.621094 1.5 14.390625 5.738281 20.300781 8.121094c.074219.585938.105469 1.175781.089844 1.765625zm0 0" fill="#e64c3c"/><path d="m282.589844 309.484375c-.054688 15.925781 10.683594 29.863281 26.09375 33.871094 15.414062 4.003906 31.582031-2.9375 39.289062-16.871094 7.707032-13.9375 4.992188-31.320313-6.589844-42.246094l-20.394531 8.121094-3.617187 1.5-14.390625 5.738281-20.300781 8.121094c-.074219.585938-.105469 1.175781-.089844 1.765625zm0 0" fill="#e64c3c"/><path d="m208.792969 299.597656c2.070312 2.949219 3.179687 6.460938 3.175781 10.0625 0 9.292969-7.203125 16.992188-16.472656 17.613282-9.269532.621093-17.4375-6.046876-18.679688-15.253907-1.242187-9.207031 4.863282-17.800781 13.964844-19.660156zm0 0" fill="#2c2f38"/><path d="m303.421875 299.597656h-.085937c-2.007813 2.972656-3.082032 6.476563-3.089844 10.0625 0 9.292969 7.203125 16.992188 16.472656 17.613282 9.269531.621093 17.433594-6.046876 18.679688-15.253907 1.242187-9.207031-4.863282-17.800781-13.96875-19.660156zm0 0" fill="#2c2f38"/><path d="m229.625 406.148438c-9.128906 15.789062-14.703125 33.382812-16.332031 51.550781-.273438 2.734375-1.851563 5.171875-4.238281 6.535156-4.019532 2.390625-9.210938 1.230469-11.828126-2.648437-10.644531-16.386719-14.828124-36.144532-11.738281-55.4375zm0 0" fill="#f9eab0"/><path d="m229.625 406.148438c-9.128906 15.789062-14.703125 33.382812-16.332031 51.550781-.273438 2.734375-1.851563 5.171875-4.238281 6.535156-1.230469-.578125-2.273438-1.5-3-2.648437-10.644532-16.386719-14.828126-36.144532-11.742188-55.4375zm0 0" fill="#f5efca"/><path d="m314.988281 461.585938c-2.617187 3.878906-7.808593 5.039062-11.828125 2.648437-2.386718-1.363281-3.96875-3.800781-4.238281-6.535156-1.628906-18.167969-7.203125-35.761719-16.332031-51.550781h44.136718c3.089844 19.292968-1.09375 39.050781-11.738281 55.4375zm0 0" fill="#f9eab0"/><path d="m306.160156 461.585938c-.726562 1.148437-1.769531 2.070312-3 2.648437-2.386718-1.363281-3.96875-3.800781-4.238281-6.535156-1.628906-18.167969-7.203125-35.761719-16.332031-51.550781h35.308594c3.089843 19.292968-1.09375 39.050781-11.738282 55.4375zm0 0" fill="#f5efca"/><path d="m370.867188 450.285156c-4.875 0-8.828126-3.953125-8.828126-8.828125 0-14.625-11.859374-26.480469-26.484374-26.480469h-158.894532c-14.628906 0-26.484375 11.855469-26.484375 26.480469 0 4.875-3.953125 8.828125-8.828125 8.828125s-8.828125-3.953125-8.828125-8.828125c.03125-24.363281 19.773438-44.109375 44.140625-44.136719h158.894532c24.367187.027344 44.109374 19.773438 44.140624 44.136719 0 4.875-3.953124 8.828125-8.828124 8.828125zm0 0" fill="#802d40"/><path d="m185.488281 309.042969c0 9.75-7.90625 17.65625-17.65625 17.65625s-17.65625-7.90625-17.65625-17.65625 7.90625-17.652344 17.65625-17.652344 17.65625 7.902344 17.65625 17.652344zm0 0" fill="#fff"/><path d="m309.074219 309.042969c-.101563 9.230469-7.292969 16.828125-16.503907 17.429687-9.210937.601563-17.332031-5.992187-18.632812-15.132812l29.398438-11.742188h.085937l2.296875-.882812c2.191406 2.996094 3.367188 6.617187 3.355469 10.328125zm0 0" fill="#fff"/></svg>