<svg height="512pt" viewBox="0 0 512 512" width="512pt" xmlns="http://www.w3.org/2000/svg"><path d="m512 334.601562c0 124.292969-114.582031 176.554688-256 176.554688-3 0-5.914062 0-8.828125-.089844-137.355469-2.117187-247.171875-54.820312-247.171875-176.464844 1.542969-52.863281 18.207031-104.179687 48.023438-147.859374l66.910156-73.535157c37.5-30.835937 83.78125-49.035156 132.238281-51.996093 2.914063-.175782 5.828125-.261719 8.828125-.261719 51.949219.976562 102.019531 19.628906 141.949219 52.875l66.382812 73.445312c29.578125 43.578125 46.113281 94.6875 47.667969 147.332031zm0 0" fill="#894b9d"/><path d="m494.34375 334.601562c0 121.644532-109.8125 174.347657-247.171875 176.464844-137.355469-2.117187-247.171875-54.820312-247.171875-176.464844 1.542969-52.863281 18.207031-104.179687 48.023438-147.859374l66.910156-73.535157c37.5-30.835937 83.78125-49.035156 132.238281-51.996093 48.828125 2.984374 95.445313 21.410156 133.121094 52.613281l66.382812 73.445312c29.578125 43.578125 46.113281 94.6875 47.667969 147.332031zm0 0" fill="#955ba5"/><path d="m96.839844 202.628906c-89.511719 1.503906-96.664063-115.90625-53.761719-141.679687 26.351563-15.8125 21.238281-34.765625 12.835937-47.476563-1.761718-2.84375-1.761718-6.441406 0-9.285156 1.757813-2.847656 4.976563-4.453125 8.304688-4.1484375 57.8125 4.9335935 89.9375 31.1328125 58.308594 78.5624995-19.421875 29.132813-6.796875 42.242188 8.5 48.136719 5.332031 1.890625 9.402344 6.273438 10.890625 11.730469 1.492187 5.457031.210937 11.300781-3.421875 15.636719zm0 0" fill="#b49aca"/><path d="m373.503906 154.105469c-3.632812-4.335938-4.914062-10.179688-3.421875-15.636719 1.488281-5.457031 5.558594-9.839844 10.890625-11.730469 15.296875-5.894531 27.921875-19.003906 8.5-48.136719-31.628906-47.445312.496094-73.648437 58.308594-78.5624995 3.335938-.3085935 6.558594 1.3007815 8.320312 4.1523435 1.761719 2.851563 1.753907 6.453125-.015624 9.300782-8.402344 12.691406-13.515626 31.644531 12.835937 47.457031 42.902344 25.773437 35.75 143.183593-53.761719 141.679687zm0 0" fill="#b49aca"/><path d="m256 255.15625c.03125 12.222656-2.527344 24.316406-7.503906 35.484375l-28.601563 35.664063c-15.101562 11.15625-33.394531 17.160156-52.171875 17.125-3 0-6.089844-.175782-9.003906-.441407-45.109375-4.527343-79.457031-42.496093-79.457031-87.832031 0-45.339844 34.347656-83.308594 79.457031-87.835938h.355469c2.824219-.265624 5.738281-.441406 8.648437-.441406 48.753906 0 88.277344 39.523438 88.277344 88.277344zm0 0" fill="#e6e7e8"/><path d="m238.34375 255.15625c.03125 12.222656-2.527344 24.316406-7.503906 35.484375l-28.601563 35.664063c-12.714843 9.417968-27.765625 15.1875-43.519531 16.683593-45.109375-4.527343-79.457031-42.496093-79.457031-87.832031 0-45.339844 34.347656-83.308594 79.457031-87.835938h.355469c45.039062 4.617188 79.28125 42.558594 79.269531 87.835938zm0 0" fill="#fff"/><path d="m432.550781 255.15625c0 48.75-39.523437 88.273438-88.273437 88.273438-2.914063 0-5.828125-.175782-8.652344-.441407-15.753906-1.496093-30.800781-7.265625-43.519531-16.683593l-28.601563-35.664063c-4.976562-11.167969-7.535156-23.261719-7.503906-35.484375-.007812-45.277344 34.234375-83.21875 79.273438-87.835938h.351562c2.824219-.265624 5.738281-.441406 8.652344-.441406 48.75 0 88.273437 39.523438 88.273437 88.277344zm0 0" fill="#e6e7e8"/><path d="m414.898438 255.15625c.007812 45.273438-34.234376 83.214844-79.273438 87.832031-15.753906-1.496093-30.800781-7.265625-43.519531-16.683593l-28.601563-35.664063c-4.976562-11.167969-7.535156-23.261719-7.503906-35.484375-.007812-45.277344 34.234375-83.21875 79.273438-87.835938h.351562c45.039062 4.617188 79.28125 42.558594 79.273438 87.835938zm0 0" fill="#fff"/><path d="m220.691406 255.15625c0 29.25-23.714844 52.964844-52.96875 52.964844-29.25 0-52.964844-23.714844-52.964844-52.964844 0-29.253906 23.714844-52.96875 52.964844-52.96875 29.253906 0 52.96875 23.714844 52.96875 52.96875zm0 0" fill="#4482c3"/><path d="m397.242188 255.15625c0 29.25-23.714844 52.964844-52.964844 52.964844-29.253906 0-52.96875-23.714844-52.96875-52.964844 0-29.253906 23.714844-52.96875 52.96875-52.96875 29.25 0 52.964844 23.714844 52.964844 52.96875zm0 0" fill="#4482c3"/><path d="m203.035156 255.15625c0 19.5-15.808594 35.308594-35.3125 35.308594-19.5 0-35.308594-15.808594-35.308594-35.308594 0-19.503906 15.808594-35.3125 35.308594-35.3125 19.503906 0 35.3125 15.808594 35.3125 35.3125zm0 0" fill="#2c2f38"/><path d="m379.585938 255.15625c0 19.5-15.808594 35.308594-35.308594 35.308594-19.503906 0-35.3125-15.808594-35.3125-35.308594 0-19.503906 15.808594-35.3125 35.3125-35.3125 19.5 0 35.308594 15.808594 35.308594 35.3125zm0 0" fill="#2c2f38"/><path d="m317.792969 505.59375c-20.371094 3.839844-41.0625 5.703125-61.792969 5.5625-20.730469.140625-41.421875-1.722656-61.792969-5.5625-119.085937-23.394531-105.929687-112.109375-105.929687-112.109375 20.25-6.542969 40.886718-11.820313 61.792968-15.804687 16.417969-2.292969 34.339844-4.234376 52.964844-5.648438 17.214844-1.324219 35.132813-2.117188 52.964844-2.117188s35.75.792969 52.964844 2.117188c18.625 1.414062 36.546875 3.355469 52.964844 5.648438 20.90625 3.984374 41.542968 9.261718 61.792968 15.804687 0 0 13.15625 88.714844-105.929687 112.109375zm0 0" fill="#802d40"/><path d="m317.792969 471.429688v33.457031c-20.308594 4.316406-41.027344 6.417969-61.792969 6.269531-20.765625.148438-41.484375-1.953125-61.792969-6.269531v-33.457031c-.019531-1.476563.101563-2.957032.351563-4.414063 2.300781-15.089844 15.28125-26.238281 30.542968-26.238281 15.265626 0 28.242188 11.148437 30.546876 26.238281.25 1.457031.371093 2.9375.351562 4.414063-.019531-1.476563.101562-2.957032.351562-4.414063 2.304688-15.089844 15.28125-26.238281 30.546876-26.238281 15.261718 0 28.242187 11.148437 30.542968 26.238281.25 1.457031.371094 2.9375.351563 4.414063zm0 0" fill="#ff5364"/><g fill="#f5efca"><path d="m256 369.914062v8.828126c0 14.625-11.855469 26.480468-26.484375 26.480468-14.625 0-26.480469-11.855468-26.480469-26.480468v-6.710938c17.214844-1.324219 35.132813-2.117188 52.964844-2.117188zm0 0"/><path d="m203.035156 372.03125v13.152344c0 14.628906-11.855468 26.484375-26.484375 26.484375-14.625 0-26.480469-11.855469-26.480469-26.484375v-7.503906c16.417969-2.292969 34.339844-4.234376 52.964844-5.648438zm0 0"/><path d="m361.929688 377.679688v7.503906c0 14.628906-11.855469 26.484375-26.480469 26.484375-14.628907 0-26.484375-11.855469-26.484375-26.484375v-13.152344c18.625 1.414062 36.546875 3.355469 52.964844 5.648438zm0 0"/><path d="m308.964844 372.03125v6.710938c0 14.625-11.855469 26.480468-26.480469 26.480468-14.628906 0-26.484375-11.855468-26.484375-26.480468v-8.828126c17.832031 0 35.75.792969 52.964844 2.117188zm0 0"/></g><path d="m300.136719 308.121094c0 14.625-19.765625 35.308594-44.136719 35.308594s-44.136719-20.683594-44.136719-35.308594c0-14.628906 19.765625-17.65625 44.136719-17.65625s44.136719 3.027344 44.136719 17.65625zm0 0" fill="#d75e72"/><path d="m158.898438 219.84375c0 9.75-7.90625 17.65625-17.65625 17.65625s-17.65625-7.90625-17.65625-17.65625 7.90625-17.65625 17.65625-17.65625 17.65625 7.90625 17.65625 17.65625zm0 0" fill="#fff"/><path d="m335.449219 219.84375c0 9.75-7.90625 17.65625-17.65625 17.65625s-17.65625-7.90625-17.65625-17.65625 7.90625-17.65625 17.65625-17.65625 17.65625 7.90625 17.65625 17.65625zm0 0" fill="#fff"/></svg>