<svg height="512pt" viewBox="0 0 512 512.00035" width="512pt" xmlns="http://www.w3.org/2000/svg"><g fill="#46b29d"><path d="m220.683594 467.863281v8.828125c0 19.5-15.808594 35.308594-35.308594 35.308594h-17.65625c-19.5 0-35.308594-15.808594-35.308594-35.308594v-36.988281zm0 0"/><path d="m379.582031 439.703125v36.988281c0 19.5-15.808593 35.308594-35.3125 35.308594h-17.65625c-19.5 0-35.308593-15.808594-35.308593-35.308594v-8.828125zm0 0"/><path d="m464.414062 159.78125-15.007812 113.785156-35.132812 131.445313c-9.539063 13.421875-21.269532 25.148437-34.691407 34.691406-25.441406 18.351563-56.023437 28.207031-87.394531 28.160156h-72.386719c-31.367187.046875-61.953125-9.808593-87.390625-28.160156-13.480468-9.578125-25.238281-21.367187-34.78125-34.871094l-35.222656-133.117187v-.089844l-14.832031-111.84375c-2.511719-18.476562-1.28125-37.269531 3.621093-55.261719l34.601563-61.175781c26.570313-27.765625 63.355469-43.4296875 101.785156-43.34375h136.828125c38.425782-.0859375 75.210938 15.578125 101.78125 43.34375l34.601563 61.175781c4.902343 17.992188 6.132812 36.785157 3.621093 55.261719zm0 0"/></g><path d="m448.964844 159.78125-15.007813 113.785156-35.132812 131.445313c-9.539063 13.421875-21.265625 25.148437-34.691407 34.691406-25.441406 18.351563-56.023437 28.207031-87.394531 28.160156h-56.9375c-31.367187.046875-61.953125-9.808593-87.390625-28.160156-13.480468-9.578125-25.238281-21.367187-34.78125-34.871094l-35.222656-133.117187v-.089844l-14.832031-111.84375c-2.511719-18.476562-1.28125-37.269531 3.621093-55.261719l34.601563-61.175781c26.570313-27.765625 63.355469-43.4296875 101.785156-43.34375h121.378907c38.425781-.0859375 75.210937 15.578125 101.78125 43.34375l34.605468 61.175781c4.898438 17.992188 6.128906 36.785157 3.617188 55.261719zm0 0" fill="#65ddb9"/><path d="m119.042969 346.449219c1.644531 4.429687 1.445312 9.335937-.554688 13.621093l-15.503906 33.164063-18.632813 39.855469c-10.054687 22.207031-36.207031 32.0625-58.414062 22.007812-10.664062-4.828125-18.976562-13.695312-23.105469-24.652344-4.125-10.957031-3.730469-23.101562 1.097657-33.769531l37.273437-79.710937 18.632813-39.867188.777343-1.660156c3.015625-6.449219 9.605469-10.457031 16.71875-10.164062 7.109375.289062 13.351563 4.824218 15.828125 11.5zm0 0" fill="#46b29d"/><path d="m392.460938 346.925781c-1.644532 4.46875-1.417969 9.414063.625 13.714844l15.679687 32.859375 18.871094 39.582031c10.054687 22.207031 36.207031 32.058594 58.414062 22.007813 10.664063-4.828125 18.976563-13.695313 23.105469-24.652344 4.125-10.957031 3.730469-23.105469-1.097656-33.769531l-18.882813-39.582031-18.875-39.582032-18.882812-39.585937-.882813-1.816407c-3.054687-6.40625-9.652344-10.355468-16.738281-10.03125-7.089844.328126-13.296875 4.863282-15.753906 11.523438zm0 0" fill="#46b29d"/><path d="m97.097656 52.964844c-2.769531-4.222656-6.6875-7.5625-11.300781-9.621094-13.042969-5.972656-27.332031-8.726562-41.664063-8.03125 0 0 17.65625 17.652344 17.65625 35.308594 0 0-35.3125-8.828125-44.140624 26.484375 11.578124.101562 23.003906 2.628906 33.546874 7.414062 4.488282 2.257813 8.183594 5.828125 10.59375 10.238281zm0 0" fill="#65ddb9"/><path d="m414.890625 52.964844c2.769531-4.222656 6.691406-7.5625 11.300781-9.621094 13.046875-5.972656 27.332032-8.726562 41.664063-8.03125 0 0-17.652344 17.652344-17.652344 35.308594 0 0 35.308594-8.828125 44.136719 26.484375-11.578125.101562-23.003906 2.628906-33.546875 7.414062-4.5 2.472657-17.210938 5.824219-19.417969 10.238281zm0 0" fill="#65ddb9"/><path d="m238.339844 150.070312c0 39-31.617188 70.621094-70.621094 70.621094-2.949219 0-5.898438-.175781-8.828125-.53125-35.394531-4.359375-61.988281-34.425781-61.988281-70.089844 0-35.664062 26.59375-65.730468 61.988281-70.09375 2.929687-.351562 5.878906-.53125 8.828125-.527343 39.003906 0 70.621094 31.617187 70.621094 70.621093zm0 0" fill="#e6e7e8"/><path d="m414.890625 150.070312c0 39-31.617187 70.621094-70.621094 70.621094-2.949219 0-5.898437-.175781-8.828125-.53125-35.394531-4.359375-61.984375-34.425781-61.984375-70.089844 0-35.664062 26.589844-65.730468 61.984375-70.09375 2.929688-.351562 5.878906-.53125 8.828125-.527343 39.003907 0 70.621094 31.617187 70.621094 70.621093zm0 0" fill="#e6e7e8"/><path d="m220.683594 150.070312c0-38.710937-27.664063-70.09375-61.792969-70.09375-34.125 0-61.792969 31.382813-61.792969 70.09375 0 38.710938 27.667969 70.089844 61.792969 70.089844 34.128906 0 61.792969-31.378906 61.792969-70.089844zm0 0" fill="#fff"/><path d="m397.234375 150.070312c0-38.710937-27.664063-70.09375-61.792969-70.09375-34.125 0-61.792968 31.382813-61.792968 70.09375 0 38.710938 27.667968 70.089844 61.792968 70.089844 34.128906 0 61.792969-31.378906 61.792969-70.089844zm0 0" fill="#fff"/><path d="m203.027344 150.070312c0 19.5-15.808594 35.308594-35.308594 35.308594s-35.308594-15.808594-35.308594-35.308594c0-19.503906 15.808594-35.3125 35.308594-35.3125s35.308594 15.808594 35.308594 35.3125zm0 0" fill="#8697cb"/><path d="m379.582031 150.070312c0 19.5-15.808593 35.308594-35.3125 35.308594-19.5 0-35.308593-15.808594-35.308593-35.308594 0-19.503906 15.808593-35.3125 35.308593-35.3125 19.503907 0 35.3125 15.808594 35.3125 35.3125zm0 0" fill="#8697cb"/><path d="m185.375 150.070312c0 9.75-7.90625 17.652344-17.65625 17.652344s-17.65625-7.902344-17.65625-17.652344 7.90625-17.65625 17.65625-17.65625 17.65625 7.90625 17.65625 17.65625zm0 0" fill="#2c2f38"/><path d="m361.925781 150.070312c0 9.75-7.90625 17.652344-17.65625 17.652344s-17.65625-7.902344-17.65625-17.652344 7.90625-17.65625 17.65625-17.65625 17.65625 7.90625 17.65625 17.65625zm0 0" fill="#2c2f38"/><path d="m203.027344 256h105.933594c9.75 0 17.652343 7.90625 17.652343 17.65625 0 39.003906-31.617187 70.621094-70.617187 70.621094-39.003906 0-70.621094-31.617188-70.621094-70.621094 0-9.75 7.902344-17.65625 17.652344-17.65625zm0 0" fill="#802d40"/><path d="m238.339844 256h35.308594v17.65625c0 9.75-7.902344 17.65625-17.652344 17.65625-9.753906 0-17.65625-7.90625-17.65625-17.65625zm0 0" fill="#f5efca"/><path d="m326.613281 423.722656c0-24.375-31.617187-44.136718-70.617187-44.136718-39.003906 0-70.621094 19.761718-70.621094 44.136718 0 24.378906 31.617188 44.140625 70.621094 44.140625 39 0 70.617187-19.761719 70.617187-44.140625zm0 0" fill="#fdd7ad"/><path d="m264.820312 0v52.964844c0 4.875-3.949218 8.828125-8.824218 8.828125s-8.828125-3.953125-8.828125-8.828125v-52.964844zm0 0" fill="#46b29d"/><path d="m229.511719 0v35.3125c0 4.875-3.953125 8.824219-8.828125 8.824219s-8.828125-3.949219-8.828125-8.824219v-35.3125zm0 0" fill="#46b29d"/><path d="m300.132812 0v35.3125c0 4.875-3.953124 8.824219-8.828124 8.824219s-8.828126-3.949219-8.828126-8.824219v-35.3125zm0 0" fill="#46b29d"/><path d="m158.890625 132.414062c0 9.75-7.902344 17.65625-17.65625 17.65625-9.75 0-17.652344-7.90625-17.652344-17.65625s7.902344-17.65625 17.652344-17.65625c9.753906 0 17.65625 7.90625 17.65625 17.65625zm0 0" fill="#fff"/><path d="m335.441406 132.414062c0 9.75-7.902344 17.65625-17.652344 17.65625-9.753906 0-17.65625-7.90625-17.65625-17.65625s7.902344-17.65625 17.65625-17.65625c9.75 0 17.652344 7.90625 17.652344 17.65625zm0 0" fill="#fff"/></svg>