<svg height="512pt" viewBox="0 0 512 512.00035" width="512pt" xmlns="http://www.w3.org/2000/svg"><g fill="#f29c1f"><path d="m220.683594 467.863281v8.828125c0 19.5-15.808594 35.308594-35.308594 35.308594h-17.65625c-19.5 0-35.308594-15.808594-35.308594-35.308594v-36.988281zm0 0"/><path d="m379.582031 439.703125v36.988281c0 19.5-15.808593 35.308594-35.3125 35.308594h-17.65625c-19.5 0-35.308593-15.808594-35.308593-35.308594v-8.828125zm0 0"/><path d="m464.414062 159.78125-15.007812 113.785156-35.132812 131.445313c-9.539063 13.421875-21.269532 25.148437-34.691407 34.691406-25.441406 18.351563-56.023437 28.207031-87.394531 28.160156h-72.386719c-31.367187.046875-61.953125-9.808593-87.390625-28.160156-13.480468-9.578125-25.238281-21.367187-34.78125-34.871094l-35.222656-133.117187v-.089844l-14.832031-111.84375c-2.511719-18.476562-1.28125-37.269531 3.621093-55.261719l34.601563-61.175781c26.570313-27.765625 63.355469-43.4296875 101.785156-43.34375h136.828125c38.425782-.0859375 75.210938 15.578125 101.78125 43.34375l34.601563 61.175781c4.902343 17.992188 6.132812 36.785157 3.621093 55.261719zm0 0"/></g><path d="m448.964844 159.78125-15.007813 113.785156-35.132812 131.445313c-9.539063 13.421875-21.265625 25.148437-34.691407 34.691406-25.441406 18.351563-56.023437 28.207031-87.394531 28.160156h-56.9375c-31.367187.046875-61.953125-9.808593-87.390625-28.160156-13.480468-9.578125-25.238281-21.367187-34.78125-34.871094l-35.222656-133.117187v-.089844l-14.832031-111.84375c-2.511719-18.476562-1.28125-37.269531 3.621093-55.261719l34.601563-61.175781c26.570313-27.765625 63.355469-43.4296875 101.785156-43.34375h121.378907c38.425781-.0859375 75.210937 15.578125 101.78125 43.34375l34.605468 61.175781c4.898438 17.992188 6.128906 36.785157 3.617188 55.261719zm0 0" fill="#f0c419"/><path d="m119.042969 346.449219c1.644531 4.429687 1.445312 9.335937-.554688 13.621093l-15.503906 33.164063-18.632813 39.855469c-10.054687 22.207031-36.207031 32.0625-58.414062 22.007812-10.664062-4.828125-18.976562-13.695312-23.105469-24.652344-4.125-10.957031-3.730469-23.101562 1.097657-33.769531l37.273437-79.710937 18.632813-39.867188.777343-1.660156c3.015625-6.449219 9.605469-10.457031 16.71875-10.164062 7.109375.289062 13.351563 4.824218 15.828125 11.5zm0 0" fill="#f29c1f"/><path d="m392.460938 346.925781c-1.644532 4.46875-1.417969 9.414063.625 13.714844l15.679687 32.859375 18.871094 39.582031c10.054687 22.207031 36.207031 32.058594 58.414062 22.007813 10.664063-4.828125 18.976563-13.695313 23.105469-24.652344 4.125-10.957031 3.730469-23.105469-1.097656-33.769531l-18.882813-39.582031-18.875-39.582032-18.882812-39.585937-.882813-1.816407c-3.054687-6.40625-9.652344-10.355468-16.738281-10.03125-7.089844.328126-13.296875 4.863282-15.753906 11.523438zm0 0" fill="#f29c1f"/><path d="m231.628906 180.082031c-12.40625 26.503907-39.878906 42.609375-69.070312 40.492188-29.1875-2.121094-54.046875-22.023438-62.496094-50.042969-8.453125-28.015625 1.253906-58.347656 24.402344-76.253906l29.304687 23.484375 19.421875 15.535156 9.710938 7.769531 19.507812 15.625zm0 0" fill="#fff"/><path d="m414.890625 150.070312c-.011719 33.066407-22.96875 61.695313-55.242187 68.894532-32.273438 7.203125-65.222657-8.957032-79.289063-38.882813l23.65625-18.976562 5.5625-4.414063 19.507813-15.625 2.472656-1.941406 7.238281-5.828125 19.421875-15.535156 29.308594-23.484375c17.289062 13.339844 27.402344 33.953125 27.363281 55.792968zm0 0" fill="#fff"/><path d="m97.097656 52.964844c-2.769531-4.222656-6.6875-7.5625-11.300781-9.621094-13.042969-5.972656-27.332031-8.726562-41.664063-8.03125 0 0 17.65625 17.652344 17.65625 35.308594 0 0-35.3125-8.828125-44.140624 26.484375 11.578124.101562 23.003906 2.628906 33.546874 7.414062 4.488282 2.257813 8.183594 5.828125 10.59375 10.238281zm0 0" fill="#f0c419"/><path d="m414.890625 52.964844c2.769531-4.222656 6.691406-7.5625 11.300781-9.621094 13.046875-5.972656 27.332032-8.726562 41.664063-8.03125 0 0-17.652344 17.652344-17.652344 35.308594 0 0 35.308594-8.828125 44.136719 26.484375-11.578125.101562-23.003906 2.628906-33.546875 7.414062-4.5 2.472657-17.210938 5.824219-19.417969 10.238281zm0 0" fill="#f0c419"/><path d="m202.410156 156.691406c-3.394531 17.910156-19.867187 30.292969-38.015625 28.574219-18.148437-1.714844-32.007812-16.964844-31.984375-35.195313-.058594-14.097656 8.367188-26.84375 21.359375-32.308593l19.421875 15.535156 9.710938 7.769531zm0 0" fill="#c03a2b"/><path d="m379.582031 150.070312c.019531 18.230469-13.835937 33.480469-31.988281 35.195313-18.148438 1.71875-34.621094-10.664063-38.015625-28.574219l19.507813-15.625 2.472656-1.941406 7.238281-5.828125 19.421875-15.535156c12.992188 5.464843 21.421875 18.210937 21.363281 32.308593zm0 0" fill="#c03a2b"/><path d="m185.375 150.070312c0 9.75-7.90625 17.652344-17.65625 17.652344s-17.65625-7.902344-17.65625-17.652344 7.90625-17.65625 17.65625-17.65625c1.863281-.03125 3.714844.269532 5.472656.882813l9.710938 7.769531c1.625 2.71875 2.480468 5.832032 2.472656 9.003906zm0 0" fill="#2c2f38"/><path d="m361.925781 150.070312c-.03125 9.738282-7.917969 17.625-17.65625 17.652344-5.089843 0-9.925781-2.222656-13.242187-6.089844-2.871094-3.160156-4.445313-7.289062-4.414063-11.5625-.007812-3.171874.847657-6.285156 2.472657-9.003906l2.472656-1.941406 7.238281-5.828125c1.757813-.613281 3.613281-.914063 5.472656-.882813 9.738281.027344 17.625 7.917969 17.65625 17.65625zm0 0" fill="#2c2f38"/><path d="m326.613281 432.550781c0-19.5-31.617187-35.308593-70.617187-35.308593-39.003906 0-70.621094 15.808593-70.621094 35.308593 0 19.503907 31.617188 35.3125 70.621094 35.3125 39 0 70.617187-15.808593 70.617187-35.3125zm0 0" fill="#fdd7ad"/><path d="m264.820312 0v52.964844c0 4.875-3.949218 8.828125-8.824218 8.828125s-8.828125-3.953125-8.828125-8.828125v-52.964844zm0 0" fill="#e57e25"/><path d="m229.511719 0v35.3125c0 4.875-3.953125 8.824219-8.828125 8.824219s-8.828125-3.949219-8.828125-8.824219v-35.3125zm0 0" fill="#e57e25"/><path d="m300.132812 0v35.3125c0 4.875-3.953124 8.824219-8.828124 8.824219s-8.828126-3.949219-8.828126-8.824219v-35.3125zm0 0" fill="#e57e25"/><path d="m158.890625 150.070312c0 9.75-7.902344 17.652344-17.65625 17.652344-9.75 0-17.652344-7.902344-17.652344-17.652344s7.902344-17.65625 17.652344-17.65625c9.753906 0 17.65625 7.90625 17.65625 17.65625zm0 0" fill="#fff"/><path d="m335.441406 150.070312c.035156 4.273438-1.539062 8.402344-4.414062 11.5625-3.3125 3.867188-8.148438 6.089844-13.238282 6.089844-1.496093.019532-2.984374-.1875-4.414062-.617187-3.691406-.925781-6.976562-3.035157-9.359375-6l5.5625-4.414063 19.507813-15.625 2.472656-1.941406c2.535156 3.082031 3.90625 6.953125 3.882812 10.945312zm0 0" fill="#fff"/><path d="m194.203125 256h123.585937c9.75 0 17.652344 7.90625 17.652344 17.65625v70.621094c0 9.75-7.902344 17.652344-17.652344 17.652344h-123.585937c-9.753906 0-17.65625-7.902344-17.65625-17.652344v-70.621094c0-9.75 7.902344-17.65625 17.65625-17.65625zm0 0" fill="#802d40"/><path d="m325.292969 257.675781-33.988281 42.460938-17.65625-8.824219-17.652344 8.824219-17.65625-8.824219-17.65625 8.824219-33.984375-42.460938c2.347656-1.09375 4.910156-1.664062 7.503906-1.675781h123.585937c2.589844.011719 5.152344.582031 7.503907 1.675781zm0 0" fill="#f5efca"/></svg>