<svg height="511pt" viewBox="0 -8 511.99685 511" width="511pt" xmlns="http://www.w3.org/2000/svg"><path d="m503.464844 299.164062c0 136.703126-110.761719 196.269532-247.464844 196.269532-2.902344 0-5.71875 0-8.535156-.085938-132.777344-2.476562-238.933594-62.378906-238.933594-196.183594.605469-42.503906 9.804688-84.449218 27.050781-123.304687l113.492188-141.398437c29.183593-19.847657 63.167969-31.492188 98.390625-33.707032 2.816406-.171875 5.71875-.253906 8.535156-.253906 38.140625.53125 75.277344 12.316406 106.75 33.875l113.492188 141.058594c17.332031 38.984375 26.59375 81.074218 27.222656 123.730468zm0 0" fill="#f29c1f"/><path d="m486.398438 299.164062c0 133.804688-106.15625 193.707032-238.933594 196.183594-132.777344-2.476562-238.933594-62.378906-238.933594-196.183594.605469-42.503906 9.804688-84.449218 27.050781-123.304687l113.492188-141.398437c29.183593-19.847657 63.167969-31.492188 98.390625-33.707032 35.164062 2.1875 69.089844 13.800782 98.21875 33.621094l113.492187 141.058594c17.332031 38.984375 26.59375 81.074218 27.222657 123.730468zm0 0" fill="#f0c419"/><path d="m187.730469 68.765625-47.957031 51.113281c-22.441407-59.476562-84.648438-97.109375-130.132813-119.378906 135.679687.339844 178.089844 68.265625 178.089844 68.265625zm0 0" fill="#f0c419"/><path d="m139.773438 119.878906-74.527344 79.539063c-1.566406 1.667969-3.726563 2.640625-6.011719 2.710937-2.285156.070313-4.503906-.769531-6.167969-2.335937-52.417968-49.535157-44.535156-199.292969-44.535156-199.292969h1.109375c45.484375 22.269531 107.691406 59.902344 130.132813 119.378906zm0 0" fill="#ff5364"/><path d="m502.355469.5c-45.566407 22.269531-107.945313 60.074219-130.304688 119.722656l-48.210937-51.457031s42.496094-68.011719 178.515625-68.265625zm0 0" fill="#f0c419"/><path d="m446.292969 199.417969-74.242188-79.195313c22.359375-59.648437 84.738281-97.453125 130.304688-119.722656h.683593s7.882813 149.765625-44.535156 199.292969c-1.664062 1.582031-3.890625 2.429687-6.183594 2.359375-2.292968-.070313-4.464843-1.054688-6.027343-2.734375zm0 0" fill="#ff5364"/><path d="m358.398438 239.433594c0 56.574218-45.824219 76.796875-102.398438 76.796875-2.902344 0-5.71875-.085938-8.535156-.167969 52.566406-1.964844 93.867187-22.957031 93.867187-76.628906-.617187-24.523438-7.457031-48.484375-19.882812-69.632813 4.722656-1.546875 9.34375-3.398437 13.824219-5.546875 14.398437 22.488282 22.394531 48.480469 23.125 75.179688zm0 0" fill="#e6e7e8"/><path d="m341.332031 239.433594c0 53.671875-41.300781 74.664062-93.867187 76.628906-52.566406-1.964844-93.867188-22.957031-93.867188-76.628906.617188-24.523438 7.457032-48.484375 19.882813-69.632813 1.023437-1.878906 2.132812-3.753906 3.242187-5.546875 12.257813 5.613282 25.195313 9.597656 38.488282 11.859375 10.648437 1.964844 21.429687 3.105469 32.253906 3.414063 2.816406.085937 5.632812.171875 8.535156.171875 13.675781.027343 27.328125-1.171875 40.789062-3.585938 8.359376-1.507812 16.601563-3.617187 24.660157-6.3125 12.425781 21.148438 19.265625 45.109375 19.882812 69.632813zm0 0" fill="#fff"/><path d="m207.929688 452.765625c-1.355469 0-2.730469-.070313-4.105469-.195313-16.210938-1.539062-29.867188-11.855468-40.566407-30.652343-.851562-1.042969-4.265624-4.617188-7.246093-4.265625-1.261719.101562-5.851563 1.355468-11.84375 13.351562-2.105469 4.21875-7.234375 5.929688-11.449219 3.824219-4.21875-2.105469-5.929688-7.234375-3.824219-11.453125 7.203125-14.386719 15.921875-22.039062 25.941407-22.75 9.195312-.054688 17.789062 4.550781 22.84375 12.230469 8.21875 14.308593 17.40625 21.757812 27.714843 22.75 17.921875 1.757812 36.070313-15.070313 42.070313-21.242188v-38.398437c0-4.710938 3.820312-8.53125 8.535156-8.53125 4.710938 0 8.53125 3.820312 8.53125 8.53125v41.726562c0 2.035156-.730469 4.003906-2.054688 5.546875-1.078124 1.265625-25.660156 29.527344-54.546874 29.527344zm0 0" fill="#802d40"/><path d="m304.066406 452.765625c-28.894531 0-53.46875-28.269531-54.542968-29.535156-1.324219-1.542969-2.054688-3.503907-2.058594-5.539063v-41.726562c0-4.710938 3.820312-8.53125 8.535156-8.53125 4.710938 0 8.53125 3.820312 8.53125 8.53125v38.398437c5.972656 6.171875 24.089844 22.949219 42.070312 21.242188 10.308594-.992188 19.5-8.441407 27.304688-22.121094 5-8.015625 13.789062-12.878906 23.238281-12.859375 10.019531.710938 18.773438 8.363281 25.941407 22.75 2.105468 4.21875.394531 9.347656-3.824219 11.453125s-9.34375.394531-11.449219-3.824219c-5.976562-11.996094-10.582031-13.25-11.847656-13.351562-2.773438-.328125-6.433594 3.25-7.679688 4.980468-10.308594 18.117188-23.953125 28.433594-40.105468 29.96875-1.382813.105469-2.757813.164063-4.113282.164063zm0 0" fill="#802d40"/><path d="m324.265625 333.382812c0 14.25-17.664063 31.488282-42.667969 38.828126-5.539062 1.65625-11.226562 2.769531-16.980468 3.328124-2.816407.253907-5.71875.425782-8.617188.425782-2.902344 0-5.804688-.171875-8.621094-.425782-5.753906-.558593-11.441406-1.671874-16.980468-3.328124-25.003907-7.339844-42.667969-24.578126-42.667969-38.828126 0-18.859374 30.550781-17.066406 68.269531-17.066406 37.714844 0 68.265625-1.792968 68.265625 17.066406zm0 0" fill="#d75e72"/><path d="m247.464844 358.898438v15.359374c.015625.429688-.015625.859376-.085938 1.28125-5.753906-.558593-11.441406-1.671874-16.980468-3.328124v-13.3125c0-4.710938 3.820312-8.535157 8.535156-8.535157 4.710937 0 8.53125 3.824219 8.53125 8.535157zm0 0" fill="#802d40"/><path d="m281.597656 358.898438v13.3125c-5.539062 1.65625-11.226562 2.769531-16.980468 3.328124-.070313-.421874-.097657-.851562-.085938-1.28125v-15.359374c0-4.710938 3.820312-8.535157 8.535156-8.535157 4.710938 0 8.53125 3.824219 8.53125 8.535157zm0 0" fill="#802d40"/><path d="m324.265625 230.898438c-.019531 32.125-22.433594 59.886718-53.832031 66.679687-31.398438 6.792969-63.285156-9.226563-76.582032-38.46875-13.292968-29.242187-4.402343-63.800781 21.359376-82.996094 13.460937 2.414063 27.109374 3.613281 40.789062 3.585938 13.675781.027343 27.328125-1.171875 40.789062-3.585938 17.292969 12.898438 27.480469 33.210938 27.476563 54.785157zm0 0" fill="#b0d3f0"/><path d="m307.199219 230.898438c0 28.277343-22.921875 51.199218-51.199219 51.199218s-51.203125-22.921875-51.203125-51.199218c0-28.277344 22.925781-51.199219 51.203125-51.199219s51.199219 22.921875 51.199219 51.199219zm0 0" fill="#2c2f38"/><g fill="#e6e7e8"><path d="m17.066406 495.433594c-.476562 0-.949218-.039063-1.417968-.121094-4.640626-.777344-7.777344-5.171875-7.003907-9.8125 17.917969-107.324219 142.503907-126.292969 143.734375-126.515625 4.664063-.671875 8.992188 2.566406 9.664063 7.230469.671875 4.667968-2.566407 8.992187-7.234375 9.664062-1.132813.164063-113.492188 17.519532-129.339844 112.417969-.683594 4.113281-4.234375 7.128906-8.402344 7.136719zm0 0"/><path d="m8.53125 384.5c-3.449219-.003906-6.5625-2.082031-7.882812-5.269531-1.320313-3.1875-.5898442-6.859375 1.851562-9.296875 53.484375-53.488282 131.683594-45.441406 134.96875-45.117188 4.6875.515625 8.066406 4.730469 7.550781 9.417969-.515625 4.683594-4.734375 8.0625-9.417969 7.546875-.714843-.070312-73.445312-7.375-121.035156 40.21875-1.601562 1.597656-3.773437 2.496094-6.035156 2.5zm0 0"/><path d="m494.933594 495.433594c-4.167969-.007813-7.722656-3.023438-8.40625-7.136719-15.871094-95.128906-128.207032-112.253906-129.339844-112.417969-4.667969-.667968-7.90625-4.992187-7.238281-9.660156.671875-4.664062 4.996093-7.902344 9.660156-7.234375 1.253906.179687 125.851563 19.191406 143.734375 126.515625.773438 4.640625-2.363281 9.035156-7.003906 9.8125-.464844.082031-.9375.121094-1.40625.121094zm0 0"/><path d="m503.464844 384.5c-2.261719-.003906-4.433594-.902344-6.03125-2.5-47.726563-47.746094-120.261719-40.320312-121.03125-40.21875-4.683594.519531-8.902344-2.859375-9.417969-7.542969-.519531-4.6875 2.859375-8.902343 7.542969-9.421875 3.285156-.351562 81.484375-8.371094 134.972656 45.117188 2.4375 2.4375 3.167969 6.109375 1.847656 9.296875-1.320312 3.1875-4.433594 5.265625-7.882812 5.269531zm0 0"/></g><path d="m256 154.03125c-11.191406.019531-22.160156-3.101562-31.660156-9.011719-.347656-.21875-.683594-.460937-1-.726562l-41.128906-34.882813c-2.328126-1.972656-3.421876-5.035156-2.878907-8.039062.546875-3 2.648438-5.480469 5.523438-6.507813 2.871093-1.03125 6.070312-.449219 8.398437 1.523438l40.632813 34.46875c13.609375 8.164062 30.613281 8.164062 44.222656 0l40.632813-34.46875c3.597656-3.046875 8.984374-2.605469 12.035156.992187 3.046875 3.59375 2.605468 8.980469-.992188 12.03125l-41.128906 34.882813c-.316406.265625-.652344.507812-1 .726562-9.5 5.910157-20.46875 9.03125-31.65625 9.011719zm0 0" fill="#f29c1f"/><path d="m238.933594 213.832031c0 14.136719-11.464844 25.601563-25.601563 25.601563-14.140625 0-25.601562-11.464844-25.601562-25.601563 0-14.140625 11.460937-25.601562 25.601562-25.601562 14.136719 0 25.601563 11.460937 25.601563 25.601562zm0 0" fill="#fff"/></svg>