<svg height="512pt" viewBox="0 -4 512.04925 512" width="512pt" xmlns="http://www.w3.org/2000/svg"><path d="m503.351562 332.855469c0 122.539062-110.761718 170.667969-247.464843 170.667969-2.902344 0-5.71875 0-8.535157-.085938-132.777343-1.960938-238.933593-50.601562-238.933593-170.582031 0-57.257813 24.152343-120.660157 64-171.859375l90.882812-76.203125c15.871094-8.242188 32.613281-14.683594 49.917969-19.199219 2.816406-.769531 5.632812-1.453125 8.535156-2.050781 2.898438-.597657 5.546875-1.109375 8.363282-1.621094 5.714843-.851563 11.433593-1.535156 17.234374-1.875 2.816407-.171875 5.632813-.257813 8.535157-.257813 2.902343 0 5.714843.085938 8.53125.257813 5.804687.339844 11.523437 1.023437 17.238281 1.875 2.816406.511719 5.546875 1.023437 8.363281 1.621094 2.816407.597656 5.71875 1.28125 8.535157 2.050781 17.300781 4.515625 34.046874 10.957031 49.917968 19.199219l90.878906 76.203125c39.851563 51.199218 64 114.601562 64 171.859375zm0 0" fill="#df4d60"/><path d="m486.285156 332.855469c0 119.980469-106.152344 168.621093-238.933594 170.582031-132.777343-1.960938-238.933593-50.601562-238.933593-170.582031 0-57.257813 24.152343-120.660157 64-171.859375l90.882812-76.203125c15.871094-8.242188 32.613281-14.683594 49.917969-19.199219 2.816406-.769531 5.632812-1.453125 8.535156-2.050781 2.898438-.597657 5.546875-1.109375 8.363282-1.621094 5.714843-.851563 11.433593-1.535156 17.234374-1.875 5.804688.339844 11.519532 1.023437 17.238282 1.875 2.816406.511719 5.546875 1.023437 8.363281 1.621094 2.816406.597656 5.71875 1.28125 8.53125 2.050781 17.304687 4.515625 34.050781 10.957031 49.921875 19.199219l90.878906 76.203125c39.851563 51.199218 64 114.601562 64 171.859375zm0 0" fill="#ff5364"/><path d="m170.554688 153.65625c-11.886719-.050781-23.644532 2.453125-34.476563 7.339844-2.304687-9.898438-21.84375-79.105469-109.824219-133.546875l-.769531-1.792969s43.265625 18.515625 108.886719 2.988281c42.582031 48.296875 36.183594 125.011719 36.183594 125.011719zm0 0" fill="#b49aca"/><path d="m136.078125 160.996094c-11.472656 5.019531-21.675781 12.542968-29.867187 22.015625-9.714844-9.480469-21.195313-16.957031-33.792969-22.015625-13.878907-5.683594-29.082031-7.339844-43.859375-4.78125 11.519531-23.890625 23.464844-70.910156-2.304688-128.765625 87.980469 54.441406 107.519532 123.648437 109.824219 133.546875zm0 0" fill="#b49aca"/><path d="m483.980469 155.535156.257812.851563c-15.09375-2.789063-30.671875-1.191407-44.886719 4.609375-12.59375 5.058594-24.074218 12.535156-33.789062 22.015625-8.191406-9.472657-18.398438-16.996094-29.867188-22.015625 2.304688-9.898438 21.84375-79.105469 109.824219-133.546875-28.160156 63.144531-13.570312 106.75-1.539062 128.085937zm0 0" fill="#b49aca"/><path d="m486.285156 25.65625-.765625 1.792969c-87.980469 54.441406-107.519531 123.648437-109.824219 133.546875-10.835937-4.886719-22.589843-7.390625-34.476562-7.339844 0 0-6.398438-76.714844 36.183594-125.011719 65.621094 15.527344 108.882812-2.988281 108.882812-2.988281zm0 0" fill="#b49aca"/><g fill="#df4d60"><path d="m170.554688 162.191406c-.230469 0-.472657 0-.710938 0-2.265625-.183594-4.363281-1.257812-5.832031-2.992187-1.46875-1.730469-2.1875-3.980469-1.992188-6.242188.085938-.972656 7.21875-97.777343-55.75-137.132812-2.589843-1.613281-4.121093-4.488281-4.019531-7.542969.105469-3.050781 1.828125-5.816406 4.523438-7.253906 2.695312-1.433594 5.953124-1.324219 8.542968.292968 71.875 44.945313 64.109375 148.648438 63.769532 153.042969-.367188 4.433594-4.082032 7.839844-8.53125 7.828125zm0 0"/><path d="m136.070312 169.527344c-3.964843-.003906-7.402343-2.734375-8.304687-6.59375-1.707031-7.492188-19.523437-74.71875-106.007813-128.222656-5.929687-3.695313-11.769531-7.082032-17.359374-10.0625-4.078126-2.257813-5.585938-7.371094-3.390626-11.484376 2.195313-4.113281 7.285157-5.699218 11.429688-3.566406 5.921875 3.15625 12.085938 6.722656 18.320312 10.597656 92.324219 57.171876 111.71875 130.671876 113.632813 138.871094 1.0625 4.585938-1.789063 9.171875-6.375 10.238282-.636719.15625-1.289063.230468-1.945313.222656zm0 0"/><path d="m106.210938 191.542969c-2.238282 0-4.382813-.882813-5.972657-2.457031-8.910156-8.648438-19.414062-15.492188-30.925781-20.148438-18.507812-7.539062-39.304688-7.140625-57.515625 1.09375-4.3125 1.777344-9.253906-.238281-11.089844-4.527344-1.839843-4.289062.105469-9.257812 4.367188-11.15625 22.335937-10.089844 47.835937-10.550781 70.519531-1.273437 13.664062 5.472656 26.109375 13.59375 36.625 23.894531 2.457031 2.429688 3.207031 6.101562 1.898438 9.300781-1.308594 3.195313-4.417969 5.289063-7.871094 5.300781zm0 0"/><path d="m341.21875 162.191406c-4.449219.011719-8.164062-3.394531-8.53125-7.828125-.34375-4.394531-8.109375-108.097656 63.742188-153.011719 4.007812-2.496093 9.277343-1.273437 11.777343 2.730469 2.496094 4.007813 1.273438 9.28125-2.730469 11.777344-62.96875 39.320313-55.835937 136.089844-55.722656 137.097656.191406 2.265625-.527344 4.511719-1.996094 6.246094-1.472656 1.734375-3.574218 2.808594-5.839843 2.988281-.238281 0-.476563 0-.699219 0zm0 0"/><path d="m375.703125 169.527344c-.65625.007812-1.308594-.066406-1.945313-.222656-4.585937-1.066407-7.441406-5.652344-6.375-10.238282 1.910157-8.199218 21.332032-81.730468 113.648438-138.878906 6.21875-3.867188 12.378906-7.433594 18.300781-10.589844 4.148438-2.132812 9.238281-.546875 11.433594 3.566406 2.195313 4.113282.683594 9.226563-3.394531 11.484376-5.589844 2.980468-11.425782 6.367187-17.347656 10.054687-86.511719 53.511719-104.277344 120.738281-106.019532 128.230469-.898437 3.859375-4.335937 6.589844-8.300781 6.59375zm0 0"/><path d="m405.5625 191.542969c-3.457031-.011719-6.5625-2.101563-7.871094-5.300781-1.308594-3.199219-.558594-6.867188 1.894532-9.296876 10.539062-10.308593 23.007812-18.425781 36.695312-23.894531 15.722656-6.414062 32.953125-8.167969 49.648438-5.0625 7.164062 1.320313 14.152343 3.453125 20.835937 6.351563 2.847656 1.171875 4.839844 3.785156 5.21875 6.839844.378906 3.054687-.917969 6.074218-3.390625 7.90625-2.472656 1.832031-5.742188 2.191406-8.550781.9375-5.507813-2.398438-11.269531-4.15625-17.179688-5.238282-13.546875-2.519531-27.535156-1.082031-40.292969 4.128906-11.527343 4.65625-22.042968 11.503907-30.96875 20.164063-1.605468 1.59375-3.777343 2.484375-6.039062 2.464844zm0 0"/><path d="m264.417969 60.046875v50.941406c0 4.714844-3.820313 8.535157-8.53125 8.535157-4.714844 0-8.535157-3.820313-8.535157-8.535157v-50.941406c2.816407-.171875 5.632813-.257813 8.535157-.257813 2.902343 0 5.714843.085938 8.53125.257813zm0 0"/><path d="m230.285156 63.542969v30.378906c0 4.714844-3.820312 8.535156-8.53125 8.535156-4.714844 0-8.535156-3.820312-8.535156-8.535156v-28.328125c2.816406-.769531 5.632812-1.453125 8.535156-2.050781 2.898438-.597657 5.546875-1.109375 8.363282-1.621094.101562.535156.160156 1.078125.167968 1.621094zm0 0"/><path d="m298.554688 65.59375v28.328125c0 4.714844-3.824219 8.535156-8.535157 8.535156-4.710937 0-8.535156-3.820312-8.535156-8.535156v-30.378906c.011719-.542969.070313-1.085938.171875-1.621094 2.816406.511719 5.546875 1.023437 8.363281 1.621094 2.816407.597656 5.71875 1.28125 8.535157 2.050781zm0 0"/></g><path d="m255.460938 247.265625h.851562l-.425781.257813zm0 0" fill="#fff"/><path d="m426.554688 238.988281c0 47.128907-38.207032 85.335938-85.335938 85.335938-2.730469 0-5.546875-.171875-8.191406-.429688h-.171875c-40.53125-4-72.585938-36.089843-76.542969-76.628906l63.828125-35.070313 9.558594-5.292968 53.589843-29.4375 10.410157-5.71875c20.734375 16.148437 32.855469 40.960937 32.855469 67.242187zm0 0" fill="#e6e7e8"/><path d="m409.484375 238.988281c-.042969 43.683594-33.019531 80.300781-76.457031 84.90625h-.171875c-40.53125-4-72.585938-36.089843-76.542969-76.628906l63.828125-35.070313 9.558594-5.292968 53.589843-29.4375c16.738282 16.089844 26.199219 38.304687 26.195313 61.523437zm0 0" fill="#fff"/><path d="m238.820312 238.136719v.851562c-.046874 43.683594-33.019531 80.300781-76.460937 84.90625-4.460937-.414062-8.886719-1.183593-13.226563-2.300781-1.007812-.234375-2.003906-.519531-2.984374-.855469-4.746094-1.375-9.347657-3.203125-13.738282-5.460937-1.453125-.683594-2.816406-1.449219-4.183594-2.21875-3.046874-1.675782-5.957031-3.585938-8.703124-5.71875-1.367188-1.023438-2.730469-2.046875-4.011719-3.15625-3.675781-3.078125-7.074219-6.476563-10.152344-10.152344-1.109375-1.28125-2.132813-2.648438-3.160156-4.011719-2.050781-2.726562-3.933594-5.574219-5.628907-8.535156-1.027343-1.789063-1.964843-3.667969-2.902343-5.546875l-.257813-.511719c-.851562-1.875-1.707031-3.839843-2.472656-5.800781-.207031-.410156-.378906-.839844-.511719-1.28125-.597656-1.792969-1.195312-3.582031-1.792969-5.460938-.257812-.851562-.511718-1.707031-.683593-2.558593-.425781-1.707031-.851563-3.414063-1.195313-5.121094-.167968-1.023437-.425781-2.132813-.511718-3.242187-.253907-1.535157-.425782-3.074219-.597657-4.695313-.253906-2.730469-.425781-5.460937-.425781-8.277344-.003906-26.28125 12.121094-51.09375 32.855469-67.242187l34.898437 19.199218 17.582032 9.644532 11.519531 6.3125 9.554687 5.292968 28.929688 15.871094zm0 0" fill="#fff"/><path d="m255.460938 247.265625c-4.261719 43.707031-40.996094 77.042969-84.90625 77.058594-2.734376 0-5.546876-.171875-8.195313-.429688 43.441406-4.605469 76.414063-41.222656 76.460937-84.90625v-.851562zm0 0" fill="#e6e7e8"/><path d="m221.753906 238.988281c.023438 25.976563-19.410156 47.851563-45.203125 50.894531-25.796875 3.042969-49.78125-13.714843-55.804687-38.980468-6.019532-25.265625 7.832031-51.039063 32.226562-59.957032l67.585938 37.121094c.789062 3.585938 1.191406 7.25 1.195312 10.921875zm0 0" fill="#c03a2b"/><path d="m290.019531 238.988281c-.023437 25.976563 19.40625 47.851563 45.203125 50.894531 25.792969 3.042969 49.78125-13.714843 55.800782-38.980468 6.023437-25.265625-7.828126-51.039063-32.226563-59.957032l-67.582031 37.121094c-.792969 3.585938-1.191406 7.25-1.195313 10.921875zm0 0" fill="#c03a2b"/><path d="m204.6875 238.988281c0 18.851563-15.285156 34.132813-34.132812 34.132813-18.851563 0-34.136719-15.28125-34.136719-34.132813 0-18.851562 15.285156-34.132812 34.136719-34.132812 3.929687-.019531 7.835937.671875 11.519531 2.046875l9.554687 5.292968c8.253906 6.441407 13.070313 16.328126 13.058594 26.792969zm0 0" fill="#2c2f38"/><path d="m375.351562 238.988281c.027344 15.964844-11.015624 29.816407-26.585937 33.34375-15.570313 3.527344-31.503906-4.203125-38.367187-18.621093-6.859376-14.414063-2.8125-31.65625 9.742187-41.515626l9.558594-5.292968c3.683593-1.375 7.585937-2.066406 11.519531-2.046875 9.054688 0 17.734375 3.597656 24.136719 10 6.402343 6.398437 9.996093 15.082031 9.996093 24.132812zm0 0" fill="#2c2f38"/><path d="m196.152344 358.457031h119.46875c9.425781 0 17.066406 7.640625 17.066406 17.066407v68.265624c0 9.425782-7.640625 17.066407-17.066406 17.066407h-119.46875c-9.425782 0-17.066406-7.640625-17.066406-17.066407v-68.265624c0-9.425782 7.640624-17.066407 17.066406-17.066407zm0 0" fill="#802d40"/><path d="m322.871094 360.078125-32.851563 41.042969-17.066406-8.53125-17.066406 8.53125-17.066407-8.53125-17.066406 8.53125-32.855468-41.042969c2.273437-1.058594 4.746093-1.613281 7.253906-1.621094h119.46875c2.503906.007813 4.980468.5625 7.25 1.621094zm0 0" fill="#f5efca"/><path d="m162.019531 264.589844c0 9.425781-7.640625 17.066406-17.066406 17.066406s-17.066406-7.640625-17.066406-17.066406c0-9.425782 7.640625-17.066406 17.066406-17.066406s17.066406 7.640624 17.066406 17.066406zm0 0" fill="#fff"/><path d="m332.6875 264.589844c0 9.425781-7.640625 17.066406-17.066406 17.066406-9.425782 0-17.066406-7.640625-17.066406-17.066406 0-9.425782 7.640624-17.066406 17.066406-17.066406 9.425781 0 17.066406 7.640624 17.066406 17.066406zm0 0" fill="#fff"/></svg>