<svg height="512pt" viewBox="0 -4 512 512" width="512pt" xmlns="http://www.w3.org/2000/svg"><path d="m52.964844 203.074219c-3.136719-.003907-6.035156-1.675781-7.613282-4.386719-1.578124-2.710938-1.601562-6.054688-.058593-8.785156 1.175781-2.089844 29.265625-51.339844 66.207031-77.9375 3.953125-2.628906 9.273438-1.660156 12.046875 2.1875 2.777344 3.847656 2.011719 9.203125-1.726563 12.121094-33.710937 24.3125-60.855468 71.820312-61.128906 72.296874-1.570312 2.792969-4.527344 4.515626-7.726562 4.503907zm0 0" fill="#955ba5"/><path d="m262.269531 59.449219c-10.070312-38.699219-47.328125-63.882813-86.992187-58.796875-39.660156 5.082031-69.363282 38.847656-69.347656 78.835937.03125 34.429688 22.234374 64.921875 54.996093 75.519531 32.757813 10.597657 68.617188-1.109374 88.804688-29zm0 0" fill="#955ba5"/><path d="m256 79.488281c0 39-31.617188 70.621094-70.621094 70.621094-2.949218 0-5.898437-.175781-8.828125-.53125-35.394531-4.359375-61.988281-34.425781-61.988281-70.089844 0-35.664062 26.59375-65.730469 61.988281-70.09375 2.929688-.351562 5.878907-.53125 8.828125-.527343 39.003906 0 70.621094 31.617187 70.621094 70.621093zm0 0" fill="#e6e7e8"/><path d="m238.34375 79.488281c0-38.710937-27.664062-70.09375-61.792969-70.09375-34.125 0-61.792969 31.382813-61.792969 70.09375 0 38.710938 27.667969 70.089844 61.792969 70.089844 34.128907 0 61.792969-31.378906 61.792969-70.089844zm0 0" fill="#fff"/><path d="m229.515625 79.488281c0 24.375-19.757813 44.136719-44.136719 44.136719-24.375 0-44.136718-19.761719-44.136718-44.136719 0-24.378906 19.761718-44.140625 44.136718-44.140625 24.378906 0 44.136719 19.761719 44.136719 44.140625zm0 0" fill="#67b9cc"/><path d="m211.863281 79.488281c0 14.625-11.859375 26.480469-26.484375 26.480469s-26.480468-11.855469-26.480468-26.480469c0-14.628906 11.855468-26.484375 26.480468-26.484375s26.484375 11.855469 26.484375 26.484375zm0 0" fill="#2c2f38"/><path d="m176.550781 53.003906c0 9.75-7.902343 17.65625-17.652343 17.65625-9.753907 0-17.65625-7.90625-17.65625-17.65625s7.902343-17.65625 17.65625-17.65625c9.75 0 17.652343 7.90625 17.652343 17.65625zm0 0" fill="#fff"/><path d="m512 300.175781c0 112.113281-114.582031 203.035157-256 203.035157-3 0-5.914062 0-8.828125-.175782 137.359375-3.621094 247.171875-93.132812 247.171875-202.859375-.464844-42.804687-16.679688-83.941406-45.550781-115.550781.960937-5.511719 1.433593-11.09375 1.414062-16.683594 38.398438 33.335938 60.855469 81.394532 61.792969 132.234375zm0 0" fill="#894b9d"/><path d="m494.34375 300.175781c0 109.726563-109.8125 199.238281-247.171875 202.859375-137.355469-3.621094-247.171875-93.132812-247.171875-202.859375.464844-42.804687 16.683594-83.941406 45.550781-115.550781 5.097657-5.863281 10.519531-11.433594 16.242188-16.683594.175781 75.472656 81.65625 137.089844 184.230469 140.886719.765624.042969 1.53125.042969 2.296874 0 2.558594.175781 5.121094.175781 7.679688.175781 99.398438 0 181.40625-54.289062 192.792969-124.378906 28.871093 31.609375 45.085937 72.746094 45.550781 115.550781zm0 0" fill="#955ba5"/><path d="m467.863281 307.414062v.179688c-.621093 31.386719-13.257812 61.339844-35.3125 83.683594-4.847656 5.167968-10.003906 10.03125-15.449219 14.566406-11.550781 9.601562-24.132812 17.890625-37.515624 24.714844-5.382813 2.828125-11.121094 5.476562-16.949219 7.859375-14.476563 6.085937-29.488281 10.816406-44.84375 14.125-5.738281 1.234375-11.5625 2.292969-17.476563 3.175781-11.753906 1.789062-23.605468 2.851562-35.488281 3.179688-2.914063.175781-5.828125.175781-8.828125.175781s-5.914062 0-8.828125-.175781c-11.882813-.328126-23.734375-1.390626-35.488281-3.179688-5.914063-.882812-11.738282-1.941406-17.476563-3.175781-15.355469-3.308594-30.367187-8.039063-44.84375-14.125-5.828125-2.382813-11.566406-5.03125-16.949219-7.859375-13.382812-6.824219-25.964843-15.113282-37.515624-24.714844-5.445313-4.535156-10.601563-9.398438-15.449219-14.566406-22.054688-22.34375-34.691407-52.296875-35.3125-83.683594v-.179688c-.023438-7.867187.832031-15.714843 2.5625-23.390624 2.054687-9.746094 5.441406-19.164063 10.0625-27.984376 7.238281 10.886719 15.644531 20.953126 25.070312 30.015626 4.84375 4.746093 9.941407 9.222656 15.269531 13.417968 11.335938 8.992188 23.480469 16.910156 36.285157 23.65625 5.382812 2.824219 10.945312 5.5625 16.683593 8.121094 14.332032 6.199219 29.191407 11.105469 44.402344 14.652344 5.648438 1.414062 11.476563 2.5625 17.390625 3.621094 11.683594 1.902343 23.476563 3.082031 35.308594 3.53125 2.914063 0 5.914063.085937 8.828125.085937s5.914062-.085937 8.828125-.085937c11.832031-.449219 23.625-1.628907 35.308594-3.53125 5.914062-1.058594 11.742187-2.207032 17.390625-3.621094 15.210937-3.546875 30.070312-8.453125 44.402344-14.652344 5.738281-2.558594 11.300781-5.296875 16.683593-8.121094 12.804688-6.746094 24.949219-14.664062 36.285157-23.65625 5.328124-4.195312 10.425781-8.671875 15.269531-13.417968 9.425781-9.0625 17.832031-19.128907 25.070312-30.015626 4.609375 8.859376 7.996094 18.300782 10.0625 28.070313 1.730469 7.648437 2.585938 15.464844 2.5625 23.304687zm0 0" fill="#f5efca"/><g fill="#f9eab0"><path d="m467.863281 307.414062c-10.175781 15.058594-22.019531 28.917969-35.3125 41.316407-5.382812 5.03125-11.210937 10.0625-17.652343 15.003906-11.0625 8.589844-22.882813 16.152344-35.3125 22.601563-5.648438 2.910156-11.476563 5.648437-17.65625 8.207031-14.214844 6.074219-29 10.714843-44.136719 13.859375-5.738281 1.324218-11.5625 2.472656-17.65625 3.265625-11.683594 1.828125-23.484375 2.859375-35.308594 3.089843-2.914063.179688-5.828125.179688-8.828125.179688s-5.914062 0-8.828125-.179688c-11.824219-.230468-23.625-1.261718-35.308594-3.089843-6.09375-.792969-11.917969-1.941407-17.65625-3.265625-15.136719-3.144532-29.921875-7.785156-44.136719-13.859375-6.179687-2.558594-12.007812-5.296875-17.65625-8.207031-12.429687-6.449219-24.25-14.011719-35.3125-22.601563-6.441406-4.941406-12.269531-9.972656-17.652343-15.003906-13.292969-12.398438-25.136719-26.257813-35.3125-41.316407-.023438-7.867187.832031-15.714843 2.5625-23.390624 2.8125.460937 5.222656 2.277343 6.441406 4.855468 7.582031 12.445313 16.394531 24.097656 26.308594 34.78125 15.394531 16.757813 33.257812 31.078125 52.964843 42.457032 5.5625 3.179687 11.476563 6.269531 17.65625 9.183593 14.164063 6.507813 28.953126 11.5625 44.136719 15.09375 5.738281 1.324219 11.5625 2.472657 17.65625 3.441407 11.6875 1.851562 23.480469 2.941406 35.308594 3.269531 2.914063.175781 5.828125.175781 8.828125.175781s5.914062 0 8.828125-.175781c11.828125-.324219 23.621094-1.414063 35.308594-3.269531 6.09375-.96875 12.007812-2.117188 17.65625-3.53125 15.207031-3.449219 30.003906-8.507813 44.136719-15.09375 6.179687-2.824219 12.09375-5.914063 17.65625-9.09375 12.574218-7.226563 24.402343-15.683594 35.3125-25.246094 6.21875-5.347656 12.117187-11.066406 17.652343-17.125 10.027344-10.84375 18.929688-22.671875 26.570313-35.308594 1.253906-2.34375 3.550781-3.949219 6.179687-4.328125 1.730469 7.648437 2.585938 15.464844 2.5625 23.304687zm0 0"/><path d="m264.828125 353.054688v105.84375c-2.914063.175781-5.828125.175781-8.828125.175781s-5.914062 0-8.828125-.175781v-105.84375c2.914063 0 5.914063.085937 8.828125.085937s5.914062-.085937 8.828125-.085937zm0 0"/><path d="m211.863281 349.523438v104.78125c.03125.480468-.027343.960937-.179687 1.414062-5.914063-.882812-11.738282-1.941406-17.476563-3.175781v-104.695313c-.003906-.660156.085938-1.3125.265625-1.945312 5.648438 1.414062 11.476563 2.5625 17.390625 3.621094zm0 0"/><path d="m150.070312 331.25v103.636719c-.003906 1.210937-.246093 2.410156-.707031 3.53125-5.828125-2.382813-11.566406-5.03125-16.949219-7.859375v-103.457032c.007813-1.382812.339844-2.742187.972657-3.972656 5.382812 2.824219 10.945312 5.5625 16.683593 8.121094zm0 0"/><path d="m97.101562 299.472656v100.542969c.011719 2.148437-.773437 4.226563-2.203124 5.828125-5.445313-4.535156-10.601563-9.398438-15.449219-14.566406v-99.222656c-.003907-2.230469.847656-4.378907 2.382812-6 4.84375 4.746093 9.941407 9.222656 15.269531 13.417968zm0 0"/><path d="m317.792969 347.847656v104.695313c-5.738281 1.234375-11.5625 2.292969-17.476563 3.175781-.152344-.453125-.210937-.933594-.179687-1.414062v-104.78125c5.914062-1.058594 11.742187-2.207032 17.390625-3.621094.179687.632812.269531 1.285156.265625 1.945312zm0 0"/><path d="m379.585938 327.101562v103.457032c-5.382813 2.828125-11.121094 5.476562-16.949219 7.859375-.460938-1.121094-.703125-2.320313-.707031-3.53125v-103.636719c5.738281-2.558594 11.300781-5.296875 16.683593-8.121094.632813 1.230469.964844 2.589844.972657 3.972656zm0 0"/><path d="m432.550781 292.054688v99.222656c-4.847656 5.167968-10.003906 10.03125-15.449219 14.566406-1.429687-1.601562-2.214843-3.679688-2.203124-5.828125v-100.542969c5.328124-4.195312 10.425781-8.671875 15.269531-13.417968 1.535156 1.621093 2.386719 3.769531 2.382812 6zm0 0"/></g><path d="m459.035156 203.074219c-3.636718 0-6.902344-2.226563-8.226562-5.613281-.25-.636719-25.117188-63.796876-50.460938-85.398438-2.398437-2.050781-3.519531-5.226562-2.945312-8.328125.578125-3.101563 2.765625-5.660156 5.738281-6.710937 2.976563-1.054688 6.285156-.4375 8.683594 1.609374 28.671875 24.460938 54.359375 89.636719 55.4375 92.410157 1.058593 2.714843.707031 5.777343-.9375 8.1875-1.648438 2.40625-4.375 3.84375-7.289063 3.84375zm0 0" fill="#955ba5"/><path d="m406.070312 105.96875c0 43.878906-35.570312 79.449219-79.449218 79.449219s-79.449219-35.570313-79.449219-79.449219c0-43.875 35.570313-79.445312 79.449219-79.445312s79.449218 35.570312 79.449218 79.445312zm0 0" fill="#955ba5"/><path d="m397.242188 105.96875c0 39.003906-31.617188 70.621094-70.621094 70.621094-2.949219.003906-5.898438-.171875-8.828125-.527344-35.398438-4.359375-61.988281-34.429688-61.988281-70.09375s26.589843-65.730469 61.988281-70.089844c2.929687-.355468 5.878906-.53125 8.828125-.53125 39.003906 0 70.621094 31.621094 70.621094 70.621094zm0 0" fill="#e6e7e8"/><path d="m379.585938 105.96875c0-38.707031-27.664063-70.089844-61.792969-70.089844-34.128907 0-61.792969 31.382813-61.792969 70.089844 0 38.710938 27.664062 70.09375 61.792969 70.09375 34.128906 0 61.792969-31.382812 61.792969-70.09375zm0 0" fill="#fff"/><path d="m370.757812 105.96875c0 24.378906-19.761718 44.140625-44.136718 44.140625-24.378906 0-44.136719-19.761719-44.136719-44.140625 0-24.375 19.757813-44.136719 44.136719-44.136719 24.375 0 44.136718 19.761719 44.136718 44.136719zm0 0" fill="#67b9cc"/><path d="m353.101562 105.96875c0 14.628906-11.855468 26.484375-26.480468 26.484375s-26.484375-11.855469-26.484375-26.484375c0-14.625 11.859375-26.480469 26.484375-26.480469s26.480468 11.855469 26.480468 26.480469zm0 0" fill="#2c2f38"/><path d="m317.792969 79.488281c0 9.75-7.90625 17.652344-17.65625 17.652344s-17.652344-7.902344-17.652344-17.652344 7.902344-17.65625 17.652344-17.65625 17.65625 7.90625 17.65625 17.65625zm0 0" fill="#fff"/></svg>