<svg height="511pt" viewBox="0 -5 511.82155 511" width="511pt" xmlns="http://www.w3.org/2000/svg"><path d="m486.3125 227.890625c0 52.90625-43.007812 111.101563-91.90625 160.085937l-52.992188 48.46875c-33.277343 27.988282-62.976562 49.152344-76.96875 58.792969-5.460937 3.753907-8.535156 5.71875-8.535156 5.71875s-3.070312-1.964843-8.53125-5.71875c-13.996094-9.640625-43.691406-30.804687-76.972656-58.792969l-52.992188-48.46875c-48.894531-48.984374-91.902343-107.179687-91.902343-160.085937 0-119.808594 98.558593-217.429687 221.867187-221.695313 2.816406-.085937 5.628906-.171874 8.53125-.171874 127.234375 0 230.402344 99.328124 230.402344 221.867187zm0 0" fill="#c03a2b"/><path d="m469.242188 227.890625c0 52.90625-43.007813 111.101563-91.902344 160.085937l-52.992188 48.46875c-33.28125 27.988282-62.976562 49.152344-76.96875 58.792969-13.996094-9.640625-43.691406-30.804687-76.972656-58.792969l-52.992188-48.46875c-48.894531-48.984374-91.902343-107.179687-91.902343-160.085937 0-119.808594 98.558593-217.429687 221.867187-221.695313 123.304688 4.265626 221.863282 101.886719 221.863282 221.695313zm0 0" fill="#e64c3c"/><path d="m149.738281 370.773438c-2.792969-3.730469-8.0625-4.527344-11.835937-1.792969-7.632813 5.402343-14.519532 11.789062-20.480469 18.996093-17.253906 21-29.863281 55.277344 7.316406 100.164063 2.023438 2.480469 5.273438 3.621094 8.40625 2.945313 3.132813-.675782 5.625-3.050782 6.449219-6.148438 4.0625-15.785156 12.867188-38.875 30.820312-48.492188 3.347657-1.78125 6.945313-3.046874 10.667969-3.753906 2.851563-.585937 5.203125-2.59375 6.226563-5.316406 1.023437-2.722656.578125-5.78125-1.183594-8.101562zm0 0" fill="#c03a2b"/><path d="m362.082031 370.773438c2.792969-3.730469 8.0625-4.527344 11.835938-1.792969 7.632812 5.402343 14.519531 11.789062 20.480469 18.996093 17.253906 21 29.867187 55.277344-7.3125 100.164063-2.027344 2.480469-5.273438 3.621094-8.40625 2.945313-3.136719-.675782-5.625-3.050782-6.449219-6.148438-4.0625-15.785156-12.871094-38.875-30.824219-48.492188-3.347656-1.78125-6.941406-3.046874-10.667969-3.753906-2.851562-.585937-5.203125-2.59375-6.226562-5.316406-1.023438-2.722656-.574219-5.78125 1.183593-8.101562zm0 0" fill="#c03a2b"/><path d="m238.84375 210.824219c0 22.628906-8.988281 44.335937-24.992188 60.339843-16.003906 16-37.707031 24.992188-60.339843 24.992188-2.816407 0-5.632813-.171875-8.363281-.425781h-.339844c-43.609375-4.378907-76.8125-41.078125-76.8125-84.90625s33.203125-80.53125 76.8125-84.90625h.339844c2.730468-.257813 5.546874-.429688 8.363281-.429688 22.632812 0 44.335937 8.992188 60.339843 24.996094 16.003907 16.003906 24.992188 37.707031 24.992188 60.339844zm0 0" fill="#e6e7e8"/><path d="m443.644531 210.824219c0 47.128906-38.207031 85.332031-85.332031 85.332031-2.816406 0-5.632812-.171875-8.363281-.425781h-.34375c-43.609375-4.378907-76.808594-41.078125-76.808594-84.90625s33.199219-80.53125 76.808594-84.90625h.34375c2.730469-.257813 5.546875-.429688 8.363281-.429688 47.125 0 85.332031 38.207031 85.332031 85.335938zm0 0" fill="#e6e7e8"/><path d="m221.777344 210.824219c.007812 43.765625-33.09375 80.441406-76.628906 84.90625h-.339844c-43.609375-4.378907-76.8125-41.078125-76.8125-84.90625s33.203125-80.53125 76.8125-84.90625h.339844c43.535156 4.460937 76.636718 41.140625 76.628906 84.90625zm0 0" fill="#fff"/><path d="m426.578125 210.824219c.007813 43.765625-33.09375 80.441406-76.628906 84.90625h-.34375c-43.609375-4.378907-76.808594-41.078125-76.808594-84.90625s33.199219-80.53125 76.808594-84.90625h.34375c43.535156 4.460937 76.636719 41.140625 76.628906 84.90625zm0 0" fill="#fff"/><path d="m204.710938 210.824219c0-47.128907-22.921876-85.335938-51.199219-85.335938-28.277344 0-51.199219 38.207031-51.199219 85.335938 0 47.128906 22.921875 85.332031 51.199219 85.332031 28.277343 0 51.199219-38.203125 51.199219-85.332031zm0 0" fill="#e57e25"/><path d="m179.109375 210.824219c0-47.128907-11.460937-85.335938-25.597656-85.335938-14.140625 0-25.601563 38.207031-25.601563 85.335938 0 47.128906 11.460938 85.332031 25.601563 85.332031 14.136719 0 25.597656-38.203125 25.597656-85.332031zm0 0" fill="#2c2f38"/><path d="m409.511719 210.824219c0-47.128907-22.925781-85.335938-51.199219-85.335938-28.277344 0-51.203125 38.207031-51.203125 85.335938 0 47.128906 22.925781 85.332031 51.203125 85.332031 28.273438 0 51.199219-38.203125 51.199219-85.332031zm0 0" fill="#e57e25"/><path d="m383.910156 210.824219c0-47.128907-11.460937-85.335938-25.597656-85.335938-14.140625 0-25.601562 38.207031-25.601562 85.335938 0 47.128906 11.460937 85.332031 25.601562 85.332031 14.136719 0 25.597656-38.203125 25.597656-85.332031zm0 0" fill="#2c2f38"/><g fill="#c03a2b"><path d="m162.042969 82.824219c-3.667969-.003907-6.925781-2.347657-8.089844-5.828125-.167969-.480469-16.691406-48.445313-53.492187-57.855469-24.601563-6.289063-53.617188 5.75-86.222657 35.8125-3.46875 3.117187-8.800781 2.875-11.96875-.550781-3.167969-3.425782-3-8.757813.378907-11.976563 37.136718-34.296875 71.503906-47.71875 102.136718-39.816406 45.816406 11.777344 64.570313 66.628906 65.347656 68.957031.878907 2.605469.445313 5.472656-1.15625 7.703125-1.605468 2.230469-4.183593 3.554688-6.933593 3.554688zm0 0"/><path d="m349.777344 82.824219c-2.742188-.003907-5.316406-1.324219-6.917969-3.546875s-2.039063-5.082032-1.171875-7.683594c.777344-2.332031 19.53125-57.175781 65.347656-68.957031 30.652344-7.886719 65 5.503906 102.136719 39.789062 3.378906 3.21875 3.546875 8.550781.378906 11.976563-3.167969 3.425781-8.496093 3.667968-11.96875.550781-32.605469-30.097656-61.617187-42.101563-86.296875-35.796875-36.90625 9.496094-53.246094 57.351562-53.417968 57.828125-1.160157 3.484375-4.417969 5.835937-8.089844 5.839844zm0 0"/><path d="m264.445312 432.691406v62.546875c-5.460937 3.753907-8.535156 5.71875-8.535156 5.71875s-3.070312-1.964843-8.53125-5.71875v-62.546875c0-4.714844 3.820313-8.535156 8.53125-8.535156 4.714844 0 8.535156 3.820312 8.535156 8.535156zm0 0"/></g><path d="m290.042969 40.15625c0 18.851562-15.28125 34.132812-34.132813 34.132812-18.851562 0-34.132812-15.28125-34.132812-34.132812s15.28125-34.132812 34.132812-34.132812c18.851563 0 34.132813 15.28125 34.132813 34.132812zm0 0" fill="#f29c1f"/><path d="m255.910156 338.824219c-4.710937 0-8.53125-3.820313-8.53125-8.535157v-34.132812c0-4.710938 3.820313-8.535156 8.53125-8.535156 4.714844 0 8.535156 3.824218 8.535156 8.535156v34.132812c0 4.714844-3.820312 8.535157-8.535156 8.535157zm0 0" fill="#c03a2b"/><path d="m144.976562 176.691406c0 14.136719-11.460937 25.597656-25.597656 25.597656-14.140625 0-25.601562-11.460937-25.601562-25.597656 0-14.140625 11.460937-25.601562 25.601562-25.601562 14.136719 0 25.597656 11.460937 25.597656 25.601562zm0 0" fill="#fff"/><path d="m349.777344 176.691406c0 14.136719-11.460938 25.597656-25.601563 25.597656-14.136719 0-25.597656-11.460937-25.597656-25.597656 0-14.140625 11.460937-25.601562 25.597656-25.601562 14.140625 0 25.601563 11.460937 25.601563 25.601562zm0 0" fill="#fff"/></svg>